<svg width="114" height="56" viewBox="0 0 114 56" fill="none" xmlns="http://www.w3.org/2000/svg">
<g clip-path="url(#clip0_548_2)">
<mask id="mask0_548_2" style="mask-type:luminance" maskUnits="userSpaceOnUse" x="58" y="0" width="56" height="56">
<path d="M113.867 29.3999C113.167 44.0066 101.08 55.6266 86.3334 55.6266C71.5868 55.6266 58.7534 43.2599 58.7534 28.0466C58.7534 12.8332 71.0734 0.466553 86.3334 0.466553C101.593 0.466553 112.42 11.3399 113.773 25.2932H101.267C99.9601 18.2466 93.8001 12.8799 86.3334 12.8799C78.8668 12.8799 71.1668 19.6932 71.1668 28.0466C71.1668 36.3999 77.9801 43.2132 86.3334 43.2132C94.6868 43.2132 98.2801 39.1999 100.473 33.5532H79.4268V29.3999H113.867Z" fill="white"/>
</mask>
<g mask="url(#mask0_548_2)">
<mask id="mask1_548_2" style="mask-type:luminance" maskUnits="userSpaceOnUse" x="-1" y="-5" width="116" height="65">
<path d="M31.6868 -4.2002H82.1801C99.7735 -4.2002 114.053 10.0798 114.053 27.6731C114.053 45.2665 99.7735 59.5465 82.1801 59.5465H31.6868C14.0935 59.4998 -0.186523 45.2665 -0.186523 27.6731C-0.186523 10.0798 14.0935 -4.2002 31.6868 -4.2002Z" fill="white"/>
</mask>
<g mask="url(#mask1_548_2)">
<path d="M31.6868 -4.2002H82.1801C99.7735 -4.2002 114.053 10.0798 114.053 27.6731C114.053 45.2665 99.7735 59.5465 82.1801 59.5465H31.6868C14.0935 59.4998 -0.186523 45.2665 -0.186523 27.6731C-0.186523 10.0798 14.0935 -4.2002 31.6868 -4.2002Z" fill="url(#paint0_linear_548_2)"/>
</g>
</g>
<mask id="mask2_548_2" style="mask-type:luminance" maskUnits="userSpaceOnUse" x="-1" y="0" width="57" height="56">
<path d="M9.1 48.3932C19.9267 58.1932 36.68 57.8666 47.0867 47.4599C57.8667 36.6799 57.8667 19.2266 47.0867 8.44657C36.3067 -2.33343 18.8533 -2.33343 8.07334 8.44657C-2.05333 18.5732 -2.66 34.5799 6.20667 45.4066L15.0733 36.5399C11.0133 30.6132 11.5733 22.4932 16.8467 17.2199C22.7733 11.2932 32.3867 11.2932 38.3133 17.2199C44.24 23.1466 44.24 32.7599 38.3133 38.6866C33.7867 43.2132 27.0667 44.2866 21.5133 41.8599L36.4 26.9732L33.46 24.0332L9.1 48.3932Z" fill="white"/>
</mask>
<g mask="url(#mask2_548_2)">
<mask id="mask3_548_2" style="mask-type:luminance" maskUnits="userSpaceOnUse" x="-1" y="-5" width="116" height="65">
<path d="M31.6866 -4.2002H82.1799C99.7732 -4.2002 114.053 10.0798 114.053 27.6731C114.053 45.2665 99.7732 59.5465 82.1799 59.5465H31.6866C14.0932 59.4998 -0.186768 45.2665 -0.186768 27.6731C-0.186768 10.0798 14.0932 -4.2002 31.6866 -4.2002Z" fill="white"/>
</mask>
<g mask="url(#mask3_548_2)">
<path d="M31.6866 -4.2002H82.1799C99.7732 -4.2002 114.053 10.0798 114.053 27.6731C114.053 45.2665 99.7732 59.5465 82.1799 59.5465H31.6866C14.0932 59.4998 -0.186768 45.2665 -0.186768 27.6731C-0.186768 10.0798 14.0932 -4.2002 31.6866 -4.2002Z" fill="url(#paint1_linear_548_2)"/>
</g>
</g>
</g>
<defs>
<linearGradient id="paint0_linear_548_2" x1="112.56" y1="12.9731" x2="-1.95986" y2="43.2131" gradientUnits="userSpaceOnUse">
<stop stop-color="#FFDB3B"/>
<stop offset="0.2" stop-color="#FF6270"/>
<stop offset="0.4" stop-color="#FF1CE6"/>
<stop offset="0.6" stop-color="#B14EFF"/>
<stop offset="0.8" stop-color="#3BADFF"/>
<stop offset="1" stop-color="#6BE5FF"/>
</linearGradient>
<linearGradient id="paint1_linear_548_2" x1="112.56" y1="12.9731" x2="-1.9601" y2="43.2131" gradientUnits="userSpaceOnUse">
<stop stop-color="#FFDB3B"/>
<stop offset="0.2" stop-color="#FF6270"/>
<stop offset="0.4" stop-color="#FF1CE6"/>
<stop offset="0.6" stop-color="#B14EFF"/>
<stop offset="0.8" stop-color="#3BADFF"/>
<stop offset="1" stop-color="#6BE5FF"/>
</linearGradient>
<clipPath id="clip0_548_2">
<rect width="113.867" height="56" fill="white"/>
</clipPath>
</defs>
</svg>
