<svg width="275" height="56" viewBox="0 0 275 56" fill="none" xmlns="http://www.w3.org/2000/svg">
<path fill-rule="evenodd" clip-rule="evenodd" d="M18.526 9.21836C17.28 9.34723 16.2992 9.92836 15.607 10.9477C15.4585 11.1663 15.1449 11.7533 14.9101 12.2521C14.6753 12.7509 14.0291 14.0746 13.474 15.1935C11.4876 19.1977 10.1807 21.8505 7.1446 28.0397C2.1436 38.235 0.571636 41.4558 0.43222 41.7929C0.359843 41.9678 0.281343 42.3822 0.257793 42.7138C0.164849 44.0195 0.592046 45.2355 1.40507 45.9794C2.30076 46.7988 3.00121 47.0385 4.33909 46.9838C5.44539 46.9384 5.55882 46.8835 8.08526 45.1701C12.6746 42.0576 14.9309 40.8522 18.7222 39.4877C21.5219 38.4801 23.494 37.9726 26.1405 37.5786C26.5507 37.5175 27.2572 37.4123 27.7105 37.3448C29.7518 37.0406 30.1106 36.9355 30.8544 36.4241C31.9229 35.6893 32.5308 34.5227 32.5308 33.2071C32.5308 32.3859 32.4589 32.1392 31.8388 30.8348C30.1864 27.3583 22.7987 12.322 22.2631 11.3452C21.7137 10.3431 21.2065 9.8456 20.4189 9.53619C19.8934 9.32974 18.9618 9.17328 18.526 9.21836ZM15.9803 27.7615C14.4734 30.8222 13.2571 33.3433 13.2775 33.364C13.298 33.3847 13.7366 33.238 14.2522 33.038C14.7679 32.838 15.2781 32.6453 15.386 32.6098C15.4939 32.5744 16.0415 32.3791 16.6027 32.1759C17.164 31.9727 17.8617 31.7371 18.1531 31.6522C18.4446 31.5673 18.9391 31.4234 19.2521 31.3325C19.5652 31.2414 20.2098 31.0653 20.6847 30.9411C21.1597 30.8168 21.8276 30.6409 22.1692 30.55C22.5107 30.4592 22.8021 30.3849 22.8168 30.3849C22.8315 30.3849 22.8435 30.3498 22.8435 30.3068C22.8435 30.1326 18.9005 22.1966 18.8139 22.1966C18.7625 22.1966 17.4874 24.7008 15.9803 27.7615Z" fill="url(#paint0_linear_22_742)"/>
<path fill-rule="evenodd" clip-rule="evenodd" d="M63.377 11.0463C63.3067 11.2107 63.2231 11.4167 63.191 11.5042C63.159 11.5916 63.0776 11.8063 63.0101 11.9812C62.9427 12.1561 62.6361 12.9789 62.3289 13.8096C62.0217 14.6404 61.6849 15.5347 61.5805 15.7971C61.4762 16.0594 61.2098 16.7749 60.9886 17.387C60.7673 17.9992 60.5399 18.6073 60.4832 18.7385C60.4263 18.8697 60.1106 19.7103 59.7815 20.6067C59.4524 21.503 59.1272 22.3795 59.0589 22.5544C58.9906 22.7293 58.9078 22.9439 58.875 23.0314C58.8422 23.1188 58.7598 23.3335 58.6919 23.5084C58.5387 23.9027 57.7602 25.9908 57.4469 26.8473C57.3189 27.1971 57.148 27.6469 57.0672 27.8469C56.9862 28.0469 56.8618 28.3867 56.7907 28.6021C56.7196 28.8175 56.6167 29.101 56.5619 29.2322C56.4018 29.6158 56.1067 30.395 55.463 32.1339C55.1312 33.0302 54.8313 33.8351 54.7965 33.9226C54.5832 34.4593 54.423 34.8866 53.8874 36.3473C53.5588 37.2436 53.22 38.1488 53.1347 38.359C53.0493 38.5691 52.8071 39.213 52.5963 39.7899C52.3856 40.3668 51.9774 41.4649 51.6892 42.2301C50.8836 44.3692 50.7919 44.6341 50.8341 44.7033C50.8557 44.7387 52.493 44.7686 54.4725 44.7699L58.0717 44.7723L58.1524 44.5546C58.1967 44.4348 58.3287 44.0506 58.4456 43.7008C58.5626 43.351 58.707 42.9521 58.7666 42.8143C58.8263 42.6766 58.875 42.5126 58.875 42.45C58.875 42.3874 58.8965 42.3144 58.9227 42.2878C58.949 42.2612 59.0733 41.9244 59.1991 41.5392C59.3248 41.154 59.4595 40.7673 59.4982 40.6799C59.5371 40.5925 59.7156 40.0916 59.8951 39.5669C60.2945 38.3987 60.5897 37.559 60.6846 37.3206L60.7561 37.1413L67.0879 37.1616C72.6244 37.1794 73.427 37.1969 73.478 37.3012C73.608 37.567 73.71 37.85 73.9078 38.4937C74.022 38.8654 74.1468 39.241 74.1851 39.3284C74.2234 39.4159 74.4742 40.1493 74.7422 40.9581C75.0102 41.767 75.395 42.9253 75.5972 43.532C75.7994 44.1389 76.0193 44.6662 76.0858 44.7038C76.2244 44.7824 83.4058 44.7614 83.4839 44.6822C83.5453 44.62 83.4622 44.3681 82.7805 42.5481C82.4939 41.7829 82.2048 40.9959 82.1381 40.7991C82.0715 40.6024 81.9709 40.3341 81.9145 40.2029C81.8583 40.0717 81.7177 39.6961 81.6021 39.3682C81.4865 39.0403 81.3595 38.7004 81.3199 38.613C81.2803 38.5255 81.1458 38.1678 81.0211 37.818C80.8135 37.2356 80.3758 36.0491 79.1291 32.6904C78.8775 32.0126 78.4351 30.8142 78.1459 30.0272C77.5955 28.5293 77.5744 28.4728 77.3739 27.9602C77.269 27.692 76.4887 25.5656 76.207 24.7803C76.1599 24.6492 76.0761 24.4345 76.0207 24.3033C75.9653 24.1722 75.7394 23.564 75.5187 22.9519C75.2981 22.3397 75.0679 21.7137 75.0072 21.5607C74.6108 20.5613 73.5545 17.6579 73.5545 17.5679C73.5545 17.5078 73.5243 17.4246 73.4874 17.383C73.4505 17.3415 73.2726 16.8961 73.0919 16.3933C72.9114 15.8905 72.7142 15.3539 72.6537 15.2008C72.5933 15.0478 72.2585 14.1534 71.9096 13.2134C71.5608 12.2733 71.2129 11.3432 71.1367 11.1464L70.998 10.7887L67.2514 10.768L63.5047 10.7474L63.377 11.0463ZM103.051 16.9224C103.037 21.4083 103.007 23.1058 102.943 23.1274C102.894 23.1438 102.672 22.907 102.448 22.6012C102.052 22.0609 101.391 21.4223 100.912 21.1178C100.782 21.0354 100.659 20.9452 100.637 20.9172C100.615 20.8893 100.227 20.6862 99.7735 20.466C98.954 20.0679 97.9582 19.758 96.9083 19.5742C96.2771 19.4637 94.6146 19.5013 93.749 19.6456C91.7927 19.9717 90.0165 20.891 88.5198 22.3521C87.6873 23.1648 87.058 24.026 86.4681 25.1597C86.0504 25.9625 85.4017 27.7683 85.2906 28.4372C85.2615 28.6121 85.207 28.8625 85.1693 28.9937C84.9178 29.8692 84.8504 33.162 85.0521 34.7176C85.2294 36.0848 85.2827 36.315 85.7785 37.8548C86.7085 40.7427 88.5077 42.9741 90.9423 44.2588C93.1317 45.4142 96.3527 45.6518 99.06 44.8576C100.611 44.4026 102.048 43.3344 102.879 42.0189C103.34 41.2889 103.378 41.3729 103.403 43.1642L103.424 44.7343L106.368 44.7565C107.987 44.7686 109.391 44.7589 109.488 44.735L109.665 44.6914L109.645 27.74L109.625 10.7887L106.348 10.7679L103.071 10.7472L103.051 16.9224ZM145.539 16.3774C145.539 19.1033 145.515 20.0424 145.445 20.1138C145.377 20.1829 144.813 20.2092 143.403 20.2092H141.455L141.475 22.3755L141.496 24.5418L143.498 24.5816L145.5 24.6213L145.542 32.6506C145.566 37.0667 145.613 40.7693 145.648 40.8786C145.682 40.988 145.766 41.2542 145.832 41.4703C146.013 42.0524 146.458 42.7751 146.908 43.2169C147.334 43.6352 148.054 44.1381 148.228 44.1381C148.286 44.1381 148.367 44.168 148.408 44.2044C148.673 44.4402 149.994 44.7279 151.427 44.8617C152.374 44.9503 155.491 44.914 156.549 44.8021L157 44.7543V42.1713V39.5882L156.784 39.6422C156.665 39.6719 156.038 39.7156 155.391 39.7392C153.23 39.8181 152.499 39.4399 152.217 38.0962C152.149 37.7767 152.131 35.9031 152.148 31.1402L152.172 24.6213L154.586 24.6003L157 24.5793V22.3954V20.2115L154.586 20.1904L152.172 20.1694L152.152 16.4529L152.131 12.7364H148.835H145.539V16.3774ZM67.0448 19.1647C66.9936 19.2618 66.8678 19.5991 66.7655 19.9143C66.6631 20.2295 66.344 21.1493 66.0563 21.9581C65.7686 22.767 65.3935 23.8403 65.2228 24.3431C65.052 24.8459 64.8811 25.3289 64.8431 25.4163C64.805 25.5038 64.6431 25.9509 64.4834 26.41C64.3236 26.8691 64.1049 27.4952 63.9973 27.8012C63.8897 28.1073 63.6322 28.8407 63.4251 29.4309C63.218 30.0212 62.9749 30.709 62.885 30.9593C62.7951 31.2096 62.7215 31.469 62.7215 31.5357C62.7215 31.6429 63.2303 31.6569 67.1175 31.6569C69.5353 31.6569 71.5135 31.6342 71.5135 31.6064C71.5135 31.5458 70.9778 29.9354 70.8824 29.7092C70.8455 29.6217 70.6924 29.1746 70.5422 28.7155C70.392 28.2564 70 27.0937 69.6711 26.1318C68.7551 23.4532 68.3401 22.228 68.0688 21.4017C67.9324 20.9863 67.7907 20.5916 67.7539 20.5246C67.7171 20.4575 67.6607 20.2787 67.6287 20.1271C67.5966 19.9755 67.544 19.8157 67.5117 19.772C67.4796 19.7282 67.4322 19.603 67.4065 19.4937C67.3808 19.3844 67.31 19.2259 67.249 19.1415C67.1406 18.9914 67.1362 18.9919 67.0448 19.1647ZM125.197 19.5312C125.171 19.5569 124.837 19.6139 124.455 19.658C123.598 19.7565 121.906 20.1818 121.636 20.3666C121.593 20.3962 121.381 20.4865 121.165 20.5673C119.407 21.2258 117.349 22.9202 116.236 24.6247C115.428 25.8621 114.987 26.8911 114.449 28.795C114.131 29.922 113.978 32.5012 114.137 34.0816C114.274 35.4524 114.346 35.8026 114.77 37.182C115.956 41.0367 118.961 43.9064 122.811 44.8617C125.288 45.4762 128.104 45.4741 130.474 44.8557C132.926 44.2155 135.206 42.7701 136.571 40.989C137.174 40.2018 137.826 39.0611 138.201 38.136C138.272 37.9611 138.375 37.7107 138.431 37.5795C138.516 37.3757 138.694 36.6753 139.016 35.274C139.056 35.0991 139.133 34.39 139.188 33.6982C139.321 31.989 139.179 30.1988 138.779 28.5565C138.665 28.0895 138.336 27.0708 138.201 26.7678C137.76 25.7767 137.622 25.5024 137.281 24.9456C136.201 23.1819 134.659 21.7957 132.744 20.8649C131.473 20.2477 130.148 19.8355 128.807 19.6402C128.16 19.5462 125.268 19.4588 125.197 19.5312ZM96.869 24.5108C96.0357 24.5794 95.5899 24.7021 94.8376 25.0697C93.9804 25.4885 92.9572 26.4985 92.5324 27.3454C92.1639 28.08 91.8029 29.1773 91.7024 29.8682C91.4627 31.5168 91.4366 31.8377 91.4759 32.6506C91.5714 34.6208 91.8274 35.7626 92.478 37.12C92.8994 37.9992 93.0099 38.1586 93.642 38.7988C94.384 39.5502 94.9877 39.9185 95.9663 40.2164C96.6459 40.4234 98.277 40.4181 99.0278 40.2065C100.804 39.7058 102.042 38.4235 102.715 36.3875C103.358 34.4419 103.441 31.2224 102.903 29.0732C102.346 26.8454 100.785 25.085 98.9885 24.6588C98.3699 24.5122 97.549 24.4548 96.869 24.5108ZM125.404 24.5817C125.317 24.6196 125.112 24.6728 124.948 24.6999C124.545 24.7666 123.561 25.2915 123.063 25.7058C122.309 26.3327 121.657 27.2526 121.355 28.1192C120.959 29.2525 120.834 29.8795 120.724 31.2817C120.515 33.9436 120.972 36.4256 121.96 37.997C122.505 38.863 123.639 39.7753 124.504 40.0431C124.74 40.1162 125.011 40.2077 125.107 40.2464C125.203 40.2852 125.645 40.3387 126.089 40.3653C128.704 40.5224 130.546 39.5353 131.658 37.3807C131.805 37.0965 131.99 36.6494 132.07 36.387C132.151 36.1247 132.245 35.8385 132.281 35.751C132.366 35.5466 132.484 34.7244 132.6 33.5451C132.789 31.6109 132.387 28.8601 131.745 27.698C131.631 27.4925 131.465 27.1841 131.375 27.0128C131.086 26.4582 130.079 25.5175 129.382 25.1501C128.468 24.6686 127.737 24.5036 126.542 24.5087C126.002 24.511 125.49 24.5438 125.404 24.5817Z" fill="#E9E9E9"/>
<ellipse cx="33.441" cy="43.1841" rx="3.768" ry="3.8159" fill="#5AE1DB"/>
<defs>
<linearGradient id="paint0_linear_22_742" x1="18.055" y1="9.23847" x2="36.2837" y2="46.8206" gradientUnits="userSpaceOnUse">
<stop stop-color="#0986F1"/>
<stop offset="1" stop-color="#61E8DA"/>
</linearGradient>
</defs>
</svg>
