<svg width="72" height="56" viewBox="0 0 72 56" fill="none" xmlns="http://www.w3.org/2000/svg">
<g clip-path="url(#clip0_548_24)">
<path d="M45.2794 0.428414C45.7691 0.673222 46.4015 1.14244 46.6871 1.50965C47.0951 2.01967 50.5632 9.05792 56.051 20.5027C56.8875 22.2776 58.3767 25.3377 61.4572 31.7231C62.2733 33.396 63.5177 35.9665 64.2113 37.4353C64.9049 38.8838 66.1902 41.5563 67.0674 43.3515C71.1884 51.8382 71.3108 52.1239 71.3108 52.9399C71.3108 53.9803 70.8008 55.0004 69.9643 55.5104C69.3319 55.898 68.9647 55.898 59.1111 55.8572L48.9108 55.796L47.6051 55.2044C46.8911 54.8576 45.4631 53.9599 44.443 53.1847C43.423 52.4095 41.5869 51.0222 40.3425 50.0838C39.1184 49.1658 36.8131 47.4113 35.2423 46.2076C33.6714 45.004 30.7337 42.7803 28.7141 41.2503C26.6944 39.7406 24.9195 38.4146 24.7971 38.2922C24.5931 38.1494 23.8587 39.5162 21.839 43.678C20.3498 46.7585 18.4933 50.553 17.6977 52.1239C15.678 56.1428 16.3104 55.898 8.41533 55.898C2.51952 55.898 2.15231 55.8776 1.51989 55.49C0.642654 54.9596 -0.0305695 53.4907 0.173438 52.5727C0.23464 52.2259 2.51952 47.3501 5.21242 41.7399C8.88455 34.1508 10.3126 31.3763 10.843 30.8663C12.1283 29.6219 12.7199 29.5607 21.5126 29.6219C29.1221 29.6831 29.3465 29.7035 30.0809 30.1319C30.4889 30.3767 33.1002 32.2127 35.8543 34.212C38.6288 36.2113 42.8722 39.2714 45.2998 41.0259C47.7479 42.8007 49.7472 44.2084 49.788 44.1676C49.89 44.086 48.7884 41.7807 43.5046 30.9071C42.4641 28.765 41.2809 26.2965 40.8525 25.3989C40.4241 24.5013 39.2204 21.9716 38.1596 19.7887C37.1192 17.6058 36.1603 15.5862 36.0379 15.3005C35.8339 14.8313 35.6911 15.0149 34.2223 17.9526C33.3654 19.6867 32.4474 21.3392 32.2026 21.584C31.3049 22.5836 30.8357 22.6448 24.3279 22.6448C18.3709 22.6448 18.2485 22.6448 17.5753 22.1756C16.6368 21.5636 16.1268 20.5231 16.2288 19.4827C16.29 19.0339 17.0244 17.2386 17.8609 15.5045C18.6973 13.7705 20.4926 10.0372 21.8594 7.24226C23.2059 4.42695 24.5523 1.85647 24.8175 1.50965C25.1031 1.16284 25.7151 0.673222 26.2048 0.428414C27.0616 0.0203991 27.3064 2.69073e-07 35.7319 2.69073e-07C44.137 2.69073e-07 44.4226 0.0203991 45.2794 0.428414Z" fill="white"/>
</g>
<defs>
<clipPath id="clip0_548_24">
<rect width="71.4535" height="56" fill="white"/>
</clipPath>
</defs>
</svg>
