<svg width="56" height="56" viewBox="0 0 56 56" fill="none" xmlns="http://www.w3.org/2000/svg">
<g clip-path="url(#clip0_548_115)">
<path d="M45.1307 33.1174C45.6097 31.5407 45.8706 29.8698 45.8706 28.1391C45.8706 27.9469 45.8634 27.7582 45.8563 27.5658C38.9828 23.5875 33.8001 15.0642 31.6304 11.0193C30.4581 10.7818 29.2429 10.6593 27.999 10.6593C26.7551 10.6593 25.622 10.7783 24.4854 10.9984C23.5168 12.7883 21.9549 15.4628 19.9032 18.2351C17.5369 21.4339 14.1449 25.2585 10.1418 27.5797C10.1346 27.7651 10.1274 27.9504 10.1274 28.1391C10.1274 29.8733 10.3884 31.5477 10.8708 33.1278C13.8411 31.761 16.5363 29.7368 18.9059 27.454C17.2152 31.366 15.3315 35.1625 13.3693 38.1725C14.4273 39.6478 15.7141 40.9553 17.1761 42.0462C19.3205 38.9766 21.4866 34.9389 23.6597 29.9502C22.8913 35.0821 21.7761 39.5746 20.1676 43.857C21.7619 44.6191 23.4917 45.1541 25.311 45.4232C26.462 42.5496 27.3699 39.6934 28.0848 35.977C28.8031 39.6794 29.7147 42.5286 30.8657 45.3918C32.6778 45.105 34.397 44.5528 35.9804 43.7766C34.4257 39.6478 33.332 35.3198 32.5599 30.3381C34.6688 35.1346 36.774 39.0326 38.8542 42.0181C40.3162 40.9239 41.5992 39.6095 42.6538 38.1307C40.7057 35.1311 38.8364 31.3625 37.1564 27.4784C39.5084 29.7473 42.1783 31.7576 45.1272 33.1174H45.1307Z" fill="#F2F2F2"/>
<path d="M27.9091 53.0698C41.805 53.0698 53.0698 41.805 53.0698 27.9091C53.0698 14.0133 41.805 2.74854 27.9091 2.74854C14.0133 2.74854 2.74854 14.0133 2.74854 27.9091C2.74854 41.805 14.0133 53.0698 27.9091 53.0698Z" stroke="#F2F2F2" stroke-width="6"/>
</g>
<defs>
<clipPath id="clip0_548_115">
<rect width="56" height="56" fill="white"/>
</clipPath>
</defs>
</svg>
