<svg width="273" height="273" viewBox="0 0 273 273" fill="none" xmlns="http://www.w3.org/2000/svg">
<g clip-path="url(#clip0_548_115)">
<path d="M220.012 161.447C222.347 153.761 223.619 145.615 223.619 137.178C223.619 136.241 223.584 135.321 223.549 134.383C190.041 114.989 164.775 73.438 154.198 53.719C148.483 52.561 142.559 51.964 136.495 51.964C130.431 51.964 124.907 52.544 119.366 53.617C114.644 62.343 107.03 75.381 97.0281 88.896C85.4921 104.49 68.9561 123.135 49.4411 134.451C49.4061 135.355 49.3711 136.258 49.3711 137.178C49.3711 145.632 50.6431 153.795 52.9951 161.498C67.4751 154.835 80.6141 144.967 92.1661 133.838C83.9241 152.909 74.7411 171.417 65.1751 186.091C70.3331 193.283 76.6061 199.657 83.7331 204.975C94.1871 190.011 104.747 170.327 115.341 146.007C111.595 171.025 106.158 192.926 98.3171 213.803C106.089 217.518 114.522 220.126 123.391 221.438C129.002 207.429 133.428 193.505 136.913 175.388C140.415 193.437 144.859 207.327 150.47 221.285C159.304 219.887 167.685 217.195 175.404 213.411C167.825 193.283 162.493 172.184 158.729 147.898C169.01 171.281 179.273 190.284 189.414 204.838C196.541 199.504 202.796 193.096 207.937 185.887C198.44 171.264 189.327 152.892 181.137 133.957C192.603 145.018 205.619 154.818 219.995 161.447H220.012Z" fill="#F2F2F2"/>
<path d="M136.057 258.715C203.799 258.715 258.715 203.799 258.715 136.057C258.715 68.3149 203.799 13.399 136.057 13.399C68.3148 13.399 13.3989 68.3149 13.3989 136.057C13.3989 203.799 68.3148 258.715 136.057 258.715Z" stroke="#F2F2F2" stroke-width="26.7967"/>
</g>
<defs>
<clipPath id="clip0_548_115">
<rect width="273" height="273" fill="white"/>
</clipPath>
</defs>
</svg>
