<svg width="446" height="46" viewBox="0 0 446 46" fill="none" xmlns="http://www.w3.org/2000/svg">
<g clip-path="url(#clip0_548_31)">
<path fill-rule="evenodd" clip-rule="evenodd" d="M53.3333 8.26691L48.6667 4.13358L43.8667 0.000244141H9.46667L4.66666 4.13358L0 8.26691V45.3336H4C8 45.3336 8 45.2002 8 38.0002V30.6669H45.3333V38.0002C45.3333 45.2002 45.3333 45.3336 49.3333 45.3336H53.3333V8.26691ZM112 9.33359V0.000244141H71.2L66.2667 5.06689C60.1333 11.3336 59.8667 15.6003 65.4667 22.0002L69.6 26.6669H105.333V36.0002H64V45.3336H104.8L109.733 40.2669C115.867 34.0002 116.133 29.7336 110.533 23.3336L106.4 18.6669H70.6667V9.33359H112ZM152 9.33359V0.000244141H118.667V9.33359H152ZM170.667 45.3336V0.000244141H162.667V45.3336H170.667ZM228 9.33359V0.000244141H188.133L183.333 4.13358C177.067 9.73358 176.8 16.9336 182.533 22.8002L186.4 26.6669H221.333V36.0002H179.867L180.267 40.2669L180.667 44.6669L221.6 45.4669L226.133 40.6669C232.267 34.1336 232.267 28.8002 226.267 22.9336L221.867 18.6669H186.667V9.33359H228ZM288.133 9.33359L287.733 4.93356L287.333 0.666901L261.067 0.266907L234.667 0.000244141V9.20023L256.667 10.0002L257.467 45.3336H265.333V9.33359H288.133ZM344 9.33359V0.000244141H319.333C300.267 0.000244141 294.4 0.400238 293.867 1.73358C293.6 2.6669 293.467 12.6669 293.6 24.0002L294 44.6669L319.067 45.0669L344 45.3336V36.0002H302.667V26.6669H340V18.6669H302.667V9.33359H344ZM405.333 16.0002C405.333 10.6669 404.667 9.20023 400.267 4.93356L395.2 0.000244141H354.667V45.4669L359.067 45.0669C363.2 44.6669 363.333 44.4002 364 37.7336L364.667 30.8002L381.2 38.1336C398.533 45.8669 404.4 46.8002 405.067 42.0002C405.333 39.8669 403.733 38.5336 397.067 35.4669C389.2 31.7336 388.933 31.4669 392.667 30.9336C394.933 30.6669 398.667 28.5336 401.067 26.2669C404.667 22.8002 405.333 21.2002 405.333 16.0002ZM445.333 15.8669C445.333 9.33359 444.8 8.00024 440.933 4.26691L436.533 0.000244141H404.8L409.333 4.6669C411.031 6.41461 412.093 7.50778 413.374 8.19156C415.512 9.33359 418.261 9.33359 425.6 9.33359H437.333V22.6669H425.6C414.267 22.6669 413.733 22.8002 410 26.6669C407.867 28.8002 406.4 30.9336 406.8 31.2002C407.067 31.4669 414.133 34.8002 422.533 38.5336C439.867 46.2669 445.333 47.0669 445.333 42.1336C445.333 39.4669 443.867 38.1336 437.067 34.9336L436.448 34.6342C428.796 30.9335 428.79 30.9301 433.467 30.8002C440.933 30.6669 445.333 25.0669 445.333 15.8669ZM149.867 40.5336C156.267 34.1336 156.4 28.8002 150.267 22.9336L145.867 18.6669H114.133L118 22.6669C121.733 26.5336 122.267 26.6669 133.6 26.6669H145.333V36.0002H134.267C123.333 36.0002 123.067 36.1336 118.667 40.6669L114.133 45.3336H145.067L149.867 40.5336ZM10.2667 11.7336C8.93333 13.067 8 16.1336 8 18.4003V22.667H45.3333V18.267C45.3333 10.667 42.5333 9.33362 26.4 9.33362C14.5333 9.33362 12.1333 9.73361 10.2667 11.7336ZM364 22.667H396V9.33362H364V22.667Z" fill="white"/>
</g>
<defs>
<clipPath id="clip0_548_31">
<rect width="446" height="46" fill="white"/>
</clipPath>
</defs>
</svg>
