<svg width="543" height="56" viewBox="0 0 543 56" fill="none" xmlns="http://www.w3.org/2000/svg">
<g clip-path="url(#clip0_548_31)">
<path fill-rule="evenodd" clip-rule="evenodd" d="M64.9275 10.0638L59.2464 5.03188L53.4029 0H11.5246L5.68116 5.03188L0 10.0638V55.1884H4.86957C9.73913 55.1884 9.73913 55.0261 9.73913 46.2609V37.3333H55.1884V46.2609C55.1884 55.0261 55.1884 55.1884 60.058 55.1884H64.9275V10.0638ZM136.348 11.3623V0H86.6783L80.6725 6.1681C73.2058 13.7971 72.8812 18.9913 79.6986 26.7826L84.7304 32.4638H128.232V43.8261H77.913V55.1884H127.583L133.588 49.0203C141.055 41.3913 141.38 36.1971 134.562 28.4058L129.53 22.7246H86.029V11.3623H136.348ZM185.044 11.3623V0H144.464V11.3623H185.044ZM207.768 55.1884V0H198.029V55.1884H207.768ZM277.565 11.3623V0H229.032L223.188 5.03188C215.559 11.8493 215.235 20.6145 222.215 27.7565L226.922 32.4638H269.449V43.8261H218.968L219.455 49.0203L219.942 54.3768L269.774 55.3507L275.293 49.5072C282.759 41.5536 282.759 35.0609 275.455 27.9188L270.099 22.7246H227.246V11.3623H277.565ZM350.771 11.3623L350.284 6.00578L349.797 0.811582L317.82 0.324633L285.681 0V11.2L312.464 12.1739L313.438 55.1884H323.015V11.3623H350.771ZM418.783 11.3623V0H388.754C365.542 0 358.4 0.486949 357.751 2.11015C357.426 3.24636 357.264 15.4203 357.426 29.2174L357.913 54.3768L388.429 54.8638L418.783 55.1884V43.8261H368.464V32.4638H413.913V22.7246H368.464V11.3623H418.783ZM493.449 19.4783C493.449 12.9855 492.638 11.2 487.281 6.00578L481.113 0H431.768V55.3507L437.125 54.8638C442.157 54.3768 442.319 54.0522 443.13 45.9362L443.942 37.4956L464.07 46.4232C485.171 55.8377 492.313 56.9739 493.125 51.1304C493.449 48.5333 491.502 46.9101 483.386 43.1768C473.809 38.6319 473.484 38.3073 478.029 37.658C480.788 37.3333 485.333 34.7362 488.255 31.9768C492.638 27.7565 493.449 25.8087 493.449 19.4783ZM542.145 19.3159C542.145 11.3623 541.496 9.73913 536.788 5.1942L531.432 0H492.8L498.319 5.68115C500.386 7.8088 501.679 9.13961 503.237 9.97203C505.841 11.3623 509.187 11.3623 518.122 11.3623H532.406V27.5942H518.122C504.325 27.5942 503.675 27.7565 499.13 32.4638C496.533 35.0609 494.748 37.658 495.235 37.9826C495.559 38.3073 504.162 42.3652 514.388 46.9101C535.49 56.3246 542.145 57.2985 542.145 51.2927C542.145 48.0464 540.359 46.4232 532.081 42.5275L531.328 42.1631C522.013 37.6578 522.005 37.6538 527.699 37.4956C536.788 37.3333 542.145 30.5159 542.145 19.3159ZM182.446 49.3449C190.238 41.5536 190.4 35.0609 182.933 27.9188L177.577 22.7246H138.945L143.652 27.5942C148.197 32.3014 148.846 32.4638 162.643 32.4638H176.928V43.8261H163.455C150.145 43.8261 149.82 43.9884 144.464 49.5072L138.945 55.1884H176.603L182.446 49.3449ZM12.4985 14.2841C10.8754 15.9073 9.73913 19.6407 9.73913 22.4001V27.5943H55.1884V22.2377C55.1884 12.9856 51.7797 11.3624 32.1391 11.3624C17.6927 11.3624 14.771 11.8493 12.4985 14.2841ZM443.13 27.5943H482.087V11.3624H443.13V27.5943Z" fill="white"/>
</g>
<defs>
<clipPath id="clip0_548_31">
<rect width="542.957" height="56" fill="white"/>
</clipPath>
</defs>
</svg>
