<svg width="238" height="56" viewBox="0 0 238 56" fill="none" xmlns="http://www.w3.org/2000/svg">
<path d="M18.8312 9.76826C13.2242 15.1285 6.70025 21.3703 4.33753 23.6625L0 27.8237L12.272 39.5668C19.0076 46.0202 25.6373 52.3678 26.9773 53.6373L29.4458 56L36.6751 48.9824L43.9043 41.9647L36.6751 34.9118L29.4458 27.8589L36.6045 20.8766C40.5189 17.068 43.728 13.8237 43.728 13.7179C43.728 13.4005 29.6927 -1.51992e-06 29.3401 -1.51992e-06C29.199 -1.51992e-06 24.4736 4.40806 18.8312 9.76826Z" fill="white"/>
<path d="M70.4938 20.7002C62.4535 28.3878 55.8943 34.806 55.8943 34.9118C55.8943 35.1586 69.9296 48.6649 70.2822 48.7707C70.388 48.806 73.7381 45.6674 77.7583 41.8236L85.0228 34.806L87.2091 36.8866C97.0127 46.3375 99.4812 48.6649 99.728 48.6649C100.01 48.6649 114.045 35.3702 114.186 34.9823C114.222 34.806 111.118 31.7027 107.31 28.0352C103.466 24.3677 96.9069 18.0906 92.7104 14.0704L85.0933 6.73544L70.4938 20.7002Z" fill="white"/>
<path d="M186.443 13.8942L179.144 20.9823L193.531 34.7002C201.466 42.2821 208.131 48.5239 208.343 48.5944C208.695 48.7002 237.683 21.2644 237.683 20.7707C237.683 20.4181 223.506 7.05286 223.154 7.05286C222.977 7.05286 220.72 9.06293 218.181 11.5314C215.607 14 212.398 17.1385 210.987 18.4786L208.448 20.9118L201.113 13.8589L193.778 6.77074L186.443 13.8942Z" fill="white"/>
<path d="M125.894 27.8588V47.6069H136.297H146.7V37.7329V27.8588H157.103H167.506V17.9848V8.11071H146.7H125.894V27.8588Z" fill="white"/>
</svg>
