<svg width="899" height="212" viewBox="0 0 899 212" fill="none" xmlns="http://www.w3.org/2000/svg">
<path d="M71.2 36.9334C50 57.2001 25.3333 80.8001 16.4 89.4667L0 105.2L46.4 149.6C71.8667 174 96.9333 198 102 202.8L111.333 211.733L138.667 185.2L166 158.667L138.667 132L111.333 105.333L138.4 78.9334C153.2 64.5334 165.333 52.2667 165.333 51.8667C165.333 50.6667 112.267 5.40614e-05 110.933 5.40614e-05C110.4 5.40614e-05 92.5333 16.6667 71.2 36.9334Z" fill="white"/>
<path d="M266.533 78.2667C236.133 107.333 211.333 131.6 211.333 132C211.333 132.933 264.4 184 265.733 184.4C266.133 184.533 278.8 172.667 294 158.133L321.467 131.6L329.733 139.467C366.8 175.2 376.133 184 377.067 184C378.133 184 431.2 133.733 431.733 132.267C431.867 131.6 420.133 119.867 405.733 106C391.2 92.1333 366.4 68.4 350.533 53.2L321.733 25.4667L266.533 78.2667Z" fill="white"/>
<path d="M704.933 52.5335L677.333 79.3335L731.733 131.2C761.734 159.867 786.934 183.467 787.734 183.733C789.067 184.133 898.667 80.4001 898.667 78.5335C898.667 77.2001 845.067 26.6668 843.734 26.6668C843.067 26.6668 834.534 34.2668 824.934 43.6001C815.2 52.9335 803.067 64.8001 797.734 69.8668L788.134 79.0668L760.4 52.4001L732.667 25.6001L704.933 52.5335Z" fill="white"/>
<path d="M476 105.333V180H515.333H554.667V142.667V105.333H594H633.333V68V30.6667H554.667H476V105.333Z" fill="white"/>
</svg>
