<svg width="275" height="56" viewBox="0 0 275 56" fill="none" xmlns="http://www.w3.org/2000/svg">
<g clip-path="url(#clip0_21_120)">
<path fill-rule="evenodd" clip-rule="evenodd" d="M10.1448 29.173C9.29785 29.3925 7.62665 30.0347 6.431 30.6C4.36107 31.5786 3.40002 31.9371 1.68317 32.3715C1.26397 32.4775 0.871939 32.6438 0.811794 32.7409C0.688605 32.9402 1.48752 35.3652 2.02266 36.4163C2.34839 37.0563 2.41795 37.0987 2.95364 36.9846C3.27194 36.9168 4.27647 36.5038 5.18607 36.0668C8.62194 34.4159 10.8935 33.8248 13.8058 33.8233C16.8294 33.8219 18.9004 34.3262 22.0393 35.8291C23.0676 36.3213 24.2803 36.8501 24.7339 37.0043C25.921 37.4072 28.3558 37.8076 29.6194 37.8076C30.8667 37.8076 33.3172 37.4081 34.4576 37.0188C35.1221 36.792 39.1029 34.9902 39.8236 34.5902C40.335 34.3061 41.3645 30.0119 41.045 29.4951C40.9125 29.2808 39.9457 29.6262 37.6074 30.7231C34.135 32.3519 33.2852 32.546 29.6194 32.546C26.0093 32.546 25.0727 32.3382 21.8295 30.8177C18.1502 29.0929 16.7928 28.7452 13.8018 28.7619C12.2364 28.7706 11.2834 28.8777 10.1448 29.173ZM10.6882 36.2574C9.33118 36.571 8.27955 36.9521 6.8839 37.6362C6.23625 37.9536 5.27828 38.403 4.75527 38.6347C4.23208 38.8666 3.80419 39.1552 3.80419 39.276C3.80419 39.5563 5.03299 41.1501 5.88208 41.9712L6.53408 42.6014L7.38842 42.2804C9.80853 41.3708 10.8645 41.1945 13.9491 41.1851C17.6026 41.1737 18.2982 41.3366 22.0107 43.0735C25.4658 44.69 27.4794 45.1644 30.1989 45.0027C31.6955 44.9135 31.9517 44.8442 32.7114 44.3213C35.0669 42.7009 38.8812 38.2231 38.3546 37.6967C38.3084 37.6505 37.8949 37.8125 37.4357 38.0565C34.727 39.4967 31.3622 40.0923 27.7172 39.7766C25.6263 39.5954 24.0495 39.1268 21.5578 37.9456C19.5411 36.9896 18.3897 36.5416 17.3911 36.3244C16.0795 36.0393 11.8167 35.9965 10.6882 36.2574ZM11.0192 43.4253C9.86143 43.6094 8.69549 44.0463 8.69549 44.2962C8.69549 44.3875 9.32719 44.8226 10.0995 45.2632C12.485 46.624 13.5795 47.0766 15.7799 47.6112C16.716 47.8387 17.9095 48.0858 19.0216 48.2248C19.7462 48.3154 22.7353 48.3465 23.7317 48.1505C24.2752 48.0436 24.4435 48.0458 25.0904 47.8625C25.9056 47.6314 26.3312 47.4554 26.3977 47.2822C26.5265 46.9465 26.1502 46.6914 25.5209 46.6876C24.9951 46.6846 22.7114 45.7923 20.7252 44.8137C18.4703 43.703 17.2163 43.4043 14.4926 43.3293C13.1475 43.2922 11.5844 43.3355 11.0192 43.4253Z" fill="#00EBE9"/>
<path fill-rule="evenodd" clip-rule="evenodd" d="M18.1158 7.1655C18.1158 7.25065 17.5281 7.41731 16.8097 7.53597C14.6252 7.89666 10.6883 9.43036 10.6883 9.92058C10.6883 10.1805 12.2769 12.9101 12.5694 13.153C12.7479 13.301 13.0109 13.2443 13.6053 12.93C14.0435 12.6983 14.6874 12.4061 15.0361 12.2805C15.9736 11.943 18.4376 11.3588 18.9231 11.3588C19.1553 11.3588 19.3946 11.2298 19.4551 11.0722C19.5981 10.6997 19.5981 7.67003 19.4551 7.29757C19.3396 6.9963 18.1158 6.87565 18.1158 7.1655ZM21.9102 7.23742C21.8325 9.00789 21.891 11.0351 22.0234 11.1503C22.116 11.2309 22.7626 11.4026 23.46 11.5316C24.8312 11.7852 26.7964 12.393 27.0742 12.6492C27.1687 12.7365 27.4307 12.8081 27.6559 12.8081C27.978 12.8081 28.2607 12.4776 28.9783 11.2626C29.4805 10.4126 29.8912 9.63996 29.8912 9.54539C29.8912 9.11025 26.5785 7.87456 24.5017 7.53489C23.7792 7.41677 23.1883 7.25065 23.1883 7.1655C23.1883 6.91279 21.9214 6.98398 21.9102 7.23742ZM30.9926 12.4005C30.4867 13.2724 30.0774 14.0671 30.0832 14.1668C30.089 14.2664 30.6305 14.795 31.2867 15.3412C31.9426 15.8876 32.9196 16.8863 33.4575 17.5604C33.9955 18.2347 34.4772 18.7863 34.5281 18.7863C34.579 18.7863 35.3486 18.399 36.2383 17.9258C37.358 17.3302 37.8566 16.9641 37.8589 16.7362C37.8684 15.7847 33.1064 10.8153 32.1852 10.8153C32.0334 10.8153 31.505 11.5177 30.9926 12.4005ZM6.58955 12.7849C4.86691 14.4709 3.44191 16.2624 3.44191 16.7421C3.44191 16.9682 3.75749 17.2407 4.39299 17.5633C4.91618 17.8287 5.66039 18.2331 6.04716 18.4615L6.75006 18.8769L7.40423 18.0617C7.76401 17.6133 8.6093 16.699 9.28285 16.03C9.95622 15.3608 10.5069 14.7086 10.5066 14.5807C10.5053 14.0958 8.76546 11.4492 8.41383 11.3974C8.17687 11.3624 7.57578 11.8199 6.58955 12.7849ZM17.6405 13.9811C16.1954 14.3347 14.1129 15.1789 14.0075 15.4537C13.9075 15.7144 15.4057 18.4164 15.8586 18.7923C16.0653 18.9639 16.2084 18.9534 16.5298 18.743C17.7943 17.9153 21.568 17.5805 23.1883 18.1523C24.5776 18.6425 24.6986 18.5827 25.7124 16.9043C26.2173 16.0684 26.6303 15.295 26.6303 15.1858C26.6303 14.9122 25.5347 14.4584 23.9129 14.0601C22.3184 13.6682 19.0848 13.6276 17.6405 13.9811ZM27.7289 18.0586C27.2243 18.9535 26.8115 19.7456 26.8115 19.8186C26.8115 19.8916 27.1734 20.3211 27.6158 20.7729C28.6403 21.8189 29.5883 23.4003 30.0839 24.8901C30.4133 25.8796 30.4627 26.3802 30.4082 28.1738L30.3441 30.29L31.5216 30.2438C32.1693 30.2182 33.1068 30.0516 33.605 29.8733L34.5108 29.549L34.5629 27.7575C34.6415 25.0673 33.978 22.6421 32.4932 20.192C31.7406 18.9503 29.3441 16.4313 28.9151 16.4313C28.7653 16.4313 28.2397 17.1523 27.7289 18.0586ZM10.2636 18.3905C8.4747 20.3992 7.60115 22.1121 6.98394 24.8211C6.71057 26.0213 6.60785 27.6891 6.79589 27.8771C6.84716 27.9282 7.27506 27.7872 7.74698 27.5637C8.2189 27.3401 9.06546 27.0631 9.62832 26.9481C10.7539 26.7184 10.7653 26.7037 11.303 24.7646C11.5992 23.697 12.6073 21.8874 13.3272 21.1314C13.5696 20.8769 13.7617 20.5101 13.7539 20.3162C13.7332 19.7981 12.0923 17.0762 11.7751 17.0342C11.6258 17.0144 10.9455 17.6247 10.2636 18.3905ZM216.931 17.5635C216.883 17.6881 216.865 22.1921 216.891 27.5726L216.938 37.3552L223.076 37.4028C226.978 37.4333 229.294 37.3845 229.433 37.2693C229.746 37.0095 229.664 34.9266 229.333 34.7108C229.192 34.6191 227.096 34.5525 224.677 34.563C221.416 34.5773 220.208 34.524 220.007 34.3572C219.773 34.1631 219.738 33.0026 219.752 25.9155C219.76 21.3965 219.717 17.6175 219.656 17.518C219.487 17.2458 217.037 17.2867 216.931 17.5635ZM248.232 17.5472C247.878 17.901 247.908 36.957 248.263 37.2516C248.417 37.3793 248.977 37.4421 249.667 37.4095C250.769 37.3573 250.817 37.3352 250.872 36.857C250.917 36.4695 251.025 36.3588 251.36 36.3588C251.596 36.3588 251.846 36.4488 251.914 36.5588C252.197 37.0179 253.553 37.4378 254.763 37.4418C256.198 37.4465 256.952 37.1247 258.089 36.0215C259.231 34.9144 259.33 34.4517 259.33 30.1994V26.4856L258.786 25.5521C258.174 24.5001 256.856 23.3153 256.299 23.3153C256.096 23.3153 255.62 23.2226 255.242 23.1093C254.335 22.8374 253.109 23.142 252.05 23.9019C251.547 24.2633 251.199 24.4054 251.088 24.2947C250.992 24.199 250.892 22.615 250.865 20.7742L250.815 17.4276L249.636 17.3751C248.875 17.341 248.377 17.4021 248.232 17.5472ZM64.9358 18.3262C61.8598 19.0798 59.5069 21.418 58.4805 24.741C58.1758 25.7275 58.1291 26.2921 58.1874 28.2834C58.2488 30.3771 58.3169 30.7996 58.7729 31.9204C60.014 34.97 62.097 36.8546 64.9916 37.5463C67.1787 38.0691 69.8943 37.7316 71.6361 36.7206C72.5979 36.1624 74.2752 34.7028 74.2752 34.4242C74.2752 34.3349 73.8709 33.8635 73.3765 33.3767L72.478 32.4916L71.6102 33.3014C69.3874 35.376 66.5309 35.6688 64.0158 34.0796C60.4396 31.8199 59.9555 25.6548 63.107 22.5035C64.2713 21.3392 65.6251 20.7791 67.2751 20.7791C68.8091 20.7791 69.8406 21.165 71.1704 22.2365C71.783 22.7302 72.3827 23.1342 72.503 23.1342C72.7899 23.1342 74.2752 21.6731 74.2752 21.3909C74.2752 21.1023 72.7613 19.7771 71.7613 19.1903C70.0002 18.1568 67.1166 17.7918 64.9358 18.3262ZM115.398 18.3102C113.135 19.0613 111.605 21.0438 111.534 23.3153C111.451 26.0141 112.871 27.7358 116.214 28.986C119.357 30.1617 120.201 30.7211 120.396 31.7568C120.67 33.22 119.772 34.5528 118.205 35.0084C117.178 35.3068 116.626 35.2458 115.568 34.716C114.949 34.4066 114.782 34.1418 114.111 32.4102C113.961 32.0255 113.858 31.9985 112.727 32.0479L111.504 32.1016L111.445 32.8119C111.287 34.7461 113.079 36.9691 115.264 37.551C118.428 38.3934 121.558 37.2088 122.815 34.6929C123.28 33.7631 123.369 33.3718 123.369 32.2767C123.369 29.6008 122.091 28.0231 119.022 26.9112C115.181 25.5198 114.579 25.0222 114.59 23.2499C114.596 22.2648 114.644 22.1449 115.254 21.5862C116.161 20.755 117.163 20.4722 118.152 20.7686C119.216 21.0872 120.109 22.0179 120.109 22.8081C120.109 23.1468 120.206 23.5218 120.326 23.6414C120.634 23.949 122.99 23.9323 123.109 23.6218C123.268 23.2088 122.712 21.24 122.213 20.4505C121.252 18.9278 119.377 18.0445 117.182 18.0807C116.55 18.0912 115.747 18.1945 115.398 18.3102ZM1.80332 19.6468C1.70404 19.9209 1.55024 20.3081 1.46165 20.5073C1.13267 21.2468 0.73919 22.7235 0.5439 23.9519C0.433211 24.6479 0.265639 25.2447 0.171255 25.2778C0.0754214 25.3117 -0.00012207 26.3688 -0.00012207 27.6747V30.0113L0.460204 30.1269C0.968356 30.2545 2.16636 29.9773 3.4872 29.4266L4.3477 29.0679V27.3804C4.3477 25.6224 4.6497 23.9539 5.28792 22.1849C5.71419 21.0034 5.66075 20.8622 4.57687 20.3108C4.20169 20.12 3.59064 19.7804 3.21908 19.5563C2.33357 19.0222 2.02234 19.0421 1.80332 19.6468ZM37.4093 19.8997C35.6267 20.905 35.6214 20.9122 35.9742 21.8767C36.4694 23.2316 36.9562 25.6836 36.9591 26.8387C36.9631 28.4122 37.0629 28.4996 38.2417 27.9622C38.7803 27.7168 39.649 27.3767 40.172 27.2064C41.2818 26.8452 41.2966 26.7802 40.8504 24.2577C40.3358 21.3468 39.5329 19.1371 39.001 19.1666C38.8229 19.1764 38.1068 19.5063 37.4093 19.8997ZM92.3459 19.3443C92.1714 19.4459 91.9019 19.7746 91.7468 20.0746C91.5176 20.5175 91.5033 20.7376 91.6707 21.2445C91.9118 21.9753 92.3647 22.2646 93.2675 22.2646C94.7434 22.2646 95.2622 20.3213 94.0374 19.3809C93.6874 19.1122 92.7781 19.0925 92.3459 19.3443ZM18.297 20.567C16.4809 21.2425 15.3102 22.1501 14.4019 23.5871C13.783 24.566 13.1912 26.1718 13.4013 26.3017C13.4727 26.3458 14.2162 26.4316 15.0535 26.4925C17.6972 26.6847 19.3901 27.1686 22.1763 28.5284C24.085 29.4601 26.2586 30.1994 27.0886 30.1994C27.5912 30.1994 27.7122 30.1121 27.8807 29.6289C28.1814 28.7666 28.1243 26.411 27.7781 25.3856C26.991 23.0548 25.2542 21.3175 22.9296 20.5358C21.7631 20.1436 19.3923 20.1595 18.297 20.567ZM235.413 23.2159C234.374 23.4709 233.075 24.2316 232.799 24.7476C232.638 25.0481 232.744 25.2039 233.539 25.8372C234.05 26.2436 234.542 26.5762 234.632 26.5762C234.723 26.5762 235.045 26.393 235.348 26.1693C235.783 25.8474 236.188 25.7508 237.288 25.7072C239.44 25.6217 240.389 26.2845 240.396 27.8767C240.4 28.9727 240.2 29.0521 237.179 29.149C234.509 29.2347 234.47 29.2421 233.651 29.8055C230.961 31.6564 231.293 35.491 234.273 36.9756C235.09 37.3833 235.447 37.4458 236.95 37.4458C238.517 37.4458 238.75 37.4006 239.374 36.9767C239.754 36.7188 240.088 36.5354 240.116 36.5691C240.145 36.6028 240.264 36.8139 240.38 37.0381C240.566 37.3948 240.734 37.4458 241.727 37.4458C242.368 37.4458 242.957 37.3512 243.08 37.2284C243.406 36.9021 243.376 28.5342 243.043 26.7854C242.62 24.5668 241.393 23.5101 238.806 23.136C237.287 22.9162 236.566 22.9333 235.413 23.2159ZM267.029 23.2048C264.917 23.6746 263.796 24.6698 263.403 26.4264C262.765 29.2796 264.903 31.4503 268.377 31.4755C269.898 31.4863 271.234 31.9651 271.446 32.5744C271.688 33.2715 271.452 33.9255 270.788 34.3994C270.273 34.7662 269.994 34.8175 268.569 34.8072C267.181 34.7972 266.802 34.7251 266.021 34.3231C265.517 34.0633 264.997 33.7222 264.867 33.565C264.736 33.4077 264.5 33.2791 264.341 33.2791C264.008 33.2791 262.5 34.7012 262.5 35.0164C262.5 35.2709 263.402 35.9706 264.402 36.4918C265.908 37.2767 266.631 37.4458 268.485 37.4458C270.004 37.4458 270.479 37.3718 271.423 36.9883C272.878 36.397 273.845 35.4548 274.19 34.291C274.529 33.1487 274.525 32.8072 274.153 31.6572C273.549 29.7865 272.132 29.0492 268.659 28.7997C267.912 28.7461 267.073 28.5711 266.795 28.411C265.819 27.8487 265.946 26.54 267.031 25.976C268.047 25.4479 269.523 25.6362 271.864 26.5925C272.429 26.8233 272.458 26.8108 273.17 26.0229C273.57 25.58 273.901 25.1293 273.906 25.0215C273.912 24.8425 272.71 23.986 271.83 23.543C271.383 23.318 269.271 22.9476 268.554 22.9682C268.263 22.9766 267.577 23.0831 267.029 23.2048ZM79.849 24.2267C77.8135 25.0534 76.6506 26.2354 75.8928 28.2481C75.5598 29.1322 75.5133 29.5619 75.578 31.1467C75.6417 32.7108 75.7336 33.1731 76.1542 34.0468C76.6997 35.18 77.9254 36.5217 78.8515 36.9992C80.3137 37.7532 82.4004 37.9818 83.9673 37.5599C86.3522 36.9175 88.003 35.3115 88.7809 32.8762C89.9097 29.3432 87.901 25.2231 84.5321 24.1612C83.2086 23.7439 80.9606 23.7753 79.849 24.2267ZM102.446 24.3086C101.256 25.0372 101.241 25.0392 100.865 24.5222C100.56 24.105 100.384 24.04 99.5541 24.04C98.9637 24.04 98.5158 24.1352 98.3894 24.2878C98.2423 24.465 98.1972 26.3655 98.2312 30.9454L98.2789 37.3552H99.547H100.815L100.906 32.6987L100.996 28.0421L101.701 27.3213C102.948 26.0447 104.673 25.9552 105.706 27.1135C106.047 27.4947 106.072 27.8226 106.129 32.4827L106.19 37.4458H107.443C108.319 37.4458 108.699 37.3776 108.706 37.2193C108.711 37.0948 108.708 34.6695 108.698 31.8298C108.681 27.0331 108.654 26.617 108.316 25.9633C107.586 24.5526 106.319 23.8673 104.438 23.8657C103.409 23.865 103.033 23.9485 102.446 24.3086ZM143.807 24.2275C143.44 24.4213 143.088 24.6624 143.026 24.763C142.835 25.0724 142.574 24.9671 142.358 24.4929C142.17 24.0793 142.052 24.04 141.007 24.04C139.97 24.04 139.853 24.0784 139.763 24.4476C139.708 24.6717 139.686 27.6677 139.714 31.1052L139.764 37.3552H141.032H142.301L142.391 32.8262C142.458 29.4651 142.546 28.1804 142.731 27.8443C143.443 26.5501 144.56 26.0351 145.831 26.4159C147.149 26.8106 147.18 26.9418 147.282 32.4639L147.373 37.3552H148.641H149.909L150 32.8262C150.098 27.9112 150.162 27.5887 151.192 26.7782C152.184 25.9983 153.795 26.1378 154.526 27.0666C154.871 27.5048 154.891 27.793 154.891 32.2017C154.891 34.7708 154.941 37.0016 155.001 37.1592C155.087 37.3822 155.388 37.4458 156.36 37.4458H157.609V32.0943C157.609 27.1842 157.58 26.6874 157.263 26.0708C156.474 24.5378 155.275 23.8588 153.354 23.8588C151.883 23.8588 150.648 24.3086 149.927 25.1073C149.476 25.6055 149.25 25.5891 148.718 25.0188C148.477 24.7599 147.976 24.393 147.607 24.2035C146.684 23.7304 144.725 23.7427 143.807 24.2275ZM165.466 24.2063C165.055 24.3929 164.663 24.6358 164.595 24.7458C164.398 25.0635 164.205 24.9813 163.978 24.4842C163.781 24.0516 163.697 24.026 162.636 24.0766L161.504 24.1305L161.456 30.7881L161.408 37.4458H162.679C163.377 37.4458 163.95 37.3845 163.951 37.3099C163.952 37.2352 163.972 35.1633 163.996 32.7059L164.04 28.2376L164.583 27.4666C165.312 26.4331 166.317 26.0697 167.436 26.4351C168.038 26.6316 168.286 26.8427 168.569 27.4012C168.898 28.0514 168.936 28.5381 168.985 32.7809L169.039 37.4458H170.279C171.243 37.4458 171.544 37.3818 171.629 37.1592C171.69 37.0016 171.739 34.9025 171.74 32.4943C171.74 28.4742 171.769 28.0688 172.093 27.5371C172.78 26.4106 174.059 25.9673 175.221 26.4526C176.488 26.982 176.529 27.1599 176.63 32.5459L176.721 37.3552H177.989H179.257V32.1921C179.257 26.7753 179.217 26.4519 178.394 25.2577C177.153 23.4555 173.058 23.3664 171.484 25.1073C171.037 25.6023 170.757 25.5894 170.337 25.0548C169.416 23.8847 167.073 23.4766 165.466 24.2063ZM186.322 24.1979C184.357 25.0159 183.078 26.2655 182.46 27.9717C181.413 30.8648 181.945 33.8378 183.859 35.7925C186.291 38.2758 190.285 38.4584 193.068 36.2137C193.889 35.5514 194.565 34.6032 194.565 34.1137C194.565 33.9487 194.341 33.734 194.067 33.6369C193.793 33.5396 193.421 33.3747 193.24 33.2704C192.786 33.0081 192.347 33.1863 191.875 33.8238C191.655 34.1215 191.073 34.5691 190.581 34.8184C188.71 35.7662 186.562 35.1751 185.364 33.3833C184.352 31.8691 184.177 31.9271 189.933 31.8722C193.293 31.8401 195.069 31.7568 195.229 31.6235C195.694 31.2381 195.363 28.7057 194.673 27.3702C194.245 26.5407 192.978 25.1599 192.325 24.8117C190.474 23.8237 187.863 23.5566 186.322 24.1979ZM201.863 24.3996C201.344 24.6999 200.873 24.9458 200.817 24.9458C200.761 24.9458 200.638 24.742 200.543 24.4929C200.39 24.0881 200.269 24.0403 199.416 24.0427C198.89 24.0443 198.357 24.1108 198.231 24.1907C198.052 24.3043 198.013 25.7583 198.05 30.8456L198.098 37.3552L199.259 37.4099C200.065 37.4477 200.465 37.3925 200.569 37.2287C200.652 37.099 200.722 35.2401 200.726 33.0979C200.733 28.6715 200.846 28.1872 202.101 27.1521C202.665 26.6878 202.963 26.5762 203.642 26.5762C204.733 26.5762 204.924 26.3287 204.855 25.0063L204.801 23.9494L203.804 23.9014C202.974 23.8613 202.651 23.9443 201.863 24.3996ZM91.9303 24.2673C91.8823 24.3925 91.8644 27.3883 91.8906 30.9249L91.9383 37.3552H93.2064H94.4745L94.5222 30.9454C94.5562 26.3655 94.5111 24.465 94.364 24.2878C94.0937 23.9621 92.0539 23.945 91.9303 24.2673ZM125.912 24.3903C125.657 24.8664 125.669 32.2952 125.927 33.7758C126.351 36.2115 128.454 37.8133 131.218 37.8061C132.762 37.8021 134.759 36.8889 135.451 35.8706C136.285 34.6432 136.311 34.465 136.377 29.5871C136.412 27.0086 136.391 24.7019 136.331 24.4612C136.226 24.0458 136.159 24.0264 135.004 24.0771L133.786 24.1305L133.696 28.9313C133.618 33.0563 133.562 33.793 133.298 34.1657C132.765 34.9189 132.047 35.2693 131.036 35.2706C130.225 35.2717 130.013 35.1918 129.472 34.6809C129.121 34.3503 128.757 33.772 128.644 33.3675C128.525 32.9381 128.444 30.988 128.443 28.5599C128.442 25.6253 128.381 24.4135 128.225 24.2573C128.105 24.1378 127.578 24.04 127.053 24.04C126.296 24.04 126.061 24.1121 125.912 24.3903ZM252.769 26.0438C251.432 26.4505 250.761 28.3968 250.997 31.1887C251.151 33.0215 251.571 33.8738 252.571 34.3836C253.989 35.1072 255.488 34.6142 256.233 33.1794C256.549 32.5706 256.602 32.1356 256.597 30.2006C256.591 27.7843 256.449 27.2543 255.588 26.4521C255.088 25.9863 253.645 25.7775 252.769 26.0438ZM187.448 26.465C186.12 26.8769 184.964 28.1666 184.964 29.2345V29.6633L188.632 29.6144L192.301 29.5653L192.357 28.976C192.406 28.4747 192.282 28.2583 191.531 27.5267C190.296 26.3251 188.991 25.9858 187.448 26.465ZM80.8635 26.52C80.2142 26.6474 79.014 27.8184 78.6131 28.7159C78.3064 29.4023 78.2448 29.8463 78.2925 31.0291C78.368 32.9057 78.9791 34.0164 80.3502 34.7695C82.5834 35.9956 85.0595 35.024 86.0743 32.5235C86.9495 30.3671 85.8961 27.461 83.9434 26.645C83.3861 26.4122 81.7521 26.3459 80.8635 26.52ZM236.424 31.4206C235.477 31.5043 234.647 32.0365 234.491 32.6606C234.348 33.2298 234.704 34.0921 235.223 34.4322C236.243 35.0999 239.048 35.0083 239.773 34.2836C240.363 33.6934 240.59 31.8744 240.117 31.5284C239.795 31.293 238.346 31.2508 236.424 31.4206Z" fill="#E9E9E9"/>
<path fill-rule="evenodd" clip-rule="evenodd" d="M18.1158 7.1655C18.1158 7.25065 17.5281 7.41731 16.8097 7.53597C14.6252 7.89666 10.6883 9.43036 10.6883 9.92058C10.6883 10.1805 12.2769 12.9101 12.5694 13.153C12.7479 13.301 13.0109 13.2443 13.6053 12.93C14.0435 12.6983 14.6874 12.4061 15.0361 12.2805C15.9736 11.943 18.4376 11.3588 18.9231 11.3588C19.1553 11.3588 19.3946 11.2298 19.4551 11.0722C19.5981 10.6997 19.5981 7.67003 19.4551 7.29757C19.3396 6.9963 18.1158 6.87565 18.1158 7.1655ZM21.9102 7.23742C21.8325 9.00789 21.891 11.0351 22.0234 11.1503C22.116 11.2309 22.7626 11.4026 23.46 11.5316C24.8312 11.7852 26.7964 12.393 27.0742 12.6492C27.1687 12.7365 27.4307 12.8081 27.6559 12.8081C27.978 12.8081 28.2608 12.4776 28.9783 11.2626C29.4805 10.4126 29.8912 9.63996 29.8912 9.54539C29.8912 9.11025 26.5785 7.87456 24.5017 7.53489C23.7792 7.41677 23.1883 7.25065 23.1883 7.1655C23.1883 6.91279 21.9214 6.98398 21.9102 7.23742ZM30.9926 12.4005C30.4867 13.2724 30.0774 14.0671 30.0832 14.1668C30.089 14.2664 30.6305 14.795 31.2867 15.3412C31.9426 15.8876 32.9196 16.8863 33.4575 17.5604C33.9955 18.2347 34.4772 18.7863 34.5281 18.7863C34.579 18.7863 35.3486 18.399 36.2383 17.9258C37.358 17.3302 37.8566 16.9641 37.8589 16.7362C37.8684 15.7847 33.1064 10.8153 32.1852 10.8153C32.0334 10.8153 31.505 11.5177 30.9926 12.4005ZM6.58955 12.7849C4.86691 14.4709 3.44191 16.2624 3.44191 16.7421C3.44191 16.9682 3.75749 17.2407 4.39299 17.5633C4.91618 17.8287 5.66039 18.2331 6.04716 18.4615L6.75006 18.8769L7.40423 18.0617C7.76401 17.6133 8.6093 16.699 9.28285 16.03C9.95622 15.3608 10.5069 14.7086 10.5066 14.5807C10.5053 14.0958 8.76546 11.4492 8.41383 11.3974C8.17687 11.3624 7.57578 11.8199 6.58955 12.7849ZM17.6405 13.9811C16.1954 14.3347 14.1129 15.1789 14.0075 15.4537C13.9075 15.7144 15.4057 18.4164 15.8586 18.7923C16.0653 18.9639 16.2084 18.9534 16.5298 18.743C17.7943 17.9153 21.568 17.5805 23.1883 18.1523C24.5776 18.6425 24.6986 18.5827 25.7124 16.9043C26.2173 16.0684 26.6303 15.295 26.6303 15.1858C26.6303 14.9122 25.5347 14.4584 23.9129 14.0601C22.3184 13.6682 19.0848 13.6276 17.6405 13.9811ZM27.7289 18.0586C27.2243 18.9535 26.8115 19.7456 26.8115 19.8186C26.8115 19.8916 27.1734 20.3211 27.6158 20.7729C28.6403 21.8189 29.5883 23.4003 30.0839 24.8901C30.4133 25.8796 30.4627 26.3802 30.4082 28.1738L30.3441 30.29L31.5216 30.2438C32.1693 30.2182 33.1068 30.0516 33.605 29.8733L34.5107 29.549L34.5629 27.7575C34.6415 25.0673 33.978 22.6421 32.4932 20.192C31.7406 18.9503 29.3441 16.4313 28.9151 16.4313C28.7653 16.4313 28.2397 17.1523 27.7289 18.0586ZM10.2636 18.3905C8.4747 20.3992 7.60115 22.1121 6.98394 24.8211C6.71057 26.0213 6.60785 27.6891 6.79589 27.8771C6.84716 27.9282 7.27506 27.7872 7.74698 27.5637C8.2189 27.3401 9.06546 27.0631 9.62832 26.9481C10.7539 26.7184 10.7653 26.7037 11.303 24.7646C11.5992 23.697 12.6073 21.8874 13.3272 21.1314C13.5696 20.8769 13.7617 20.5101 13.7539 20.3162C13.7332 19.7981 12.0923 17.0762 11.7751 17.0342C11.6258 17.0144 10.9455 17.6247 10.2636 18.3905ZM1.80332 19.6468C1.70404 19.9209 1.55024 20.3081 1.46165 20.5073C1.13267 21.2468 0.73919 22.7235 0.5439 23.9519C0.433211 24.6479 0.265639 25.2447 0.171255 25.2778C0.0754214 25.3117 -0.00012207 26.3688 -0.00012207 27.6747V30.0113L0.460204 30.1269C0.968356 30.2545 2.16636 29.9773 3.4872 29.4266L4.3477 29.0679V27.3804C4.3477 25.6224 4.6497 23.9539 5.28792 22.1849C5.71419 21.0034 5.66075 20.8622 4.57687 20.3108C4.20169 20.12 3.59064 19.7804 3.21908 19.5563C2.33357 19.0222 2.02234 19.0421 1.80332 19.6468ZM37.4093 19.8997C35.6267 20.905 35.6214 20.9122 35.9742 21.8767C36.4694 23.2316 36.9562 25.6836 36.9591 26.8387C36.9631 28.4122 37.0629 28.4996 38.2417 27.9622C38.7803 27.7168 39.649 27.3767 40.172 27.2064C41.2818 26.8452 41.2966 26.7802 40.8504 24.2577C40.3358 21.3468 39.5329 19.1371 39.001 19.1666C38.8229 19.1764 38.1068 19.5063 37.4093 19.8997ZM18.297 20.567C16.4809 21.2425 15.3102 22.1501 14.4019 23.5871C13.783 24.566 13.1912 26.1718 13.4013 26.3017C13.4727 26.3458 14.2162 26.4316 15.0535 26.4925C17.6972 26.6847 19.3901 27.1686 22.1763 28.5284C24.085 29.4601 26.2586 30.1994 27.0886 30.1994C27.5912 30.1994 27.7122 30.1121 27.8807 29.6289C28.1814 28.7666 28.1243 26.411 27.7781 25.3856C26.991 23.0548 25.2542 21.3175 22.9296 20.5358C21.7631 20.1436 19.3923 20.1595 18.297 20.567Z" fill="#003BDE"/>
</g>
<defs>
<clipPath id="clip0_21_120">
<rect width="275" height="56" fill="white"/>
</clipPath>
</defs>
</svg>
