<svg width="275" height="56" viewBox="0 0 275 56" fill="none" xmlns="http://www.w3.org/2000/svg">
<mask id="mask0_21_233" style="mask-type:luminance" maskUnits="userSpaceOnUse" x="0" y="5" width="56" height="48">
<path d="M55.8475 5.2876H0V52.5984H55.8475V5.2876Z" fill="white"/>
</mask>
<g mask="url(#mask0_21_233)">
<path d="M47.9755 26.4166C47.9746 27.0778 48.1699 27.7243 48.5366 28.2745C48.9033 28.8247 49.4249 29.2537 50.0355 29.5074C50.6461 29.761 51.3182 29.8278 51.9668 29.6993C52.6154 29.5709 53.2112 29.253 53.6791 28.7857C54.1469 28.3185 54.4657 27.7231 54.595 27.0747C54.7243 26.4262 54.6584 25.7541 54.4055 25.1431C54.1527 24.5322 53.7244 24.01 53.1747 23.6426C52.625 23.2751 51.9787 23.0791 51.3175 23.0791C50.8782 23.0761 50.4426 23.1604 50.0361 23.327C49.6296 23.4937 49.2603 23.7393 48.9494 24.0498C48.6386 24.3602 48.3924 24.7293 48.2252 25.1356C48.058 25.5418 47.9732 25.9773 47.9755 26.4166Z" fill="#21C161"/>
<path d="M55.8474 14.8747C55.8474 12.3321 54.8374 9.89354 53.0395 8.0956C51.2415 6.29766 48.803 5.2876 46.2603 5.2876H9.5428C7.00751 5.29699 4.57944 6.31161 2.79128 8.10891C1.00312 9.90622 0.000865217 12.3394 0.00440387 14.8747V38.0027C0.00396201 40.3214 0.844687 42.5616 2.37055 44.3076C3.89642 46.0535 6.00381 47.1866 8.30173 47.4967V52.6471L17.1664 47.5411H46.2603C48.7999 47.5411 51.2357 46.5334 53.0332 44.7393C54.8306 42.9452 55.8427 40.5112 55.8474 37.9717V32.9986H51.65C49.9089 32.9537 48.2541 32.2305 47.0385 30.9832C45.8229 29.7358 45.1425 28.063 45.1425 26.3213C45.1425 24.5795 45.8229 22.9067 47.0385 21.6593C48.2541 20.412 49.9089 19.6888 51.65 19.6439H55.8474V14.8747Z" fill="#21C161"/>
</g>
<path d="M74.7899 12.4147H84.6085C85.5779 12.4115 86.5461 12.4834 87.5047 12.6299C88.399 12.7588 89.2713 13.0138 90.0962 13.3874C90.9014 13.7603 91.6353 14.2747 92.264 14.9071C92.9626 15.6298 93.5278 16.474 93.9327 17.3995C94.4372 18.5691 94.7904 19.8001 94.9835 21.0618C95.258 22.7205 95.3865 24.4006 95.3676 26.0824C95.3846 27.8222 95.2695 29.5606 95.0232 31.2824C94.8401 32.5779 94.5051 33.8465 94.0255 35.0613C93.6513 36.0072 93.113 36.8772 92.4361 37.6299C91.8205 38.2849 91.0918 38.8197 90.2861 39.2078C89.4458 39.5989 88.5532 39.8617 87.6372 39.9878C86.6269 40.136 85.6072 40.2079 84.5865 40.203H74.7678L74.7899 12.4147ZM83.3636 35.8592C84.017 35.8592 84.6483 35.8592 85.262 35.8189C85.8455 35.7893 86.4213 35.6714 86.9705 35.4692C87.5085 35.2685 88.0032 34.9641 88.4274 34.5727C88.9223 34.0992 89.3082 33.5206 89.5576 32.8782C89.9209 31.9996 90.1659 31.0754 90.2861 30.1303C90.4832 28.7711 90.5733 27.398 90.5554 26.0242C90.5702 24.7465 90.4875 23.4696 90.3081 22.2049C90.1819 21.308 89.9431 20.4312 89.5974 19.596C89.3444 18.9887 88.9648 18.4442 88.4848 18.0002C88.0701 17.6146 87.5796 17.3227 87.0455 17.1439C86.4771 16.9396 85.882 16.8218 85.2796 16.7943C84.6659 16.754 84.0169 16.7315 83.3415 16.7315H79.3681V35.8368L83.3636 35.8592ZM99.3763 29.7045C99.3207 27.9086 99.6008 26.1183 100.202 24.4283C100.67 23.181 101.427 22.0663 102.409 21.1784C103.299 20.3943 104.357 19.8338 105.5 19.5422C106.669 19.2276 107.875 19.0694 109.085 19.0715C110.393 19.0291 111.696 19.2484 112.921 19.717C113.874 20.087 114.715 20.7054 115.358 21.5101C115.981 22.3227 116.415 23.2685 116.625 24.2759C116.877 25.4463 116.999 26.6417 116.987 27.8397C116.987 28.4493 116.961 29.0769 116.912 29.7269C116.864 30.3769 116.815 31.0448 116.74 31.7306H104.056C104.053 32.5199 104.149 33.3063 104.343 34.0706C104.514 34.656 104.832 35.186 105.266 35.6082C105.76 36.0281 106.346 36.3217 106.974 36.4644C107.845 36.6499 108.734 36.7356 109.623 36.7199C110.506 36.7199 111.358 36.6975 112.135 36.6571C112.912 36.6168 113.601 36.5496 114.188 36.4823C114.881 36.4196 115.513 36.3344 116.069 36.2313V39.4633C115.372 39.7232 114.662 39.9447 113.941 40.1268C113.288 40.2926 112.528 40.445 111.658 40.575C110.738 40.7186 109.808 40.7891 108.877 40.7857C107.513 40.8082 106.154 40.6115 104.851 40.203C103.711 39.8511 102.681 39.2073 101.857 38.3337C100.992 37.3403 100.356 36.1623 99.9988 34.8865C99.5452 33.1989 99.3355 31.4533 99.3763 29.7045ZM112.784 28.2834V27.5438C112.791 26.8651 112.74 26.1871 112.63 25.5176C112.565 24.9956 112.367 24.4997 112.056 24.0787C111.729 23.6811 111.295 23.3896 110.806 23.2404C110.109 23.0373 109.386 22.945 108.661 22.967C107.861 22.9418 107.063 23.0602 106.303 23.3166C105.744 23.5094 105.25 23.861 104.882 24.3297C104.53 24.8216 104.294 25.3891 104.193 25.9883C104.07 26.7469 104.013 27.5148 104.021 28.2834H112.784ZM121.892 12.4147H132.616C133.775 12.3838 134.932 12.535 136.046 12.863C136.925 13.1218 137.725 13.6048 138.368 14.2661C139 14.9324 139.455 15.7495 139.693 16.6419C140.001 17.7362 140.149 18.8704 140.134 20.0084C140.161 20.9178 140.044 21.8257 139.79 22.698C139.622 23.2925 139.341 23.8482 138.964 24.3342C138.666 24.7099 138.285 25.0094 137.852 25.2083C137.481 25.3657 137.096 25.4902 136.704 25.5804V25.6163C136.983 25.6536 137.259 25.712 137.53 25.7911C137.875 25.8829 138.21 26.0137 138.527 26.1811C138.896 26.3681 139.237 26.6048 139.543 26.8848C139.894 27.2028 140.193 27.5768 140.426 27.9921C140.719 28.511 140.939 29.0694 141.079 29.6507C141.255 30.3842 141.338 31.1373 141.326 31.892C141.364 33.305 141.196 34.7158 140.828 36.0789C140.583 37.0407 140.068 37.9098 139.346 38.5806C138.625 39.2514 137.727 39.695 136.761 39.8578C135.575 40.0939 134.368 40.2051 133.159 40.1895H121.892V12.4147ZM131.711 24.1369C132.302 24.146 132.894 24.0995 133.477 23.998C133.914 23.9317 134.325 23.744 134.664 23.4556C135.005 23.1372 135.246 22.7241 135.357 22.2677C135.516 21.6108 135.587 20.9354 135.569 20.2594C135.586 19.678 135.5 19.0983 135.318 18.547C135.176 18.1188 134.925 17.7366 134.589 17.4398C134.244 17.1523 133.837 16.9511 133.402 16.8526C132.885 16.7297 132.356 16.671 131.826 16.6777H126.497V24.1369H131.711ZM132.594 35.9354C133.126 35.9402 133.659 35.8951 134.183 35.8009C134.634 35.7135 135.056 35.5132 135.41 35.2182C135.775 34.9035 136.047 34.4923 136.196 34.0303C136.416 33.3756 136.521 32.6867 136.505 31.9951C136.528 31.3108 136.444 30.627 136.258 29.9689C136.138 29.5032 135.877 29.0876 135.512 28.781C135.137 28.4908 134.691 28.3095 134.223 28.2565C133.614 28.1552 132.998 28.1087 132.382 28.1176H126.497V35.9444L132.594 35.9354ZM145.344 29.9196C145.321 28.3635 145.508 26.8115 145.9 25.3069C146.221 24.0547 146.811 22.8899 147.626 21.8956C148.443 20.96 149.47 20.2387 150.62 19.7932C153.419 18.831 156.452 18.831 159.251 19.7932C160.404 20.2307 161.431 20.9533 162.24 21.8956C163.057 22.8889 163.646 24.0541 163.966 25.3069C164.358 26.8115 164.545 28.3635 164.522 29.9196C164.543 31.489 164.356 33.0541 163.966 34.5727C163.646 35.8256 163.057 36.9908 162.24 37.984C161.431 38.9263 160.404 39.6489 159.251 40.0864C156.451 41.0427 153.42 41.0427 150.62 40.0864C149.47 39.6409 148.443 38.9196 147.626 37.984C146.811 36.9897 146.221 35.8249 145.9 34.5727C145.517 33.053 145.338 31.488 145.366 29.9196H145.344ZM154.933 36.8902C155.774 36.9241 156.611 36.7712 157.388 36.442C157.994 36.1493 158.503 35.6815 158.849 35.0972C159.217 34.4224 159.452 33.6806 159.538 32.9141C159.673 31.9205 159.737 30.9182 159.728 29.9152C159.737 28.9255 159.673 27.9366 159.538 26.9566C159.456 26.1892 159.221 25.4466 158.849 24.7735C158.51 24.1829 158 23.7132 157.388 23.4287C155.817 22.801 154.071 22.801 152.5 23.4287C151.885 23.715 151.369 24.1838 151.021 24.7735C150.647 25.4475 150.406 26.189 150.311 26.9566C150.188 27.9378 150.131 28.9262 150.138 29.9152C150.131 30.9175 150.188 31.9194 150.311 32.9141C150.41 33.6807 150.651 34.4214 151.021 35.0972C151.378 35.6798 151.891 36.1465 152.5 36.442C153.276 36.7723 154.114 36.9253 154.955 36.8902H154.933ZM173.886 29.7538L167.039 19.6677H172.469L176.822 26.0735L181.118 19.6677H186.062L179.254 29.6552L186.446 40.2119H181.02L176.323 33.3175L171.383 40.203H166.434L173.886 29.7538Z" fill="#E9E9E9"/>
</svg>
