<svg width="275" height="56" viewBox="0 0 275 56" fill="none" xmlns="http://www.w3.org/2000/svg">
<path fill-rule="evenodd" clip-rule="evenodd" d="M89.0849 28.2901V43.6696H91.8416H94.5983V28.2901V12.9106H91.8416H89.0849V28.2901ZM225.523 24.4647L225.614 36.0187L226.568 37.8376C228.372 41.2776 231.254 43.1255 235.128 43.3254C236.943 43.4189 237.723 43.3167 239.087 42.8066C242.471 41.5408 245.226 38.1594 245.663 34.7353L245.859 33.2002L243.167 33.2844L240.476 33.3682L240.105 34.625C239.539 36.5474 238.57 37.4278 236.503 37.9C235.226 38.1916 233.392 37.7354 232.467 36.8971C230.974 35.5428 230.705 34.3548 230.698 29.0881L230.692 24.2276H236.216H241.741L241.657 21.5435L241.574 18.8593L236.133 18.7804L230.692 18.7014V15.806V12.9106H228.062H225.433L225.523 24.4647ZM206.056 18.4644C202.646 19.5438 200.506 21.3328 198.749 24.5741L197.757 26.4039L197.668 34.7466L197.579 43.0892H200.207H202.835V36.0315C202.835 28.0777 203.008 27.1047 204.745 25.3167C207.79 22.1821 212.838 22.9357 214.805 26.8186L215.603 28.3943V35.7416V43.0892H218.359H221.116V35.9491C221.116 26.4896 220.638 24.5616 217.53 21.4927C215.859 19.8433 214.243 18.9574 211.694 18.2935C209.458 17.7111 208.327 17.7453 206.056 18.4644ZM70.5134 18.5291C61.9462 20.3903 57.9513 30.1446 62.7021 37.6025C66.8572 44.1254 76.4975 45.0436 81.9447 39.4347C82.8747 38.4771 84.442 36.1397 84.442 35.7106C84.442 35.6191 83.1037 35.5469 81.4677 35.5498C78.6521 35.5547 78.4254 35.6012 77.2203 36.4177C74.3328 38.3744 71.6004 38.3367 68.8643 36.3019C67.8325 35.535 66.4509 33.708 66.4509 33.1111C66.4509 33.0131 70.7795 32.933 76.0698 32.933H85.6886L85.5197 30.3939C85.1082 24.2058 81.3763 19.8006 75.4882 18.5526C73.2162 18.0709 72.6352 18.0683 70.5134 18.5291ZM108.344 18.5523C104.538 19.4115 101.517 21.7924 99.7745 25.3079C98.0848 28.7152 98.3659 34.1166 100.397 37.2761C103.266 41.7379 108.359 43.9708 113.306 42.9357C116.806 42.2033 119.403 40.4721 121.313 37.5987C122.636 35.6064 122.576 35.5446 119.292 35.5446C116.5 35.5446 116.379 35.5724 114.936 36.5431C112.417 38.2383 109.611 38.2609 107.149 36.606C105.791 35.6934 104.464 34.0719 104.464 33.3253C104.464 33.0038 106.17 32.933 113.934 32.933H123.403L123.265 30.0544C123.144 27.5446 123.005 26.9324 122.181 25.274C119.626 20.1367 113.819 17.3161 108.344 18.5523ZM179.475 18.3091C176.377 19.0235 174.249 20.0029 172.702 21.4262C170.3 23.6368 168.596 27.4503 168.597 30.6115C168.599 33.9239 170.216 37.7285 172.564 39.9431C175.618 42.8234 180.96 43.9333 184.989 42.5251C188.144 41.4221 191.492 38.4908 192.222 36.1931C192.426 35.5504 192.401 35.5446 189.434 35.5498C186.594 35.5547 186.374 35.5997 185.162 36.4212C181.555 38.8648 177.198 37.9583 174.968 34.3003C174.655 33.7878 174.399 33.2702 174.399 33.1506C174.398 33.031 178.725 32.933 184.014 32.933H193.631L193.477 30.539C193.123 25.0143 190.186 20.8653 185.347 19.0549C183.807 18.4786 180.54 18.0636 179.475 18.3091ZM134.73 18.9472C131.711 20.0247 130.029 21.5876 128.49 24.7462L127.54 26.6941L127.466 34.8917L127.392 43.0892H130.134H132.876L132.961 35.1598L133.047 27.2307L133.82 26.063C134.666 24.7862 136.677 23.6473 138.086 23.6473C139.264 23.6473 140.952 24.409 141.819 25.3314C143.264 26.8682 143.348 27.4312 143.348 35.5353V43.0892H146.105H148.862V35.2399C148.862 26.8592 148.909 26.5406 150.362 25.1846C151.252 24.3533 152.963 23.6473 154.087 23.6473C156.072 23.6473 158.426 25.5619 159.005 27.6462C159.174 28.2538 159.305 31.8625 159.306 35.9073L159.308 43.0892H161.92H164.531V35.0327C164.531 27.78 164.475 26.8224 163.968 25.4348C162.764 22.1404 159.835 19.5369 156.409 18.7151C153.27 17.9618 149.082 19.0018 146.948 21.0647L146.05 21.9329L145.118 21.0623C142.593 18.7041 138.02 17.7729 134.73 18.9472ZM70.0782 24.2749C69.4398 24.606 68.672 25.09 68.3719 25.3503C67.7286 25.9086 66.4509 27.8598 66.4509 28.2843C66.4509 28.477 68.7825 28.5803 73.125 28.5803C76.7958 28.5803 79.7986 28.4822 79.798 28.3627C79.7959 27.9503 78.5604 26.1123 77.8262 25.4298C75.9171 23.6548 72.3102 23.1171 70.0782 24.2749ZM108.092 24.216C106.667 24.8634 104.862 26.706 104.598 27.7823L104.401 28.5803H110.962C115.349 28.5803 117.522 28.4793 117.522 28.2756C117.522 27.1166 115.39 24.8271 113.642 24.1089C112.165 23.5022 109.551 23.5527 108.092 24.216ZM177.588 24.5903C176.117 25.4731 174.429 27.3981 174.407 28.2176C174.4 28.4976 175.921 28.5803 181.071 28.5803C184.742 28.5803 187.746 28.468 187.746 28.3307C187.746 27.9277 186.295 25.8689 185.615 25.3059C184.193 24.1295 182.85 23.6473 180.998 23.6473C179.44 23.6473 178.92 23.7909 177.588 24.5903Z" fill="#E9E9E9"/>
<g clip-path="url(#clip0_23_1076)">
<path fill-rule="evenodd" clip-rule="evenodd" d="M31.9178 33.4777V18.8768L41.4887 13.7539V28.1225L31.9178 33.4841V33.4777Z" fill="url(#paint0_linear_23_1076)"/>
<path fill-rule="evenodd" clip-rule="evenodd" d="M25.7701 38.6909L25.8727 51.0271L25.5329 51.2207L12.6478 44.0977V38.6974H25.7701V38.6909Z" fill="url(#paint1_linear_23_1076)"/>
<path fill-rule="evenodd" clip-rule="evenodd" d="M31.9178 40.4136V47.6527L25.533 51.2142V40.4136H31.9178Z" fill="url(#paint2_linear_23_1076)"/>
<path fill-rule="evenodd" clip-rule="evenodd" d="M19.2635 29.7743L19.0263 37.0134L22.3085 38.8458L9.44904 46.0398L9.25673 45.9301L9.20544 31.6712L22.3277 24.2256V27.9355L19.2571 29.7614L19.2635 29.7743Z" fill="url(#paint3_linear_23_1076)"/>
<path fill-rule="evenodd" clip-rule="evenodd" d="M9.45547 31.6712L0 26.3934V19.1543L9.70548 24.3352L9.45547 31.6712Z" fill="url(#paint4_linear_23_1076)"/>
<path fill-rule="evenodd" clip-rule="evenodd" d="M44.6811 29.8389L31.9114 36.7296V44.201L44.6811 37.078V29.8389Z" fill="url(#paint5_linear_23_1076)"/>
<path fill-rule="evenodd" clip-rule="evenodd" d="M3.07068 28L9.45552 31.6776V46.0462L3.07068 42.3686V28Z" fill="#29F6A8"/>
<path fill-rule="evenodd" clip-rule="evenodd" d="M19.0264 37.0133V29.7741L19.1161 29.7161L31.9114 36.7294V44.2008L19.0264 37.0068V37.0133Z" fill="url(#paint6_linear_23_1076)"/>
<path fill-rule="evenodd" clip-rule="evenodd" d="M12.8915 26.2127L0 19.1542L12.8915 12.0957V26.2127Z" fill="url(#paint7_linear_23_1076)"/>
<path fill-rule="evenodd" clip-rule="evenodd" d="M44.6875 29.8388L31.9178 36.9618L19.0327 29.7678L22.3469 27.9096L22.3213 27.9225L25.5394 29.7162L31.8601 26.1741L31.9242 22.7029L44.6939 29.8323L44.6875 29.8388Z" fill="url(#paint8_linear_23_1076)"/>
<path fill-rule="evenodd" clip-rule="evenodd" d="M22.3405 24.4642L22.1866 24.5481L15.8595 21.0769L12.6478 22.9609V8.34712L13.0709 8.1084L25.7701 15.4701L25.6868 29.7032L25.5329 29.8387L22.3212 27.9225L22.3469 24.4642H22.3405Z" fill="url(#paint9_linear_23_1076)"/>
<path fill-rule="evenodd" clip-rule="evenodd" d="M25.533 29.7937V15.4702L25.392 15.3928L31.8537 11.8765L31.9114 11.9087V26.2257L25.533 29.8001V29.7937Z" fill="url(#paint10_linear_23_1076)"/>
<path fill-rule="evenodd" clip-rule="evenodd" d="M22.347 24.4643L9.45552 31.6776L3.07068 28L15.8532 20.8447L22.3406 24.4643H22.347Z" fill="url(#paint11_linear_23_1076)"/>
<path fill-rule="evenodd" clip-rule="evenodd" d="M31.9178 19.1091V11.9086L35.1103 10.0698L41.4951 13.7475L31.9178 19.1026V19.1091Z" fill="url(#paint12_linear_23_1076)"/>
<path fill-rule="evenodd" clip-rule="evenodd" d="M12.6478 8.34715L25.5329 15.4702L31.9177 11.9086L19.0327 4.78564L12.6478 8.34715Z" fill="#76FF0B"/>
</g>
<defs>
<linearGradient id="paint0_linear_23_1076" x1="36.4244" y1="15.8444" x2="37.0024" y2="31.6902" gradientUnits="userSpaceOnUse">
<stop stop-color="#00B368"/>
<stop offset="1" stop-color="#004A4D"/>
</linearGradient>
<linearGradient id="paint1_linear_23_1076" x1="12.6478" y1="44.9558" x2="25.8727" y2="44.9558" gradientUnits="userSpaceOnUse">
<stop stop-color="#0ECD59"/>
<stop offset="1" stop-color="#16DE3E"/>
</linearGradient>
<linearGradient id="paint2_linear_23_1076" x1="28.7254" y1="39.5038" x2="28.7254" y2="50.7561" gradientUnits="userSpaceOnUse">
<stop stop-color="#003A4A"/>
<stop offset="1" stop-color="#007649"/>
</linearGradient>
<linearGradient id="paint3_linear_23_1076" x1="26.0522" y1="33.6907" x2="14.2603" y2="35.3535" gradientUnits="userSpaceOnUse">
<stop stop-color="#00AE85"/>
<stop offset="0.99" stop-color="#007258"/>
</linearGradient>
<linearGradient id="paint4_linear_23_1076" x1="4.79504" y1="21.7351" x2="4.93791" y2="30.7679" gradientUnits="userSpaceOnUse">
<stop stop-color="#12C951"/>
<stop offset="1" stop-color="#009256"/>
</linearGradient>
<linearGradient id="paint5_linear_23_1076" x1="31.9178" y1="37.0264" x2="44.6811" y2="37.0264" gradientUnits="userSpaceOnUse">
<stop stop-color="#005255"/>
<stop offset="1" stop-color="#008147"/>
</linearGradient>
<linearGradient id="paint6_linear_23_1076" x1="26.4689" y1="31.4904" x2="24.8981" y2="40.0421" gradientUnits="userSpaceOnUse">
<stop stop-color="#44E28D"/>
<stop offset="1" stop-color="#10E2AA"/>
</linearGradient>
<linearGradient id="paint7_linear_23_1076" x1="0" y1="19.1542" x2="12.8915" y2="19.1542" gradientUnits="userSpaceOnUse">
<stop stop-color="#91FF3C"/>
<stop offset="1" stop-color="#64F562"/>
</linearGradient>
<linearGradient id="paint8_linear_23_1076" x1="19.0327" y1="29.8388" x2="44.6875" y2="29.8388" gradientUnits="userSpaceOnUse">
<stop stop-color="#91FF3C"/>
<stop offset="1" stop-color="#0DE2AC"/>
</linearGradient>
<linearGradient id="paint9_linear_23_1076" x1="19.1352" y1="11.7796" x2="19.2781" y2="26.2256" gradientUnits="userSpaceOnUse">
<stop stop-color="#03E168"/>
<stop offset="1" stop-color="#05C35E"/>
</linearGradient>
<linearGradient id="paint10_linear_23_1076" x1="26.142" y1="14.8057" x2="30.5164" y2="24.9277" gradientUnits="userSpaceOnUse">
<stop stop-color="#00837B"/>
<stop offset="1" stop-color="#03824D"/>
</linearGradient>
<linearGradient id="paint11_linear_23_1076" x1="6.48106" y1="30.1485" x2="18.3189" y2="22.8102" gradientUnits="userSpaceOnUse">
<stop stop-color="#91FF3C"/>
<stop offset="1" stop-color="#52F171"/>
</linearGradient>
<linearGradient id="paint12_linear_23_1076" x1="31.8281" y1="16.7735" x2="37.7877" y2="12.0236" gradientUnits="userSpaceOnUse">
<stop stop-color="#11E2AA"/>
<stop offset="0.64" stop-color="#8DFE40"/>
</linearGradient>
<clipPath id="clip0_23_1076">
<rect width="44.6875" height="46.4286" fill="white" transform="translate(0 4.78564)"/>
</clipPath>
</defs>
</svg>
