<svg width="544" height="121" viewBox="0 0 544 121" fill="none" xmlns="http://www.w3.org/2000/svg">
<g clip-path="url(#clip0_548_42)">
<path d="M50.9519 0.046875H17.7779H0V17.8476V40.9869L17.7779 58.7452V40.9869V17.8476H50.9519H68.7297L50.9519 0.046875Z" fill="white"/>
<path d="M50.9519 61.9941H17.7779H0V79.7948V102.934L17.7779 120.693V102.934V79.7948H50.9519H68.7297L50.9519 61.9941Z" fill="white"/>
<path d="M193.595 110.291C169.65 110.291 154.977 90.6208 154.977 69.3363C154.977 48.0519 169.65 28.3818 193.595 28.3818C217.54 28.3818 232.213 48.0519 232.213 69.3363C232.213 90.6208 217.54 110.291 193.595 110.291ZM193.595 97.5457C206.822 97.5457 214.265 86.0325 214.265 69.3788C214.265 52.7251 206.865 41.212 193.595 41.212C180.325 41.212 173.095 52.5552 173.095 69.3788C173.095 86.2024 180.496 97.5457 193.595 97.5457Z" fill="white"/>
<path d="M278.569 110.291C255.389 110.291 240.589 91.0881 240.589 69.3363C240.589 47.5846 254.921 28.3818 277.931 28.3818C296.389 28.3818 310.254 38.4505 313.231 57.0585H295.879C294.007 46.9898 287.543 41.1695 278.228 41.1695C265.469 41.1695 258.664 52.98 258.664 69.3363C258.664 85.6926 265.894 97.5032 278.994 97.5032C288.138 97.5032 294.773 91.343 296.474 81.2743H313.954C310.977 99.8398 296.942 110.248 278.484 110.248L278.569 110.291Z" fill="white"/>
<path d="M339.743 67.6366V108.718H322.561V0.0871582H339.743V62.4535" fill="white"/>
<path d="M375.766 36.7534L352.332 60.1621L339.742 72.7373L352.332 85.3126L375.766 108.721H400.944L388.355 96.146L364.921 72.7373L388.355 49.2862L400.944 36.7534H375.766Z" fill="white"/>
<path d="M409.121 108.716V91.0852H427.41V108.716H409.121Z" fill="white"/>
<path d="M438.864 17.548V0.0871582H457.152V17.548H438.864ZM439.332 108.718V29.9958H456.514V108.718H439.332Z" fill="white"/>
<path d="M505.382 110.291C481.437 110.291 466.764 90.6208 466.764 69.3363C466.764 48.0519 481.437 28.3818 505.382 28.3818C529.327 28.3818 544 48.0519 544 69.3363C544 90.6208 529.327 110.291 505.382 110.291ZM505.382 97.5457C518.609 97.5457 526.052 86.0325 526.052 69.3788C526.052 52.7251 518.652 41.212 505.382 41.212C492.113 41.212 484.882 52.5552 484.882 69.3788C484.882 86.2024 492.283 97.5457 505.382 97.5457Z" fill="white"/>
<path d="M79.2561 0H96.3724V93.2475H144.471V108.98H79.2561V0Z" fill="white"/>
</g>
<defs>
<clipPath id="clip0_548_42">
<rect width="544" height="121" fill="white"/>
</clipPath>
</defs>
</svg>
