<svg width="252" height="56" viewBox="0 0 252 56" fill="none" xmlns="http://www.w3.org/2000/svg">
<g clip-path="url(#clip0_548_42)">
<path d="M23.581 0.0217285H8.22778H0V8.2601V18.9692L8.22778 27.1879V18.9692V8.2601H23.581H31.8088L23.581 0.0217285Z" fill="white"/>
<path d="M23.581 28.6917H8.22778H0V36.93V47.639L8.22778 55.858V47.639V36.93H23.581H31.8088L23.581 28.6917Z" fill="white"/>
<path d="M89.5976 51.0439C78.5157 51.0439 71.7249 41.9403 71.7249 32.0896C71.7249 22.239 78.5157 13.1355 89.5976 13.1355C100.68 13.1355 107.47 22.239 107.47 32.0896C107.47 41.9403 100.68 51.0439 89.5976 51.0439ZM89.5976 45.1452C95.7192 45.1452 99.1639 39.8168 99.1639 32.1093C99.1639 24.4018 95.7391 19.0734 89.5976 19.0734C83.4562 19.0734 80.11 24.3232 80.11 32.1093C80.11 39.8954 83.5353 45.1452 89.5976 45.1452Z" fill="white"/>
<path d="M128.924 51.0439C118.197 51.0439 111.347 42.1566 111.347 32.0896C111.347 22.0227 117.98 13.1355 128.629 13.1355C137.172 13.1355 143.589 17.7954 144.966 26.4074H136.936C136.069 21.7475 133.078 19.0538 128.767 19.0538C122.862 19.0538 119.712 24.5198 119.712 32.0896C119.712 39.6595 123.058 45.1256 129.121 45.1256C133.353 45.1256 136.424 42.2746 137.211 37.6147H145.301C143.923 46.207 137.428 51.024 128.885 51.024L128.924 51.0439Z" fill="white"/>
<path d="M157.236 31.3028V50.3158H149.284V0.0402832H157.236V28.904" fill="white"/>
<path d="M173.908 17.0098L163.063 27.8435L157.236 33.6635L163.063 39.4834L173.908 50.3171H185.561L179.735 44.4973L168.889 33.6635L179.735 22.8101L185.561 17.0098H173.908Z" fill="white"/>
<path d="M189.345 50.3149V42.1553H197.81V50.3149H189.345Z" fill="white"/>
<path d="M203.111 8.12133V0.0402832H211.574V8.12133H203.111ZM203.327 50.3158V13.8823H211.279V50.3158H203.327Z" fill="white"/>
<path d="M233.896 51.0439C222.814 51.0439 216.023 41.9403 216.023 32.0896C216.023 22.239 222.814 13.1355 233.896 13.1355C244.978 13.1355 251.769 22.239 251.769 32.0896C251.769 41.9403 244.978 51.0439 233.896 51.0439ZM233.896 45.1452C240.017 45.1452 243.462 39.8168 243.462 32.1093C243.462 24.4018 240.037 19.0734 233.896 19.0734C227.755 19.0734 224.408 24.3232 224.408 32.1093C224.408 39.8954 227.833 45.1452 233.896 45.1452Z" fill="white"/>
<path d="M36.6807 0H44.6023V43.1559H66.8627V50.437H36.6807V0Z" fill="white"/>
</g>
<defs>
<clipPath id="clip0_548_42">
<rect width="251.769" height="56" fill="white"/>
</clipPath>
</defs>
</svg>
