<svg width="266" height="266" viewBox="0 0 266 266" fill="none" xmlns="http://www.w3.org/2000/svg">
<g clip-path="url(#clip0_548_86)">
<mask id="mask0_548_86" style="mask-type:luminance" maskUnits="userSpaceOnUse" x="0" y="0" width="266" height="266">
<path d="M266 0H0V266H266V0Z" fill="white"/>
</mask>
<g mask="url(#mask0_548_86)">
<path d="M157.162 62.042H91.3759C87.1149 62.042 83.0018 63.7414 79.997 66.7463L65.2685 81.4748C62.239 84.5042 60.5642 88.5927 60.5642 92.8537V176.126C60.5642 180.387 62.2637 184.501 65.2685 187.505L79.997 202.234C83.0264 205.263 87.1149 206.938 91.3759 206.938H174.649C178.91 206.938 183.023 205.239 186.028 202.234L200.756 187.505C203.786 184.476 205.46 180.387 205.46 176.126V92.8537C205.46 88.5927 203.761 84.4796 200.756 81.4748L186.028 66.7463C182.998 63.7168 178.91 62.042 174.649 62.042H157.162ZM181.299 110.365V177.456C181.299 180.412 178.885 182.826 175.929 182.826H90.0459C87.0903 182.826 84.6766 180.412 84.6766 177.456V91.5729C84.6766 88.6174 87.0903 86.2037 90.0459 86.2037H175.929C178.885 86.2037 181.299 88.6174 181.299 91.5729V110.365Z" fill="white"/>
<path d="M40.245 241.838H42.9296C45.8851 241.838 48.2989 239.425 48.2989 236.469V223.046C48.2989 220.09 45.8851 217.677 42.9296 217.677H29.5064C26.5509 217.677 24.1372 220.09 24.1372 223.046V225.731C24.1372 234.622 31.3537 241.838 40.245 241.838Z" fill="white"/>
<path d="M181.299 236.469C181.299 239.425 178.885 241.838 175.929 241.838H90.0458C87.0903 241.838 84.6766 239.425 84.6766 236.469V223.046C84.6766 220.09 82.2629 217.677 79.3073 217.677H65.8842C62.9286 217.677 60.5149 220.09 60.5149 223.046V235.164C60.5149 239.425 62.2144 243.538 65.2192 246.543L79.9477 261.271C82.9771 264.301 87.0657 265.975 91.3266 265.975H174.599C178.86 265.975 182.974 264.276 185.978 261.271L200.707 246.543C203.736 243.513 205.411 239.425 205.411 235.164V223.046C205.411 220.09 202.997 217.677 200.042 217.677H186.619C183.663 217.677 181.249 220.09 181.249 223.046V236.469H181.299Z" fill="white"/>
<path d="M223.071 241.838H225.755C234.646 241.838 241.863 234.622 241.863 225.731V223.046C241.863 220.09 239.449 217.677 236.494 217.677H223.071C220.115 217.677 217.701 220.09 217.701 223.046V236.469C217.701 239.425 220.115 241.838 223.071 241.838Z" fill="white"/>
<path d="M225.755 24.1616H223.071C220.115 24.1616 217.701 26.5753 217.701 29.5309V42.954C217.701 45.9096 220.115 48.3233 223.071 48.3233H236.494C239.449 48.3233 241.863 45.9096 241.863 42.954V40.2694C241.863 31.3781 234.646 24.1616 225.755 24.1616Z" fill="white"/>
<path d="M29.5309 48.2989H42.954C45.9096 48.2989 48.3233 45.8852 48.3233 42.9296V29.5065C48.3233 26.5509 45.9096 24.1372 42.954 24.1372H40.2694C31.3781 24.1372 24.1616 31.3537 24.1616 40.245V42.9296C24.1616 45.8852 26.5753 48.2989 29.5309 48.2989Z" fill="white"/>
<path d="M157.162 0H91.3759C87.1149 0 83.0018 1.69944 79.997 4.70426L65.2685 19.4328C62.239 22.4622 60.5642 26.5507 60.5642 30.8117V42.9294C60.5642 45.885 62.9779 48.2987 65.9335 48.2987H79.3566C82.3122 48.2987 84.7259 45.885 84.7259 42.9294V29.5063C84.7259 26.5507 87.1396 24.137 90.0951 24.137H175.979C178.934 24.137 181.348 26.5507 181.348 29.5063V42.9294C181.348 45.885 183.762 48.2987 186.717 48.2987H200.14C203.096 48.2987 205.51 45.885 205.51 42.9294V30.8117C205.51 26.5507 203.81 22.4376 200.805 19.4328L186.077 4.70426C183.047 1.67481 178.959 0 174.698 0H157.211H157.162Z" fill="white"/>
<path d="M4.70426 79.9723C1.67481 83.0017 0 87.0902 0 91.3512V174.624C0 178.885 1.69944 182.998 4.70426 186.003L19.4328 200.731C22.4622 203.761 26.5507 205.436 30.8117 205.436H42.9294C45.885 205.436 48.2987 203.022 48.2987 200.066V186.643C48.2987 183.688 45.885 181.274 42.9294 181.274H29.5063C26.5507 181.274 24.137 178.86 24.137 175.905V90.0212C24.137 87.0656 26.5507 84.6519 29.5063 84.6519H42.9294C45.885 84.6519 48.2987 82.2382 48.2987 79.2826V65.8595C48.2987 62.9039 45.885 60.4902 42.9294 60.4902H30.8117C26.5507 60.4902 22.4376 62.1897 19.4328 65.1945L4.70426 79.923V79.9723Z" fill="white"/>
<path d="M235.188 60.5396H223.071C220.115 60.5396 217.701 62.9532 217.701 65.9087V79.332C217.701 82.2875 220.115 84.7012 223.071 84.7012H236.494C239.449 84.7012 241.863 87.1149 241.863 90.0705V175.954C241.863 178.91 239.449 181.323 236.494 181.323H223.071C220.115 181.323 217.701 183.737 217.701 186.693V200.116C217.701 203.071 220.115 205.485 223.071 205.485H235.188C239.449 205.485 243.562 203.785 246.567 200.781L261.296 186.052C264.325 183.023 266 178.934 266 174.673V91.4004C266 87.1395 264.301 83.0263 261.296 80.0215L246.567 65.293C243.538 62.2635 239.449 60.5887 235.188 60.5887V60.5396Z" fill="white"/>
</g>
</g>
<defs>
<clipPath id="clip0_548_86">
<rect width="266" height="266" fill="white"/>
</clipPath>
</defs>
</svg>
