<svg width="56" height="56" viewBox="0 0 56 56" fill="none" xmlns="http://www.w3.org/2000/svg">
<g clip-path="url(#clip0_548_86)">
<mask id="mask0_548_86" style="mask-type:luminance" maskUnits="userSpaceOnUse" x="0" y="0" width="56" height="56">
<path d="M56 0H0V56H56V0Z" fill="white"/>
</mask>
<g mask="url(#mask0_548_86)">
<path d="M33.0866 13.0615H19.2369C18.3399 13.0615 17.4739 13.4193 16.8414 14.0519L13.7406 17.1526C13.1028 17.7904 12.7502 18.6511 12.7502 19.5482V37.0792C12.7502 37.9763 13.108 38.8424 13.7406 39.4748L16.8414 42.5756C17.4791 43.2133 18.3399 43.5659 19.2369 43.5659H36.7681C37.6651 43.5659 38.531 43.2083 39.1637 42.5756L42.2643 39.4748C42.9022 38.8371 43.2546 37.9763 43.2546 37.0792V19.5482C43.2546 18.6511 42.8969 17.7852 42.2643 17.1526L39.1637 14.0519C38.5258 13.4141 37.6651 13.0615 36.7681 13.0615H33.0866ZM38.1681 23.2348V37.3592C38.1681 37.9815 37.6599 38.4897 37.0376 38.4897H18.9569C18.3347 38.4897 17.8265 37.9815 17.8265 37.3592V19.2786C17.8265 18.6563 18.3347 18.1482 18.9569 18.1482H37.0376C37.6599 18.1482 38.1681 18.6563 38.1681 19.2786V23.2348Z" fill="white"/>
<path d="M8.47266 50.9132H9.03784C9.66005 50.9132 10.1682 50.4052 10.1682 49.7829V46.957C10.1682 46.3347 9.66005 45.8267 9.03784 45.8267H6.2119C5.58969 45.8267 5.08154 46.3347 5.08154 46.957V47.5222C5.08154 49.394 6.60081 50.9132 8.47266 50.9132Z" fill="white"/>
<path d="M38.1682 49.7829C38.1682 50.4052 37.66 50.9132 37.0377 50.9132H18.957C18.3348 50.9132 17.8267 50.4052 17.8267 49.7829V46.957C17.8267 46.3347 17.3185 45.8267 16.6963 45.8267H13.8704C13.2481 45.8267 12.74 46.3347 12.74 46.957V49.5081C12.74 50.4052 13.0978 51.2711 13.7304 51.9037L16.8311 55.0043C17.4689 55.6422 18.3296 55.9947 19.2267 55.9947H36.7577C37.6547 55.9947 38.5208 55.637 39.1533 55.0043L42.2541 51.9037C42.8918 51.2658 43.2444 50.4052 43.2444 49.5081V46.957C43.2444 46.3347 42.7362 45.8267 42.1141 45.8267H39.2882C38.6659 45.8267 38.1577 46.3347 38.1577 46.957V49.7829H38.1682Z" fill="white"/>
<path d="M46.9623 50.9132H47.5274C49.3992 50.9132 50.9185 49.394 50.9185 47.5222V46.957C50.9185 46.3347 50.4103 45.8267 49.7882 45.8267H46.9623C46.34 45.8267 45.8318 46.3347 45.8318 46.957V49.7829C45.8318 50.4052 46.34 50.9132 46.9623 50.9132Z" fill="white"/>
<path d="M47.5274 5.08667H46.9623C46.34 5.08667 45.8318 5.59482 45.8318 6.21705V9.04296C45.8318 9.6652 46.34 10.1733 46.9623 10.1733H49.7882C50.4103 10.1733 50.9185 9.6652 50.9185 9.04296V8.47779C50.9185 6.60593 49.3992 5.08667 47.5274 5.08667Z" fill="white"/>
<path d="M6.21705 10.1682H9.04296C9.6652 10.1682 10.1733 9.66007 10.1733 9.03784V6.21192C10.1733 5.58969 9.6652 5.08154 9.04296 5.08154H8.47779C6.60593 5.08154 5.08667 6.60081 5.08667 8.47266V9.03784C5.08667 9.66007 5.59482 10.1682 6.21705 10.1682Z" fill="white"/>
<path d="M33.0866 0H19.2369C18.3399 0 17.4739 0.357777 16.8414 0.990371L13.7406 4.09112C13.1028 4.72888 12.7502 5.58962 12.7502 6.48667V9.03777C12.7502 9.66 13.2584 10.1681 13.8806 10.1681H16.7065C17.3288 10.1681 17.8369 9.66 17.8369 9.03777V6.21185C17.8369 5.58962 18.3451 5.08147 18.9673 5.08147H37.0481C37.6702 5.08147 38.1784 5.58962 38.1784 6.21185V9.03777C38.1784 9.66 38.6866 10.1681 39.3087 10.1681H42.1346C42.7569 10.1681 43.2651 9.66 43.2651 9.03777V6.48667C43.2651 5.58962 42.9073 4.72371 42.2746 4.09112L39.174 0.990371C38.5361 0.352592 37.6755 0 36.7784 0H33.0969H33.0866Z" fill="white"/>
<path d="M0.990371 16.8364C0.352592 17.4741 0 18.3349 0 19.2319V36.763C0 37.6601 0.357777 38.526 0.990371 39.1586L4.09112 42.2592C4.72888 42.8971 5.58962 43.2498 6.48667 43.2498H9.03777C9.66 43.2498 10.1681 42.7416 10.1681 42.1192V39.2933C10.1681 38.6712 9.66 38.163 9.03777 38.163H6.21185C5.58962 38.163 5.08147 37.6548 5.08147 37.0327V18.9519C5.08147 18.3297 5.58962 17.8215 6.21185 17.8215H9.03777C9.66 17.8215 10.1681 17.3134 10.1681 16.6912V13.8652C10.1681 13.243 9.66 12.7349 9.03777 12.7349H6.48667C5.58962 12.7349 4.72371 13.0927 4.09112 13.7252L0.990371 16.826V16.8364Z" fill="white"/>
<path d="M49.5133 12.7451H46.9623C46.34 12.7451 45.8318 13.2533 45.8318 13.8755V16.7014C45.8318 17.3236 46.34 17.8318 46.9623 17.8318H49.7882C50.4103 17.8318 50.9185 18.3399 50.9185 18.9621V37.0429C50.9185 37.6652 50.4103 38.1732 49.7882 38.1732H46.9623C46.34 38.1732 45.8318 38.6814 45.8318 39.3037V42.1296C45.8318 42.7517 46.34 43.2599 46.9623 43.2599H49.5133C50.4103 43.2599 51.2762 42.902 51.9088 42.2696L55.0097 39.1688C55.6474 38.5311 56 37.6703 56 36.7732V19.2421C56 18.3451 55.6423 17.4792 55.0097 16.8466L51.9088 13.7459C51.2712 13.1081 50.4103 12.7555 49.5133 12.7555V12.7451Z" fill="white"/>
</g>
</g>
<defs>
<clipPath id="clip0_548_86">
<rect width="56" height="56" fill="white"/>
</clipPath>
</defs>
</svg>
