<svg width="275" height="56" viewBox="0 0 275 56" fill="none" xmlns="http://www.w3.org/2000/svg">
<path fill-rule="evenodd" clip-rule="evenodd" d="M0 9.82357V12.4706H20.8778H41.7557V9.82357V7.17651H20.8778H0V9.82357ZM53.4729 8.63663L52.1946 9.9201V16.5083V23.0965L53.463 24.4013L54.7314 25.7059H59.7754H64.8195L66.1187 24.4101L67.4179 23.1143L67.3699 19.3366L67.3222 15.5589H63.6066H59.8911V17.0589V18.5589L62.1469 18.6083L64.4028 18.6577V20.5936V22.5295H59.8911H55.3793V16.4412V10.353H59.8911H64.4028V11.3236V12.2942H65.9067H67.4106V11.0986V9.90298L66.1236 8.62798L64.8368 7.35298H59.7939H54.7512L53.4729 8.63663ZM70.2415 16.5302V25.7197L71.7897 25.6687L73.3378 25.6177L73.4263 19.2647L73.5147 12.9118L75.2922 15.7353L77.0695 18.5589L78.4877 18.6095C80.1728 18.6699 79.9067 18.8996 81.917 15.6471C82.7268 14.3368 83.4965 13.1485 83.6274 13.0064C83.827 12.7895 83.8652 13.7906 83.8652 19.227V25.7059H85.3691H86.873V16.5233V7.34063L85.0873 7.39093L83.3015 7.44122L81.0143 11.3236C79.7563 13.4589 78.6689 15.2257 78.598 15.2499C78.5268 15.2739 77.4285 13.5268 76.157 11.3675L73.8451 7.44122L72.0434 7.39093L70.2415 7.34063V16.5302ZM0 17.1471V19.8824H20.8778H41.7557V17.1471V14.4118H34.0487C28.9558 14.4118 26.379 14.4716 26.4512 14.5883C26.5113 14.6853 26.6592 14.7647 26.7799 14.7647C27.377 14.7647 31.4937 17.776 31.4937 18.213C31.4937 18.2576 26.7004 18.2942 20.8419 18.2942H10.1902L10.8896 17.5747C11.8257 16.6119 12.9485 15.8022 14.2872 15.1251C14.8955 14.8173 15.393 14.5311 15.393 14.4887C15.393 14.4464 11.9296 14.4118 7.69649 14.4118H0V17.1471ZM0 24.3824V27.1177H20.8778H41.7557V24.3824V21.6471H37.8443C34.1867 21.6471 33.9415 21.6672 34.065 21.9559C34.5197 23.0181 35.0051 24.4632 35.0583 24.9141L35.1208 25.4412L20.9221 25.4864L6.72337 25.5316V25.1063C6.72337 24.7424 7.27203 22.96 7.6933 21.9559C7.81433 21.6672 7.56786 21.6471 3.91141 21.6471H0V24.3824ZM0 31.6177V34.353H20.8778H41.7557V31.6177V28.8824H38.6079H35.4601L35.1563 30.4847C34.9893 31.366 34.7708 32.2396 34.6708 32.4259C34.4941 32.7556 34.1181 32.7647 20.8672 32.7647H7.24532L7.0629 32.286C6.88508 31.8196 6.68055 30.8873 6.46151 29.5442L6.35341 28.8824H3.17679H0V31.6177ZM52.1946 39.654V48.8373L53.7427 48.7863L55.2909 48.7353L55.3793 41.5442L55.4678 34.353L58.3872 37.5194L61.3065 40.6856L62.7662 40.6959L64.2259 40.7059V44.7647V48.8236H65.8183H67.4106V39.6471V30.4706H65.8211H64.2317L64.1845 35.1438L64.1374 39.817L59.9795 35.1552L55.8217 30.4934L54.0081 30.4821L52.1946 30.4706V39.654ZM70.2415 39.6471V48.8236H77.7611H85.2806V47.3236V45.8236H79.265H73.2494V43.353V40.8824H78.6457H84.0421V39.3824V37.8824H78.6457H73.2494V35.6765V33.4706H79.265H85.2806V31.9706V30.4706H77.7611H70.2415V39.6471ZM87.9346 31.9706V33.4706H90.9405H93.9465L93.9925 41.103L94.0387 48.7353L95.5869 48.7863L97.135 48.8373V41.154V33.4706H100.143H103.151V31.9706V30.4706H95.5426H87.9346V31.9706ZM105.805 39.6533V48.8359L107.594 48.7856L109.384 48.7353L111.701 44.8089C112.975 42.6492 114.073 40.8824 114.14 40.8824C114.207 40.8824 115.313 42.6692 116.597 44.853L118.933 48.8236H120.685H122.436V39.6471V30.4706H120.932H119.428V36.8236C119.428 40.3177 119.368 43.1765 119.295 43.1765C119.222 43.1765 118.366 41.9036 117.393 40.3479L115.624 37.5194L114.121 37.5685L112.617 37.6177L110.848 40.431L109.078 43.2443L109.031 36.8575L108.985 30.4706H107.395H105.805V39.6533ZM126.545 31.7543L125.267 33.0377V39.6557V46.2736L126.554 47.5486L127.841 48.8236H132.866H137.892L139.187 47.5313L140.483 46.2392V39.6298V33.0206L139.196 31.7456L137.909 30.4706H132.866H127.824L126.545 31.7543ZM143.18 39.603L143.225 48.7353H144.729H146.233L146.281 45.25L146.329 41.7647H150.745H155.161L155.209 45.25L155.257 48.7353L156.805 48.7863L158.353 48.8373V45.3377V41.8382L157.556 41.0582L156.759 40.2782L157.556 39.4713L158.353 38.6643V35.8426V33.0206L157.066 31.7456L155.779 30.4706H149.456H143.134L143.18 39.603ZM161.184 39.6471V48.8236H162.688H164.192V44.853V40.8824L164.944 40.8935L165.696 40.9046L168.934 44.8641L172.172 48.8236H174.229H176.285L175.926 48.4265C174.658 47.0253 168.615 39.6139 168.615 39.4613C168.615 39.3586 170.331 37.2935 172.428 34.8725L176.24 30.4706L174.241 30.4742L172.242 30.4777L168.921 34.2683C165.639 38.0155 165.593 38.0589 164.896 38.0589H164.192V34.2647V30.4706H162.688H161.184V39.6471ZM146.322 36.0295V38.7647H150.745H155.168V36.0295V33.2942H150.745H146.322V36.0295ZM128.355 33.6925C128.308 33.8146 128.291 36.574 128.317 39.8248L128.363 45.7353L132.831 45.7825L137.298 45.8296V39.6501V33.4706H132.87C129.476 33.4706 128.421 33.5225 128.355 33.6925ZM0 38.853V41.5883H20.8778H41.7557V38.853V36.1177L37.3766 36.1195L32.9976 36.121L31.8635 37.3729C31.2396 38.0613 30.3367 38.9342 29.8571 39.3123L28.9848 40H20.8778H12.7709L11.9094 39.3208C10.9971 38.6017 9.02347 36.5112 9.02347 36.2642C9.02347 36.1835 6.99319 36.1177 4.51174 36.1177H0V38.853ZM0 46V48.6471H20.8778H41.7557V46V43.353H20.8778H0V46Z" fill="#E9E9E9"/>
</svg>
