<svg width="275" height="56" viewBox="0 0 275 56" fill="none" xmlns="http://www.w3.org/2000/svg">
<path fill-rule="evenodd" clip-rule="evenodd" d="M15.1821 0.115214C7.895 0.584507 1.8314 5.96583 0.349293 13.2793C0.0560563 14.7261 0.0858896 18.3027 0.403439 19.7691C0.870474 21.9258 1.84616 24.1484 3.11307 25.9418C3.91984 27.0838 5.5181 28.7271 6.58244 29.5086C7.39781 30.1074 10.6921 32.0902 18.4202 36.6333C20.3546 37.7705 20.8979 38.1878 21.5252 39.0182C22.9401 40.891 23.2783 43.3013 22.429 45.4601C21.1051 48.8255 17.2631 50.5124 13.9262 49.1935C12.1521 48.4923 10.6475 46.8545 10.0564 44.981C9.87037 44.3917 9.8211 43.9795 9.82089 43.0114C9.82036 40.9015 10.2964 39.8675 12.2909 37.6463L13.4873 36.314L11.6539 35.2237C9.5835 33.9926 9.29589 33.8668 8.537 33.8602C7.63956 33.8524 6.82949 34.3316 6.10234 35.3005C2.67958 39.8609 2.69795 46.2883 6.14672 50.8365C8.13377 53.457 11.2611 55.3293 14.4237 55.7917C15.7856 55.9908 18.2842 55.8674 19.4819 55.5418C22.836 54.63 25.334 52.7771 27.196 49.8201C27.9163 48.6761 28.3482 47.6678 28.7255 46.2494C29.1092 44.8075 29.2007 42.4692 28.9357 40.8799C28.4955 38.2402 27.3701 35.991 25.5336 34.0806C24.1312 32.6218 24.2341 32.6883 15.8722 27.8395C14.9379 27.2978 13.9346 26.7136 13.6426 26.5415L13.1118 26.2285L13.0846 17.426L13.0574 8.62359H15.2847H17.5119L17.5415 10.1407L17.5709 11.6578L18.6325 11.6793C19.2165 11.691 19.8017 11.7031 19.9331 11.7059L20.172 11.711V15.3308V18.9506H19.0128C18.3753 18.9506 17.7781 18.9797 17.6857 19.0152C17.5372 19.0724 17.5178 19.4905 17.5178 22.6253V26.1707L20.6232 27.9625L23.7286 29.7544L24.4999 29.7939C25.5041 29.8453 26.0675 29.5766 27.2491 28.483C29.2706 26.6119 30.8177 24.2098 31.6823 21.5994C34.2807 13.7548 30.6771 5.1781 23.304 1.65777C21.5387 0.814895 19.4913 0.255214 17.7912 0.150667C17.3197 0.121709 16.7905 0.0857238 16.6153 0.0707124C16.4402 0.055701 15.7952 0.0758227 15.1821 0.115214ZM49.3694 14.2821C48.5824 14.5939 47.6849 15.5053 47.4196 16.2623C46.8817 17.7965 47.4194 19.4735 48.7313 20.3538C50.4448 21.5037 52.7466 20.8771 53.6228 19.0221C54.3199 17.5464 54.031 16.021 52.8522 14.9531C51.9188 14.1074 50.5004 13.8341 49.3694 14.2821ZM93.2866 16.4665C93.2477 16.5054 93.2158 22.6857 93.2158 30.2003V43.8631H95.9231H98.6304V41.8041C98.6304 39.271 98.768 38.6292 99.7066 36.7833C100.356 35.5068 100.754 34.8584 101.855 33.286L102.44 32.4503L102.903 33.1795C103.971 34.8631 108.408 42.4055 108.883 43.3451L109.145 43.8631H112.279H115.412L115.285 43.6236C114.609 42.35 109.382 33.8315 106.907 29.9691L106.05 28.6317L107.254 27.0116C107.916 26.1206 109.317 24.2265 110.366 22.8025C111.415 21.3783 112.74 19.5817 113.311 18.8101C113.881 18.0383 114.493 17.2026 114.67 16.9528L114.993 16.4987L111.829 16.5269L108.665 16.5552L106.381 19.6039C102.823 24.3549 100.141 28.0163 98.8217 29.9221C98.6514 30.1683 98.6412 29.8053 98.6359 23.289L98.6304 16.3955H95.9939C94.5438 16.3955 93.3255 16.4274 93.2866 16.4665ZM124.402 22.622C122.473 22.9389 121.034 23.5278 119.705 24.5439C116.925 26.6686 115.418 30.2217 115.668 34.0615C115.932 38.1172 117.256 40.827 119.802 42.5215C121.301 43.5194 122.881 43.9627 125.231 44.045C128.78 44.1692 131.781 43.5996 133.613 42.454C134.696 41.7766 134.621 41.9965 134.621 39.4796C134.621 38.2602 134.594 37.2624 134.561 37.2624C134.528 37.2624 134.349 37.3782 134.163 37.5197C133.1 38.329 130.507 39.2985 128.478 39.6453C125.523 40.1504 123.499 39.9079 122.317 38.9071C121.657 38.3474 121.35 37.1881 121.722 36.6554C121.933 36.3546 122.047 36.3219 125.733 35.5067C130.373 34.4808 131.96 33.8979 133.194 32.7674C134.275 31.776 134.683 30.6677 134.595 28.9583C134.531 27.7185 134.245 26.8255 133.598 25.8491C132.613 24.3613 130.969 23.2165 129.194 22.7815C128.005 22.4901 125.676 22.4126 124.402 22.622ZM67.0984 23.0583C65.6681 23.4367 64.4109 24.3004 63.5953 25.4649C63.0077 26.3038 63.0308 26.3243 62.8547 24.8061C62.7903 24.2498 62.7143 23.6859 62.6858 23.553L62.6342 23.3114L60.4338 23.3401L58.2333 23.3688L58.2063 33.616L58.1792 43.8631H60.8809H63.5826L63.6206 37.5552C63.6567 31.5799 63.6701 31.21 63.8742 30.5421C64.2744 29.2326 64.9612 28.3869 65.9836 27.9452C66.5324 27.708 67.8542 27.6951 68.3873 27.9216C68.9125 28.1448 69.6164 28.8012 69.8744 29.3082C70.3539 30.2509 70.3858 30.7598 70.3878 37.5019L70.3896 43.8631H73.1454H75.9012L75.9323 37.3422L75.9635 30.8213L76.2622 30.1139C76.6675 29.1545 77.1576 28.6113 77.9883 28.2012C79.6037 27.4038 81.3463 27.7823 82.115 29.0976C82.7451 30.1758 82.8052 30.9868 82.8088 38.4601L82.8113 43.8631H85.5288H88.2462L88.1978 36.8631C88.1449 29.2176 88.1067 28.6666 87.5133 26.9882C86.7598 24.8571 85.2274 23.5099 83.0199 23.0377C82.0644 22.8333 80.1262 22.8917 79.1522 23.1542C77.6274 23.5651 76.3156 24.5183 75.4696 25.8303C75.2286 26.2039 75.021 26.5095 75.0083 26.5095C74.9955 26.5095 74.8034 26.2144 74.5814 25.8537C73.6943 24.4125 72.2553 23.3847 70.655 23.0492C69.7135 22.8519 67.8607 22.8565 67.0984 23.0583ZM139.038 25.5229C140.212 29.6388 142.871 39.293 143.811 42.8517C144.321 44.7832 144.358 45.8515 143.945 46.7504C143.563 47.5829 142.998 48.1677 142.193 48.5649C141.554 48.8805 141.433 48.9032 140.431 48.8965C139.84 48.8926 138.864 48.8558 138.263 48.8147L137.17 48.74L137.171 51.0126C137.172 52.2625 137.217 53.3559 137.272 53.4422C137.355 53.5738 137.807 53.5998 140.057 53.6019L142.743 53.6046L143.663 53.2743C146.048 52.4183 147.84 50.5926 149.423 47.4069C150.606 45.0249 152.474 40.2292 153.769 36.251C155.418 31.1848 155.786 30.0061 156.701 26.8821C157.232 25.0669 157.693 23.4971 157.724 23.3936C157.778 23.2167 157.62 23.2072 155.051 23.234L152.321 23.2624L152.188 23.7415C152.115 24.005 151.902 24.7715 151.716 25.4449C150.557 29.626 148.045 37.995 147.903 38.1426C147.86 38.1875 147.551 37.2533 147.217 36.0666C146.533 33.6422 144.592 26.6244 144.042 24.5932L143.682 23.2624L141.03 23.234L138.377 23.2055L139.038 25.5229ZM47.8819 33.5894V43.8631H50.5892H53.2965V33.5894V23.3156H50.5892H47.8819V33.5894ZM124.972 27.0975C123.156 27.6067 121.754 29.058 121.134 31.0711C120.791 32.1856 120.88 32.6844 121.421 32.6844C121.882 32.6844 127.007 31.4091 127.547 31.1597C128.667 30.6435 129.303 29.7798 129.156 28.974C128.937 27.7736 127.915 27.033 126.393 26.9715C125.859 26.9499 125.332 26.9966 124.972 27.0975Z" fill="#E9E9E9"/>
</svg>
