<svg width="275" height="56" viewBox="0 0 275 56" fill="none" xmlns="http://www.w3.org/2000/svg">
<path d="M48.475 12.1455C50.0777 33.8567 36.1233 44.1185 23.6137 45.2128C11.9833 46.23 1.03589 39.0828 0.0754775 28.1016C-0.716762 19.0293 4.88969 15.1669 9.29461 14.7819C13.8252 14.3847 17.6324 17.5095 17.9626 21.2928C18.2808 24.9303 16.0114 26.5858 14.433 26.7236C13.1849 26.833 11.6146 26.0751 11.4728 24.4479C11.3512 23.0498 11.8821 22.8592 11.7523 21.3739C11.5214 18.7294 9.21561 18.4214 7.95329 18.5308C6.42555 18.6646 3.65372 20.4478 4.04275 24.8898C4.43381 29.3702 8.72932 32.9103 14.3601 32.4179C20.4366 31.8869 24.6673 27.1552 24.9854 20.5187C24.9825 20.1672 25.0565 19.8193 25.2022 19.4994L25.2042 19.4914C25.2697 19.3523 25.3463 19.2188 25.4332 19.0921C25.5629 18.8975 25.7291 18.6828 25.9438 18.4477C25.9458 18.4416 25.9458 18.4416 25.9499 18.4416C26.1059 18.2653 26.2944 18.0748 26.5071 17.8702C29.1614 15.3655 38.7209 9.45847 47.7618 11.3289C47.9528 11.3698 48.1255 11.4715 48.2541 11.6187C48.3826 11.7658 48.4601 11.9507 48.475 12.1455Z" fill="url(#paint0_linear_21_359)"/>
<path d="M70.9081 21.4522V42.8937C70.9081 42.9232 70.8962 42.9516 70.8754 42.9725C70.8546 42.9934 70.8263 43.0051 70.7966 43.0051H66.2295C66.2001 43.0051 66.1714 42.9934 66.1507 42.9725C66.1298 42.9516 66.1179 42.9232 66.1179 42.8937V21.4522C66.1179 21.4257 66.1287 21.4002 66.1473 21.3814C66.1662 21.3625 66.1919 21.3519 66.2183 21.3519H70.8078C70.8345 21.3519 70.8597 21.3625 70.8788 21.3814C70.8974 21.4002 70.9081 21.4257 70.9081 21.4522Z" fill="#E9E9E9"/>
<path d="M106.724 13.7071C106.7 13.7071 106.678 13.7165 106.661 13.7332C106.644 13.7499 106.635 13.7726 106.635 13.7963V17.641C106.635 17.6676 106.645 17.6931 106.664 17.7119C106.683 17.7307 106.709 17.7413 106.735 17.7413H115.892V42.8937C115.892 42.9233 115.904 42.9516 115.924 42.9725C115.945 42.9934 115.973 43.0051 116.003 43.0051H120.759C120.789 43.0051 120.817 42.9934 120.838 42.9725C120.859 42.9516 120.871 42.9233 120.871 42.8937V17.7413H129.293C129.324 17.7413 129.356 17.7284 129.379 17.7054C129.402 17.6824 129.415 17.6512 129.415 17.6187V13.7963C129.415 13.7726 129.405 13.7499 129.388 13.7332C129.372 13.7165 129.349 13.7071 129.325 13.7071H106.724Z" fill="#E9E9E9"/>
<path d="M108.39 42.8826C108.39 42.9152 108.378 42.9463 108.355 42.9693C108.332 42.9923 108.3 43.0052 108.268 43.0052H103.813C103.78 43.0052 103.749 42.9923 103.725 42.9693C103.703 42.9463 103.69 42.9152 103.69 42.8826V30.39C103.686 29.7818 103.637 29.1747 103.545 28.5736C103.233 26.4227 102.431 24.974 99.5576 24.974H99.4347C98.5621 25.0059 97.7102 25.2467 96.9502 25.6761C95.9604 26.1974 95.1197 26.9649 94.5108 27.9049C94.6008 28.5997 94.6449 29.2995 94.6449 30V43.1613C94.6449 43.1908 94.6327 43.2192 94.6121 43.2401C94.5914 43.2609 94.5633 43.2727 94.5333 43.2727H90.1445C90.1119 43.2727 90.0806 43.2598 90.0579 43.2368C90.0349 43.2138 90.0219 43.1827 90.0219 43.1501V31.6716C90.0219 29.6322 90.1445 27.448 89.1309 26.2333C88.7105 25.7783 88.1887 25.4293 87.6081 25.2143C87.027 24.9994 86.4041 24.9246 85.7889 24.9962C84.9343 25.0341 84.0965 25.2465 83.3271 25.6203C82.8055 25.8384 82.3298 26.1521 81.9235 26.5453C81.4437 27.0004 81.0905 27.5726 80.8987 28.2058V42.8826C80.8987 42.9152 80.8857 42.9463 80.863 42.9693C80.84 42.9923 80.8088 43.0052 80.776 43.0052H76.3204C76.2881 43.0052 76.2569 42.9923 76.2338 42.9693C76.2108 42.9463 76.1981 42.9152 76.1981 42.8826V21.5972C76.1981 21.5677 76.2097 21.5393 76.2305 21.5184C76.2513 21.4976 76.2799 21.4859 76.3093 21.4859H78.2142C78.5856 21.4845 78.9477 21.6016 79.248 21.8201C79.5483 22.0385 79.7717 22.3468 79.8851 22.7005C79.9743 23.0126 80.0855 23.2801 80.13 23.4138C82.015 21.7751 84.4396 20.8937 86.9364 20.9398C87.8991 20.8727 88.8651 21.012 89.7699 21.3483C90.6746 21.6846 91.4976 22.2102 92.183 22.8899C92.5038 23.2729 92.7908 23.6831 93.0405 24.1159C93.9928 23.1044 95.1478 22.3064 96.4304 21.7744C97.713 21.2423 99.0941 20.9882 100.482 21.0289C102.843 21.0289 108.335 21.8313 108.335 29.2867L108.39 42.8826Z" fill="#E9E9E9"/>
<path d="M173.711 43.0608H168.821C168.797 43.0621 168.774 43.0577 168.753 43.0481C168.732 43.0383 168.713 43.0236 168.699 43.0051C167.674 41.5787 165.49 38.1685 165.257 37.9122L165.156 37.745C164.388 36.7309 162.572 34.4018 160.143 33.878L158.305 35.7837V42.9159C158.305 42.9276 158.303 42.9392 158.298 42.95C158.295 42.9609 158.287 42.9706 158.28 42.979C158.271 42.9873 158.261 42.9938 158.251 42.9982C158.239 43.0027 158.228 43.0051 158.217 43.0051H153.672C153.641 43.0023 153.613 42.9882 153.592 42.9654C153.572 42.9428 153.56 42.9131 153.56 42.8825V13.3281C153.56 13.2986 153.572 13.2702 153.593 13.2493C153.614 13.2284 153.642 13.2167 153.672 13.2167H158.305C158.329 13.2167 158.352 13.2261 158.369 13.2428C158.386 13.2595 158.395 13.2822 158.395 13.3058V30.0221L167.307 20.8839H167.384H172.474C172.62 20.8839 172.686 20.8839 172.742 20.9842C172.798 21.0845 172.742 21.1736 172.742 21.2739L163.363 30.8021C165.446 31.9122 167.237 33.501 168.587 35.4382L168.688 35.5719C168.999 35.9731 172.497 40.9657 173.823 42.8268C173.854 42.8415 173.878 42.868 173.889 42.9005C173.901 42.9328 173.899 42.9685 173.884 42.9995C173.869 43.0305 173.842 43.0544 173.811 43.0659C173.778 43.0774 173.742 43.0755 173.711 43.0608Z" fill="#E9E9E9"/>
<path d="M71.3757 15.5906C71.3867 16.161 71.2281 16.7218 70.9196 17.2016C70.611 17.6815 70.1668 18.0587 69.6435 18.2852C69.1197 18.5117 68.541 18.5773 67.9801 18.4736C67.4196 18.3699 66.9022 18.1017 66.4941 17.703C66.0863 17.3043 65.806 16.7933 65.6892 16.2348C65.5725 15.6764 65.6246 15.0958 65.8387 14.567C66.0528 14.0381 66.4193 13.585 66.8914 13.2652C67.3638 12.9454 67.9203 12.7734 68.4908 12.7711C68.8651 12.7667 69.2368 12.8361 69.5847 12.9754C69.9323 13.1147 70.249 13.3212 70.517 13.583C70.785 13.8448 70.9987 14.1568 71.1459 14.5013C71.2935 14.8458 71.3715 15.2159 71.3757 15.5906Z" fill="#E9E9E9"/>
<path d="M138.883 20.4383C132.322 20.4383 128.257 24.7957 128.257 31.8165C128.257 38.8373 132.322 43.1947 138.883 43.1947C145.444 43.1947 149.577 38.8262 149.577 31.8054C149.577 24.7845 145.444 20.4383 138.883 20.4383ZM143.128 37.7006C142.557 38.2256 141.888 38.6311 141.159 38.8934C140.431 39.1555 139.657 39.2691 138.883 39.2274C133.86 39.2274 132.824 35.0595 132.824 31.5824C132.824 26.7348 134.795 24.3722 138.883 24.3722C142.971 24.3722 144.921 26.8573 144.921 31.7831C144.943 34.4689 144.331 36.4637 143.128 37.6895V37.7006Z" fill="#E9E9E9"/>
<path d="M194.271 36.2854C194.17 36.1628 193.958 36.2854 193.859 36.2854L189.926 36.876C189.859 36.8773 189.795 36.898 189.739 36.9356C189.684 36.9731 189.64 37.026 189.614 37.0878C189.187 37.7947 188.593 38.3865 187.883 38.8118C187.175 39.237 186.374 39.483 185.548 39.5284C184.477 39.6797 183.384 39.5318 182.393 39.1012C181.399 38.6705 180.545 37.9737 179.923 37.0878C179.231 36.1936 178.798 35.1253 178.675 34.0009V33.9228L190.026 32.3627C190.727 32.281 191.399 32.0372 191.989 31.6503C192.578 31.2633 193.07 30.7441 193.424 30.1338C193.753 29.504 193.929 28.8059 193.939 28.0954C193.948 27.3851 193.791 26.6823 193.48 26.0439C192.423 23.7519 190.524 21.9557 188.178 21.029C186.524 20.3987 184.739 20.1958 182.987 20.4394C181.234 20.6829 179.571 21.3648 178.152 22.422C176.853 23.4586 175.807 24.7765 175.091 26.2763C174.375 27.7762 174.008 29.419 174.019 31.081C173.964 32.1616 174.024 33.2449 174.198 34.3128C174.989 38.882 178.319 43.4956 184.144 43.4956C191.096 43.4956 193.759 39.2163 194.248 36.6531C194.315 36.5751 194.393 36.3745 194.271 36.2854ZM179.79 26.5565C180.316 25.9013 180.971 25.3607 181.715 24.9679C182.458 24.575 183.274 24.3382 184.112 24.272C184.883 24.1206 185.678 24.1571 186.433 24.3782C187.187 24.5993 187.877 24.9985 188.444 25.5424C188.891 25.9625 189.267 26.4517 189.559 26.9911C189.643 27.1649 189.687 27.3553 189.687 27.5483C189.687 27.7413 189.643 27.9318 189.559 28.1056C189.483 28.2839 189.362 28.4395 189.207 28.5568C189.053 28.674 188.87 28.7489 188.679 28.7742L178.308 30.2229C178.468 28.883 178.996 27.6137 179.834 26.5565H179.79Z" fill="#E9E9E9"/>
<path d="M216.735 29.61V42.8827C216.735 42.9153 216.723 42.9464 216.7 42.9694C216.677 42.9924 216.645 43.0053 216.613 43.0053H212.157C212.128 43.0053 212.1 42.9935 212.078 42.9727C212.057 42.9518 212.046 42.9234 212.046 42.8939V31.8499C212.046 31.8499 212.046 30.0223 211.957 28.3618C211.941 27.8055 211.814 27.258 211.584 26.751C211.355 26.2441 211.027 25.7877 210.62 25.4087C210.199 25.0755 209.713 24.8348 209.193 24.7024C208.672 24.5699 208.13 24.5486 207.602 24.6397C205.495 24.9113 203.571 25.9753 202.221 27.6152V42.8827C202.221 42.9153 202.209 42.9464 202.185 42.9694C202.162 42.9924 202.132 43.0053 202.099 43.0053H197.643C197.61 43.0053 197.579 42.9924 197.557 42.9694C197.533 42.9464 197.52 42.9153 197.52 42.8827V21.1961C197.52 21.1637 197.533 21.1324 197.557 21.1094C197.579 21.0865 197.61 21.0736 197.643 21.0736H201.374C201.407 21.0736 201.438 21.0865 201.461 21.1094C201.484 21.1324 201.497 21.1637 201.497 21.1961V23.3136C203.38 21.606 205.808 20.6192 208.347 20.5274C210.487 20.3937 216.735 20.5163 216.735 29.61Z" fill="#E9E9E9"/>
<defs>
<linearGradient id="paint0_linear_21_359" x1="43.5885" y1="19.162" x2="7.19645" y2="39.8" gradientUnits="userSpaceOnUse">
<stop stop-color="#0CC5FF"/>
<stop offset="1" stop-color="#007FFF"/>
</linearGradient>
</defs>
</svg>
