<svg width="417" height="56" viewBox="0 0 417 56" fill="none" xmlns="http://www.w3.org/2000/svg">
<g clip-path="url(#clip0_548_75)">
<path d="M0 11.5931L13.9068 20.9989H0V55.9968H13.9068V20.9989V0H0V11.5931Z" fill="url(#paint0_linear_548_75)"/>
<path d="M93.871 13.9989C95.8267 13.9989 97.3473 15.5303 97.3473 17.4989V25.592L111.254 34.9978V13.9989C111.254 6.34361 104.953 0 97.3473 0H14.1238L34.9843 13.9989H94.088H93.871Z" fill="url(#paint1_linear_548_75)"/>
<path d="M52.1505 42.0011C50.1948 42.0011 48.6737 40.4697 48.6737 38.5011V30.408L34.7668 21.0022V42.0011C34.7668 49.6564 41.0685 56 48.6737 56H131.897L111.037 42.0011H51.933H52.1505Z" fill="url(#paint2_linear_548_75)"/>
<path d="M152.757 42H138.85V55.9989H152.757V42Z" fill="url(#paint3_linear_548_75)"/>
<path d="M250.105 13.9989V20.9989H264.012V17.4989C264.012 15.5303 265.533 13.9989 267.489 13.9989H326.593V0H264.012C256.407 0 250.105 6.34361 250.105 13.9989Z" fill="url(#paint4_linear_548_75)"/>
<path d="M250.105 38.5011C250.105 48.1256 257.928 56 267.489 56H326.593V42.0011H267.489C265.533 42.0011 264.012 40.4697 264.012 38.5011C264.012 36.5325 265.533 35.0011 267.489 35.0011H326.593V21.0022H267.489C257.928 21.0022 250.105 28.8767 250.105 38.5011Z" fill="url(#paint5_linear_548_75)"/>
<path d="M229.245 0H173.618C166.013 0 159.711 6.34361 159.711 13.9989V55.9968H173.618V17.4989C173.618 15.5303 175.139 13.9989 177.095 13.9989H225.768C227.724 13.9989 229.245 15.5303 229.245 17.4989V55.9968H243.151V13.9989C243.151 6.34361 236.85 0 229.245 0Z" fill="url(#paint6_linear_548_75)"/>
<path d="M382.002 0V13.9989C382.002 6.34361 375.701 0 368.095 0H333.329V13.9989H364.619C366.574 13.9989 368.095 15.5303 368.095 17.4989V55.9968H382.002V13.9989H416.769V0H382.002Z" fill="url(#paint7_linear_548_75)"/>
</g>
<defs>
<linearGradient id="paint0_linear_548_75" x1="-30.3173" y1="27.9962" x2="294.109" y2="27.9962" gradientUnits="userSpaceOnUse">
<stop stop-color="#A7A9AC"/>
<stop offset="0.0091653" stop-color="#AAACAF"/>
<stop offset="0.1095" stop-color="#C9CACC"/>
<stop offset="0.203" stop-color="#DFE0E1"/>
<stop offset="0.2859" stop-color="#ECEDEE"/>
<stop offset="0.35" stop-color="#F1F2F2"/>
<stop offset="0.4681" stop-color="#EAEBEC"/>
<stop offset="0.6561" stop-color="#D7D8DA"/>
<stop offset="0.8892" stop-color="#B8BABC"/>
<stop offset="1" stop-color="#A7A9AC"/>
</linearGradient>
<linearGradient id="paint1_linear_548_75" x1="-29.1889" y1="17.5048" x2="288.553" y2="17.5048" gradientUnits="userSpaceOnUse">
<stop stop-color="#A7A9AC"/>
<stop offset="0.0091653" stop-color="#AAACAF"/>
<stop offset="0.1095" stop-color="#C9CACC"/>
<stop offset="0.203" stop-color="#DFE0E1"/>
<stop offset="0.2859" stop-color="#ECEDEE"/>
<stop offset="0.35" stop-color="#F1F2F2"/>
<stop offset="0.4681" stop-color="#EAEBEC"/>
<stop offset="0.6561" stop-color="#D7D8DA"/>
<stop offset="0.8892" stop-color="#B8BABC"/>
<stop offset="1" stop-color="#A7A9AC"/>
</linearGradient>
<linearGradient id="paint2_linear_548_75" x1="-28.3529" y1="38.4952" x2="289.39" y2="38.4952" gradientUnits="userSpaceOnUse">
<stop stop-color="#A7A9AC"/>
<stop offset="0.0091653" stop-color="#AAACAF"/>
<stop offset="0.1095" stop-color="#C9CACC"/>
<stop offset="0.203" stop-color="#DFE0E1"/>
<stop offset="0.2859" stop-color="#ECEDEE"/>
<stop offset="0.35" stop-color="#F1F2F2"/>
<stop offset="0.4681" stop-color="#EAEBEC"/>
<stop offset="0.6561" stop-color="#D7D8DA"/>
<stop offset="0.8892" stop-color="#B8BABC"/>
<stop offset="1" stop-color="#A7A9AC"/>
</linearGradient>
<linearGradient id="paint3_linear_548_75" x1="-33.5294" y1="49.0059" x2="291.128" y2="49.0059" gradientUnits="userSpaceOnUse">
<stop stop-color="#A7A9AC"/>
<stop offset="0.0091653" stop-color="#AAACAF"/>
<stop offset="0.1095" stop-color="#C9CACC"/>
<stop offset="0.203" stop-color="#DFE0E1"/>
<stop offset="0.2859" stop-color="#ECEDEE"/>
<stop offset="0.35" stop-color="#F1F2F2"/>
<stop offset="0.4681" stop-color="#EAEBEC"/>
<stop offset="0.6561" stop-color="#D7D8DA"/>
<stop offset="0.8892" stop-color="#B8BABC"/>
<stop offset="1" stop-color="#A7A9AC"/>
</linearGradient>
<linearGradient id="paint4_linear_548_75" x1="-23.4732" y1="10.5011" x2="290.834" y2="10.5011" gradientUnits="userSpaceOnUse">
<stop stop-color="#A7A9AC"/>
<stop offset="0.0091653" stop-color="#AAACAF"/>
<stop offset="0.1095" stop-color="#C9CACC"/>
<stop offset="0.203" stop-color="#DFE0E1"/>
<stop offset="0.2859" stop-color="#ECEDEE"/>
<stop offset="0.35" stop-color="#F1F2F2"/>
<stop offset="0.4681" stop-color="#EAEBEC"/>
<stop offset="0.6561" stop-color="#D7D8DA"/>
<stop offset="0.8892" stop-color="#B8BABC"/>
<stop offset="1" stop-color="#A7A9AC"/>
</linearGradient>
<linearGradient id="paint5_linear_548_75" x1="-23.4732" y1="38.5038" x2="290.834" y2="38.5038" gradientUnits="userSpaceOnUse">
<stop stop-color="#A7A9AC"/>
<stop offset="0.0091653" stop-color="#AAACAF"/>
<stop offset="0.1095" stop-color="#C9CACC"/>
<stop offset="0.203" stop-color="#DFE0E1"/>
<stop offset="0.2859" stop-color="#ECEDEE"/>
<stop offset="0.35" stop-color="#F1F2F2"/>
<stop offset="0.4681" stop-color="#EAEBEC"/>
<stop offset="0.6561" stop-color="#D7D8DA"/>
<stop offset="0.8892" stop-color="#B8BABC"/>
<stop offset="1" stop-color="#A7A9AC"/>
</linearGradient>
<linearGradient id="paint6_linear_548_75" x1="-46.2065" y1="27.9984" x2="296.717" y2="27.9984" gradientUnits="userSpaceOnUse">
<stop stop-color="#A7A9AC"/>
<stop offset="0.0091653" stop-color="#AAACAF"/>
<stop offset="0.1095" stop-color="#C9CACC"/>
<stop offset="0.203" stop-color="#DFE0E1"/>
<stop offset="0.2859" stop-color="#ECEDEE"/>
<stop offset="0.35" stop-color="#F1F2F2"/>
<stop offset="0.4681" stop-color="#EAEBEC"/>
<stop offset="0.6561" stop-color="#D7D8DA"/>
<stop offset="0.8892" stop-color="#B8BABC"/>
<stop offset="1" stop-color="#A7A9AC"/>
</linearGradient>
<linearGradient id="paint7_linear_548_75" x1="-57.3418" y1="27.9935" x2="285.582" y2="27.9935" gradientUnits="userSpaceOnUse">
<stop stop-color="#A7A9AC"/>
<stop offset="0.0091653" stop-color="#AAACAF"/>
<stop offset="0.1095" stop-color="#C9CACC"/>
<stop offset="0.203" stop-color="#DFE0E1"/>
<stop offset="0.2859" stop-color="#ECEDEE"/>
<stop offset="0.35" stop-color="#F1F2F2"/>
<stop offset="0.4681" stop-color="#EAEBEC"/>
<stop offset="0.6561" stop-color="#D7D8DA"/>
<stop offset="0.8892" stop-color="#B8BABC"/>
<stop offset="1" stop-color="#A7A9AC"/>
</linearGradient>
<clipPath id="clip0_548_75">
<rect width="416.769" height="56" fill="white"/>
</clipPath>
</defs>
</svg>
