<svg width="275" height="56" viewBox="0 0 275 56" fill="none" xmlns="http://www.w3.org/2000/svg">
<path fill-rule="evenodd" clip-rule="evenodd" d="M0.000688929 28.1661C0.0337288 32.1444 1.25449 36.0288 3.51456 39.3387C5.80604 42.695 9.06304 45.3108 12.8736 46.8555C16.6843 48.4002 20.8773 48.8042 24.9226 48.0167C28.968 47.2292 32.6838 45.2854 35.6003 42.4313C38.5168 39.5772 40.503 35.9404 41.3076 31.9813C42.1122 28.0228 41.6993 23.9192 40.1211 20.1898C38.5427 16.4605 35.8695 13.2734 32.4402 11.0306C29.0577 8.81876 25.0892 7.62411 21.0238 7.59174L20.8542 7.59106H10.1728H0V28L0.000688929 28.1661ZM10.6872 28.1661C10.7198 30.0765 11.3136 31.9381 12.3994 33.5285C13.5168 35.1653 15.1049 36.4407 16.9629 37.1936C18.821 37.9472 20.8656 38.1442 22.838 37.76C24.8104 37.3765 26.6222 36.4284 28.0443 35.0368C29.4665 33.6447 30.4349 31.872 30.8272 29.9412C31.2196 28.0111 31.0182 26.0099 30.2486 24.1916C29.4789 22.3738 28.1756 20.8192 26.5034 19.726C24.8784 18.663 22.9757 18.0818 21.0238 18.0503V28.1661H10.6872ZM110.096 37.8663C109.202 38.0343 108.229 38.1189 107.176 38.1189C105.503 38.1189 104.279 37.8311 103.5 37.2548C102.721 36.6656 102.238 35.9139 102.051 35.001C101.863 34.0887 101.77 32.8454 101.77 31.2729V18.5926H98.937V15.4747H101.77V9.91404H105.836V15.4747H109.555V18.5926H105.836V31.4835C105.836 33.014 106.03 33.9899 106.419 34.4112C106.823 34.8188 107.37 35.0226 108.062 35.0226C108.769 35.0226 109.447 34.9658 110.096 34.854V37.8663ZM62.5206 14.9695C59.9689 14.9695 57.7848 16.0294 55.9683 18.1504V15.4747H51.8812V46.4182H55.9683V36.0967C57.6696 37.5994 59.7601 38.3505 62.2395 38.3505C65.0363 38.3505 67.3505 37.29 69.1811 35.1696C71.0262 33.035 71.9493 30.1358 71.9493 26.4701C71.9493 22.9458 71.1273 20.1509 69.4838 18.0867C67.8403 16.0084 65.5192 14.9695 62.5206 14.9695ZM61.98 35.2326C59.7167 35.2326 57.7126 34.3272 55.9683 32.5156V21.8995C57.8282 19.3437 59.8896 18.0657 62.1531 18.0657C63.9122 18.0657 65.2812 18.7822 66.2615 20.2145C67.2418 21.6326 67.7323 23.7178 67.7323 26.4701C67.7323 29.3773 67.2136 31.5675 66.1755 33.0424C65.1374 34.5026 63.7389 35.2326 61.98 35.2326ZM91.0657 26.9969V31.9467C90.3447 32.9578 89.3569 33.7583 88.1034 34.3481C86.8486 34.938 85.5512 35.2326 84.2104 35.2326C82.7403 35.2326 81.5722 34.9312 80.7074 34.3272C79.842 33.7095 79.41 32.8318 79.41 31.6941C79.41 28.5627 82.3653 26.9969 88.2761 26.9969H91.0657ZM83.043 38.3505C86.3155 38.3505 88.9895 37.4092 91.0657 35.5279V37.8236H95.1313V23.3738C95.1313 20.0459 94.3093 17.8131 92.6658 16.6754C91.0223 15.5383 88.7301 14.9695 85.7892 14.9695C79.4891 14.9695 76.1877 17.2653 75.885 21.8575H79.9501C80.0656 19.3294 81.9396 18.0657 85.5725 18.0657C87.3027 18.0657 88.5643 18.3048 89.3569 18.7822C90.15 19.2596 90.633 19.8631 90.8063 20.5938C90.979 21.3096 91.0657 22.4683 91.0657 24.0693H89.0762C79.8351 24.0693 75.2143 26.6807 75.2143 31.9047C75.2143 33.8009 75.9497 35.3524 77.4205 36.5599C78.8906 37.7539 80.7646 38.3505 83.043 38.3505ZM115.134 35.2752C117.181 37.3252 119.891 38.3505 123.264 38.3505C125.889 38.3505 128.108 37.7254 129.926 36.4759C131.756 35.2258 132.83 33.4495 133.147 31.1463H128.93C128.873 32.4526 128.268 33.4637 127.115 34.1795C125.975 34.8818 124.693 35.2326 123.264 35.2326C121.377 35.2326 119.784 34.6082 118.487 33.3581C117.203 32.1086 116.476 30.1914 116.301 27.6078H133.581V26.6597C133.581 22.9384 132.6 20.0601 130.639 18.0237C128.693 15.9874 126.084 14.9695 122.811 14.9695C119.611 14.9695 117.016 16.0084 115.026 18.0867C113.051 20.1509 112.063 23.0088 112.063 26.6597C112.063 30.339 113.087 33.2111 115.134 35.2752ZM127.05 19.6667C128.203 20.734 128.945 22.3417 129.277 24.4905H116.389C116.705 22.3275 117.447 20.7198 118.616 19.6667C119.784 18.5994 121.182 18.0657 122.811 18.0657C124.483 18.0657 125.896 18.5994 127.05 19.6667ZM157 37.8236H151.94L146.23 29.1031L140.522 37.8236H135.461L143.939 26.2174L136.132 15.4747H141.193L146.23 23.2898L151.27 15.4747H156.329L148.523 26.1754L157 37.8236Z" fill="#E9E9E9"/>
</svg>
