<svg width="275" height="56" viewBox="0 0 275 56" fill="none" xmlns="http://www.w3.org/2000/svg">
<g clip-path="url(#clip0_21_430)">
<path d="M211.5 43.7665C210.861 44.3196 210.273 44.9152 209.606 45.3974C208.148 46.4455 206.396 47.0086 204.6 47.007C203.069 47.0655 201.539 46.8494 200.083 46.3688C199.085 46.031 198.195 45.4318 197.507 44.6338C196.819 43.8357 196.357 42.8678 196.169 41.8307C195.948 40.8627 195.831 39.8737 195.822 38.8809C195.822 30.3151 195.822 21.7635 195.822 13.1977C195.822 12.8644 195.864 12.6588 196.268 12.6375C197.977 12.5453 199.693 12.4319 201.402 12.3255C201.402 12.3255 201.459 12.3255 201.494 12.3752V12.9212C201.494 15.8331 201.494 18.7522 201.494 21.6784C201.494 22.0187 201.587 22.2244 201.962 22.2244H211.521V27.8971H202.069C201.714 27.8971 201.459 27.9538 201.466 28.4005C201.466 31.6623 201.466 34.9242 201.466 38.186C201.439 38.8519 201.647 39.5062 202.054 40.0339C202.461 40.5617 203.041 40.9292 203.693 41.0719C204.501 41.2634 205.33 41.3492 206.16 41.3272C207.992 41.2394 209.793 40.8239 211.478 40.1005L211.5 43.7665ZM188.284 38.3916C188.284 39.5049 188.284 40.5968 188.284 41.7101C188.27 41.8953 188.19 42.0692 188.057 42.1994C187.165 43.2468 186.071 44.1042 184.841 44.7206C183.61 45.337 182.269 45.6997 180.895 45.7874C177.918 46.0956 174.939 45.2222 172.599 43.3552C170.997 42.1565 169.743 40.552 168.968 38.7072C168.193 36.8624 167.924 34.8442 168.189 32.8607C168.706 27.8971 171.443 24.5927 176.066 22.9335C177.547 22.3874 179.126 22.1589 180.701 22.2628C182.275 22.3666 183.811 22.8005 185.207 23.5362C186.16 24.0575 186.997 24.7659 187.67 25.6188C188.343 26.4717 188.836 27.4516 189.121 28.4998C189.515 29.7488 189.697 31.0551 189.66 32.3643C189.66 33.3429 189.66 34.3285 189.66 35.3C189.66 35.7751 189.546 35.9169 189.057 35.9169C185.682 35.9169 182.306 35.9169 178.924 35.9169H174.811C174.102 35.9169 174.053 36.002 174.244 36.626C174.486 37.4591 174.954 38.2089 175.596 38.7922C176.238 39.3755 177.029 39.7694 177.882 39.9303C181.006 40.715 184.311 40.3133 187.157 38.8029L188.171 38.2923L188.284 38.3916ZM179.236 30.9249H183.214C183.703 30.9249 183.76 30.8256 183.583 30.4073C183.275 29.6195 182.717 28.9547 181.994 28.5153C181.272 28.0758 180.425 27.886 179.584 27.9751C178.698 28.0181 177.833 28.2535 177.048 28.665C176.263 29.0764 175.577 29.6541 175.038 30.3576C174.949 30.4954 174.883 30.6461 174.84 30.8044C174.991 30.8676 175.151 30.9082 175.315 30.9249H179.236ZM164.927 22.3237C164.374 22.9406 163.884 23.4653 163.395 23.99C161.471 26.0511 159.545 28.1169 157.616 30.1874C157.571 30.2238 157.534 30.2687 157.507 30.3197C157.48 30.3706 157.463 30.4264 157.458 30.4839C157.452 30.5414 157.459 30.5994 157.476 30.6544C157.494 30.7095 157.522 30.7604 157.559 30.8044C160.566 35.6167 163.565 40.4361 166.558 45.2626C166.664 45.4328 166.77 45.6172 166.912 45.8299C166.802 45.8515 166.691 45.8657 166.579 45.8725C164.948 45.8725 163.331 45.8725 161.7 45.8725C161.56 45.8901 161.417 45.865 161.29 45.8005C161.164 45.736 161.06 45.6351 160.991 45.5108C158.727 41.885 156.453 38.2663 154.17 34.6547C153.908 34.2292 153.858 34.2222 153.532 34.5838C152.823 35.3567 152.114 36.1225 151.404 36.9167C151.237 37.1157 151.142 37.3657 151.135 37.6258C151.135 40.2281 151.135 42.8305 151.135 45.4257C151.135 45.5463 151.135 45.6668 151.135 45.8299H145.519V14.3677C147.39 14.0283 149.292 13.8952 151.192 13.9706V14.4953C151.192 19.4448 151.192 24.3966 151.192 29.3507C151.215 29.4786 151.255 29.6026 151.312 29.7194C151.448 29.6594 151.574 29.5806 151.688 29.4854C153.787 27.2495 155.874 25.0087 157.949 22.7633C158.079 22.6101 158.243 22.4894 158.427 22.4106C158.612 22.3318 158.813 22.2972 159.013 22.3095C160.92 22.3237 162.863 22.3024 164.934 22.3024L164.927 22.3237ZM103.584 22.3237C105.097 22.2645 106.607 22.5201 108.016 23.0742C109.426 23.6283 110.705 24.469 111.774 25.5429C113.7 27.5433 114.83 30.1783 114.95 32.9529C115.225 35.493 114.731 38.057 113.532 40.3132C112.73 41.8545 111.546 43.1644 110.094 44.1178C108.642 45.0712 106.969 45.6363 105.236 45.759C103.43 45.9923 101.596 45.8523 99.8467 45.3477C98.1681 44.8658 96.6415 43.9606 95.4134 42.7189C94.1854 41.4772 93.2971 39.9407 92.8338 38.2569C91.4724 33.7187 92.0396 29.4358 95.2518 25.7627C96.8105 23.9861 98.9686 22.8452 101.315 22.5577C102.045 22.4442 102.818 22.3946 103.591 22.3308L103.584 22.3237ZM97.9818 34.052C97.9677 34.9691 98.1515 35.8785 98.5207 36.7181C98.8657 37.5957 99.4294 38.3704 100.158 38.9688C100.887 39.5672 101.757 39.9693 102.684 40.137C103.612 40.3046 104.568 40.2323 105.46 39.9268C106.352 39.6213 107.151 39.0929 107.781 38.3916C108.635 37.4591 109.193 36.2941 109.383 35.0443C109.574 33.7945 109.389 32.5162 108.852 31.3716C108.53 30.599 108.039 29.9083 107.415 29.3499C106.791 28.7915 106.05 28.3797 105.247 28.1445C104.444 27.9093 103.598 27.8567 102.771 27.9906C101.945 28.1244 101.159 28.4414 100.471 28.9182C99.6748 29.513 99.0338 30.2907 98.6018 31.1855C98.1698 32.0803 97.9596 33.0659 97.9889 34.0591L97.9818 34.052ZM137.23 29.8825C135.422 28.4635 133.135 27.8001 130.848 28.0318C130.06 28.0718 129.294 28.3089 128.622 28.7214C127.949 29.134 127.391 29.7088 126.998 30.3931C126.28 31.4724 125.89 32.7363 125.875 34.0323C125.86 35.3283 126.22 36.6009 126.913 37.6967C127.354 38.4884 128.003 39.1442 128.791 39.593C129.578 40.0417 130.474 40.2663 131.38 40.2423C133.861 40.2038 136.306 39.6433 138.556 38.5972C138.719 38.5334 138.868 38.4554 139.031 38.3987C139.031 38.3987 139.088 38.3987 139.173 38.3987C139.173 39.3205 139.13 40.2423 139.173 41.1641C139.191 41.4503 139.145 41.737 139.038 42.0031C138.931 42.2693 138.767 42.5084 138.556 42.7028C137.493 43.7401 136.229 44.5496 134.842 45.0817C133.456 45.6139 131.975 45.8576 130.491 45.7978C129.007 45.7381 127.55 45.3762 126.211 44.7343C124.871 44.0924 123.677 43.184 122.701 42.0647C121.243 40.3382 120.33 38.2186 120.077 35.9736C119.602 32.8543 120.31 29.6703 122.062 27.0462C122.857 25.8248 123.908 24.7911 125.142 24.0171C126.376 23.2432 127.765 22.7476 129.21 22.5647C131.319 22.1728 133.495 22.3892 135.485 23.1887C136.05 23.4652 136.591 23.7878 137.102 24.1531C137.154 24.1952 137.196 24.2481 137.225 24.3081C137.255 24.3681 137.271 24.4338 137.272 24.5006C137.272 26.2662 137.272 28.046 137.272 29.7904C137.26 29.8218 137.246 29.8526 137.23 29.8825ZM72.3979 10.7372C73.2046 10.4195 74.0407 10.182 74.8939 10.0281C77.3942 9.54427 79.9824 9.82855 82.318 10.8435C86.4662 12.7084 89.1111 15.8497 89.9336 20.3737C90.5251 23.2949 90.0655 26.3312 88.636 28.9465C87.2996 31.5085 85.1026 33.5171 82.4315 34.6192C80.6957 35.3746 78.8157 35.7413 76.9232 35.6935C75.0307 35.6457 73.1716 35.1847 71.4761 34.3427C70.533 33.896 70.533 33.8889 70.533 34.9241C70.533 38.7532 70.533 42.5847 70.533 46.4185C70.533 46.461 70.533 46.5035 70.4905 46.6028H64.2434C64.2434 46.2908 64.2434 38.8879 64.2434 28.6416V10.6946L72.3979 10.7372ZM77.1701 29.5067C78.9037 29.4348 80.543 28.6974 81.7469 27.4478C82.9507 26.1982 83.6266 24.5326 83.6339 22.7975C83.6412 21.0623 82.9794 19.3911 81.7861 18.1315C80.5928 16.8718 78.9598 16.1206 77.2268 16.0341C73.3268 15.9702 70.4479 19.5795 70.4905 22.7775C70.5212 24.5421 71.2339 26.2262 72.4792 27.4768C73.7245 28.7274 75.4056 29.4472 77.1701 29.4854V29.5067ZM64.2576 19.6504C64.2576 22.352 64.2576 11.3257 64.2576 11.4746V10.7159H72.3908C72.3483 10.7584 64.3285 10.7159 64.2576 10.7159V19.6504Z" fill="#753ED7"/>
<path d="M36.8087 24.6777C36.8513 24.6777 36.8087 24.6281 36.8087 24.6777V25.8477C36.8087 26.103 36.8087 26.3583 36.8087 26.6206C36.8087 27.3297 36.8087 28.0388 36.8087 28.7125C36.8087 28.8472 36.8087 28.9677 36.8087 29.1024C36.6417 31.5784 35.9633 33.9928 34.8162 36.1933C32.9843 39.688 30.1025 42.5201 26.5766 44.2911C24.7018 45.2741 22.6557 45.8879 20.5494 46.0993C16.4685 46.6477 12.323 45.7796 8.805 43.6399C5.28704 41.5002 2.60956 38.2185 1.21963 34.3426C0.58523 32.7098 0.198062 30.9914 0.070913 29.2443C-0.264468 25.5502 0.529231 21.8413 2.34708 18.608C5.18343 13.5238 9.66486 10.808 15.2454 9.68054C18.4118 9.07573 21.6796 9.27814 24.7471 10.2691L24.9173 10.3258C25.0733 10.3754 25.0024 10.3613 25.3144 10.4535C24.9173 10.7158 24.2012 11.1625 23.8395 11.4462C22.6055 12.3084 21.4878 13.326 20.5139 14.474L19.9679 15.0909C17.0264 14.8045 14.0756 15.5353 11.6078 17.1614C10.0637 18.1739 8.76243 19.5149 7.79681 21.0887C6.8312 22.6624 6.22511 24.4301 6.02188 26.2652C5.81865 28.1004 6.02329 29.9578 6.62118 31.7047C7.21906 33.4516 8.19542 35.0448 9.4805 36.3706C11.3261 38.335 13.7677 39.6364 16.4274 40.0735C19.0872 40.5106 21.8168 40.059 24.1941 38.7886C25.6655 38.0173 26.9684 36.9603 28.0264 35.6795C29.0845 34.3986 29.8765 32.9196 30.356 31.329C30.5617 30.7121 30.512 30.6199 29.8597 30.6199C25.832 30.6199 21.8044 30.6199 17.8052 30.6199H17.7201C17.3372 30.6199 21.2655 30.6199 17.2379 30.6199V27.3014C17.2379 27.0319 17.2379 26.7625 17.2379 26.493C17.3365 24.5228 17.7507 22.5812 18.4646 20.7423C20.0699 16.4827 23.2152 12.9805 27.2786 10.9285C29.1058 9.98692 31.0829 9.37028 33.1215 9.10618C36.6623 8.62069 40.2676 9.18789 43.4883 10.7371C46.548 12.1884 49.1522 14.4493 51.0189 17.2749C52.4792 19.4667 53.4313 21.9572 53.8056 24.5643C53.9888 25.5824 54.0837 26.6144 54.0892 27.6488C54.0688 28.56 53.9954 29.4691 53.8694 30.3717C53.4609 33.1795 52.3969 35.8516 50.7636 38.1717L50.5579 38.4624C50.4941 38.5404 50.4374 38.6326 50.3736 38.7177C50.1538 39.0013 49.9268 39.2779 49.6999 39.5544C49.473 39.8309 49.3241 39.9869 49.1398 40.1926C48.9554 40.3982 48.6221 40.7315 48.3598 40.9868L48.1541 41.1853C47.757 41.5682 47.282 41.9653 46.8494 42.3057L46.2892 42.724L46.112 42.8446C45.9701 42.9509 45.8 43.0644 45.6511 43.1637C45.5021 43.2629 45.339 43.348 45.176 43.4473L44.6512 43.7522L44.1691 44.0146C43.9705 44.1209 43.8216 44.2131 43.616 44.3053L43.4103 44.3975L43.2898 44.4542L43.0558 44.5677L42.8714 44.6457C42.7154 44.7166 42.5523 44.7875 42.3822 44.8513C41.0204 45.409 39.5891 45.7787 38.1276 45.9504C38.0709 45.947 38.0141 45.947 37.9575 45.9504H37.61C37.5249 45.9504 37.4469 45.9504 37.3618 45.9504H37.1349C36.8725 45.9504 36.6102 45.9929 36.3407 46H36.0004C33.6312 46.0513 31.275 45.6369 29.0655 44.7804C29.0374 44.7705 29.011 44.7561 28.9875 44.7378C28.874 44.6811 28.8315 44.7378 28.9024 44.6669C30.913 43.4233 32.6773 41.82 34.1071 39.9373C34.2773 39.7104 33.9937 40.0791 34.1071 39.9373H34.3695C36.9901 40.2626 39.6438 39.6929 41.9 38.3206C43.5582 37.3863 44.9775 36.0806 46.0466 34.5059C47.1157 32.9312 47.8055 31.1302 48.0619 29.2443C48.4621 26.6554 48.0365 24.0063 46.8456 21.673C45.6546 19.3398 43.7589 17.441 41.4276 16.2463C39.0963 15.0516 36.4479 14.6217 33.8583 15.0176C31.2688 15.4135 28.8698 16.6152 27.002 18.452C25.4323 19.958 24.2918 21.8547 23.6977 23.9474C23.5346 24.4934 23.5842 24.543 24.1515 24.543H32.9938L36.8087 24.6777Z" fill="#F84B00"/>
</g>
<defs>
<clipPath id="clip0_21_430">
<rect width="275" height="56" fill="white"/>
</clipPath>
</defs>
</svg>
