<svg width="275" height="56" viewBox="0 0 275 56" fill="none" xmlns="http://www.w3.org/2000/svg">
<path fill-rule="evenodd" clip-rule="evenodd" d="M21.1538 4.43847C20.9956 3.50369 22.3116 3.12586 22.6732 4.00225L23.3784 5.71111C23.4004 5.76427 23.4171 5.81811 23.429 5.87212C25.1203 5.46438 26.8239 5.25903 28.5108 5.24312C28.5092 5.18751 28.5124 5.13088 28.5208 5.07361L28.7897 3.24921C28.9281 2.31127 30.2964 2.35861 30.3697 3.30387L30.5119 5.1425C30.5163 5.20042 30.5157 5.25735 30.5101 5.31292C32.2258 5.44904 33.9116 5.7798 35.5364 6.29115C35.552 6.23774 35.5725 6.18484 35.5982 6.133L36.4195 4.47781C36.8408 3.6285 38.1275 4.0964 37.905 5.01799L37.4714 6.81414C37.4578 6.87037 37.4396 6.92407 37.4172 6.97501C38.9959 7.62861 40.5004 8.45876 41.8989 9.45122C41.9294 9.40688 41.9644 9.36442 42.0035 9.32441L43.296 8.00396C43.9593 7.32644 45.0384 8.16908 44.542 8.97679L43.5745 10.5509C43.5459 10.5977 43.5138 10.641 43.4791 10.6807C44.8998 11.8906 46.1817 13.2845 47.2837 14.8443C47.281 14.6941 47.2801 14.5449 47.2793 14.3982V14.3975L47.2791 14.3715C47.2757 13.6235 47.9522 13.0485 48.7186 12.9413C49.0849 12.8928 49.4572 12.967 49.7766 13.1526C50.0962 13.3382 50.3453 13.6246 50.4847 13.9669C50.9209 15.0766 50.9945 16.296 50.6952 17.4502C50.6707 17.5542 50.6419 17.6581 50.6092 17.7758L50.6091 17.7765L50.6086 17.7789C50.5962 17.823 50.5835 17.8691 50.5703 17.9178C51.6906 18.5493 52.5691 19.5355 53.0674 20.7213C53.4677 21.676 53.088 22.6511 52.2056 23.0383C51.7512 23.2337 51.306 23.1822 50.8984 22.9687C51.2588 24.5556 51.4419 26.152 51.4583 27.7338C51.5057 27.7337 51.5537 27.737 51.6021 27.7441L53.4264 28.0132C54.3642 28.1514 54.317 29.5199 53.3717 29.593L51.5332 29.7353C51.4848 29.739 51.4371 29.7392 51.3904 29.7358C51.2556 31.4538 50.9256 33.1421 50.4147 34.7692C50.4578 34.7833 50.5006 34.8009 50.5428 34.8217L52.1978 35.6428C53.047 36.0641 52.5792 37.351 51.6576 37.1285L49.8617 36.6949C49.8164 36.6839 49.7727 36.6698 49.7308 36.6533C49.077 38.2346 48.2459 39.7416 47.2522 41.1422C47.2865 41.1678 47.3197 41.1962 47.3513 41.2272L48.6716 42.5193C49.3491 43.1826 48.5065 44.2619 47.6987 43.7655L46.1248 42.7982C46.0881 42.7755 46.0536 42.751 46.0211 42.7246C44.9198 44.0181 43.6659 45.1962 42.2732 46.2285C42.2969 46.2625 42.3187 46.2982 42.3385 46.3361L43.1931 47.9699C43.6325 48.8099 42.4976 49.5759 41.8829 48.8543L40.6872 47.4506C40.6594 47.4179 40.6342 47.3841 40.6117 47.3493C39.4349 48.0692 38.1756 48.6917 36.8403 49.202C36.5481 49.3135 36.255 49.4187 35.9613 49.5175C35.9731 49.5566 35.9828 49.5967 35.9897 49.6382L36.2983 51.4604C36.4567 52.3952 35.1407 52.7731 34.7789 51.8968L34.0739 50.188C34.0582 50.1501 34.0451 50.1119 34.0346 50.0733C32.3398 50.4826 30.6322 50.6885 28.9415 50.7041C28.9408 50.7442 28.9374 50.7848 28.9315 50.8258L28.6624 52.6497C28.5242 53.5877 27.1557 53.5404 27.0826 52.5951L26.9404 50.7569C26.9371 50.7153 26.9366 50.6742 26.9387 50.6337C25.2194 50.4967 23.53 50.1642 21.9022 49.6505C21.8888 49.6894 21.8727 49.7282 21.8538 49.7662L21.0328 51.4212C20.6113 52.2704 19.3246 51.8025 19.5471 50.8809L19.9807 49.0852C19.9909 49.0433 20.0036 49.0027 20.0186 48.9637C18.4378 48.3074 16.9315 47.474 15.5318 46.4775C15.5066 46.5114 15.4788 46.5439 15.4484 46.5748L14.1562 47.8949C13.493 48.5725 12.4137 47.7299 12.9102 46.9222L13.8775 45.3483C13.9001 45.3114 13.9248 45.2767 13.9513 45.2441C12.6599 44.1411 11.4839 42.8858 10.4538 41.4916C10.418 41.5173 10.3799 41.5407 10.3396 41.5618L8.70576 42.4165C7.86566 42.8559 7.09962 41.7209 7.82137 41.1062L9.22495 39.9106C9.26055 39.8802 9.29762 39.8531 9.33591 39.8289C8.77212 38.9044 8.2684 37.929 7.83194 36.906L4.73332 41.0138C4.32258 41.5583 3.52155 41.6165 3.09256 41.0862C0.156089 37.4563 -0.206815 32.6554 0.0810245 29.7224C0.150235 29.0172 0.888591 28.6284 1.5415 28.9038L6.18213 30.8614C6.06601 29.9608 6.00522 29.0607 5.99779 28.1651C5.94918 28.1655 5.89982 28.1621 5.85001 28.1548L4.02584 27.8858C3.08789 27.7475 3.13525 26.3791 4.08051 26.306L5.91891 26.1637C5.97012 26.1598 6.0206 26.1598 6.07 26.1638C6.2083 24.4472 6.54145 22.7606 7.05536 21.1355C7.00612 21.1204 6.95736 21.1011 6.90949 21.0773L5.25444 20.2561C4.40513 19.8348 4.87303 18.548 5.79462 18.7705L7.59062 19.2042C7.64347 19.2169 7.69408 19.2338 7.74227 19.2543C8.39823 17.6762 9.23077 16.1725 10.2256 14.7751C10.182 14.7449 10.1403 14.7105 10.101 14.672L8.78058 13.3795C8.10306 12.7163 8.9457 11.6371 9.75342 12.1335L11.3275 13.101C11.3743 13.1297 11.4177 13.1618 11.4575 13.1967C12.5588 11.9072 13.812 10.7327 15.2035 9.7038C15.1702 9.66044 15.1402 9.61353 15.1139 9.56318L14.2592 7.92914C13.8197 7.08904 14.9546 6.32299 15.5694 7.04474L16.7652 8.44854C16.8027 8.49253 16.8354 8.53879 16.8633 8.58677C18.0348 7.87163 19.288 7.25294 20.6162 6.74536C20.9118 6.63241 21.2084 6.52601 21.5057 6.42614C21.4868 6.37362 21.4722 6.31858 21.4626 6.26134L21.1538 4.43847ZM10.4466 34.9596C14.305 45.0565 25.6177 50.1138 35.7144 46.2554C45.7162 42.4336 50.7729 31.2966 47.1167 21.2728C45.904 22.2914 44.4489 23.2142 42.757 23.8343C38.9598 25.2261 36.0606 25.8324 33.614 26.0721C30.8319 29.8977 26.1021 31.4937 23.8137 31.8223L24.1054 26.0936C22.6153 26.1557 21.0142 26.352 19.1419 26.8329C15.6251 27.7364 12.3495 29.2099 9.37634 30.9208C9.58393 32.2749 9.93774 33.6278 10.4466 34.9596ZM15.4346 35.4525C14.497 35.6193 13.6017 34.9944 13.4348 34.0567C13.2679 33.1192 13.8928 32.2238 14.8304 32.057C15.768 31.8902 16.6633 32.515 16.8301 33.4525C16.9969 34.3902 16.3722 35.2856 15.4346 35.4525ZM23.384 35.6612C22.7722 35.77 22.1878 35.3623 22.0788 34.7503C21.97 34.1383 22.3778 33.5541 22.9898 33.4451C23.6016 33.3363 24.186 33.7441 24.2949 34.3561C24.4037 34.9679 23.996 35.5523 23.384 35.6612ZM33.4788 35.2663C32.8668 35.3751 32.2824 34.9674 32.1736 34.3554C32.0647 33.7434 32.4724 33.1591 33.0844 33.0502C33.6964 32.9414 34.2807 33.3492 34.3896 33.9611C34.4986 34.573 34.0906 35.1574 33.4788 35.2663ZM35.5808 40.6573C35.6897 41.2693 36.2741 41.6771 36.886 41.5683C37.498 41.4593 37.9057 40.8749 37.7969 40.2631C37.688 39.6511 37.1035 39.2433 36.4917 39.3521C35.8797 39.4611 35.472 40.0455 35.5808 40.6573ZM23.784 43.4046C23.172 43.5135 22.5876 43.1058 22.4788 42.4938C22.3698 41.8818 22.7776 41.2974 23.3896 41.1886C24.0016 41.0796 24.5858 41.4874 24.6948 42.0994C24.8037 42.7114 24.3958 43.2958 23.784 43.4046ZM17.7101 38.6478C17.8191 39.2597 18.4035 39.6675 19.0155 39.5587C19.6273 39.4498 20.0351 38.8653 19.9263 38.2535C19.8173 37.6415 19.2331 37.2338 18.6211 37.3426C18.0091 37.4515 17.6013 38.0359 17.7101 38.6478ZM28.6988 39.0105C28.0868 39.1193 27.5024 38.7115 27.3936 38.0996C27.2847 37.4876 27.6924 36.9033 28.3044 36.7944C28.9164 36.6854 29.5007 37.0933 29.6096 37.7052C29.7186 38.3171 29.3106 38.9016 28.6988 39.0105ZM38.3059 34.4068C38.4727 35.3443 39.3681 35.9692 40.3056 35.8024C41.2433 35.6355 41.868 34.7401 41.7012 33.8026C41.5343 32.8649 40.6389 32.2401 39.7014 32.4069C38.7637 32.5739 38.139 33.4691 38.3059 34.4068ZM28.6535 43.1469C28.8205 44.0846 29.7157 44.7094 30.6534 44.5424C31.5909 44.3756 32.2158 43.4804 32.0489 42.5427C31.8821 41.605 30.9867 40.9803 30.0492 41.1471C29.1115 41.314 28.4866 42.2094 28.6535 43.1469ZM41.8382 16.6882C42.1834 18.2045 41.2883 19.701 39.8393 20.0309C38.3901 20.3607 36.9357 19.3989 36.5905 17.8826C36.2455 16.3663 37.1404 14.8698 38.5896 14.54C40.0386 14.2101 41.493 15.1719 41.8382 16.6882Z" fill="url(#paint0_linear_21_73)"/>
<path d="M44.0327 17.7936C44.7505 17.6303 45.1793 16.8266 44.9909 15.9985C44.8024 15.1704 44.0679 14.6315 43.3503 14.7948C42.6325 14.9581 42.2037 15.7619 42.3922 16.59C42.5806 17.4181 43.3152 17.957 44.0327 17.7936Z" fill="#4A98EA"/>
<path fill-rule="evenodd" clip-rule="evenodd" d="M121.619 17.7788C121.619 12.1824 126.157 7.64551 131.755 7.64551V12.5953C128.891 12.5953 126.57 14.916 126.57 17.7788V17.7791H131.755V22.7289H126.57V38.0457H121.619V17.7788ZM119.393 7.79254C113.795 7.79254 109.256 12.3292 109.256 17.9256L109.256 38.1924H114.207V17.9259C114.207 15.0631 116.529 12.7423 119.393 12.7423L119.393 7.79254ZM74.3941 33.2425C77.2578 33.2425 79.5793 30.9218 79.5793 28.0589C79.5793 25.1961 77.2578 22.8752 74.3941 22.8752C71.5304 22.8752 69.209 25.1961 69.209 28.0589C69.209 30.9218 71.5304 33.2425 74.3941 33.2425ZM74.3941 38.1922C72.4994 38.1922 70.7261 37.6724 69.209 36.7679V48.253H64.2578V28.0589C64.2578 22.4624 68.796 17.9255 74.3941 17.9255C79.9924 17.9255 84.5306 22.4624 84.5306 28.0589C84.5306 33.6553 79.9924 38.1922 74.3941 38.1922ZM107.029 17.9255H102.078V28.0588C102.078 30.9214 99.7567 33.2421 96.893 33.2421C94.0293 33.2421 91.7079 30.9214 91.7079 28.0588V28.0584V17.9256H86.7567V28.0584V28.0586C86.7567 33.655 91.2949 38.1919 96.893 38.1919C102.491 38.1919 107.029 33.655 107.029 28.0586V28.0584V17.9255ZM114.207 17.9259L114.208 22.8756H119.393V17.9258L114.207 17.9259ZM152.002 21.5428C152.931 22.6923 153.591 24.0229 153.947 25.4372L154.254 27.8232C154.254 27.8527 154.254 27.8823 154.254 27.9119V27.9122C154.254 28.7658 154.148 29.5949 153.95 30.3869H151.937V30.3873H139.56C140.439 32.0011 142.15 33.0963 144.118 33.0963C145.438 33.0963 146.642 32.6034 147.557 31.7918L150.841 35.4957C149.106 37.0334 146.895 37.9296 144.579 38.035C142.262 38.1404 139.98 37.4487 138.112 36.075C136.244 34.7015 134.903 32.7291 134.314 30.4869C133.725 28.2447 133.923 25.8685 134.874 23.7544C135.826 21.6403 137.473 19.9163 139.543 18.8698C141.612 17.8235 143.978 17.518 146.245 18.0044C148.512 18.4909 150.544 19.7398 152.002 21.5428ZM139.56 25.4376C140.439 23.8238 142.15 22.7285 144.118 22.7285C146.085 22.7285 147.796 23.8238 148.675 25.4376H139.56ZM161.431 28.0581C161.431 25.2009 163.744 22.8835 166.6 22.8746V17.9248C161.009 17.9338 156.48 22.4673 156.48 28.0581V28.0583H161.431V28.0581ZM156.48 38.1919H161.431V28.0586H156.48V38.1919Z" fill="#E9E9E9"/>
<defs>
<linearGradient id="paint0_linear_21_73" x1="31.6935" y1="2.56982" x2="53.9166" y2="38.7232" gradientUnits="userSpaceOnUse">
<stop offset="0.0677083" stop-color="#874FFF"/>
<stop offset="0.463542" stop-color="#36AFE2"/>
<stop offset="0.859375" stop-color="#41FF54"/>
</linearGradient>
</defs>
</svg>
