<svg width="338" height="56" viewBox="0 0 338 56" fill="none" xmlns="http://www.w3.org/2000/svg">
<path d="M203.833 43.3573H199.16L199.196 40.2184V16.0585H191.171L187.512 16.0798V12.5791H213.162H214.779H215.538V16.0925L211.833 16.1053H203.852V40.2631L203.833 43.3573Z" fill="#FC6A01"/>
<path d="M298.604 43.3573H293.931L293.965 40.2184V16.0585H285.939L282.281 16.0798V12.5791H307.933H309.549H310.306V16.0925L306.601 16.1053H298.623V40.2631L298.604 43.3573Z" fill="#FC6A01"/>
<path d="M95.4003 30.4633V38.8499H95.4046V43.3168H90.84V15.6753L90.7932 12.4939H99.9606C102.145 12.4939 103.998 12.7067 105.565 13.0961C107.131 13.4856 108.415 14.041 109.46 14.8156C110.504 15.5902 111.266 16.4925 111.742 17.5246C112.214 18.5567 112.455 19.8038 112.455 21.0913C112.455 22.2106 112.265 23.1555 111.882 24.1025C111.504 25.0473 110.934 25.9092 110.223 26.6817C109.509 27.4542 108.654 28.099 107.609 28.6182C106.565 29.1332 105.425 29.6056 104.093 29.8653C104.666 30.1653 105.138 30.5505 105.614 31.1527L112.978 40.2672L115.807 43.3614H110.268L100.72 31.4528C100.437 31.1102 100.152 30.8931 99.8649 30.7208C99.582 30.5484 99.1077 30.4654 98.4419 30.4654H96.9105V27.4542H99.6756C101.007 27.4542 102.194 27.3244 103.238 27.0243C104.283 26.7243 105.138 26.2497 105.803 25.7368C106.469 25.2197 106.99 24.6175 107.373 23.8429C107.752 23.0682 107.894 22.2532 107.894 21.3509C107.894 19.5442 107.229 18.1694 105.899 17.2246C104.568 16.2797 102.624 15.8499 99.9627 15.8499H95.3556V27.4563L95.4024 30.4675L95.4003 30.4633Z" fill="#FC6A01"/>
<path d="M245.807 16.7905C242.768 13.956 238.728 12.5791 233.696 12.5791H221.406L221.393 15.7159V40.2631L221.406 43.3573H226.047V15.9308H233.696C237.401 15.9308 240.345 16.9608 242.483 19.1101C243.527 20.1422 244.284 21.434 244.858 22.8938C245.426 24.3579 245.713 26.0753 245.713 27.965C245.713 31.7487 244.669 34.6705 242.485 36.8199C240.3 38.9692 237.403 40.0013 233.698 40.0013H230.72L228.806 43.3551H233.698C238.731 43.3551 242.721 41.9804 245.809 39.1416C247.283 37.7668 248.423 36.1772 249.232 34.2875C250.036 32.3935 250.465 30.2867 250.465 27.965C250.465 23.3662 248.9 19.6272 245.809 16.7884" fill="#FC6A01"/>
<path d="M283.685 40.4354L271.384 12.5791H266.728L254.379 40.4354L252.984 43.3573H257.816L259.035 40.4354L261.109 35.6026L268.915 16.8076C268.949 16.6926 268.974 16.6118 269.011 16.4905C269.015 16.5075 269.021 16.5203 269.026 16.5394L269.047 16.4905L276.81 35.2664L278.631 39.5012H265.501L263.297 43.3594H285.11L283.687 40.4376L283.685 40.4354Z" fill="#FC6A01"/>
<path d="M336.577 40.2333L324.277 12.377H319.621L307.271 40.2333L305.876 43.1551H310.709L311.927 40.2333L314.001 35.4005L321.805 16.6054C321.839 16.4905 321.865 16.4096 321.901 16.2883C321.905 16.3054 321.911 16.3181 321.916 16.3373L321.937 16.2883L329.701 35.0642L331.521 39.2991H318.391L316.188 43.1573H338L336.577 40.2354V40.2333Z" fill="#FC6A01"/>
<path d="M149.16 21.6061C148.352 19.6717 147.21 17.9948 145.74 16.618C144.266 15.2432 142.511 14.1686 140.418 13.394C138.881 12.8236 137.205 12.5363 135.46 12.3853V16.0796C136.532 16.203 137.573 16.3966 138.519 16.7457C140.04 17.3053 141.274 18.0799 142.318 19.1078C143.367 20.1399 144.124 21.4316 144.696 22.9341C145.264 24.4386 145.551 26.1623 145.551 28.052H145.598C145.598 29.9418 145.313 31.6187 144.743 33.1232C144.171 34.6278 143.367 35.8748 142.318 36.9069C141.274 37.939 140.04 38.7541 138.519 39.3159C137.562 39.6649 136.53 39.8734 135.46 40.0096V43.621C137.205 43.4592 138.881 43.1507 140.418 42.5825C142.511 41.8078 144.222 40.7332 145.689 39.3584C147.163 37.9837 148.303 36.3068 149.112 34.3703C149.92 32.438 150.298 30.3738 150.298 28.052L150.345 27.9648C150.345 25.6431 149.967 23.5363 149.158 21.604" fill="#FC6A01"/>
<path d="M131.651 40.0181C130.564 39.8819 129.515 39.6755 128.545 39.3201C127.025 38.7604 125.791 37.9454 124.742 36.9111C123.698 35.879 122.843 34.632 122.275 33.1274C121.703 31.6229 121.42 29.946 121.42 28.0563C121.42 26.1665 121.703 24.4428 122.275 22.9383C122.843 21.4359 123.698 20.1441 124.742 19.112C125.791 18.0842 127.025 17.3096 128.545 16.7499C129.524 16.3881 130.568 16.1966 131.651 16.0753V12.3916C129.924 12.5448 128.265 12.8321 126.74 13.396C124.651 14.1685 122.892 15.2858 121.422 16.6626C119.948 18.0374 118.808 19.7143 118 21.6508C117.196 23.5873 116.766 25.6899 116.766 28.0137C116.766 30.3376 117.196 32.4422 118 34.3745C118.808 36.311 119.95 37.9858 121.422 39.3627C122.892 40.7395 124.651 41.8121 126.74 42.5867C128.265 43.1506 129.926 43.4571 131.651 43.623V40.0202V40.0181Z" fill="#FC6A01"/>
<path d="M168.95 40.0181C167.865 39.8819 166.814 39.6755 165.844 39.3201C164.324 38.7604 163.09 37.9454 162.041 36.9111C160.997 35.879 160.142 34.632 159.574 33.1274C159.002 31.6229 158.719 29.946 158.719 28.0563C158.719 26.1665 159.002 24.4428 159.574 22.9383C160.142 21.4359 160.997 20.1441 162.041 19.112C163.09 18.0842 164.324 17.3096 165.844 16.7499C166.823 16.3881 167.867 16.1966 168.95 16.0753V12.3916C167.223 12.5448 165.564 12.8321 164.039 13.396C161.95 14.1685 160.191 15.2858 158.721 16.6626C157.247 18.0374 156.107 19.7143 155.301 21.6508C154.493 23.5873 154.063 25.6899 154.063 28.0137C154.063 30.3376 154.493 32.4422 155.301 34.3745C156.105 36.311 157.247 37.9858 158.721 39.3627C160.191 40.7395 161.95 41.8121 164.039 42.5867C165.564 43.1506 167.225 43.4571 168.95 43.623V40.0202V40.0181Z" fill="#FC6A01"/>
<path d="M186.46 21.6061C185.651 19.6717 184.509 17.9948 183.039 16.618C181.565 15.2432 179.811 14.1686 177.718 13.394C176.18 12.8236 174.504 12.5363 172.76 12.3853V16.0796C173.832 16.203 174.872 16.3966 175.818 16.7457C177.339 17.3053 178.573 18.0799 179.621 19.1078C180.666 20.1399 181.423 21.4316 181.997 22.9341C182.565 24.4386 182.852 26.1623 182.852 28.052H182.899C182.899 29.9418 182.612 31.6187 182.044 33.1232C181.472 34.6278 180.668 35.8748 179.623 36.9069C178.575 37.939 177.341 38.7541 175.82 39.3159C174.863 39.6649 173.832 39.8734 172.762 40.0096V43.621C174.506 43.4592 176.182 43.1507 177.72 42.5825C179.813 41.8078 181.523 40.7332 182.99 39.3584C184.464 37.9837 185.604 36.3068 186.413 34.3703C187.217 32.438 187.6 30.3738 187.6 28.052L187.646 27.9648C187.646 25.6431 187.268 23.5363 186.46 21.604" fill="#FC6A01"/>
<path d="M67.7111 7.62286C67.4495 7.77821 67.1985 7.92291 66.9412 8.07614C66.4307 8.37619 65.9223 8.67625 65.4246 8.96566C65.1226 9.14229 64.829 9.31041 64.5313 9.48278C64.0931 9.73602 63.6528 9.98926 63.2232 10.234C62.9147 10.4085 62.6148 10.5787 62.3128 10.7511C61.9044 10.9831 61.496 11.2129 61.094 11.4385C60.792 11.6066 60.4963 11.7705 60.2007 11.9343C59.8136 12.1492 59.4286 12.3621 59.05 12.5685C58.7543 12.7302 58.4629 12.8877 58.1736 13.0452C57.8057 13.2452 57.4398 13.4431 57.0804 13.6346C56.7975 13.7857 56.5146 13.9368 56.2381 14.0837C55.8807 14.2731 55.5298 14.4582 55.181 14.6391C54.9129 14.7795 54.6428 14.92 54.3791 15.0562C54.0324 15.2371 53.692 15.4094 53.3517 15.5839C53.0986 15.7138 52.8434 15.8436 52.5945 15.9691C52.2521 16.1415 51.9181 16.3075 51.5842 16.4735C51.3523 16.5884 51.1162 16.7076 50.8865 16.8203C50.6355 16.9438 50.3909 17.0608 50.1463 17.18L56.0488 32.7382C56.204 33.149 56.2934 33.6001 56.3189 33.9981C56.3295 34.1619 56.3253 34.3258 56.3189 34.4896C56.3168 34.5343 56.3125 34.579 56.3083 34.6216C56.2955 34.7642 56.2764 34.9067 56.2508 35.0493C56.2466 35.0749 56.2444 35.1004 56.2381 35.1259C56.204 35.2919 56.1594 35.4579 56.1083 35.626C56.0956 35.6686 56.0785 35.7112 56.0658 35.7537C56.019 35.892 55.9658 36.0304 55.9063 36.1687C55.8892 36.207 55.8765 36.2432 55.8573 36.2815C55.7808 36.4496 55.6957 36.6198 55.6 36.7901C55.5787 36.8263 55.5553 36.8646 55.534 36.9029C55.4511 37.0433 55.3639 37.1838 55.2682 37.3264C55.2384 37.371 55.2086 37.4157 55.1788 37.4604C55.0597 37.6328 54.9321 37.8052 54.7917 37.9797C54.7704 38.0052 54.7492 38.0307 54.7279 38.0563C54.6045 38.2095 54.4705 38.3627 54.3323 38.5159C54.3089 38.5415 54.2897 38.567 54.2685 38.5904C54.2514 38.6096 54.228 38.6309 54.211 38.65C54.0281 38.8458 53.8367 39.0437 53.6304 39.2416C53.5985 39.2714 53.5666 39.3012 53.5346 39.331C53.339 39.5161 53.1326 39.7034 52.9178 39.8907C52.8923 39.9119 52.8732 39.9332 52.8476 39.9524C52.8349 39.963 52.82 39.9758 52.8051 39.9864C52.6243 40.1397 52.4371 40.295 52.2414 40.4503C51.9522 40.6802 51.6544 40.8994 51.3502 41.1122C51.346 41.1143 51.3417 41.1164 51.3396 41.1207C50.9099 41.4207 50.4675 41.7038 50.023 41.9804C49.9039 42.0549 49.7869 42.1273 49.6678 42.1996C49.2572 42.4507 48.8446 42.6976 48.4341 42.9381C47.5663 43.4488 46.6687 43.9787 45.7392 44.6107C45.5137 44.7618 45.284 44.9193 45.05 45.0768C44.982 45.1214 44.9139 45.1683 44.8458 45.2151C44.614 45.3726 44.38 45.5343 44.1461 45.6982C44.1248 45.713 44.1035 45.7279 44.0801 45.7428C43.659 46.0386 43.2336 46.3451 42.8145 46.6622C42.7826 46.6856 42.7529 46.709 42.721 46.7345C42.3275 47.0346 41.9382 47.3453 41.5617 47.6645C41.5128 47.7049 41.466 47.7475 41.4171 47.7879C41.1704 48.0007 40.9279 48.2178 40.6939 48.4391C40.6684 48.4625 40.645 48.488 40.6216 48.5115C40.4089 48.7157 40.2047 48.9243 40.0069 49.135C39.9559 49.1903 39.9048 49.2435 39.8538 49.2988C39.6751 49.4967 39.5007 49.6989 39.3369 49.9032C39.3305 49.9117 39.322 49.9202 39.3156 49.9287C39.1476 50.1415 38.9902 50.3586 38.8413 50.5778C38.7988 50.6416 38.7584 50.7076 38.7158 50.7715C38.6073 50.9374 38.5074 51.1077 38.4116 51.2779C38.3734 51.346 38.3351 51.4141 38.2989 51.4822C38.1777 51.7163 38.0543 51.9483 37.9671 52.193C37.9097 52.3526 37.6948 53.2889 37.6736 53.6614C37.5608 55.5298 38.2989 55.6851 38.2989 55.6851C38.3521 55.7064 38.4053 55.7298 38.4606 55.749C38.4648 55.749 38.4691 55.7532 38.4755 55.7554C38.5116 55.7681 38.5542 55.7809 38.5988 55.7958C38.6116 55.8001 38.6265 55.8022 38.6392 55.8064C38.6754 55.8171 38.7137 55.8277 38.7562 55.8362C38.7754 55.8405 38.7945 55.8448 38.8137 55.8511C38.8626 55.8618 38.9158 55.8724 38.9711 55.8831C38.9859 55.8852 38.9987 55.8894 39.0157 55.8916C39.088 55.9043 39.1646 55.9171 39.2497 55.9277C39.271 55.932 39.2944 55.9341 39.3156 55.9363C39.3816 55.9448 39.4518 55.9533 39.5241 55.9597C39.5411 55.9597 39.556 55.9639 39.573 55.9661C39.5921 55.9661 39.6155 55.9682 39.6347 55.9703C39.6772 55.9746 39.7219 55.9767 39.7666 55.9809C39.8112 55.9831 39.858 55.9873 39.9069 55.9895C39.9537 55.9916 40.0026 55.9937 40.0537 55.9958C40.1026 55.9958 40.1537 56.0001 40.2068 56.0001C40.26 56.0001 40.3153 56.0001 40.3706 56.0001C40.4238 56.0001 40.4791 56.0001 40.5365 56.0001C40.594 56.0001 40.6535 56.0001 40.7152 55.998C40.7471 55.998 40.7769 55.998 40.8109 55.998C40.8301 55.998 40.8513 55.9958 40.8705 55.9958C41.0342 55.9895 41.2044 55.9831 41.3852 55.9703C41.5383 55.9597 41.7 55.9448 41.868 55.9299C41.9255 55.9235 41.9893 55.915 42.0488 55.9086C42.1616 55.8958 42.2743 55.8852 42.3934 55.8703C42.404 55.8703 42.4125 55.8682 42.4232 55.866C42.5444 55.8511 42.672 55.832 42.7997 55.8128C42.8401 55.8064 42.8784 55.8022 42.9188 55.7958C43.1017 55.7681 43.291 55.7383 43.4888 55.7043C43.5356 55.6958 43.5866 55.6851 43.6356 55.6766C43.7866 55.649 43.9376 55.6213 44.095 55.5915C44.1737 55.5766 44.2545 55.5575 44.3354 55.5426C44.4481 55.5192 44.5566 55.4979 44.6714 55.4723C44.6927 55.4681 44.7161 55.4617 44.7395 55.4574C44.8692 55.4298 45.0032 55.3979 45.1372 55.3681C45.2478 55.3425 45.3563 55.3191 45.4712 55.2915C45.6094 55.2574 45.7562 55.2212 45.8987 55.1851C46.0157 55.1553 46.1305 55.1276 46.2518 55.0957C46.4028 55.0574 46.5602 55.0127 46.7155 54.9701C46.8367 54.9361 46.9558 54.9063 47.0813 54.8701C47.2494 54.8233 47.4259 54.7701 47.5982 54.719C47.7109 54.6871 47.8173 54.6573 47.93 54.6232C47.9385 54.6211 47.9491 54.6169 47.9576 54.6147C48.2916 54.5147 48.6383 54.4062 48.9956 54.2913C49.0956 54.2593 49.1998 54.2232 49.3019 54.1891C49.5657 54.1019 49.8337 54.0125 50.108 53.9189C50.2442 53.872 50.3824 53.8231 50.5207 53.7763C50.7802 53.6848 51.0439 53.5911 51.3141 53.4932C51.4566 53.4422 51.5991 53.389 51.7458 53.3358C52.0521 53.223 52.3648 53.1038 52.6838 52.9825C52.7753 52.9485 52.8604 52.9165 52.9518 52.8825C52.9816 52.8697 53.0135 52.857 53.0433 52.8463C53.1369 52.8101 53.2326 52.7718 53.3262 52.7356C53.59 52.6314 53.8558 52.5271 54.1281 52.4164C54.2514 52.3654 54.3769 52.3143 54.5046 52.2632C54.7683 52.1568 55.0363 52.044 55.3086 51.9312C55.4277 51.8823 55.5468 51.8334 55.668 51.7823C56.0573 51.6184 56.4508 51.4503 56.8549 51.2737C56.8655 51.2694 56.8762 51.2652 56.8868 51.2588C57.2824 51.0864 57.6866 50.9076 58.0971 50.7225C58.2268 50.665 58.3608 50.6033 58.4927 50.5437C58.7947 50.4076 59.101 50.2671 59.4116 50.1245C59.5604 50.0564 59.7093 49.9862 59.8604 49.916C60.1943 49.7606 60.5346 49.601 60.8771 49.4372C60.9962 49.3818 61.1132 49.3265 61.2323 49.269C61.2706 49.2499 61.3067 49.2329 61.3471 49.2158C61.513 49.1371 61.6875 49.0498 61.8555 48.969C62.1958 48.8051 62.5361 48.6391 62.8871 48.4689C63.1168 48.3561 63.3508 48.2391 63.5847 48.122C63.9187 47.956 64.2526 47.79 64.5951 47.6177C64.8439 47.4921 65.0992 47.3623 65.3523 47.2325C65.6905 47.0601 66.0308 46.8856 66.3796 46.7047C66.6434 46.5685 66.9114 46.4281 67.1815 46.2876C67.5303 46.1046 67.8813 45.9195 68.2386 45.7301C68.5151 45.5832 68.7959 45.4343 69.0767 45.2832C69.4404 45.0874 69.8084 44.8895 70.1785 44.6894C70.4656 44.5341 70.7527 44.3766 71.0441 44.217C71.4249 44.0085 71.8141 43.7935 72.2034 43.5765C72.4969 43.4126 72.7925 43.2509 73.0903 43.0828C73.4923 42.8572 73.9007 42.6274 74.3112 42.3933C74.6111 42.223 74.911 42.0549 75.2152 41.8804C75.6491 41.6336 76.0936 41.3761 76.5382 41.1186C76.7722 40.9824 76.9997 40.8547 77.2358 40.7164C77.2954 40.6823 77.3571 40.6461 77.4166 40.61C77.9229 40.3163 78.4397 40.012 78.9587 39.7055C79.2076 39.5587 79.4522 39.4161 79.7032 39.2671C80.4817 38.8054 81.2708 38.3351 82.0769 37.8499L80.2753 33.1022C78.5482 28.5481 76.6637 23.5833 74.8238 18.7335L73.5093 15.2711C73.0882 14.1603 72.6713 13.0601 72.2629 11.9833L71.8715 10.9533C71.2483 9.31041 70.6421 7.71436 70.07 6.20557C69.266 6.69076 68.4768 7.16107 67.7005 7.62286" fill="url(#paint0_linear_580_112)"/>
<path d="M67.7111 7.62286C67.4495 7.77821 67.1985 7.92291 66.9412 8.07614C66.4307 8.37619 65.9223 8.67625 65.4246 8.96566C65.1226 9.14229 64.829 9.31041 64.5313 9.48278C64.0931 9.73602 63.6528 9.98926 63.2232 10.234C62.9147 10.4085 62.6148 10.5787 62.3128 10.7511C61.9044 10.9831 61.496 11.2129 61.094 11.4385C60.792 11.6066 60.4963 11.7705 60.2007 11.9343C59.8136 12.1492 59.4286 12.3621 59.05 12.5685C58.7543 12.7302 58.4629 12.8877 58.1736 13.0452C57.8057 13.2452 57.4398 13.4431 57.0804 13.6346C56.7975 13.7857 56.5146 13.9368 56.2381 14.0837C55.8807 14.2731 55.5298 14.4582 55.181 14.6391C54.9129 14.7795 54.6428 14.92 54.3791 15.0562C54.0324 15.2371 53.692 15.4094 53.3517 15.5839C53.0986 15.7138 52.8434 15.8436 52.5945 15.9691C52.2521 16.1415 51.9181 16.3075 51.5842 16.4735C51.3523 16.5884 51.1162 16.7076 50.8865 16.8203C50.6355 16.9438 50.3909 17.0608 50.1463 17.18L56.0488 32.7382C56.204 33.149 56.2934 33.6001 56.3189 33.9981C56.3295 34.1619 56.3253 34.3258 56.3189 34.4896C56.3168 34.5343 56.3125 34.579 56.3083 34.6216C56.2955 34.7642 56.2764 34.9067 56.2508 35.0493C56.2466 35.0749 56.2444 35.1004 56.2381 35.1259C56.204 35.2919 56.1594 35.4579 56.1083 35.626C56.0956 35.6686 56.0785 35.7112 56.0658 35.7537C56.019 35.892 55.9658 36.0304 55.9063 36.1687C55.8892 36.207 55.8765 36.2432 55.8573 36.2815C55.7808 36.4496 55.6957 36.6198 55.6 36.7901C55.5787 36.8263 55.5553 36.8646 55.534 36.9029C55.4511 37.0433 55.3639 37.1838 55.2682 37.3264C55.2384 37.371 55.2086 37.4157 55.1788 37.4604C55.0597 37.6328 54.9321 37.8052 54.7917 37.9797C54.7704 38.0052 54.7492 38.0307 54.7279 38.0563C54.6045 38.2095 54.4705 38.3627 54.3323 38.5159C54.3089 38.5415 54.2897 38.567 54.2685 38.5904C54.2514 38.6096 54.228 38.6309 54.211 38.65C54.0281 38.8458 53.8367 39.0437 53.6304 39.2416C53.5985 39.2714 53.5666 39.3012 53.5346 39.331C53.339 39.5161 53.1326 39.7034 52.9178 39.8907C52.8923 39.9119 52.8732 39.9332 52.8476 39.9524C52.8349 39.963 52.82 39.9758 52.8051 39.9864C52.6243 40.1397 52.4371 40.295 52.2414 40.4503C51.9522 40.6802 51.6544 40.8994 51.3502 41.1122C51.346 41.1143 51.3417 41.1164 51.3396 41.1207C50.9099 41.4207 50.4675 41.7038 50.023 41.9804C49.9039 42.0549 49.7869 42.1273 49.6678 42.1996C49.2572 42.4507 48.8446 42.6976 48.4341 42.9381C47.5663 43.4488 46.6687 43.9787 45.7392 44.6107C45.5137 44.7618 45.284 44.9193 45.05 45.0768C44.982 45.1214 44.9139 45.1683 44.8458 45.2151C44.614 45.3726 44.38 45.5343 44.1461 45.6982C44.1248 45.713 44.1035 45.7279 44.0801 45.7428C43.659 46.0386 43.2336 46.3451 42.8145 46.6622C42.7826 46.6856 42.7529 46.709 42.721 46.7345C42.3275 47.0346 41.9382 47.3453 41.5617 47.6645C41.5128 47.7049 41.466 47.7475 41.4171 47.7879C41.1704 48.0007 40.9279 48.2178 40.6939 48.4391C40.6684 48.4625 40.645 48.488 40.6216 48.5115C40.4089 48.7157 40.2047 48.9243 40.0069 49.135C39.9559 49.1903 39.9048 49.2435 39.8538 49.2988C39.6751 49.4967 39.5007 49.6989 39.3369 49.9032C39.3305 49.9117 39.322 49.9202 39.3156 49.9287C39.1476 50.1415 38.9902 50.3586 38.8413 50.5778C38.7988 50.6416 38.7584 50.7076 38.7158 50.7715C38.6073 50.9374 38.5074 51.1077 38.4116 51.2779C38.3734 51.346 38.3351 51.4141 38.2989 51.4822C38.1777 51.7163 38.0543 51.9483 37.9671 52.193C37.9097 52.3526 37.6948 53.2889 37.6736 53.6614C37.5608 55.5298 38.2989 55.6851 38.2989 55.6851C38.3521 55.7064 38.4053 55.7298 38.4606 55.749C38.4648 55.749 38.4691 55.7532 38.4755 55.7554C38.5116 55.7681 38.5542 55.7809 38.5988 55.7958C38.6116 55.8001 38.6265 55.8022 38.6392 55.8064C38.6754 55.8171 38.7137 55.8277 38.7562 55.8362C38.7754 55.8405 38.7945 55.8448 38.8137 55.8511C38.8626 55.8618 38.9158 55.8724 38.9711 55.8831C38.9859 55.8852 38.9987 55.8894 39.0157 55.8916C39.088 55.9043 39.1646 55.9171 39.2497 55.9277C39.271 55.932 39.2944 55.9341 39.3156 55.9363C39.3816 55.9448 39.4518 55.9533 39.5241 55.9597C39.5411 55.9597 39.556 55.9639 39.573 55.9661C39.5921 55.9661 39.6155 55.9682 39.6347 55.9703C39.6772 55.9746 39.7219 55.9767 39.7666 55.9809C39.8112 55.9831 39.858 55.9873 39.9069 55.9895C39.9537 55.9916 40.0026 55.9937 40.0537 55.9958C40.1026 55.9958 40.1537 56.0001 40.2068 56.0001C40.26 56.0001 40.3153 56.0001 40.3706 56.0001C40.4238 56.0001 40.4791 56.0001 40.5365 56.0001C40.594 56.0001 40.6535 56.0001 40.7152 55.998C40.7471 55.998 40.7769 55.998 40.8109 55.998C40.8301 55.998 40.8513 55.9958 40.8705 55.9958C41.0342 55.9895 41.2044 55.9831 41.3852 55.9703C41.5383 55.9597 41.7 55.9448 41.868 55.9299C41.9255 55.9235 41.9893 55.915 42.0488 55.9086C42.1616 55.8958 42.2743 55.8852 42.3934 55.8703C42.404 55.8703 42.4125 55.8682 42.4232 55.866C42.5444 55.8511 42.672 55.832 42.7997 55.8128C42.8401 55.8064 42.8784 55.8022 42.9188 55.7958C43.1017 55.7681 43.291 55.7383 43.4888 55.7043C43.5356 55.6958 43.5866 55.6851 43.6356 55.6766C43.7866 55.649 43.9376 55.6213 44.095 55.5915C44.1737 55.5766 44.2545 55.5575 44.3354 55.5426C44.4481 55.5192 44.5566 55.4979 44.6714 55.4723C44.6927 55.4681 44.7161 55.4617 44.7395 55.4574C44.8692 55.4298 45.0032 55.3979 45.1372 55.3681C45.2478 55.3425 45.3563 55.3191 45.4712 55.2915C45.6094 55.2574 45.7562 55.2212 45.8987 55.1851C46.0157 55.1553 46.1305 55.1276 46.2518 55.0957C46.4028 55.0574 46.5602 55.0127 46.7155 54.9701C46.8367 54.9361 46.9558 54.9063 47.0813 54.8701C47.2494 54.8233 47.4259 54.7701 47.5982 54.719C47.7109 54.6871 47.8173 54.6573 47.93 54.6232C47.9385 54.6211 47.9491 54.6169 47.9576 54.6147C48.2916 54.5147 48.6383 54.4062 48.9956 54.2913C49.0956 54.2593 49.1998 54.2232 49.3019 54.1891C49.5657 54.1019 49.8337 54.0125 50.108 53.9189C50.2442 53.872 50.3824 53.8231 50.5207 53.7763C50.7802 53.6848 51.0439 53.5911 51.3141 53.4932C51.4566 53.4422 51.5991 53.389 51.7458 53.3358C52.0521 53.223 52.3648 53.1038 52.6838 52.9825C52.7753 52.9485 52.8604 52.9165 52.9518 52.8825C52.9816 52.8697 53.0135 52.857 53.0433 52.8463C53.1369 52.8101 53.2326 52.7718 53.3262 52.7356C53.59 52.6314 53.8558 52.5271 54.1281 52.4164C54.2514 52.3654 54.3769 52.3143 54.5046 52.2632C54.7683 52.1568 55.0363 52.044 55.3086 51.9312C55.4277 51.8823 55.5468 51.8334 55.668 51.7823C56.0573 51.6184 56.4508 51.4503 56.8549 51.2737C56.8655 51.2694 56.8762 51.2652 56.8868 51.2588C57.2824 51.0864 57.6866 50.9076 58.0971 50.7225C58.2268 50.665 58.3608 50.6033 58.4927 50.5437C58.7947 50.4076 59.101 50.2671 59.4116 50.1245C59.5604 50.0564 59.7093 49.9862 59.8604 49.916C60.1943 49.7606 60.5346 49.601 60.8771 49.4372C60.9962 49.3818 61.1132 49.3265 61.2323 49.269C61.2706 49.2499 61.3067 49.2329 61.3471 49.2158C61.513 49.1371 61.6875 49.0498 61.8555 48.969C62.1958 48.8051 62.5361 48.6391 62.8871 48.4689C63.1168 48.3561 63.3508 48.2391 63.5847 48.122C63.9187 47.956 64.2526 47.79 64.5951 47.6177C64.8439 47.4921 65.0992 47.3623 65.3523 47.2325C65.6905 47.0601 66.0308 46.8856 66.3796 46.7047C66.6434 46.5685 66.9114 46.4281 67.1815 46.2876C67.5303 46.1046 67.8813 45.9195 68.2386 45.7301C68.5151 45.5832 68.7959 45.4343 69.0767 45.2832C69.4404 45.0874 69.8084 44.8895 70.1785 44.6894C70.4656 44.5341 70.7527 44.3766 71.0441 44.217C71.4249 44.0085 71.8141 43.7935 72.2034 43.5765C72.4969 43.4126 72.7925 43.2509 73.0903 43.0828C73.4923 42.8572 73.9007 42.6274 74.3112 42.3933C74.6111 42.223 74.911 42.0549 75.2152 41.8804C75.6491 41.6336 76.0936 41.3761 76.5382 41.1186C76.7722 40.9824 76.9997 40.8547 77.2358 40.7164C77.2954 40.6823 77.3571 40.6461 77.4166 40.61C77.9229 40.3163 78.4397 40.012 78.9587 39.7055C79.2076 39.5587 79.4522 39.4161 79.7032 39.2671C80.4817 38.8054 81.2708 38.3351 82.0769 37.8499L80.2753 33.1022C78.5482 28.5481 76.6637 23.5833 74.8238 18.7335L73.5093 15.2711C73.0882 14.1603 72.6713 13.0601 72.2629 11.9833L71.8715 10.9533C71.2483 9.31041 70.6421 7.71436 70.07 6.20557C69.266 6.69076 68.4768 7.16107 67.7005 7.62286" fill="url(#paint1_linear_580_112)"/>
<path d="M39.675 0C39.6601 0 39.6474 0 39.6325 0C39.6154 0 39.5984 0 39.5814 0C39.4113 0.00425612 39.2368 0.0148954 39.0603 0.0255357C38.7859 0.0446883 38.503 0.0744798 38.2159 0.110657C38.1818 0.114913 38.1499 0.117042 38.1159 0.121298C38.0861 0.125554 38.0542 0.13194 38.0223 0.136196C37.765 0.170245 37.5033 0.210676 37.2353 0.257494C37.2183 0.259622 37.2013 0.263879 37.1843 0.268135C36.929 0.312824 36.6695 0.366026 36.4079 0.421355C36.3718 0.429868 36.3377 0.434125 36.3016 0.442637C36.2697 0.449022 36.2356 0.459662 36.2037 0.466046C35.8549 0.542656 35.5018 0.627777 35.1402 0.72354C35.0871 0.738436 35.0318 0.753332 34.9786 0.766101C34.6042 0.866119 34.2235 0.972523 33.8364 1.08957C33.8279 1.09169 33.8215 1.09382 33.813 1.09595C33.7619 1.11085 33.7109 1.12787 33.6598 1.1449C33.4493 1.20874 33.2366 1.27471 33.0239 1.34493C32.9281 1.37685 32.8324 1.40877 32.7367 1.4407C32.5517 1.50241 32.3645 1.56412 32.1773 1.63009C32.0773 1.66414 31.9774 1.70032 31.8774 1.73437C31.6796 1.8046 31.4818 1.87482 31.284 1.94718C31.1968 1.9791 31.1096 2.01102 31.0202 2.04294C30.7352 2.14721 30.4502 2.25574 30.1609 2.36853C30.1588 2.36853 30.1545 2.36853 30.1524 2.37066C30.146 2.37279 30.1396 2.37492 30.1333 2.37917C29.6377 2.5707 29.1378 2.77286 28.6316 2.98141C28.6295 2.98141 28.6252 2.98354 28.6231 2.98567C28.119 3.19422 27.6128 3.41128 27.1002 3.63473C27.0853 3.64112 27.0725 3.6475 27.0576 3.65388C26.5556 3.87307 26.0515 4.10078 25.5453 4.33274C25.5219 4.34338 25.4985 4.35401 25.4751 4.36465C24.9774 4.59449 24.4754 4.82857 23.9756 5.06904C23.9543 5.07968 23.9309 5.09033 23.9096 5.10097C23.899 5.10522 23.8884 5.1116 23.8777 5.11586C23.4289 5.33079 22.9801 5.54999 22.5313 5.7713C22.4697 5.8011 22.408 5.83302 22.3463 5.86281C21.9103 6.07987 21.4742 6.29906 21.0382 6.52251C20.968 6.55869 20.8978 6.59486 20.8276 6.63104C20.398 6.85023 19.9704 7.07368 19.5429 7.29712C19.4685 7.33756 19.3919 7.37586 19.3174 7.4163C18.8899 7.64187 18.4624 7.86745 18.0391 8.09728C17.9753 8.13133 17.9136 8.16538 17.8498 8.19942C17.4117 8.43564 16.9756 8.67185 16.5438 8.9102C16.5098 8.92722 16.4779 8.94637 16.446 8.96552C16.0014 9.21025 15.559 9.45498 15.1209 9.70184C15.106 9.71035 15.0911 9.71886 15.0741 9.72737C14.6423 9.96997 14.2148 10.2126 13.7894 10.4552C13.7362 10.485 13.6809 10.5169 13.6277 10.5467C13.2215 10.7786 12.8216 11.0106 12.4238 11.2404C12.3898 11.2596 12.3536 11.2809 12.3196 11.3C12.2707 11.3277 12.2239 11.3553 12.175 11.383C12.0793 11.4383 11.9835 11.4958 11.8878 11.5511C11.7538 11.6299 11.6198 11.7086 11.4858 11.7852C11.3922 11.8405 11.2965 11.8959 11.2051 11.9512C11.0689 12.0321 10.9328 12.1108 10.7988 12.1895C10.7137 12.2406 10.6265 12.2917 10.5414 12.3428C10.401 12.4258 10.2607 12.5088 10.1224 12.5917C10.0416 12.6407 9.95863 12.6896 9.87781 12.7386C9.72679 12.828 9.57577 12.9195 9.42688 13.0088C9.3652 13.045 9.30352 13.0833 9.24183 13.1195C9.02913 13.2472 8.82068 13.3727 8.61436 13.4983C8.58033 13.5175 8.54843 13.5387 8.51652 13.5579C8.34424 13.6622 8.1762 13.7643 8.00817 13.8665C7.93798 13.909 7.86991 13.9494 7.80185 13.992C7.66998 14.0729 7.5381 14.1537 7.40835 14.2325C7.33391 14.2772 7.26159 14.3219 7.18927 14.3665C7.06803 14.441 6.94679 14.5155 6.82768 14.5879C6.75324 14.6347 6.67879 14.6794 6.60435 14.7262C6.48949 14.7964 6.37463 14.8688 6.2619 14.939C6.19171 14.9837 6.11939 15.0262 6.0492 15.0709C5.93221 15.1433 5.81948 15.2135 5.70462 15.2859C5.63869 15.3263 5.57488 15.3667 5.51107 15.4072C5.39408 15.4817 5.27922 15.5519 5.16436 15.6242C5.10906 15.6583 5.05163 15.6945 4.99633 15.7306C4.87084 15.8094 4.7496 15.886 4.62623 15.9626C4.58369 15.9903 4.53903 16.0179 4.49649 16.0435C4.33696 16.1435 4.18169 16.2435 4.02855 16.3393C3.98813 16.3648 3.95197 16.3882 3.91156 16.4137C3.79457 16.4882 3.67972 16.5606 3.56911 16.6329C3.52232 16.6627 3.47978 16.6904 3.43511 16.7181C3.33727 16.7819 3.23943 16.8436 3.14584 16.9032C3.09479 16.9351 3.04374 16.9692 2.99482 17.0011C2.90549 17.0585 2.81828 17.116 2.73107 17.1713C2.68641 17.199 2.64387 17.2267 2.5992 17.2565C2.51625 17.3097 2.43542 17.3629 2.35459 17.4139C2.30354 17.4459 2.25462 17.4778 2.2057 17.5097C2.13764 17.5544 2.0717 17.5969 2.00576 17.6395C1.95897 17.6693 1.91218 17.7012 1.86538 17.731C1.79307 17.7778 1.72287 17.8225 1.65481 17.8672C1.61865 17.8906 1.58249 17.914 1.54633 17.9374C1.48252 17.98 1.42084 18.0204 1.36128 18.0587C1.30811 18.0949 1.25281 18.129 1.20176 18.163C1.12944 18.212 1.05712 18.2588 0.989057 18.3013C0.976295 18.3098 0.96566 18.3162 0.952898 18.3247C0.884834 18.3694 0.821024 18.412 0.761468 18.4503C0.733817 18.4695 0.710419 18.4843 0.682768 18.5014C0.640228 18.5312 0.595562 18.5588 0.557276 18.5844C0.529624 18.6035 0.5041 18.6205 0.478576 18.6376C0.444544 18.661 0.410512 18.6823 0.380734 18.7035C0.361591 18.7163 0.342449 18.7291 0.323305 18.7418C0.2914 18.7631 0.263749 18.7823 0.238225 18.7993C0.221209 18.8099 0.204192 18.8227 0.189303 18.8312C0.078699 18.9057 0.012762 18.9504 0 18.9589L12.0048 50.6011C12.0048 50.6011 12.0261 50.5862 12.0452 50.5734C12.0771 50.5521 12.1282 50.5181 12.1941 50.4734C12.209 50.4627 12.226 50.4521 12.243 50.4393C12.2686 50.4223 12.2983 50.4032 12.3281 50.3819C12.3473 50.3691 12.3664 50.3563 12.3855 50.3436C12.4132 50.3244 12.443 50.3053 12.4749 50.284C12.5089 50.2627 12.5429 50.2393 12.5791 50.2159C12.6046 50.1989 12.6301 50.1818 12.6578 50.1648C12.694 50.1414 12.7301 50.1159 12.7705 50.0903C12.8131 50.0627 12.862 50.0307 12.9088 50.001C12.9428 49.9775 12.9747 49.9563 13.0109 49.935C13.0322 49.9201 13.0555 49.9052 13.0768 49.8903C13.1981 49.8116 13.3278 49.7243 13.4682 49.6328C13.4916 49.6179 13.515 49.603 13.5405 49.586C13.5958 49.5498 13.6554 49.5115 13.7149 49.4732C13.7617 49.4413 13.8085 49.4115 13.8596 49.3796C13.9127 49.3455 13.9702 49.3072 14.0255 49.271C14.085 49.2327 14.1446 49.1944 14.2063 49.154C14.2637 49.1157 14.3254 49.0774 14.3849 49.0369C14.4466 48.9965 14.5083 48.9582 14.5721 48.9156C14.6317 48.8773 14.6933 48.8369 14.7572 48.7965C14.8295 48.7497 14.906 48.7007 14.9805 48.6518C15.0379 48.6156 15.0932 48.5794 15.1528 48.5411C15.2464 48.4815 15.3421 48.4198 15.4399 48.3581C15.4846 48.3304 15.5293 48.3006 15.5739 48.273C15.6845 48.2027 15.8015 48.1283 15.9164 48.0538C15.9547 48.0282 15.9929 48.0048 16.0334 47.9793C16.1822 47.8857 16.3333 47.7899 16.4885 47.6899C16.5481 47.6516 16.6119 47.6111 16.6736 47.5728C16.7799 47.5047 16.8884 47.4388 16.9969 47.3685C17.0522 47.3345 17.1096 47.2983 17.1649 47.2621C17.2798 47.1898 17.3946 47.1174 17.5116 47.0451C17.5754 47.0046 17.6414 46.9642 17.7052 46.9238C17.8179 46.8535 17.9306 46.7833 18.0455 46.711C18.1199 46.6641 18.1965 46.6173 18.2731 46.5705C18.3773 46.5067 18.4815 46.4407 18.5879 46.3769C18.6708 46.3258 18.7538 46.2747 18.8367 46.2236C18.9473 46.1555 19.058 46.0874 19.1707 46.0193C19.2536 45.9683 19.3345 45.9172 19.4174 45.8661C19.5387 45.7916 19.6599 45.7172 19.7833 45.6427C19.8577 45.5959 19.9322 45.5512 20.0087 45.5065C20.164 45.4107 20.3235 45.315 20.483 45.2192C20.5298 45.1915 20.5745 45.1639 20.6213 45.1362C20.8255 45.0128 21.0318 44.8872 21.2403 44.7638C21.3105 44.7212 21.3806 44.6808 21.4508 44.6382C21.5933 44.5531 21.7359 44.468 21.8805 44.3807C21.9698 44.3275 22.0592 44.2743 22.1485 44.2211C22.2761 44.1467 22.4016 44.07 22.5313 43.9934C22.6271 43.936 22.7228 43.8806 22.8206 43.8232C22.9461 43.7487 23.0737 43.6742 23.2035 43.5976C23.3013 43.5402 23.4013 43.4827 23.4991 43.4231C23.6268 43.3486 23.7544 43.272 23.8841 43.1975C23.9841 43.138 24.0862 43.0805 24.1862 43.0209C24.2649 42.9741 24.3457 42.9294 24.4244 42.8826C24.8221 42.6506 25.2263 42.4187 25.6346 42.1846C25.6857 42.1548 25.7367 42.1271 25.7878 42.0973C26.2132 41.8547 26.645 41.61 27.0789 41.3674C27.0916 41.361 27.1044 41.3525 27.1172 41.3461C27.5575 41.0993 27.9999 40.8524 28.4487 40.6077C28.4806 40.5907 28.5146 40.5715 28.5465 40.5524C28.9804 40.314 29.4165 40.0757 29.8567 39.8395C29.9184 39.8075 29.978 39.7735 30.0397 39.7394C30.4672 39.5096 30.8969 39.2819 31.3286 39.0542C31.3988 39.018 31.469 38.9797 31.5413 38.9435C31.971 38.718 32.4007 38.4945 32.8324 38.2753C32.9026 38.2392 32.9728 38.203 33.043 38.1668C33.479 37.9434 33.9172 37.7242 34.3532 37.505C34.4128 37.4752 34.4702 37.4475 34.5298 37.4177C34.9807 37.1943 35.4316 36.9751 35.8826 36.758C35.9123 36.7431 35.9421 36.7304 35.9719 36.7155C36.476 36.475 36.978 36.2366 37.4799 36.0068C37.5012 35.9962 37.5225 35.9877 37.5437 35.977C38.0521 35.7429 38.5583 35.5152 39.0603 35.296C39.0752 35.2897 39.0879 35.2833 39.1028 35.279C39.6133 35.0556 40.1217 34.8385 40.6236 34.63C40.6258 34.63 40.63 34.6278 40.6322 34.6257C41.1384 34.415 41.6404 34.215 42.1381 34.0213C42.1445 34.0192 42.153 34.0149 42.1593 34.0128C42.4486 33.9 42.7358 33.7915 43.0229 33.6872C43.108 33.6553 43.1931 33.6255 43.2803 33.5936C43.4802 33.5212 43.6802 33.4489 43.8801 33.3787C43.9801 33.3425 44.08 33.3084 44.18 33.2744C44.3693 33.2084 44.5565 33.1467 44.7415 33.085C44.8372 33.0531 44.9308 33.0211 45.0244 32.9913C45.2414 32.9211 45.4562 32.853 45.671 32.7892C45.7263 32.7722 45.7838 32.753 45.8391 32.7381C46.2262 32.6211 46.6069 32.5147 46.9834 32.4146C47.0366 32.3997 47.0919 32.3849 47.145 32.3721C47.5066 32.2785 47.8597 32.1933 48.2085 32.1146C48.2766 32.0997 48.3447 32.0848 48.4127 32.0699C48.6744 32.0146 48.936 31.9614 49.1891 31.9167C49.2061 31.9124 49.2231 31.9103 49.2401 31.906C49.5081 31.8592 49.7698 31.8188 50.0271 31.7847C50.0909 31.7762 50.1569 31.7677 50.2186 31.7613C50.5057 31.7252 50.7886 31.6954 51.063 31.6762C51.2714 31.6613 51.4756 31.6549 51.6777 31.6507C51.7777 31.6485 51.8734 31.6507 51.9691 31.6507C52.0925 31.6507 52.2137 31.6507 52.3328 31.6571C52.4285 31.6613 52.5221 31.6677 52.6136 31.6741C52.7178 31.6805 52.8199 31.689 52.9199 31.6996C53.1517 31.723 53.3772 31.7549 53.592 31.7975C53.6111 31.8018 53.6324 31.8039 53.6515 31.806C53.8834 31.8528 54.1025 31.9146 54.313 31.9848C54.3726 32.0039 54.43 32.0273 54.4896 32.0507C54.6449 32.1082 54.7937 32.172 54.9363 32.2423C54.9916 32.2699 55.049 32.2976 55.1043 32.3274C55.2893 32.4295 55.4659 32.5381 55.6254 32.6658C55.6956 32.7211 55.7594 32.7828 55.8211 32.853C55.836 32.87 55.8509 32.8892 55.8658 32.9062C55.9125 32.9616 55.9572 33.0211 55.9998 33.0829C56.0125 33.102 56.0253 33.119 56.038 33.1403C56.0912 33.2233 56.1401 33.3106 56.1848 33.4021C56.1933 33.4191 56.2018 33.4404 56.2103 33.4574C56.2507 33.5404 56.289 33.6255 56.3209 33.7128L54.8022 29.712C54.5576 29.0672 54.3109 28.4139 54.0599 27.7542L52.9624 24.8643C52.6689 24.0897 52.3732 23.3108 52.0754 22.5255L48.8785 14.1005C48.7722 13.8196 48.6658 13.543 48.5616 13.2642L45.8348 6.07562C45.3116 4.69663 44.8032 3.35383 44.3161 2.07486C44.3119 2.06422 44.3076 2.05358 44.3034 2.04294C44.2736 1.96633 44.2396 1.89185 44.2034 1.81949C44.1949 1.80034 44.1885 1.78119 44.18 1.76416C44.18 1.76416 44.18 1.76203 44.18 1.75991C44.1396 1.67904 44.097 1.60243 44.0524 1.53008C44.046 1.52157 44.0396 1.51305 44.0354 1.50454C44.0226 1.48539 44.0098 1.46624 43.9971 1.44708C43.9737 1.41091 43.9503 1.37473 43.9226 1.34068C43.9035 1.31514 43.8822 1.29386 43.8631 1.27045C43.8482 1.25343 43.8333 1.23428 43.8184 1.21938C43.8078 1.20661 43.7971 1.19384 43.7865 1.18108C43.7355 1.13 43.6844 1.08105 43.6291 1.03849C43.627 1.03849 43.6227 1.03424 43.6206 1.03211C43.4589 0.904425 43.2824 0.795894 43.0995 0.693747C43.0442 0.663954 42.9889 0.636291 42.9314 0.608626C42.7889 0.5384 42.64 0.474556 42.4869 0.417098C42.4273 0.395818 42.3699 0.37241 42.3104 0.351129C42.0998 0.280903 41.8807 0.21919 41.6489 0.172373C41.6297 0.168116 41.6063 0.165988 41.5872 0.161732C41.3724 0.11917 41.149 0.0893781 40.9172 0.0659694C40.8874 0.0617133 40.8597 0.0553296 40.8278 0.0532016C40.7576 0.0468174 40.6811 0.0446898 40.6088 0.0404337C40.5152 0.0340495 40.4237 0.0276649 40.328 0.0234088C40.2089 0.0191527 40.0855 0.0170249 39.9643 0.0170249C39.9132 0.0170249 39.8643 0.0170249 39.8133 0.0170249C39.7665 0.0170249 39.7197 0.0170249 39.6729 0.0170249" fill="url(#paint2_linear_580_112)"/>
<path d="M39.675 0C39.6601 0 39.6474 0 39.6325 0C39.6154 0 39.5984 0 39.5814 0C39.4113 0.00425612 39.2368 0.0148954 39.0603 0.0255357C38.7859 0.0446883 38.503 0.0744798 38.2159 0.110657C38.1818 0.114913 38.1499 0.117042 38.1159 0.121298C38.0861 0.125554 38.0542 0.13194 38.0223 0.136196C37.765 0.170245 37.5033 0.210676 37.2353 0.257494C37.2183 0.259622 37.2013 0.263879 37.1843 0.268135C36.929 0.312824 36.6695 0.366026 36.4079 0.421355C36.3718 0.429868 36.3377 0.434125 36.3016 0.442637C36.2697 0.449022 36.2356 0.459662 36.2037 0.466046C35.8549 0.542656 35.5018 0.627777 35.1402 0.72354C35.0871 0.738436 35.0318 0.753332 34.9786 0.766101C34.6042 0.866119 34.2235 0.972523 33.8364 1.08957C33.8279 1.09169 33.8215 1.09382 33.813 1.09595C33.7619 1.11085 33.7109 1.12787 33.6598 1.1449C33.4493 1.20874 33.2366 1.27471 33.0239 1.34493C32.9281 1.37685 32.8324 1.40877 32.7367 1.4407C32.5517 1.50241 32.3645 1.56412 32.1773 1.63009C32.0773 1.66414 31.9774 1.70032 31.8774 1.73437C31.6796 1.8046 31.4818 1.87482 31.284 1.94718C31.1968 1.9791 31.1096 2.01102 31.0202 2.04294C30.7352 2.14721 30.4502 2.25574 30.1609 2.36853C30.1588 2.36853 30.1545 2.36853 30.1524 2.37066C30.146 2.37279 30.1396 2.37492 30.1333 2.37917C29.6377 2.5707 29.1378 2.77286 28.6316 2.98141C28.6295 2.98141 28.6252 2.98354 28.6231 2.98567C28.119 3.19422 27.6128 3.41128 27.1002 3.63473C27.0853 3.64112 27.0725 3.6475 27.0576 3.65388C26.5556 3.87307 26.0515 4.10078 25.5453 4.33274C25.5219 4.34338 25.4985 4.35401 25.4751 4.36465C24.9774 4.59449 24.4754 4.82857 23.9756 5.06904C23.9543 5.07968 23.9309 5.09033 23.9096 5.10097C23.899 5.10522 23.8884 5.1116 23.8777 5.11586C23.4289 5.33079 22.9801 5.54999 22.5313 5.7713C22.4697 5.8011 22.408 5.83302 22.3463 5.86281C21.9103 6.07987 21.4742 6.29906 21.0382 6.52251C20.968 6.55869 20.8978 6.59486 20.8276 6.63104C20.398 6.85023 19.9704 7.07368 19.5429 7.29712C19.4685 7.33756 19.3919 7.37586 19.3174 7.4163C18.8899 7.64187 18.4624 7.86745 18.0391 8.09728C17.9753 8.13133 17.9136 8.16538 17.8498 8.19942C17.4117 8.43564 16.9756 8.67185 16.5438 8.9102C16.5098 8.92722 16.4779 8.94637 16.446 8.96552C16.0014 9.21025 15.559 9.45498 15.1209 9.70184C15.106 9.71035 15.0911 9.71886 15.0741 9.72737C14.6423 9.96997 14.2148 10.2126 13.7894 10.4552C13.7362 10.485 13.6809 10.5169 13.6277 10.5467C13.2215 10.7786 12.8216 11.0106 12.4238 11.2404C12.3898 11.2596 12.3536 11.2809 12.3196 11.3C12.2707 11.3277 12.2239 11.3553 12.175 11.383C12.0793 11.4383 11.9835 11.4958 11.8878 11.5511C11.7538 11.6299 11.6198 11.7086 11.4858 11.7852C11.3922 11.8405 11.2965 11.8959 11.2051 11.9512C11.0689 12.0321 10.9328 12.1108 10.7988 12.1895C10.7137 12.2406 10.6265 12.2917 10.5414 12.3428C10.401 12.4258 10.2607 12.5088 10.1224 12.5917C10.0416 12.6407 9.95863 12.6896 9.87781 12.7386C9.72679 12.828 9.57577 12.9195 9.42688 13.0088C9.3652 13.045 9.30352 13.0833 9.24183 13.1195C9.02913 13.2472 8.82068 13.3727 8.61436 13.4983C8.58033 13.5175 8.54843 13.5387 8.51652 13.5579C8.34424 13.6622 8.1762 13.7643 8.00817 13.8665C7.93798 13.909 7.86991 13.9494 7.80185 13.992C7.66998 14.0729 7.5381 14.1537 7.40835 14.2325C7.33391 14.2772 7.26159 14.3219 7.18927 14.3665C7.06803 14.441 6.94679 14.5155 6.82768 14.5879C6.75324 14.6347 6.67879 14.6794 6.60435 14.7262C6.48949 14.7964 6.37463 14.8688 6.2619 14.939C6.19171 14.9837 6.11939 15.0262 6.0492 15.0709C5.93221 15.1433 5.81948 15.2135 5.70462 15.2859C5.63869 15.3263 5.57488 15.3667 5.51107 15.4072C5.39408 15.4817 5.27922 15.5519 5.16436 15.6242C5.10906 15.6583 5.05163 15.6945 4.99633 15.7306C4.87084 15.8094 4.7496 15.886 4.62623 15.9626C4.58369 15.9903 4.53903 16.0179 4.49649 16.0435C4.33696 16.1435 4.18169 16.2435 4.02855 16.3393C3.98813 16.3648 3.95197 16.3882 3.91156 16.4137C3.79457 16.4882 3.67972 16.5606 3.56911 16.6329C3.52232 16.6627 3.47978 16.6904 3.43511 16.7181C3.33727 16.7819 3.23943 16.8436 3.14584 16.9032C3.09479 16.9351 3.04374 16.9692 2.99482 17.0011C2.90549 17.0585 2.81828 17.116 2.73107 17.1713C2.68641 17.199 2.64387 17.2267 2.5992 17.2565C2.51625 17.3097 2.43542 17.3629 2.35459 17.4139C2.30354 17.4459 2.25462 17.4778 2.2057 17.5097C2.13764 17.5544 2.0717 17.5969 2.00576 17.6395C1.95897 17.6693 1.91218 17.7012 1.86538 17.731C1.79307 17.7778 1.72287 17.8225 1.65481 17.8672C1.61865 17.8906 1.58249 17.914 1.54633 17.9374C1.48252 17.98 1.42084 18.0204 1.36128 18.0587C1.30811 18.0949 1.25281 18.129 1.20176 18.163C1.12944 18.212 1.05712 18.2588 0.989057 18.3013C0.976295 18.3098 0.96566 18.3162 0.952898 18.3247C0.884834 18.3694 0.821024 18.412 0.761468 18.4503C0.733817 18.4695 0.710419 18.4843 0.682768 18.5014C0.640228 18.5312 0.595562 18.5588 0.557276 18.5844C0.529624 18.6035 0.5041 18.6205 0.478576 18.6376C0.444544 18.661 0.410512 18.6823 0.380734 18.7035C0.361591 18.7163 0.342449 18.7291 0.323305 18.7418C0.2914 18.7631 0.263749 18.7823 0.238225 18.7993C0.221209 18.8099 0.204192 18.8227 0.189303 18.8312C0.078699 18.9057 0.012762 18.9504 0 18.9589L12.0048 50.6011C12.0048 50.6011 12.0261 50.5862 12.0452 50.5734C12.0771 50.5521 12.1282 50.5181 12.1941 50.4734C12.209 50.4627 12.226 50.4521 12.243 50.4393C12.2686 50.4223 12.2983 50.4032 12.3281 50.3819C12.3473 50.3691 12.3664 50.3563 12.3855 50.3436C12.4132 50.3244 12.443 50.3053 12.4749 50.284C12.5089 50.2627 12.5429 50.2393 12.5791 50.2159C12.6046 50.1989 12.6301 50.1818 12.6578 50.1648C12.694 50.1414 12.7301 50.1159 12.7705 50.0903C12.8131 50.0627 12.862 50.0307 12.9088 50.001C12.9428 49.9775 12.9747 49.9563 13.0109 49.935C13.0322 49.9201 13.0555 49.9052 13.0768 49.8903C13.1981 49.8116 13.3278 49.7243 13.4682 49.6328C13.4916 49.6179 13.515 49.603 13.5405 49.586C13.5958 49.5498 13.6554 49.5115 13.7149 49.4732C13.7617 49.4413 13.8085 49.4115 13.8596 49.3796C13.9127 49.3455 13.9702 49.3072 14.0255 49.271C14.085 49.2327 14.1446 49.1944 14.2063 49.154C14.2637 49.1157 14.3254 49.0774 14.3849 49.0369C14.4466 48.9965 14.5083 48.9582 14.5721 48.9156C14.6317 48.8773 14.6933 48.8369 14.7572 48.7965C14.8295 48.7497 14.906 48.7007 14.9805 48.6518C15.0379 48.6156 15.0932 48.5794 15.1528 48.5411C15.2464 48.4815 15.3421 48.4198 15.4399 48.3581C15.4846 48.3304 15.5293 48.3006 15.5739 48.273C15.6845 48.2027 15.8015 48.1283 15.9164 48.0538C15.9547 48.0282 15.9929 48.0048 16.0334 47.9793C16.1822 47.8857 16.3333 47.7899 16.4885 47.6899C16.5481 47.6516 16.6119 47.6111 16.6736 47.5728C16.7799 47.5047 16.8884 47.4388 16.9969 47.3685C17.0522 47.3345 17.1096 47.2983 17.1649 47.2621C17.2798 47.1898 17.3946 47.1174 17.5116 47.0451C17.5754 47.0046 17.6414 46.9642 17.7052 46.9238C17.8179 46.8535 17.9306 46.7833 18.0455 46.711C18.1199 46.6641 18.1965 46.6173 18.2731 46.5705C18.3773 46.5067 18.4815 46.4407 18.5879 46.3769C18.6708 46.3258 18.7538 46.2747 18.8367 46.2236C18.9473 46.1555 19.058 46.0874 19.1707 46.0193C19.2536 45.9683 19.3345 45.9172 19.4174 45.8661C19.5387 45.7916 19.6599 45.7172 19.7833 45.6427C19.8577 45.5959 19.9322 45.5512 20.0087 45.5065C20.164 45.4107 20.3235 45.315 20.483 45.2192C20.5298 45.1915 20.5745 45.1639 20.6213 45.1362C20.8255 45.0128 21.0318 44.8872 21.2403 44.7638C21.3105 44.7212 21.3806 44.6808 21.4508 44.6382C21.5933 44.5531 21.7359 44.468 21.8805 44.3807C21.9698 44.3275 22.0592 44.2743 22.1485 44.2211C22.2761 44.1467 22.4016 44.07 22.5313 43.9934C22.6271 43.936 22.7228 43.8806 22.8206 43.8232C22.9461 43.7487 23.0737 43.6742 23.2035 43.5976C23.3013 43.5402 23.4013 43.4827 23.4991 43.4231C23.6268 43.3486 23.7544 43.272 23.8841 43.1975C23.9841 43.138 24.0862 43.0805 24.1862 43.0209C24.2649 42.9741 24.3457 42.9294 24.4244 42.8826C24.8221 42.6506 25.2263 42.4187 25.6346 42.1846C25.6857 42.1548 25.7367 42.1271 25.7878 42.0973C26.2132 41.8547 26.645 41.61 27.0789 41.3674C27.0916 41.361 27.1044 41.3525 27.1172 41.3461C27.5575 41.0993 27.9999 40.8524 28.4487 40.6077C28.4806 40.5907 28.5146 40.5715 28.5465 40.5524C28.9804 40.314 29.4165 40.0757 29.8567 39.8395C29.9184 39.8075 29.978 39.7735 30.0397 39.7394C30.4672 39.5096 30.8969 39.2819 31.3286 39.0542C31.3988 39.018 31.469 38.9797 31.5413 38.9435C31.971 38.718 32.4007 38.4945 32.8324 38.2753C32.9026 38.2392 32.9728 38.203 33.043 38.1668C33.479 37.9434 33.9172 37.7242 34.3532 37.505C34.4128 37.4752 34.4702 37.4475 34.5298 37.4177C34.9807 37.1943 35.4316 36.9751 35.8826 36.758C35.9123 36.7431 35.9421 36.7304 35.9719 36.7155C36.476 36.475 36.978 36.2366 37.4799 36.0068C37.5012 35.9962 37.5225 35.9877 37.5437 35.977C38.0521 35.7429 38.5583 35.5152 39.0603 35.296C39.0752 35.2897 39.0879 35.2833 39.1028 35.279C39.6133 35.0556 40.1217 34.8385 40.6236 34.63C40.6258 34.63 40.63 34.6278 40.6322 34.6257C41.1384 34.415 41.6404 34.215 42.1381 34.0213C42.1445 34.0192 42.153 34.0149 42.1593 34.0128C42.4486 33.9 42.7358 33.7915 43.0229 33.6872C43.108 33.6553 43.1931 33.6255 43.2803 33.5936C43.4802 33.5212 43.6802 33.4489 43.8801 33.3787C43.9801 33.3425 44.08 33.3084 44.18 33.2744C44.3693 33.2084 44.5565 33.1467 44.7415 33.085C44.8372 33.0531 44.9308 33.0211 45.0244 32.9913C45.2414 32.9211 45.4562 32.853 45.671 32.7892C45.7263 32.7722 45.7838 32.753 45.8391 32.7381C46.2262 32.6211 46.6069 32.5147 46.9834 32.4146C47.0366 32.3997 47.0919 32.3849 47.145 32.3721C47.5066 32.2785 47.8597 32.1933 48.2085 32.1146C48.2766 32.0997 48.3447 32.0848 48.4127 32.0699C48.6744 32.0146 48.936 31.9614 49.1891 31.9167C49.2061 31.9124 49.2231 31.9103 49.2401 31.906C49.5081 31.8592 49.7698 31.8188 50.0271 31.7847C50.0909 31.7762 50.1569 31.7677 50.2186 31.7613C50.5057 31.7252 50.7886 31.6954 51.063 31.6762C51.2714 31.6613 51.4756 31.6549 51.6777 31.6507C51.7777 31.6485 51.8734 31.6507 51.9691 31.6507C52.0925 31.6507 52.2137 31.6507 52.3328 31.6571C52.4285 31.6613 52.5221 31.6677 52.6136 31.6741C52.7178 31.6805 52.8199 31.689 52.9199 31.6996C53.1517 31.723 53.3772 31.7549 53.592 31.7975C53.6111 31.8018 53.6324 31.8039 53.6515 31.806C53.8834 31.8528 54.1025 31.9146 54.313 31.9848C54.3726 32.0039 54.43 32.0273 54.4896 32.0507C54.6449 32.1082 54.7937 32.172 54.9363 32.2423C54.9916 32.2699 55.049 32.2976 55.1043 32.3274C55.2893 32.4295 55.4659 32.5381 55.6254 32.6658C55.6956 32.7211 55.7594 32.7828 55.8211 32.853C55.836 32.87 55.8509 32.8892 55.8658 32.9062C55.9125 32.9616 55.9572 33.0211 55.9998 33.0829C56.0125 33.102 56.0253 33.119 56.038 33.1403C56.0912 33.2233 56.1401 33.3106 56.1848 33.4021C56.1933 33.4191 56.2018 33.4404 56.2103 33.4574C56.2507 33.5404 56.289 33.6255 56.3209 33.7128L54.8022 29.712C54.5576 29.0672 54.3109 28.4139 54.0599 27.7542L52.9624 24.8643C52.6689 24.0897 52.3732 23.3108 52.0754 22.5255L48.8785 14.1005C48.7722 13.8196 48.6658 13.543 48.5616 13.2642L45.8348 6.07562C45.3116 4.69663 44.8032 3.35383 44.3161 2.07486C44.3119 2.06422 44.3076 2.05358 44.3034 2.04294C44.2736 1.96633 44.2396 1.89185 44.2034 1.81949C44.1949 1.80034 44.1885 1.78119 44.18 1.76416C44.18 1.76416 44.18 1.76203 44.18 1.75991C44.1396 1.67904 44.097 1.60243 44.0524 1.53008C44.046 1.52157 44.0396 1.51305 44.0354 1.50454C44.0226 1.48539 44.0098 1.46624 43.9971 1.44708C43.9737 1.41091 43.9503 1.37473 43.9226 1.34068C43.9035 1.31514 43.8822 1.29386 43.8631 1.27045C43.8482 1.25343 43.8333 1.23428 43.8184 1.21938C43.8078 1.20661 43.7971 1.19384 43.7865 1.18108C43.7355 1.13 43.6844 1.08105 43.6291 1.03849C43.627 1.03849 43.6227 1.03424 43.6206 1.03211C43.4589 0.904425 43.2824 0.795894 43.0995 0.693747C43.0442 0.663954 42.9889 0.636291 42.9314 0.608626C42.7889 0.5384 42.64 0.474556 42.4869 0.417098C42.4273 0.395818 42.3699 0.37241 42.3104 0.351129C42.0998 0.280903 41.8807 0.21919 41.6489 0.172373C41.6297 0.168116 41.6063 0.165988 41.5872 0.161732C41.3724 0.11917 41.149 0.0893781 40.9172 0.0659694C40.8874 0.0617133 40.8597 0.0553296 40.8278 0.0532016C40.7576 0.0468174 40.6811 0.0446898 40.6088 0.0404337C40.5152 0.0340495 40.4237 0.0276649 40.328 0.0234088C40.2089 0.0191527 40.0855 0.0170249 39.9643 0.0170249C39.9132 0.0170249 39.8643 0.0170249 39.8133 0.0170249C39.7665 0.0170249 39.7197 0.0170249 39.6729 0.0170249" fill="url(#paint3_linear_580_112)"/>
<defs>
<linearGradient id="paint0_linear_580_112" x1="37.6979" y1="31.2454" x2="82.0111" y2="31.2454" gradientUnits="userSpaceOnUse">
<stop stop-color="white" stop-opacity="0.8"/>
<stop offset="1" stop-color="white" stop-opacity="0"/>
</linearGradient>
<linearGradient id="paint1_linear_580_112" x1="37.8125" y1="31.2454" x2="82.1257" y2="31.2454" gradientUnits="userSpaceOnUse">
<stop stop-color="white" stop-opacity="0.8"/>
<stop offset="1" stop-color="#FC6A01"/>
</linearGradient>
<linearGradient id="paint2_linear_580_112" x1="-0.0829469" y1="25.988" x2="56.238" y2="25.988" gradientUnits="userSpaceOnUse">
<stop stop-color="white" stop-opacity="0.8"/>
<stop offset="1" stop-color="white" stop-opacity="0"/>
</linearGradient>
<linearGradient id="paint3_linear_580_112" x1="0.144625" y1="25.988" x2="56.4656" y2="25.988" gradientUnits="userSpaceOnUse">
<stop stop-color="white" stop-opacity="0.8"/>
<stop offset="1" stop-color="#FC6A01"/>
</linearGradient>
</defs>
</svg>
