<svg width="275" height="56" viewBox="0 0 275 56" fill="none" xmlns="http://www.w3.org/2000/svg">
<path fill-rule="evenodd" clip-rule="evenodd" d="M5.21708 13.9985V25.9971L10.6013 31.4297L15.9855 36.8623L7.99277 44.9311L0 53H16.2758H32.5516V41.0015V29.0029L27.1673 23.5703L21.7831 18.1377L29.7759 10.0689L37.7686 2H21.4929H5.21708V13.9985ZM13.8322 10.1128C17.7954 14.1151 21.1226 17.3694 21.226 17.3448C21.3295 17.3202 24.6827 14.0457 28.6775 10.068L35.9409 2.83607H21.2838H6.62671L13.8322 10.1128ZM6.0454 14.3323C6.0454 20.425 6.10122 25.41 6.16964 25.4102C6.23806 25.4103 9.72313 25.8581 13.9144 26.4054C29.2976 28.4138 30.7728 28.6001 30.9156 28.5521C30.9957 28.5252 25.4327 22.8222 18.5533 15.879L6.0454 3.25493V14.3323ZM6.87371 26.4064C6.87371 26.4566 12.5021 32.1783 19.3813 39.1213L31.8889 51.7451V40.6809V29.6167L31.4333 29.5231C31.1827 29.4716 30.3814 29.3561 29.6525 29.2663C27.9102 29.0517 22.3411 28.3324 19.2156 27.918C17.8489 27.7369 15.277 27.4012 13.5003 27.1721C11.7235 26.943 9.50561 26.6566 8.57177 26.5353C7.63792 26.4143 6.87371 26.3563 6.87371 26.4064ZM9.27584 44.8066L1.98813 52.1639H16.6479H31.3076L24.0199 44.8066C20.0117 40.76 16.6943 37.4492 16.6479 37.4492C16.6015 37.4492 13.2841 40.76 9.27584 44.8066ZM60.4793 19.1636C59.0226 19.4788 57.3892 20.2249 56.4432 21.0073C53.7383 23.2446 53.3324 27.4968 55.5863 29.9861C56.8062 31.3332 58.3948 32.1027 62.0384 33.111C65.422 34.0474 66.4689 34.7885 66.2764 36.1115C66.1056 37.2852 64.7745 37.8987 62.7969 37.7151C60.6768 37.5184 57.5263 36.1993 55.711 34.748C55.3558 34.4641 55.0399 34.2598 55.0088 34.2937C54.7121 34.6199 52.7614 38.8805 52.8283 39.0566C52.9509 39.3792 54.9269 40.6209 56.3476 41.268C58.5487 42.2704 60.4863 42.6726 63.198 42.6895C65.0019 42.7009 65.8683 42.6318 66.6769 42.4122C69.2571 41.7116 70.9804 40.4692 71.9977 38.5757C72.5419 37.5627 72.558 37.4778 72.558 35.6098C72.558 33.8422 72.5206 33.6098 72.0941 32.7333C71.1351 30.7623 69.3368 29.6425 65.0203 28.3287C63.608 27.8988 62.18 27.407 61.847 27.2356C60.1954 26.386 60.0847 24.585 61.652 24.0629C63.0154 23.6086 66.5033 24.3897 69.1626 25.7446C69.7238 26.0305 70.2534 26.2409 70.3393 26.2121C70.494 26.16 72.7006 21.5589 72.6067 21.4843C72.192 21.1554 70.7244 20.4413 69.6364 20.0388C66.6995 18.9529 63.0603 18.6049 60.4793 19.1636ZM84.8844 19.0628C81.6279 19.4427 79.1004 20.6894 77.0067 22.9486C75.8014 24.2492 75.143 25.3674 74.5239 27.1656C74.1104 28.367 74.0629 28.7332 74.0577 30.7607C74.0511 33.3769 74.2822 34.4079 75.3509 36.5295C76.2394 38.2933 78.3324 40.4467 80.0129 41.3264C82.1247 42.4316 83.3467 42.7164 85.9767 42.7164C87.9473 42.7164 88.4819 42.6575 89.5327 42.3245C91.6688 41.6474 93.9722 40.3094 95.1621 39.0546L95.733 38.4525L95.2357 37.909C94.9622 37.61 94.2579 36.8529 93.6708 36.2262C93.0837 35.5996 92.5784 35.0164 92.5481 34.9303C92.4509 34.6549 92.1949 34.7586 91.3123 35.4308C90.0708 36.3762 88.583 37.0743 87.3991 37.2668C84.6738 37.7097 81.9955 36.2402 80.7883 33.6397C80.3876 32.7766 80.3445 32.4965 80.3443 30.7607C80.3442 29.0277 80.3878 28.7439 80.7848 27.8888C81.3739 26.6206 82.3575 25.5786 83.6157 24.8898C84.6082 24.3467 84.724 24.3231 86.3909 24.3271C88.0333 24.3312 88.1928 24.3629 89.2506 24.8982C89.8665 25.2099 90.8007 25.8578 91.3265 26.3379L92.2822 27.2111L94.0025 25.1057L95.7226 23.0003L94.7715 22.128C92.4012 19.9537 88.2579 18.6693 84.8844 19.0628ZM107.43 19.0726C103.199 19.5714 99.5557 21.9821 97.8523 25.4098C97.0104 27.1039 96.6995 28.2102 96.5598 30.0082C96.1889 34.7838 98.766 39.3303 103.033 41.4282C105.266 42.5258 106.162 42.7164 109.087 42.7161C112.033 42.7156 113.114 42.4662 115.465 41.2439C117.407 40.2341 119.41 38.1833 120.319 36.2725C121.246 34.3251 121.534 33.0637 121.537 30.9419C121.541 28.0516 120.858 25.8752 119.293 23.7896C116.722 20.3629 112.094 18.5227 107.43 19.0726ZM124.202 30.8861L124.245 42.5492L127.268 42.5948L130.292 42.6403V39.376V36.1115L132.984 36.1056C134.477 36.1025 136.229 36.0001 136.918 35.8757C141.233 35.0978 143.7 32.0211 143.708 27.4097C143.714 24.0482 142.304 21.5298 139.692 20.2353C137.849 19.3214 136.985 19.2291 130.249 19.2258L124.16 19.223L124.202 30.8861ZM146.692 30.9279V42.6328H155.97H165.247V40.1246V37.6164H158.947H152.646L152.693 35.4844L152.739 33.3525L158.247 33.3085L163.756 33.2644V30.8421V28.4197H158.206H152.656V26.2459V24.0721H158.786H164.915V21.6476V19.223H155.804H146.692V30.9279ZM169.926 30.8861L169.968 42.5492L177.879 42.5927L185.789 42.636V39.9591V37.282H180.902H176.015V28.2525V19.223H172.949H169.883L169.926 30.8861ZM185.491 23.6123C186.767 26.0265 188.111 28.566 188.479 29.2557C188.847 29.9455 189.445 31.0742 189.809 31.7639C190.172 32.4537 190.702 33.4319 190.987 33.9377L191.504 34.8574L191.587 38.7033L191.67 42.5492L194.693 42.5948L197.717 42.6403V38.8884V35.1365L198.892 32.9068C199.538 31.6805 200.443 29.9622 200.901 29.0885C201.36 28.2148 202.052 26.898 202.44 26.1623C205.479 20.3973 206 19.3945 206 19.3106C206 19.2582 204.64 19.236 202.978 19.2609L199.955 19.3066L198.484 22.0656C197.674 23.583 196.491 25.7904 195.855 26.9708L194.699 29.117L194.415 28.6429C194.259 28.3822 193.848 27.6421 193.502 26.9984C193.156 26.3546 192.48 25.113 192.001 24.2394C191.521 23.3657 190.706 21.8795 190.189 20.9369L189.249 19.223H186.21H183.171L185.491 23.6123ZM130.33 27.6139L130.375 31.1787L132.88 31.162C135.127 31.1469 135.466 31.1061 136.163 30.7655C136.65 30.5274 137.106 30.1328 137.385 29.7076C137.781 29.1031 137.829 28.8722 137.829 27.5836C137.829 26.3175 137.778 26.0611 137.415 25.5205C136.668 24.4062 135.895 24.1636 132.898 24.1024L130.285 24.0491L130.33 27.6139ZM107.659 24.3883C104.075 25.3192 101.992 29.2149 103.104 32.9092C103.661 34.7594 104.81 36.1173 106.535 36.9623C109.777 38.5498 113.578 36.9482 114.899 33.4386C116.156 30.1002 114.671 26.1967 111.604 24.7798C110.601 24.3164 108.673 24.125 107.659 24.3883Z" fill="#E9E9E9"/>
</svg>
