<svg width="275" height="56" viewBox="0 0 275 56" fill="none" xmlns="http://www.w3.org/2000/svg">
<g clip-path="url(#clip0_23_1493)">
<path d="M75 36.9071L78.1457 33.1693C79.9591 34.6496 82.2167 35.6858 84.5667 35.6858C86.9167 35.6858 87.9715 34.7976 87.9715 33.5764C87.9715 31.874 86.5282 31.4299 84.2336 30.4676L81.1249 29.1353C78.4233 28.1361 75.9622 26.0636 75.9622 22.5478C75.9622 18.5509 79.5891 15.3682 84.8258 15.3682C87.7494 15.3682 90.6916 16.4784 92.8751 18.5509L90.0995 21.9927C88.4341 20.7714 86.9167 20.0682 84.5482 20.0682C82.7348 20.0682 81.5135 20.8454 81.5135 22.2517C81.5135 23.6581 83.1419 24.2502 85.4734 25.1014L88.3971 26.3597C91.5798 27.544 93.5783 29.5054 93.5783 32.9102C93.5783 36.9071 90.2105 40.3859 84.1966 40.3859C80.9399 40.3859 77.6091 39.2016 75 36.9071Z" fill="#E9E9E9"/>
<path d="M95.9469 30.7628C95.9469 24.7305 100.573 21.1406 105.514 21.1406C111.194 21.1406 114.192 24.9525 114.192 29.9487C114.192 30.9479 114.007 31.9471 113.933 32.3912H101.406C101.924 35.0558 103.885 36.2401 106.883 36.2401C108.548 36.2401 109.992 35.796 111.62 34.9448L113.433 38.2386C111.324 39.5709 108.585 40.3851 106.124 40.3851C100.406 40.3851 95.9469 36.8692 95.9469 30.7628ZM101.48 28.7274H109.344C109.085 26.4699 107.827 25.2856 105.717 25.2856C103.589 25.2856 102.035 26.4328 101.48 28.7274Z" fill="#E9E9E9"/>
<path d="M116.986 30.7628C116.986 24.6564 121.946 21.1406 127.626 21.1406C130.513 21.1406 132.956 22.1769 134.528 23.6202L131.993 26.988C130.587 25.9887 129.292 25.5446 127.922 25.5446C124.777 25.5446 122.593 27.5801 122.593 30.7628C122.593 33.9456 124.703 35.981 127.756 35.981C129.68 35.981 131.272 35.1669 132.604 34.2416L134.788 37.6834C132.567 39.5339 129.754 40.3851 127.219 40.3851C121.427 40.3666 116.986 36.8507 116.986 30.7628Z" fill="#E9E9E9"/>
<path d="M136.342 30.7628C136.342 24.6564 140.857 21.1406 145.723 21.1406C150.59 21.1406 155.105 24.6564 155.105 30.7628C155.105 36.8692 150.59 40.3851 145.723 40.3851C140.857 40.3851 136.342 36.8692 136.342 30.7628ZM149.498 30.7628C149.498 27.5801 148.24 25.5446 145.723 25.5446C143.207 25.5446 141.948 27.5801 141.948 30.7628C141.948 33.9456 143.207 35.981 145.723 35.981C148.24 35.981 149.498 33.9456 149.498 30.7628Z" fill="#E9E9E9"/>
<path d="M158.436 21.5847H162.877L163.284 24.0273H163.432C165.023 22.4729 167.022 21.1406 169.779 21.1406C173.924 21.1406 175.774 23.9903 175.774 28.6163V39.941H170.316V29.3195C170.316 26.8769 169.612 25.7667 167.614 25.7667C166.134 25.7667 165.171 26.4328 163.876 27.6911V39.941H158.436V21.5847Z" fill="#E9E9E9"/>
<path d="M178.92 30.7636C178.92 24.7683 182.769 21.1414 186.784 21.1414C188.82 21.1414 190.189 21.8446 191.411 23.1029H191.559L191.3 20.2532V13.9988H196.74V39.9418H192.299L191.892 38.0543H191.781C190.411 39.3866 188.524 40.3859 186.673 40.3859C181.992 40.3859 178.92 36.759 178.92 30.7636ZM191.3 34.2424V26.8037C190.3 25.9155 189.301 25.5824 188.228 25.5824C186.229 25.5824 184.527 27.2108 184.527 30.6896C184.527 34.1684 185.822 35.9448 188.08 35.9448C189.301 35.9263 190.337 35.4637 191.3 34.2424Z" fill="#E9E9E9"/>
<path d="M201.44 13.9988H206.88V35.3527H217.631V39.9418H201.44V13.9988Z" fill="#E9E9E9"/>
<path d="M232.841 21.5852H228.252H218.205V25.7302V25.8412H222.794V39.9414H228.252V25.7302H232.841V21.5852Z" fill="#E9E9E9"/>
<path d="M225.273 18.6985C227.383 18.6985 228.9 17.4032 228.9 15.4048C228.9 13.4063 227.383 12 225.273 12C223.164 12 221.646 13.4063 221.646 15.4048C221.646 17.4032 223.164 18.6985 225.273 18.6985Z" fill="#E9E9E9"/>
<path d="M236.08 21.5852H241.557L244.444 30.2452C245.036 32.0956 245.554 33.9831 246.109 35.9075H246.257C246.812 33.9831 247.293 32.0956 247.885 30.2452L250.772 21.5852H255.99L249.236 39.9414H243.019L236.08 21.5852Z" fill="#E9E9E9"/>
<path d="M256.916 30.7628C256.916 24.7305 261.542 21.1406 266.482 21.1406C272.163 21.1406 275.161 24.9525 275.161 29.9487C275.161 30.9479 274.976 31.9471 274.902 32.3912H262.374C262.892 35.0558 264.854 36.2401 267.852 36.2401C269.517 36.2401 270.96 35.796 272.589 34.9448L274.402 38.2386C272.293 39.5709 269.554 40.3851 267.093 40.3851C261.375 40.3851 256.934 36.8692 256.916 30.7628ZM262.448 28.7274H270.313C270.054 26.4699 268.795 25.2856 266.686 25.2856C264.558 25.2856 263.003 26.4328 262.448 28.7274Z" fill="#E9E9E9"/>
<path fill-rule="evenodd" clip-rule="evenodd" d="M47.8404 14.643C56.2562 15.9516 51.3151 19.2232 49.9839 20.1257C49.8711 20.1934 49.7808 20.2611 49.7357 20.3062C49.5778 20.419 49.4649 20.4867 49.3296 20.5318C49.2619 20.5318 48.8558 20.5318 48.7429 20.1708C46.1483 12.838 39.4247 7.33278 31.1668 6.65591C19.9307 5.75341 10.116 14.1015 9.21354 25.3151C8.98791 28.1805 9.37148 30.9557 10.2514 33.5052C10.4093 33.979 9.98066 34.1144 9.93554 34.137C7.36342 34.5882 2.0838 34.859 7.6116 28.0225C7.6116 28.0225 -11.8372 40.5898 12.1241 37.4988C18.3965 36.5286 34.664 33.3473 49.8034 24.6156C71.2603 11.8453 49.3973 14.282 47.8404 14.643Z" fill="url(#paint0_linear_23_1493)"/>
<path fill-rule="evenodd" clip-rule="evenodd" d="M30.3545 37.5665C20.6527 43.4328 21.8936 45.4859 24.917 46.7494C25.3231 46.9299 27.3763 47.3135 29.0459 47.2684C29.091 47.2684 29.1136 47.2684 29.1587 47.2684C39.8308 47.4489 48.9685 39.3264 49.8259 28.5415C49.8259 28.4739 49.8259 28.4062 49.8485 28.3159C47.5471 29.1282 39.1313 32.2643 30.3545 37.5665Z" fill="url(#paint1_linear_23_1493)"/>
</g>
<defs>
<linearGradient id="paint0_linear_23_1493" x1="18.6527" y1="1.63682" x2="41.6527" y2="52.7881" gradientUnits="userSpaceOnUse">
<stop offset="0.139" stop-color="#FF467E"/>
<stop offset="0.8602" stop-color="#9500FA"/>
</linearGradient>
<linearGradient id="paint1_linear_23_1493" x1="19.8415" y1="0.0502439" x2="42.8416" y2="51.2015" gradientUnits="userSpaceOnUse">
<stop offset="0.1478" stop-color="#FF467E"/>
<stop offset="0.8747" stop-color="#9500FA"/>
</linearGradient>
<clipPath id="clip0_23_1493">
<rect width="275" height="56" fill="white"/>
</clipPath>
</defs>
</svg>
