<svg width="275" height="56" viewBox="0 0 275 56" fill="none" xmlns="http://www.w3.org/2000/svg">
<mask id="mask0_23_1217" style="mask-type:luminance" maskUnits="userSpaceOnUse" x="0" y="6" width="230" height="45">
<path d="M229.745 6.09668H0.0483398V50.758H229.745V6.09668Z" fill="white"/>
</mask>
<g mask="url(#mask0_23_1217)">
<path d="M62.1629 18.4353C62.1629 18.0966 62.3087 17.7579 62.5517 17.5159C62.7947 17.274 63.135 17.1288 63.4752 17.1288H75.3343C75.5287 17.1288 75.7231 17.0321 75.8689 16.9353C76.0147 16.7901 76.0633 16.5966 76.0633 16.403V15.9192C76.0633 15.7256 75.9661 15.5321 75.8689 15.3869C75.7231 15.2417 75.5287 15.1934 75.3343 15.1934H61.5797C60.6076 15.1934 59.6841 15.5805 59.0037 16.2579C58.3233 16.9353 57.9344 17.8546 57.9344 18.8224V25.645C57.9344 26.6127 58.3233 27.5321 59.0037 28.2095C59.6841 28.8869 60.6076 29.274 61.5797 29.274H71.1058C71.446 29.274 71.7863 29.4192 72.0293 29.7095C72.2723 29.9514 72.4181 30.2901 72.4181 30.6288V38.0805C72.4181 38.4192 72.2723 38.7579 72.0293 38.9998C71.7863 39.2417 71.446 39.3869 71.1058 39.3869H59.7814C59.5869 39.3869 59.3925 39.4837 59.2467 39.5805C59.1009 39.7256 59.0523 39.9192 59.0523 40.1127V40.5966C59.0523 40.7901 59.1495 40.9837 59.2467 41.1288C59.3925 41.274 59.5869 41.3224 59.7814 41.3224H72.9527C73.4388 41.3224 73.8762 41.2256 74.3622 41.0321C74.7996 40.8385 75.1884 40.5966 75.5287 40.2579C75.8689 39.9192 76.1119 39.5321 76.3063 39.0966C76.5007 38.6611 76.5979 38.1772 76.5979 37.6934V30.9192C76.5979 29.9514 76.2091 29.0321 75.5287 28.3546C74.8482 27.6772 73.9248 27.2901 72.9527 27.2901H63.4266C63.0863 27.2901 62.7461 27.145 62.5031 26.903C62.2601 26.6611 62.1143 26.3224 62.1143 25.9837V18.4353H62.1629Z" fill="#E9E9E9"/>
<path d="M194.071 18.4353C194.071 18.0966 194.217 17.7579 194.46 17.5159C194.703 17.274 195.043 17.1288 195.383 17.1288H207.242C207.437 17.1288 207.631 17.0321 207.777 16.9353C207.923 16.7901 207.971 16.5966 207.971 16.403V15.9192C207.971 15.7256 207.874 15.5321 207.777 15.3869C207.631 15.2417 207.437 15.1934 207.242 15.1934H193.439C192.467 15.1934 191.544 15.5805 190.863 16.2579C190.183 16.9353 189.794 17.8546 189.794 18.8224V25.645C189.794 26.6127 190.183 27.5321 190.863 28.2095C191.544 28.8869 192.467 29.274 193.439 29.274H202.965C203.306 29.274 203.646 29.4192 203.889 29.7095C204.132 29.9514 204.278 30.2901 204.278 30.6288V38.0805C204.278 38.4192 204.132 38.7579 203.889 38.9998C203.646 39.2417 203.306 39.3869 202.965 39.3869H191.641C191.446 39.3869 191.252 39.4837 191.106 39.5805C190.96 39.7256 190.912 39.9192 190.912 40.1127V40.5966C190.912 40.7901 191.009 40.9837 191.106 41.1288C191.252 41.274 191.446 41.3224 191.641 41.3224H204.861C205.347 41.3224 205.784 41.2256 206.27 41.0321C206.708 40.8385 207.097 40.5966 207.437 40.2579C207.777 39.9192 208.02 39.5321 208.214 39.0966C208.409 38.6611 208.506 38.1772 208.506 37.6934V30.9192C208.506 29.9514 208.117 29.0321 207.437 28.3546C206.756 27.6772 205.833 27.2901 204.861 27.2901H195.335C194.994 27.2901 194.654 27.145 194.411 26.903C194.168 26.6611 194.022 26.3224 194.022 25.9837V18.4353H194.071Z" fill="#E9E9E9"/>
<path d="M93.3173 39.2902H87.3877C87.0475 39.2902 86.7073 39.145 86.4643 38.8547C86.2213 38.6128 86.0755 38.2741 86.0755 37.9353V15.8708C86.0755 15.6773 85.9783 15.4837 85.8811 15.3386C85.7353 15.1934 85.5408 15.145 85.3464 15.145H82.6247C82.4303 15.145 82.2358 15.2418 82.09 15.3386C81.9442 15.4837 81.8956 15.6773 81.8956 15.8708V37.5966C81.8956 38.5644 82.2845 39.4837 82.9649 40.1612C83.6453 40.8386 84.5688 41.2257 85.5408 41.2257H93.3173C93.5117 41.2257 93.7061 41.1289 93.8519 41.0321C93.9977 40.887 94.0463 40.6934 94.0463 40.4999V40.016C94.0463 39.9192 94.0463 39.8224 93.9977 39.7257C93.9491 39.6289 93.9005 39.5321 93.8519 39.4837C93.8033 39.4353 93.7061 39.3386 93.6089 39.3386C93.5117 39.3386 93.4145 39.2902 93.3173 39.2902Z" fill="#E9E9E9"/>
<path d="M136.865 39.2902H138.907C139.247 39.2902 139.587 39.145 139.83 38.8547C140.073 38.6128 140.219 38.2741 140.219 37.9353V15.8708C140.219 15.6773 140.316 15.4837 140.413 15.3386C140.559 15.1934 140.754 15.145 140.948 15.145H143.718C143.913 15.145 144.107 15.2418 144.253 15.3386C144.399 15.4837 144.448 15.6773 144.448 15.8708V37.5966C144.448 38.5644 144.059 39.4837 143.378 40.1612C142.698 40.8386 141.774 41.2257 140.802 41.2257H136.914C136.72 41.2257 136.525 41.1289 136.379 41.0321C136.234 40.887 136.185 40.6934 136.185 40.4999V40.016C136.185 39.9192 136.185 39.8224 136.234 39.7257C136.282 39.6289 136.331 39.5321 136.379 39.4837C136.428 39.4353 136.525 39.3386 136.622 39.3386C136.671 39.3386 136.768 39.2902 136.865 39.2902Z" fill="#E9E9E9"/>
<path d="M128.214 39.2902H126.173C125.833 39.2902 125.492 39.145 125.249 38.8547C125.006 38.6128 124.861 38.2741 124.861 37.9353V15.8708C124.861 15.6773 124.763 15.4837 124.666 15.3386C124.52 15.1934 124.326 15.145 124.131 15.145H121.361C121.167 15.145 120.972 15.2418 120.826 15.3386C120.681 15.4837 120.632 15.6773 120.632 15.8708V37.5966C120.632 38.5644 121.021 39.4837 121.701 40.1612C122.382 40.8386 123.305 41.2257 124.277 41.2257H128.166C128.36 41.2257 128.554 41.1289 128.7 41.0321C128.846 40.887 128.895 40.6934 128.895 40.4999V40.016C128.895 39.9192 128.895 39.8224 128.846 39.7257C128.797 39.6289 128.749 39.5321 128.7 39.4837C128.652 39.4353 128.554 39.3386 128.457 39.3386C128.409 39.3386 128.311 39.2902 128.214 39.2902Z" fill="#E9E9E9"/>
<path d="M108.579 39.2902H102.843C102.503 39.2902 102.163 39.145 101.92 38.8547C101.677 38.6128 101.531 38.2741 101.531 37.9353V15.8708C101.531 15.6773 101.434 15.4837 101.337 15.3386C101.24 15.1934 100.997 15.145 100.802 15.145H98.0318C97.8374 15.145 97.643 15.2418 97.4971 15.3386C97.3513 15.4353 97.3027 15.6773 97.3027 15.8708V37.5966C97.3027 38.5644 97.6915 39.4837 98.372 40.1612C99.0524 40.8386 99.9759 41.2257 100.948 41.2257H108.53C108.724 41.2257 108.919 41.1289 109.065 41.0321C109.21 40.887 109.259 40.6934 109.259 40.4999V40.016C109.259 39.9192 109.259 39.8224 109.21 39.7257C109.162 39.6289 109.113 39.5321 109.065 39.4837C109.016 39.4353 108.919 39.3386 108.822 39.3386C108.773 39.3386 108.676 39.2902 108.579 39.2902Z" fill="#E9E9E9"/>
<path d="M183.427 15.1934H180.657C180.462 15.1934 180.268 15.2901 180.122 15.3869C179.976 15.5321 179.927 15.7256 179.927 15.9192V40.4998C179.927 40.6934 180.025 40.8869 180.122 41.0321C180.268 41.1772 180.462 41.2256 180.657 41.2256H183.427C183.621 41.2256 183.816 41.1288 183.962 41.0321C184.107 40.8869 184.156 40.6934 184.156 40.4998V15.9192C184.156 15.8224 184.156 15.7256 184.107 15.6288C184.059 15.5321 184.01 15.4353 183.962 15.3869C183.913 15.3385 183.816 15.2417 183.719 15.2417C183.621 15.1934 183.524 15.1934 183.427 15.1934Z" fill="#E9E9E9"/>
<path d="M133.949 15.1934H131.179C130.984 15.1934 130.79 15.2901 130.644 15.3869C130.498 15.5321 130.45 15.7256 130.45 15.9192V40.4998C130.45 40.6934 130.547 40.8869 130.644 41.0321C130.79 41.1772 130.984 41.2256 131.179 41.2256H133.949C134.144 41.2256 134.338 41.1288 134.484 41.0321C134.63 40.8869 134.678 40.6934 134.678 40.4998V15.9192C134.678 15.8224 134.678 15.7256 134.63 15.6288C134.581 15.5321 134.532 15.4353 134.484 15.3869C134.435 15.3385 134.338 15.2417 134.241 15.2417C134.144 15.2417 134.046 15.1934 133.949 15.1934Z" fill="#E9E9E9"/>
<path d="M157.813 17.0805H155.772C155.432 17.0805 155.091 17.2257 154.848 17.4676C154.605 17.7095 154.46 18.0483 154.46 18.387V40.4999C154.46 40.6934 154.362 40.887 154.265 41.0321C154.119 41.1773 153.925 41.2257 153.731 41.2257H150.96C150.766 41.2257 150.571 41.1289 150.426 41.0321C150.28 40.887 150.231 40.6934 150.231 40.4999V18.7741C150.231 17.8063 150.62 16.887 151.3 16.2095C151.981 15.5321 152.904 15.145 153.876 15.145H157.765C157.959 15.145 158.153 15.2418 158.299 15.3386C158.445 15.4837 158.494 15.6773 158.494 15.8708V16.3547C158.494 16.5482 158.445 16.7418 158.299 16.887C158.202 17.0321 158.008 17.0805 157.813 17.0805Z" fill="#E9E9E9"/>
<path d="M166.465 17.0805H168.506C168.846 17.0805 169.186 17.2257 169.429 17.4676C169.672 17.7095 169.818 18.0483 169.818 18.387V40.4999C169.818 40.6934 169.915 40.887 170.013 41.0321C170.158 41.1773 170.353 41.2257 170.547 41.2257H173.269C173.463 41.2257 173.658 41.1289 173.804 41.0321C173.949 40.887 173.998 40.6934 173.998 40.4999V18.7741C173.998 17.8063 173.609 16.887 172.929 16.2095C172.248 15.5321 171.325 15.145 170.353 15.145H166.465C166.27 15.145 166.076 15.2418 165.93 15.3386C165.784 15.4837 165.736 15.6773 165.736 15.8708V16.3547C165.736 16.4515 165.736 16.5482 165.784 16.645C165.833 16.7418 165.881 16.8386 165.93 16.887C165.979 16.9353 166.076 17.0321 166.173 17.0321C166.27 17.0805 166.367 17.0805 166.465 17.0805Z" fill="#E9E9E9"/>
<path d="M103.621 17.0805H109.356C109.696 17.0805 110.037 17.2257 110.28 17.4676C110.523 17.7095 110.669 18.0483 110.669 18.387V40.4999C110.669 40.6934 110.766 40.887 110.863 41.0321C111.009 41.1773 111.203 41.2257 111.398 41.2257H114.168C114.362 41.2257 114.557 41.1289 114.703 41.0321C114.848 40.887 114.897 40.6934 114.897 40.4999V18.7741C114.897 17.8063 114.508 16.887 113.828 16.2095C113.147 15.5321 112.224 15.145 111.252 15.145H103.67C103.475 15.145 103.281 15.2418 103.135 15.3386C102.989 15.4837 102.941 15.6773 102.941 15.8708V16.3547C102.941 16.5482 102.989 16.7418 103.135 16.8386C103.232 17.0321 103.427 17.0805 103.621 17.0805Z" fill="#E9E9E9"/>
<path d="M212.54 17.0805H216.866C217.206 17.0805 217.546 17.2257 217.789 17.4676C218.032 17.7095 218.178 18.0483 218.178 18.387V40.4999C218.178 40.6934 218.275 40.887 218.372 41.0321C218.518 41.1773 218.713 41.2257 218.907 41.2257H221.677C221.872 41.2257 222.066 41.1289 222.212 41.0321C222.358 40.887 222.406 40.6934 222.406 40.4999V18.7741C222.406 17.8063 222.018 16.887 221.337 16.2095C220.657 15.5321 219.733 15.145 218.761 15.145H212.54C212.346 15.145 212.151 15.2418 212.005 15.3386C211.86 15.4837 211.811 15.6773 211.811 15.8708V16.3547C211.811 16.5482 211.86 16.7418 212.005 16.8386C212.2 16.9837 212.346 17.0805 212.54 17.0805Z" fill="#E9E9E9"/>
<path d="M160.729 41.274H163.5C163.694 41.274 163.889 41.1772 164.034 41.0804C164.18 40.9352 164.229 40.7417 164.229 40.5481V15.9675C164.229 15.774 164.132 15.5804 164.034 15.4352C163.889 15.2901 163.694 15.2417 163.5 15.2417H160.729C160.535 15.2417 160.341 15.3385 160.195 15.4352C160.049 15.5804 160 15.774 160 15.9675V40.5481C160 40.6449 160 40.7417 160.049 40.8385C160.098 40.9352 160.146 40.9836 160.195 41.0804C160.243 41.1288 160.341 41.2256 160.438 41.2256C160.584 41.2256 160.681 41.274 160.729 41.274Z" fill="#E9E9E9"/>
<path d="M229.016 15.145H226.246C226.052 15.145 225.857 15.2418 225.711 15.3386C225.566 15.4837 225.517 15.6773 225.517 15.8708V18.387C225.517 18.5805 225.614 18.7741 225.711 18.9192C225.857 19.0644 226.052 19.1128 226.246 19.1128H229.065C229.259 19.1128 229.454 19.016 229.6 18.9192C229.745 18.7741 229.794 18.5805 229.794 18.387V15.8708C229.794 15.7741 229.794 15.6773 229.745 15.5805C229.697 15.4837 229.648 15.387 229.551 15.3386C229.502 15.2902 229.405 15.2418 229.308 15.1934C229.211 15.145 229.114 15.145 229.016 15.145Z" fill="#E9E9E9"/>
<path d="M28.7242 40.5482C26.3426 43.3547 23.5237 45.7257 20.3645 47.5644C20.3645 47.5644 2.91609 38.516 2.91609 15.387C12.345 14.9515 19.0036 10.7418 20.3645 9.38695C21.1907 10.2095 23.8639 11.9999 27.9465 13.4515V10.7902C25.1276 9.82243 22.5516 8.22566 20.4131 6.14502C19.0522 7.49986 13.8031 12.5321 0.194331 13.2095C-1.16655 40.4999 20.4131 50.8063 20.4131 50.8063C25.079 48.2902 29.1616 44.8063 32.3694 40.5966H28.7242V40.5482Z" fill="#E9E9E9"/>
<path d="M33.9247 25.7417H27.6063V31.4514H33.9247V25.7417Z" fill="#E9E9E9"/>
<path d="M27.1689 32.0322H25.322V33.629H27.1689V32.0322Z" fill="#E9E9E9"/>
<path d="M31.3001 34.8386H28.5298V37.3548H31.3001V34.8386Z" fill="#E9E9E9"/>
<path d="M38.1045 35.2256H33.9733V38.8546H38.1045V35.2256Z" fill="#E9E9E9"/>
<path d="M48.6999 23.2256H43.7424V27.6772H48.6999V23.2256Z" fill="#E9E9E9"/>
<path d="M48.2625 14.8064H45.9781V16.8387H48.2625V14.8064Z" fill="#E9E9E9"/>
<path d="M43.7911 16.0645H41.5067V18.0967H43.7911V16.0645Z" fill="#E9E9E9"/>
<path d="M43.791 28.1128H40.8749V30.7741H43.791V28.1128Z" fill="#E9E9E9"/>
<path d="M41.7012 32.8547H38.5906V35.6128H41.7012V32.8547Z" fill="#E9E9E9"/>
<path d="M39.1252 11.4192H35.6744V14.4676H39.1252V11.4192Z" fill="#E9E9E9"/>
<path d="M32.5152 8.70947H29.4532V11.4191H32.5152V8.70947Z" fill="#E9E9E9"/>
<path d="M29.113 14.0322H25.1761V17.5161H29.113V14.0322Z" fill="#E9E9E9"/>
<path d="M25.4678 15.8225H25.1761V19.3064H25.4678V15.8225Z" fill="#E9E9E9"/>
<path d="M31.3488 11.2739H31.0085V14.7578H31.3488V11.2739Z" fill="#E9E9E9"/>
<path d="M38.0559 14.0322H37.7643V21.7258H38.0559V14.0322Z" fill="#E9E9E9"/>
<path d="M46.9016 16.4031H46.61V24.0966H46.9016V16.4031Z" fill="#E9E9E9"/>
<path d="M46.7558 16.5483H43.062V16.887H46.7558V16.5483Z" fill="#E9E9E9"/>
<path d="M43.9369 24.2417H40.1945V24.532H43.9369V24.2417Z" fill="#E9E9E9"/>
<path d="M41.4095 28.3547H37.6671V28.6451H41.4095V28.3547Z" fill="#E9E9E9"/>
<path d="M36.6951 29.4675H32.9526V29.7579H36.6951V29.4675Z" fill="#E9E9E9"/>
<path d="M40.0001 35.2256H36.3063V35.5643H40.0001V35.2256Z" fill="#E9E9E9"/>
<path d="M43.3536 28.7903L43.062 28.5967L44.0827 27.0483L44.3257 27.2419L43.3536 28.7903Z" fill="#E9E9E9"/>
<path d="M26.8773 32.6128L26.6343 32.3709L27.9466 31.0645L28.1896 31.3064L26.8773 32.6128Z" fill="#E9E9E9"/>
<path d="M36.209 22.2578H32.5151V22.5481H36.209V22.2578Z" fill="#E9E9E9"/>
<path d="M30.1337 19.0645H26.3912V19.3548H30.1337V19.0645Z" fill="#E9E9E9"/>
<path d="M32.661 16.1128H32.3208V23.8063H32.661V16.1128Z" fill="#E9E9E9"/>
<path d="M31.3002 29.0806H30.96V36.7741H31.3002V29.0806Z" fill="#E9E9E9"/>
<path d="M41.7012 28.3064H41.361V34.1128H41.7012V28.3064Z" fill="#E9E9E9"/>
<path d="M35.7715 14.4675H29.9878V19.6933H35.7715V14.4675Z" fill="#E9E9E9"/>
<path d="M33.1471 23.4192H31.6404V24.774H33.1471V23.4192Z" fill="#E9E9E9"/>
<path d="M40.3402 20.9031H35.9659V24.7257H40.3402V20.9031Z" fill="#E9E9E9"/>
<path d="M26.7315 19.0645H22.2114V23.1774H26.7315V19.0645Z" fill="#E9E9E9"/>
<path d="M38.4448 27.5806H36.0146V29.8064H38.4448V27.5806Z" fill="#E9E9E9"/>
<g opacity="0.8">
<path opacity="0.8" d="M20.3645 47.5644V9.38696C19.0036 10.7418 12.2965 14.9515 2.91612 15.387C2.86751 38.516 20.3645 47.5644 20.3645 47.5644Z" fill="#E9E9E9"/>
</g>
</g>
</svg>
