<svg width="275" height="56" viewBox="0 0 275 56" fill="none" xmlns="http://www.w3.org/2000/svg">
<path d="M47.4618 37.4553C48.3746 40.4636 50.3633 42.292 54.2847 42.292C57.5091 42.292 59.8181 40.8425 59.8181 38.3148C59.8181 35.7872 57.1328 34.9835 53.1555 34.0172L51.1669 33.4805C46.4928 32.3515 42.9989 30.2561 42.9989 25.3659C42.9989 20.4758 47.5127 17.0911 53.7989 17.0911C60.0852 17.0911 64.1158 19.7764 64.7591 25.3125H59.6019C58.7959 22.7874 56.9141 21.3913 53.6387 21.3913C50.2006 21.3913 48.535 22.7874 48.535 24.8827C48.535 27.1918 50.2006 27.8376 53.6387 28.86L56.647 29.7196C62.2899 31.3317 65.245 33.0509 65.245 37.7783C65.245 43.205 60.5709 46.6964 54.1219 46.6964C47.2432 46.6964 43.2151 43.7415 42.0859 37.4553H47.4592H47.4618Z" fill="#E9E9E9"/>
<path d="M96.6804 32.0286C96.6804 40.6264 91.3603 46.7499 82.3328 46.7499C73.3052 46.7499 68.1479 40.6239 68.1479 32.0286C68.1479 23.4332 73.6282 17.0911 82.4395 17.0911C91.251 17.0911 96.6777 23.2706 96.6777 32.0286H96.6804ZM73.8977 31.9752C73.8977 38.2614 76.9061 42.2387 82.2793 42.2387C87.6527 42.2387 90.7145 38.2614 90.7145 31.9752C90.7145 25.6889 87.5992 21.6049 82.2793 21.6049C76.9594 21.6049 73.8977 25.9559 73.8977 31.9752Z" fill="#E9E9E9"/>
<path d="M101.624 7.63623H107.051V46.0531H101.624V7.63623Z" fill="#E9E9E9"/>
<path d="M121.183 46.0529L110.653 17.8435H116.832L121.239 30.6855L124.354 40.1963H124.461C125.75 36.2726 126.663 34.2331 127.953 30.0957L132.09 17.846H137.947L127.093 46.0554H121.183V46.0529Z" fill="#E9E9E9"/>
<path d="M13.7718 8.39556L0.765678 21.4017C-0.255226 22.4226 -0.255226 24.0778 0.765678 25.0987C1.78658 26.1196 3.4418 26.1196 4.4627 25.0987L17.4689 12.0926C18.4898 11.0717 18.4898 9.41646 17.4689 8.39556C16.448 7.37466 14.7926 7.37466 13.7718 8.39556Z" fill="#E9E9E9"/>
<path d="M24.6036 19.2273L11.5975 32.2335C10.5766 33.2544 10.5766 34.9096 11.5975 35.9305C12.6184 36.9514 14.2736 36.9514 15.2945 35.9305L28.3006 22.9243C29.3215 21.9035 29.3215 20.2482 28.3006 19.2273C27.2797 18.2064 25.6246 18.2064 24.6036 19.2273Z" fill="#E9E9E9"/>
<path d="M15.2825 17.7105L2.27642 30.7165C1.25552 31.7374 1.25552 33.3928 2.27642 34.4137C3.29732 35.4346 4.95254 35.4346 5.97344 34.4137L18.9795 21.4075C20.0004 20.3866 20.0004 18.7314 18.9795 17.7105C17.9586 16.6896 16.3034 16.6896 15.2825 17.7105Z" fill="#E9E9E9"/>
<path d="M26.1144 28.5423L13.1083 41.5483C12.0874 42.5692 12.0874 44.2245 13.1083 45.2454C14.1292 46.2663 15.7844 46.2663 16.8053 45.2454L29.8114 32.2393C30.8323 31.2184 30.8323 29.5632 29.8114 28.5423C28.7905 27.5214 27.1353 27.5214 26.1144 28.5423Z" fill="#E9E9E9"/>
</svg>
