<svg width="275" height="56" viewBox="0 0 275 56" fill="none" xmlns="http://www.w3.org/2000/svg">
<g clip-path="url(#clip0_20_105)">
<mask id="mask0_20_105" style="mask-type:luminance" maskUnits="userSpaceOnUse" x="-8" y="-5" width="65" height="65">
<path d="M56.9493 -5H-8V59.9335H56.9493V-5Z" fill="white"/>
</mask>
<g mask="url(#mask0_20_105)">
<path d="M42.4097 19.2869C42.5263 9.65326 42.5846 4.83647 39.5136 2.14034C36.4426 -0.55573 31.6726 0.124592 22.1325 1.48522L9.62241 3.26949C7.20903 3.61368 5.46564 5.75461 5.61789 8.18707C5.79552 11.0239 8.44427 13.0463 11.2285 12.471L19.2456 10.8144C22.1089 10.2227 23.5406 9.92689 24.1613 10.299C24.7503 10.6521 25.096 11.3016 25.0598 11.9872C25.0217 12.7098 23.9765 13.7316 21.8859 15.7752L14.5735 22.9233C12.8685 24.59 12.016 25.4233 11.5972 26.157C10.0112 28.9359 10.8698 32.4693 13.5542 34.211C14.263 34.6708 15.4029 35.0203 17.6827 35.7192C18.3959 35.9378 18.7525 36.0471 18.9719 36.1902C19.8035 36.7326 20.0604 37.8334 19.555 38.6878C19.4216 38.9132 19.1502 39.169 18.6075 39.6808L10.7016 47.1346C8.59226 49.1233 8.58927 52.4757 10.695 54.4685C12.855 56.5119 16.3054 56.2544 18.1377 53.9126L26.759 42.8935C29.3909 39.5296 30.7069 37.8476 30.628 36.1399C30.5974 35.4772 30.4241 34.8289 30.12 34.2392C29.3364 32.7197 27.3567 31.9181 23.3973 30.3149C21.9936 29.7465 21.2917 29.4623 21.045 28.9329C20.9497 28.7284 20.9023 28.505 20.9064 28.2795C20.917 27.6955 21.4431 27.151 22.4953 26.0619L29.0776 19.2488C30.7549 17.5128 31.5935 16.6448 32.2424 16.5589C32.9697 16.4625 33.6864 16.7984 34.0774 17.419C34.4264 17.9727 34.2953 19.1723 34.0332 21.5717L33.141 29.7405C32.8322 32.5672 35.1475 34.9893 37.9861 34.8088C40.3773 34.6568 42.2475 32.6884 42.2765 30.2931L42.4097 19.2869Z" fill="url(#paint0_linear_20_105)"/>
</g>
<path d="M66.0183 13C61.2498 13 57.2068 16.2097 57.2068 20.2462C57.2068 24.9635 60.6281 26.9575 65.8624 30.0699C69.2831 32.1125 70.8899 34.3982 70.8899 37.3162C70.8899 41.2067 68.2986 43.8328 65.0854 43.8328C61.5604 43.8328 59.7467 40.8663 58.6584 36.6353C58.2957 35.2249 58.5025 34.9818 57.7255 34.9818C57.259 34.9818 57 34.9818 57 38.4833C57 43.4438 57 43.6383 59.4877 44.4164C60.7834 44.8055 62.2865 45 63.945 45C69.9054 45 74 41.4012 74 35.9058C74 30.7508 70.5272 28.8055 65.4481 25.9362C62.1828 24.0882 60.3169 21.997 60.3169 18.8845C60.3169 16.307 62.5455 14.1672 65.1885 14.1672C67.4172 14.1672 68.765 15.5289 69.8533 17.8146C71.0452 20.2949 70.6825 21.7052 71.4086 21.7052C71.8229 21.7052 71.9266 21.6565 71.9782 21.2675C72.0304 20.9757 72.0304 19.3222 72.0304 16.0639C72.0304 14.459 71.8229 14.3617 70.7347 13.924C69.698 13.4863 67.6768 13 66.0183 13Z" fill="#E9E9E9"/>
<path d="M79.7597 16C79.2792 16 79.1346 17.0633 77.6924 19.3834C76.01 22.09 75 22.7667 75 23.2983C75 23.7817 75.1924 23.83 76.2503 23.83C76.7792 23.83 77.3081 23.975 77.3081 24.6517V40.795C77.3081 43.5017 78.2692 45 81.01 45C84.327 45 85 41.1333 85 40.5533C85 40.2633 84.8081 40.1666 84.5673 40.1666C84.1346 40.1666 83.8465 41.0367 83.4138 41.7616C82.9811 42.4383 82.4044 42.97 81.5868 42.97C80.3371 42.97 80.1924 42.0517 80.1924 41.085V25.0383C80.1924 24.2167 80.4327 24.2167 81.01 24.2167H82.8849C84.1346 24.2167 84.2792 23.83 84.2792 23.2983C84.2792 22.67 83.9427 22.5733 82.8371 22.5733H81.1062C80.4327 22.5733 80.1924 22.1867 80.1924 21.655V17.0633C80.1924 16.2417 80.0962 16 79.7597 16Z" fill="#E9E9E9"/>
<path d="M95.9551 21C90.1728 21 86 25.6891 86 28.563C86 29.3698 86.2513 29.6723 87.0557 29.6723C88.1114 29.6723 89.469 29.3193 90.2734 26.395C91.0279 23.7227 92.5361 22.2101 94.6981 22.2101C96.307 22.2101 96.8601 23.1681 96.8601 25.4874V28.311C96.8601 29.9748 96.8101 29.9748 92.1842 33.3026C87.6589 36.5798 86.2007 37.9916 86.2007 40.563C86.2007 43.2857 87.6589 45 89.8715 45C92.2848 45 93.8437 43.9916 95.6532 42.1765C96.1563 41.6723 96.5082 41.3193 96.7595 41.3193C97.0614 41.3193 97.1114 41.6723 97.2627 42.2773C97.7152 44.042 98.469 44.7983 100.028 44.7983C102.642 44.7983 104 42.0756 104 40.7647C104 40.1596 103.849 40.0084 103.597 40.0084C103.246 40.0084 103.095 40.563 102.894 41.1176C102.692 41.7227 102.24 42.2773 101.285 42.2773C100.33 42.2773 99.8772 41.5714 99.8772 40.3613V24.3782C99.8772 22.0588 99.1728 21 95.9551 21ZM89.5196 39.9579C89.5196 37.8404 90.6253 36.1765 92.6367 34.4118C94.6481 32.6471 95.9551 31.7899 96.4582 31.7899C96.7595 31.7899 96.8601 31.9916 96.8601 32.2941V38.2437C96.8601 39.4538 96.3576 40.1596 95.6532 40.8655C94.5475 41.9748 93.3405 42.8823 92.0335 42.8823C90.6253 42.8823 89.5196 41.9244 89.5196 39.9579Z" fill="#E9E9E9"/>
<path d="M108.128 9C107.738 9 106.907 9.75847 103.83 10.8708C103.049 11.1741 103 11.2753 103 11.5281C103 11.882 103 11.9326 104.27 12.1854C105.296 12.3877 105.442 12.7922 105.442 13.3484V42.4719C105.442 43.5337 104.856 43.6349 104.123 43.7865C103.635 43.8877 103.098 43.9383 103.098 44.3933C103.098 44.7978 103.293 45 103.684 45C104.026 45 105.833 44.7978 107.151 44.7978C108.128 44.7978 110.375 45 110.815 45C111.059 45 111.303 44.7978 111.303 44.545C111.303 43.9888 110.668 43.8877 109.887 43.7865C108.861 43.6854 108.373 43.2304 108.373 41.6124V35.4944C108.373 34.3315 110.18 32.7641 110.375 32.7641C110.717 32.7641 113.697 38.3259 114.966 40.6517C115.699 42.0169 116.09 42.8764 116.09 43.1798C116.09 43.6349 115.601 43.736 115.113 43.8371C114.527 43.9383 114.087 44.0393 114.087 44.4944C114.087 44.8483 114.283 45 114.722 45C115.21 45 116.578 44.7978 117.995 44.7978C119.606 44.7978 120.779 45 121.219 45C121.756 45 122 44.8989 122 44.4439C122 44.0899 121.902 43.9888 120.779 43.7865C120.144 43.6854 119.704 43.0787 118.385 40.854C116.334 37.3652 114.869 34.2809 113.013 31.2472C112.915 31.0955 112.476 30.3876 112.476 30.1348C112.476 29.8314 112.768 29.4776 113.306 28.8708L114.82 27.1517C115.21 26.6966 116.237 25.6854 117.262 24.7247C118.239 23.8146 119.216 23.1067 119.998 22.9045C120.583 22.7528 120.877 22.5506 120.877 22.2472C120.877 21.8427 120.681 21.7416 120.046 21.7416C119.216 21.7416 117.897 21.9438 116.627 21.9438C115.455 21.9438 114.136 21.7416 113.257 21.7416C112.476 21.7416 112.329 21.8933 112.329 22.2977C112.329 22.5506 112.476 22.8034 112.866 22.9045C113.795 23.1067 114.966 23.0562 114.966 24.1685C114.966 24.6742 114.966 25.0281 111.938 28.7191L109.643 31.5C109.447 31.7529 109.007 32.2585 108.666 32.2585C108.422 32.2585 108.373 31.9045 108.373 31.045V9.60674C108.373 9.2528 108.324 9 108.128 9Z" fill="#E9E9E9"/>
<path d="M129.127 21C124.349 21 120 25.2353 120 33.5042C120 40.3109 123.383 45 129.342 45C133.423 45 136 41.6723 136 38.9496C136 38.4454 135.893 38.2941 135.624 38.2941C135.356 38.2941 135.194 38.7479 134.926 39.5042C134.12 41.7731 132.51 42.8823 129.879 42.8823C126.067 42.8823 123.543 38.8992 123.543 33.1009C123.543 32.3446 123.973 32.0924 124.671 32.0924H134.765C135.893 32.0924 135.893 31.6891 135.893 29.0672C135.893 23.874 132.993 21 129.127 21ZM123.651 29.5714C123.651 25.4874 125.906 22.2101 128.752 22.2101C131.275 22.2101 132.886 24.3277 132.886 27.7059C132.886 28.9664 132.725 29.5714 132.188 29.9748C131.329 30.6302 126.98 30.6807 126.067 30.6807C123.651 30.6807 123.651 30.4286 123.651 29.5714Z" fill="#E9E9E9"/>
<path d="M137.774 14C137.339 14 137 14.1956 137 14.5379C137 15.0757 137.436 15.0757 137.871 15.1735C139.419 15.4669 139.71 15.4669 139.71 17.7161V40.6483C139.71 43.2887 139.468 43.2887 137.92 43.631C137.435 43.7287 137 43.8265 137 44.3644C137 44.8533 137.291 45 137.92 45C138.694 45 139.71 44.8045 141.403 44.8045C142.758 44.8045 143.677 45 144.403 45C145.371 45 145.661 44.8533 145.661 44.4133C145.661 43.9732 145.226 43.8265 144.597 43.7776C142.903 43.6798 142.903 41.8707 142.903 40.4527V30.429C142.903 29.7934 144.113 28.2776 144.548 28.2776C144.645 28.2776 144.887 28.3265 145.516 29.6467C146.242 31.1625 147.935 34.4385 151.081 40.7461C151.516 41.5773 151.71 42.1151 151.71 42.5552C151.71 43.2398 151.226 43.4842 150.597 43.582C149.822 43.7287 148.903 43.6798 148.903 44.3155C148.903 44.8045 149.194 45 150.113 45C150.79 45 152.145 44.8045 153.742 44.8045C155.145 44.8045 156.113 45 156.984 45C157.806 45 158 44.7067 158 44.3644C158 44.0221 157.758 43.9243 157.371 43.8265C156.984 43.7287 156.5 43.582 156.258 43.4354C155.919 43.2398 155.387 42.653 154.129 40.1104L147.161 26.2729C146.968 25.9306 146.823 25.5883 146.823 25.4416C146.823 24.9038 148.081 23.1925 150.597 20.112C153.306 16.7871 155.048 15.2224 156.258 15.1246C157.371 15.0268 157.371 14.8312 157.371 14.5379C157.371 14.1467 157.081 14 156.355 14C155.774 14 154.468 14.1956 153.161 14.1956C152.145 14.1956 150.065 14 149.774 14C149.048 14 148.806 14.2445 148.806 14.5379C148.806 15.0757 149.387 15.0757 150.016 15.2224C150.693 15.3691 151.371 15.5647 151.371 16.2981C151.371 17.4716 146.581 23.4369 145.178 25.0994C143.919 26.6151 143.194 27.6909 143.049 27.6909C142.952 27.6909 142.903 27.4464 142.903 26.6151V16.8849C142.903 15.418 144.016 15.3691 144.645 15.2224C145.323 15.0757 145.661 15.1735 145.661 14.5867C145.661 14.1956 145.468 14 144.839 14C143.968 14 142.71 14.1956 141.5 14.1956C140 14.1956 138.355 14 137.774 14Z" fill="#E9E9E9"/>
<path d="M162.449 14C161.489 14 160.578 14.7335 160.578 16.4448C160.578 18.0095 161.337 18.8896 162.399 18.8896C163.46 18.8896 164.32 18.2051 164.32 16.4448C164.32 14.7335 163.46 14 162.449 14ZM163.562 22.1167C163.259 22.1167 162.196 23.2413 159.972 24.0237C158.758 24.4638 158.354 24.6593 158.354 24.9527C158.354 25.4906 159.011 25.4416 159.668 25.6372C160.326 25.8328 160.932 26.0773 160.932 27.153V41.8218C160.932 43.2398 160.528 43.582 159.163 43.7776C158.455 43.8754 158 44.0221 158 44.4622C158 44.8045 158.202 45 158.657 45C158.809 45 159.82 44.8045 162.399 44.8045C164.775 44.8045 165.736 45 166.242 45C166.849 45 167 44.8533 167 44.5111C167 43.9732 166.242 43.9732 165.483 43.7776C164.624 43.5332 163.966 43.3376 163.966 41.724V22.6057C163.966 22.3612 163.865 22.1167 163.562 22.1167Z" fill="#E9E9E9"/>
<path d="M172.76 16C172.279 16 172.135 17.0633 170.692 19.3834C169.009 22.09 168 22.7667 168 23.2983C168 23.7817 168.192 23.83 169.25 23.83C169.779 23.83 170.308 23.975 170.308 24.6517V40.795C170.308 43.5017 171.269 45 174.009 45C177.327 45 178 41.1333 178 40.5533C178 40.2633 177.808 40.1666 177.567 40.1666C177.135 40.1666 176.846 41.0367 176.413 41.7616C175.981 42.4383 175.404 42.97 174.587 42.97C173.336 42.97 173.192 42.0517 173.192 41.085V25.0383C173.192 24.2167 173.433 24.2167 174.009 24.2167H175.884C177.135 24.2167 177.279 23.83 177.279 23.2983C177.279 22.67 176.942 22.5733 175.836 22.5733H174.106C173.433 22.5733 173.192 22.1867 173.192 21.655V17.0633C173.192 16.2417 173.096 16 172.76 16Z" fill="#E9E9E9"/>
</g>
<defs>
<linearGradient id="paint0_linear_20_105" x1="5.02658" y1="0.697654" x2="5.02658" y2="59.3691" gradientUnits="userSpaceOnUse">
<stop offset="0.0520833" stop-color="#FFC21B"/>
<stop offset="0.234375" stop-color="#B1A5B9"/>
<stop offset="0.385417" stop-color="#F46FC8"/>
<stop offset="0.796875" stop-color="#FF5F25"/>
<stop offset="1" stop-color="#6D05F3"/>
</linearGradient>
<clipPath id="clip0_20_105">
<rect width="275" height="56" fill="white"/>
</clipPath>
</defs>
</svg>
