<svg width="275" height="56" viewBox="0 0 275 56" fill="none" xmlns="http://www.w3.org/2000/svg">
<path d="M0 43.6007L1.86364 35.6803H20.8328L21.8977 34.815L22.3636 32.9514L21.7646 32.2192H8.6526L3.5276 25.5634L5.25812 18.0423L11.7143 12.7842H35.1429L33.2792 20.7046H15.2419L14.1104 21.5699L13.711 23.4335L14.3101 24.1657H27.4221L32.5471 30.8215L30.8166 38.3426L24.2938 43.6007H0Z" fill="#56FF97"/>
<path d="M41.6656 43.6007L46.9237 20.7046H35.6753L37.5389 12.7842H69.6866L67.8896 20.7046H56.6412L51.3165 43.6007H41.6656Z" fill="#56FF97"/>
<path d="M65.2273 43.6007L72.349 12.7842H100.57L98.7062 20.7046H80.2029L79.3377 24.4319H92.9822L91.3182 31.4871H77.6737L76.7419 35.6803H95.7111L93.8474 43.6007H65.2273Z" fill="#56FF97"/>
<path d="M127.127 12.7842H103.365L96.2435 43.6007H105.961L107.692 35.88H122.734L129.456 30.4222L132.052 19.1738L127.127 12.7842ZM120.67 26.6283L119.073 27.9595H109.622L111.286 20.7046H120.87L121.802 21.9027L120.67 26.6283Z" fill="#56FF97"/>
<path d="M139.972 43.6007L147.094 12.7842H160.805L165.531 33.0845H166.862L171.588 12.7842H180.64L173.451 43.6007H159.74L155.015 23.3004H153.617L148.958 43.6007H139.972Z" fill="#56FF97"/>
<path fill-rule="evenodd" clip-rule="evenodd" d="M140.971 3L132.984 17.8425L138.508 17.776L138.042 27.2273L145.164 12.7841H139.839L140.971 3Z" fill="#56FF97"/>
<path fill-rule="evenodd" clip-rule="evenodd" d="M191.156 24.7645C191.156 24.2986 190.756 23.9658 190.357 23.9658H183.967C183.501 23.9658 183.169 24.3652 183.169 24.7645C183.169 25.2304 183.568 25.5632 183.967 25.5632H190.357C190.823 25.5632 191.156 25.1639 191.156 24.7645Z" fill="#56FF97"/>
<path fill-rule="evenodd" clip-rule="evenodd" d="M196.547 31.7533C196.547 31.2874 196.148 30.9546 195.748 30.9546H189.359C188.893 30.9546 188.56 31.3539 188.56 31.7533C188.56 32.2192 188.959 32.552 189.359 32.552H195.748C196.148 32.552 196.547 32.2192 196.547 31.7533Z" fill="#56FF97"/>
<path fill-rule="evenodd" clip-rule="evenodd" d="M194.683 28.2923C194.683 28.7582 194.284 29.091 193.885 29.091H186.829C186.364 29.091 186.031 28.6917 186.031 28.2923C186.031 27.8264 186.43 27.4936 186.829 27.4936H193.885C194.351 27.4271 194.683 27.8264 194.683 28.2923Z" fill="#56FF97"/>
<path fill-rule="evenodd" clip-rule="evenodd" d="M184.367 27.4268C183.901 27.4268 183.568 27.8261 183.568 28.2255C183.568 28.6914 183.967 29.0242 184.367 29.0242H184.7C185.166 29.0242 185.498 28.6248 185.498 28.2255C185.498 27.7596 185.099 27.4268 184.7 27.4268H184.367Z" fill="#56FF97"/>
<path fill-rule="evenodd" clip-rule="evenodd" d="M199.276 35.2806C199.276 34.8147 198.877 34.4819 198.477 34.4819H184.766C184.3 34.4819 183.967 34.8813 183.967 35.2806C183.967 35.7465 184.367 36.0793 184.766 36.0793H198.477C198.943 36.0793 199.276 35.7465 199.276 35.2806Z" fill="#56FF97"/>
<path fill-rule="evenodd" clip-rule="evenodd" d="M224.568 34.3489C222.039 33.3506 220.841 32.7515 219.776 33.6834C220.308 32.6184 220.109 32.5519 219.643 31.8197C218.777 30.2889 216.448 27.7597 215.649 22.9009C215.649 22.9009 216.914 19.4398 217.047 17.2434C217.047 17.2434 217.513 15.8457 215.383 16.5113C215.383 16.5113 212.654 18.1752 211.19 18.5746C208.527 18.2418 204.601 16.3116 203.136 13.383C203.136 13.383 204.334 10.8538 203.269 10.2548C202.537 9.85543 200.341 12.1184 200.341 12.1184L193.219 20.3717L192.687 21.37C192.487 21.7694 192.487 22.3019 192.82 22.7678C194.683 25.297 202.071 35.0811 206.331 40.3392C194.284 40.4058 187.761 42.2694 192.42 42.935C196.214 43.4674 204.734 43.3343 211.19 43.2678C211.989 43.534 212.787 43.7337 213.652 43.8002L224.568 43.8668C225.966 43.8002 227.23 43.6671 228.295 43.6006C228.961 43.534 229.56 43.0681 229.76 42.4691C230.958 39.4074 229.094 36.146 224.568 34.3489ZM205.2 33.2174L205.466 28.3587H202.604L206.664 20.7045L206.065 25.6963H208.794L205.2 33.2174Z" fill="#56FF97"/>
</svg>
