<svg width="244" height="56" viewBox="0 0 244 56" fill="none" xmlns="http://www.w3.org/2000/svg">
<g clip-path="url(#clip0_579_104)">
<path d="M215.705 54.9584H226.974V32.3501L243.939 1.59302H230.955L215.705 30.0832V54.9584Z" fill="white"/>
<path d="M218.889 25.0591L206.151 1.59302H193.35L206.151 25.0591H218.889Z" fill="white"/>
<path d="M175.344 38.3545L183.98 54.9585H196.229L185.45 35.3523C190.411 31.9213 193.35 26.407 193.35 20.0963C193.35 9.80309 186.92 1.6543 173.078 1.6543H150.908V55.0197H162.606V38.4771L175.344 38.3545ZM162.606 11.4574H173.14C178.835 11.4574 182.204 14.4595 182.204 19.9125C182.204 25.3655 179.203 28.0613 173.507 28.0613H162.606V11.4574Z" fill="white"/>
<path d="M61.7961 54.9584H73.6164V12.1313H90.6425V1.59302H44.77V12.1313H61.7961V54.9584Z" fill="white"/>
<path d="M21.3745 18.5033V26.6521C15.3725 26.6521 11.0241 24.0788 11.0241 18.6871C11.0241 13.2954 14.8213 10.1094 21.6807 10.1094C28.5402 10.1094 30.745 12.4376 31.5412 15.5011H41.9528C41.2179 6.92341 33.1335 0 21.4357 0C9.73795 0 0.36747 7.65864 0.36747 18.9322C0.36747 30.2057 9.49297 36.8228 21.4357 36.8228V29.1641C27.744 29.1641 32.0924 31.9825 32.0924 37.4967C32.0924 43.0109 27.6215 46.0744 21.497 46.0744C15.3725 46.0744 12.0653 43.6236 10.9016 40.2538H0C1.53112 49.1379 9.67671 56.0613 21.4357 56.0613C33.1948 56.0613 42.6877 49.0153 42.6877 37.2516C42.6877 26.2232 34.3584 18.5033 21.3745 18.5033Z" fill="white"/>
<path d="M118.142 45.2779C108.71 45.2779 101.85 37.4355 101.85 28.0613C101.85 18.6871 107.914 11.0897 118.142 11.0897C128.369 11.0897 134.923 18.3195 134.923 28.0613H145.518C145.518 12.8665 133.698 0.0612759 118.142 0.0612759C101.422 6.72023e-06 90.6426 11.6411 90.6426 28C90.6426 44.3589 102.585 56 118.142 56V45.2779Z" fill="white"/>
<path d="M117.835 49.628C129.717 49.628 138.659 40.2538 138.659 27.7549H128.982C128.982 34.4945 124.082 39.396 117.897 39.396V49.628H117.835Z" fill="white"/>
</g>
<defs>
<clipPath id="clip0_579_104">
<rect width="244" height="56" fill="white"/>
</clipPath>
</defs>
</svg>
