<svg width="275" height="56" viewBox="0 0 275 56" fill="none" xmlns="http://www.w3.org/2000/svg">
<path fill-rule="evenodd" clip-rule="evenodd" d="M3.90128 10.4052C1.6777 11.2029 -0.0037859 13.8031 0.00245874 16.4342C0.00750249 18.6053 1.97649 21.2593 4.04899 21.8886C5.3301 22.2775 7.29236 22.2425 8.30783 21.8126C8.77354 21.6154 9.71576 20.9521 10.4017 20.3387C12.057 18.8582 14.6327 17.6158 16.6454 17.3268C23.3937 16.3583 29.2793 21.5159 29.2968 28.4137C29.305 31.6454 28.325 34.1407 26.0597 36.6547C22.0343 41.1222 26.0928 48.2445 31.8297 46.7805C34.2457 46.164 35.864 44.3945 36.329 41.8615C36.6955 39.864 36.189 38.2917 34.5778 36.4257C30.3913 31.5772 30.3903 25.564 34.5752 20.5894C35.7895 19.1457 36.5072 17.4729 36.5072 16.0856C36.5072 12.6378 33.1776 9.66882 29.7695 10.078C28.2953 10.255 27.4294 10.7131 25.6019 12.2829C21.1223 16.1312 15.1693 16.008 10.4694 11.9694C8.2706 10.0797 6.18994 9.58435 3.90128 10.4052ZM52.359 10.5067C49.5386 11.8005 48.1623 14.5979 48.8567 17.625C49.6315 21.003 52.9993 23.039 56.2355 22.0855C57.7844 21.6291 59.3734 20.3287 60.1035 18.9198C60.7974 17.5812 60.845 14.9107 60.1982 13.5923C58.734 10.6072 55.1849 9.21022 52.359 10.5067Z" fill="#90DC9E"/>
<path fill-rule="evenodd" clip-rule="evenodd" d="M82.3057 15.6914C81.6197 16.0855 81.4252 16.4189 81.4206 17.2091C81.4125 18.6162 81.8585 18.7281 87.4683 18.7281H92.5907V29.6418V40.5558L93.2599 41.0888C94.1175 41.7723 94.7262 41.7638 95.3743 41.059C95.8784 40.5108 95.8921 40.2098 95.8921 29.612V18.7281H101.059C105.742 18.7281 106.265 18.6841 106.646 18.2576C107.082 17.7702 107.197 16.7515 106.872 16.2587C106.331 15.4388 105.529 15.3841 94.1947 15.3918C86.1909 15.3974 82.6627 15.4862 82.3057 15.6914ZM114.788 15.6253C113.699 16.0899 113.65 16.7006 113.725 28.9342C113.792 39.9297 113.821 40.5679 114.28 41.0808C114.841 41.7085 115.648 41.7772 116.35 41.257C116.821 40.9082 116.849 40.4043 116.97 29.8744L117.097 18.8567L124.716 18.7801C134.141 18.6854 134.627 18.7891 135.818 21.1528C136.751 23.0041 136.001 25.3617 134.155 26.3847C133.473 26.7629 132.477 26.8436 127.636 26.9136C121.4 27.0039 121.033 27.0916 121.033 28.4948C121.033 29.3936 121.418 29.7337 127.763 34.4424C130.696 36.6194 134.058 39.1251 135.233 40.0113C136.409 40.8972 137.618 41.6221 137.919 41.6221C138.619 41.6221 139.572 40.6042 139.572 39.8569C139.572 39.0973 139.23 38.8012 133.149 34.2909L127.947 30.4323L130.934 30.2852C133.497 30.1591 134.123 30.0385 135.341 29.4348C139.737 27.2565 140.917 21.7391 137.763 18.1105C137.186 17.4463 136.129 16.5902 135.413 16.208V16.208C134.559 15.7513 133.606 15.5096 132.637 15.5037L124.716 15.4558C119.548 15.4247 115.081 15.5008 114.788 15.6253ZM148.818 15.6367C147.751 16.0691 147.636 16.9838 147.753 24.1861C147.852 30.3577 147.911 31.0898 148.429 32.5898C150.21 37.743 154.544 41.1248 159.888 41.5313C166.033 41.9984 171.784 37.6966 173.211 31.566C173.5 30.322 173.595 28.2906 173.598 23.2825L173.602 16.6468L172.978 16.0156C172.22 15.2472 171.836 15.2266 170.981 15.9083L170.323 16.4323L170.248 23.5611C170.176 30.394 170.148 30.7531 169.565 32.2199C168.879 33.9441 167.173 35.9441 165.584 36.8879C160.904 39.6658 154.821 37.9791 152.342 33.2159C151.172 30.9666 151 29.6269 151 22.7518C151 18.1491 150.917 16.404 150.682 16.1023C150.266 15.5651 149.479 15.3689 148.818 15.6367ZM186.045 15.6238C182.86 16.2707 180.204 19.4942 180.204 22.7145C180.204 25.567 182.003 28.3834 184.578 29.5611C185.869 30.1517 186.171 30.1769 192.775 30.2448C200.485 30.3243 201.111 30.4465 202.097 32.0629C203.303 34.0388 202.575 36.6464 200.524 37.6992C199.418 38.2675 199.23 38.278 190.319 38.278C181.306 38.278 181.236 38.2821 180.722 38.8411C180.06 39.5606 180.064 40.3433 180.733 41.0706L181.261 41.6447L190.954 41.5691L199.205 41.5047C200.152 41.4973 201.083 41.2585 201.917 40.8089V40.8089C204.489 39.423 205.92 37.0965 205.916 34.3083C205.911 31.3144 204.613 29.1348 202.029 27.7851L200.449 26.9596H193.682C187.165 26.9596 186.873 26.9383 185.796 26.3809C184.165 25.5366 183.633 24.6661 183.633 22.8439C183.633 21.2174 184.048 20.3955 185.381 19.3871C186.052 18.8794 186.487 18.8513 195.623 18.7281L204.329 18.6108C204.855 18.6037 205.348 18.3504 205.66 17.9266V17.9266C206.121 17.3012 206.128 17.1991 205.761 16.4801C205.544 16.0547 205.104 15.6356 204.784 15.5489C203.986 15.3323 187.149 15.3995 186.045 15.6238ZM213.726 15.5626C212.689 15.9379 212.363 17.5585 213.175 18.3024C213.574 18.6689 214.351 18.7281 218.762 18.7281H223.884V29.612C223.884 40.2098 223.898 40.5108 224.402 41.059C225.072 41.7877 225.939 41.7751 226.634 41.0268C227.182 40.4349 227.186 40.3673 227.186 29.5798V18.7281H232.352C237.035 18.7281 237.558 18.6841 237.939 18.2576C238.375 17.7702 238.49 16.7515 238.165 16.2587C237.624 15.4376 236.83 15.3841 225.488 15.4044C219.228 15.4154 213.936 15.4867 213.726 15.5626ZM255.406 15.8342C254.76 16.3798 243.439 39.2761 243.439 40.0362C243.439 40.3315 243.689 40.8092 243.994 41.0976C244.522 41.5953 244.862 41.6221 250.676 41.6221C256.49 41.6221 256.831 41.5953 257.358 41.0976C258.054 40.4408 258.069 39.5722 257.396 38.8411C256.901 38.3022 256.682 38.278 252.327 38.278H247.776L248.609 36.5417C249.068 35.5865 250.992 31.6807 252.885 27.8615L256.327 20.9177L261.315 31.0201C266.706 41.939 266.852 42.1558 268.286 41.3445C269.66 40.5671 269.557 40.2814 263.347 27.6838C257.019 14.8462 256.858 14.6067 255.406 15.8342Z" fill="#3CBFA0"/>
</svg>
