<svg width="275" height="56" viewBox="0 0 275 56" fill="none" xmlns="http://www.w3.org/2000/svg">
<path d="M37.6627 7.66277L27.6177 24.7721C26.2075 27.1731 22.7932 27.1983 21.3458 24.8173L10.8679 7.56719C13.5474 5.76198 16.6029 4.4873 19.8886 3.88892L22.0782 14.592C22.6126 17.2143 26.3114 17.1766 26.7963 14.5467L28.7534 3.93919C31.9994 4.56774 35.0179 5.85504 37.6627 7.66277Z" fill="#18D16F"/>
<path d="M22.7075 33.8184L13.8328 50.5556C10.9802 49.1803 8.43428 47.2519 6.32633 44.9111L13.625 38.2862C15.5919 36.5036 13.7116 33.2703 11.2276 34.1578L1.75662 37.5445C0.623474 34.7009 1.30681e-09 31.5933 1.30681e-09 28.3349C1.30681e-09 28.2343 -1.26833e-05 28.1337 0.00246144 28.0382L19.5308 28.3223C22.282 28.36 24.0089 31.357 22.705 33.8184H22.7075Z" fill="#18D16F"/>
<path d="M35.5082 38.181L42.5619 44.3308C40.5628 46.7042 38.1208 48.6879 35.3671 50.1436L26.3811 33.7911C25.0401 31.3523 26.7275 28.3302 29.4787 28.2498L48.3761 27.6841C48.3786 27.9003 48.3835 28.1166 48.3835 28.3378C48.3835 31.3951 47.8318 34.3217 46.8298 37.0219L37.8289 34.0074C35.3276 33.1651 33.5091 36.4411 35.5082 38.181Z" fill="#18D16F"/>
<path d="M57.2128 29.391V15.1062H63.2362V29.1723C63.2362 34.0182 65.3942 36.0221 69.0378 36.0221C72.7196 36.0221 74.8394 34.0182 74.8394 29.1723V15.1062H80.7889V29.391C80.7889 36.9057 76.4013 41.0501 68.9997 41.0501C61.5981 41.0501 57.2128 36.8966 57.2128 29.391Z" fill="#E9E9E9"/>
<path d="M101.288 40.613L95.0025 31.7593L88.8289 40.613H81.9047L91.5404 27.6331L82.3909 15.0972H89.2323L95.2199 23.3702L101.095 15.0972H107.594L98.5207 27.4145L108.235 40.613H101.288Z" fill="#E9E9E9"/>
<path d="M109.13 15.1061H115.154V35.8034H128.207V40.6128H109.13V15.1061Z" fill="#E9E9E9"/>
<path d="M130.105 15.1061H136.128V40.6105H130.105V15.1061Z" fill="#E9E9E9"/>
<path d="M164.688 15.1061V40.6105H159.742L146.763 25.1257V40.6105H140.814V15.1061H145.797L158.738 30.5909V15.1061H164.688Z" fill="#E9E9E9"/>
<path d="M178.858 30.5932L175.362 34.1638V40.6128H169.375V15.1083H175.362V27.0248L186.889 15.1061H193.583L182.8 26.4761L194.215 40.6128H187.187L178.858 30.5932Z" fill="#E9E9E9"/>
</svg>
