<svg width="203" height="56" viewBox="0 0 203 56" fill="none" xmlns="http://www.w3.org/2000/svg">
<g clip-path="url(#clip0_548_125)">
<mask id="mask0_548_125" style="mask-type:luminance" maskUnits="userSpaceOnUse" x="0" y="0" width="203" height="56">
<path d="M202.563 0H0V56H202.563V0Z" fill="white"/>
</mask>
<g mask="url(#mask0_548_125)">
<path d="M50.4671 1.8417L41.251 54.6896C41.1871 55.0558 40.9937 55.3882 40.7048 55.6277C40.4159 55.8674 40.05 55.9989 39.672 55.9991H10.8166C10.4386 55.9989 10.0728 55.8674 9.78387 55.6277C9.49494 55.3882 9.30143 55.0558 9.23754 54.6896L0.0230536 1.8417C-0.0163854 1.61556 -0.00511556 1.38366 0.0560467 1.16224C0.117209 0.940823 0.2268 0.735197 0.377171 0.559741C0.527543 0.384284 0.715053 0.243218 0.926625 0.146402C1.1382 0.0495874 1.36874 -0.000598677 1.60211 -0.000740015H10.2876C10.6649 -0.00070405 11.0301 0.13018 11.3189 0.368886C11.6078 0.607593 11.8017 0.938787 11.8666 1.30423L18.5066 38.6576C19.1478 42.1249 21.8522 44.4354 25.2876 44.4354C28.6332 44.4354 31.344 42.1249 32.0686 38.6576L38.6188 1.30423C38.683 0.937941 38.8769 0.605794 39.1662 0.366424C39.4554 0.127054 39.8214 -0.0041019 40.1995 -0.00389527H48.8817C49.116 -0.00475427 49.3474 0.0448018 49.5601 0.141401C49.7727 0.237999 49.9613 0.379267 50.1124 0.555201C50.2636 0.731134 50.3736 0.937516 50.4349 1.15978C50.4962 1.38204 50.5072 1.61481 50.4671 1.8417Z" fill="white"/>
<path d="M95.498 55.9999H70.5397C60.9949 55.9999 53.2105 48.3938 53.2521 39.0113C53.297 28.9338 60.1566 22.2213 70.4291 22.2213H81.2098C81.9335 22.2236 82.6504 22.0848 83.3192 21.813C83.9879 21.5411 84.5953 21.1416 85.106 20.6376C85.6167 20.1335 86.0207 19.535 86.2946 18.8765C86.5686 18.2179 86.707 17.5125 86.7019 16.8011C86.6635 13.6488 84.5041 11.5559 81.2787 11.5559H62.0866C61.6615 11.5559 61.2537 11.3898 60.9531 11.0942C60.6524 10.7986 60.4836 10.3978 60.4836 9.97977V1.57609C60.4836 1.15808 60.6524 0.757165 60.9531 0.461591C61.2537 0.166017 61.6615 0 62.0866 0H95.498C95.9232 0 96.3309 0.166017 96.6315 0.461591C96.9322 0.757165 97.1011 1.15808 97.1011 1.57609V54.4238C97.1011 54.6308 97.0597 54.8358 96.9791 55.027C96.8985 55.2183 96.7804 55.3919 96.6315 55.5384C96.4827 55.6847 96.306 55.8008 96.1115 55.8799C95.917 55.9592 95.7085 55.9999 95.498 55.9999ZM86.6971 39.1106C86.6971 35.9112 84.5265 33.777 81.2724 33.777H70.4227C67.1684 33.777 64.9978 35.9112 64.9978 39.1106C64.9978 42.3101 67.1684 44.4441 70.4227 44.4441H81.2724C84.533 44.4441 86.6971 42.3101 86.6971 39.1106Z" fill="white"/>
<path d="M151.585 21.7768V54.4238C151.585 54.8418 151.417 55.2427 151.116 55.5384C150.816 55.8339 150.408 55.9999 149.983 55.9999H141.434C141.009 55.9999 140.602 55.8339 140.301 55.5384C140 55.2427 139.831 54.8418 139.831 54.4238V21.8508C139.831 16.1769 135.168 11.5417 129.402 11.5559C123.181 11.57 119.037 15.6537 119.037 21.7768V54.4238C119.037 54.8418 118.868 55.2427 118.567 55.5384C118.266 55.8339 117.859 55.9999 117.434 55.9999H108.888C108.462 55.9999 108.055 55.8339 107.754 55.5384C107.453 55.2427 107.284 54.8418 107.284 54.4238V1.57609C107.284 1.15808 107.453 0.757165 107.754 0.461591C108.055 0.166017 108.462 0 108.888 0H129.435C142.725 0 151.585 8.71103 151.585 21.7768Z" fill="white"/>
<path d="M200.946 55.9999H175.982C166.438 55.9999 158.653 48.3938 158.694 39.0113C158.74 28.9338 165.6 22.2213 175.871 22.2213H186.652C187.376 22.2236 188.094 22.0848 188.762 21.813C189.43 21.5412 190.039 21.1417 190.549 20.6376C191.06 20.1336 191.464 19.5351 191.738 18.8766C192.012 18.2181 192.151 17.5126 192.146 16.8011C192.106 13.6488 189.947 11.5559 186.722 11.5559H167.534C167.109 11.5559 166.702 11.3898 166.401 11.0942C166.099 10.7986 165.931 10.3978 165.931 9.97977V1.57609C165.931 1.15808 166.099 0.757165 166.401 0.461591C166.702 0.166017 167.109 0 167.534 0H200.946C201.371 0 201.778 0.166017 202.079 0.461591C202.379 0.757165 202.549 1.15808 202.549 1.57609V54.4238C202.549 54.6308 202.507 54.8358 202.426 55.027C202.347 55.2183 202.227 55.3919 202.079 55.5384C201.93 55.6847 201.754 55.8008 201.559 55.8799C201.365 55.9592 201.155 55.9999 200.946 55.9999ZM192.151 39.1106C192.151 35.9112 189.981 33.777 186.727 33.777H175.876C172.622 33.777 170.452 35.9112 170.452 39.1106C170.452 42.3101 172.622 44.4441 175.876 44.4441H186.723C189.981 44.4441 192.151 42.3101 192.151 39.1106Z" fill="white"/>
</g>
</g>
<defs>
<clipPath id="clip0_548_125">
<rect width="202.563" height="56" fill="white"/>
</clipPath>
</defs>
</svg>
