<svg width="1682" height="465" viewBox="0 0 1682 465" fill="none" xmlns="http://www.w3.org/2000/svg">
<g clip-path="url(#clip0_548_125)">
<mask id="mask0_548_125" style="mask-type:luminance" maskUnits="userSpaceOnUse" x="0" y="0" width="1682" height="465">
<path d="M1682 0H0V465H1682V0Z" fill="white"/>
</mask>
<g mask="url(#mask0_548_125)">
<path d="M419.057 15.2929L342.531 454.119C342 457.16 340.394 459.92 337.995 461.909C335.596 463.899 332.558 464.991 329.419 464.993H89.8164C86.6775 464.991 83.6402 463.899 81.2411 461.909C78.8419 459.92 77.2351 457.16 76.7046 454.119L0.191427 15.2929C-0.136057 13.4151 -0.0424774 11.4895 0.465388 9.65096C0.973252 7.8124 1.88325 6.10497 3.13187 4.64806C4.38049 3.19114 5.93749 2.01979 7.6943 1.21587C9.4511 0.411962 11.3654 -0.0047619 13.3032 -0.00593551H85.4236C88.5567 -0.00563687 91.5892 1.08117 93.9875 3.06328C96.3859 5.0454 97.9961 7.79549 98.535 10.83L153.671 320.996C158.995 349.787 181.451 368.973 209.977 368.973C237.758 368.973 260.267 349.787 266.284 320.996L320.674 10.83C321.207 7.78847 322.817 5.03046 325.219 3.04284C327.621 1.05521 330.66 -0.0338512 333.799 -0.0321354H405.893C407.838 -0.0392682 409.76 0.372224 411.526 1.17434C413.291 1.97645 414.857 3.14948 416.112 4.61036C417.367 6.07123 418.281 7.78494 418.79 9.63051C419.299 11.4761 419.39 13.4089 419.057 15.2929Z" fill="white"/>
<path d="M792.975 464.999H585.732C506.476 464.999 441.837 401.841 442.183 323.933C442.556 240.254 499.515 184.516 584.813 184.516H674.332C680.341 184.535 686.294 183.383 691.847 181.126C697.4 178.868 702.443 175.551 706.684 171.366C710.925 167.18 714.279 162.21 716.554 156.742C718.829 151.274 719.978 145.416 719.936 139.509C719.617 113.334 701.686 95.9549 674.904 95.9549H515.541C512.011 95.9549 508.625 94.5757 506.129 92.1214C503.632 89.667 502.23 86.3386 502.23 82.8677V13.0872C502.23 9.61623 503.632 6.28717 506.129 3.83285C508.625 1.37853 512.011 0 515.541 0H792.975C796.505 0 799.891 1.37853 802.387 3.83285C804.884 6.28717 806.286 9.61623 806.286 13.0872V451.912C806.286 453.631 805.942 455.333 805.273 456.921C804.604 458.509 803.623 459.951 802.387 461.167C801.151 462.382 799.684 463.346 798.069 464.003C796.454 464.661 794.723 464.999 792.975 464.999ZM719.896 324.758C719.896 298.191 701.872 280.47 674.851 280.47H584.76C557.738 280.47 539.714 298.191 539.714 324.758C539.714 351.325 557.738 369.045 584.76 369.045H674.851C701.926 369.045 719.896 351.325 719.896 324.758Z" fill="white"/>
<path d="M1258.7 180.825V451.912C1258.7 455.383 1257.3 458.712 1254.8 461.167C1252.31 463.621 1248.92 464.999 1245.39 464.999H1174.41C1170.88 464.999 1167.5 463.621 1165 461.167C1162.5 458.712 1161.1 455.383 1161.1 451.912V181.44C1161.1 134.326 1122.38 95.8371 1074.5 95.9549C1022.84 96.0726 988.428 129.982 988.428 180.825V451.912C988.428 455.383 987.026 458.712 984.53 461.167C982.033 463.621 978.647 464.999 975.117 464.999H904.155C900.624 464.999 897.238 463.621 894.742 461.167C892.246 458.712 890.843 455.383 890.843 451.912V13.0872C890.843 9.61623 892.246 6.28717 894.742 3.83285C897.238 1.37853 900.624 0 904.155 0H1074.77C1185.13 0 1258.7 72.3327 1258.7 180.825Z" fill="white"/>
<path d="M1668.57 464.999H1461.28C1382.03 464.999 1317.39 401.841 1317.73 323.933C1318.11 240.254 1375.07 184.516 1460.36 184.516H1549.88C1555.89 184.535 1561.85 183.383 1567.4 181.126C1572.95 178.869 1578 175.552 1582.24 171.366C1586.48 167.181 1589.84 162.211 1592.11 156.743C1594.39 151.275 1595.54 145.417 1595.5 139.509C1595.17 113.334 1577.24 95.9549 1550.46 95.9549H1391.13C1387.6 95.9549 1384.22 94.5757 1381.72 92.1214C1379.22 89.667 1377.82 86.3386 1377.82 82.8677V13.0872C1377.82 9.61623 1379.22 6.28717 1381.72 3.83285C1384.22 1.37853 1387.6 0 1391.13 0H1668.57C1672.1 0 1675.48 1.37853 1677.98 3.83285C1680.47 6.28717 1681.88 9.61623 1681.88 13.0872V451.912C1681.88 453.631 1681.53 455.333 1680.86 456.921C1680.2 458.509 1679.21 459.951 1677.98 461.167C1676.74 462.382 1675.28 463.346 1673.66 464.003C1672.05 464.661 1670.31 464.999 1668.57 464.999ZM1595.54 324.758C1595.54 298.191 1577.52 280.47 1550.5 280.47H1460.4C1433.38 280.47 1415.36 298.191 1415.36 324.758C1415.36 351.325 1433.38 369.045 1460.4 369.045H1550.47C1577.52 369.045 1595.54 351.325 1595.54 324.758Z" fill="white"/>
</g>
</g>
<defs>
<clipPath id="clip0_548_125">
<rect width="1682" height="465" fill="white"/>
</clipPath>
</defs>
</svg>
