<svg width="57" height="28" viewBox="0 0 57 28" fill="none" xmlns="http://www.w3.org/2000/svg">
<g clip-path="url(#clip0_549_135)">
<mask id="mask0_549_135" style="mask-type:luminance" maskUnits="userSpaceOnUse" x="29" y="0" width="28" height="28">
<path d="M56.9333 14.7001C56.5833 22.0034 50.54 27.8134 43.1667 27.8134C35.7933 27.8134 29.3767 21.6301 29.3767 14.0234C29.3767 6.41673 35.5367 0.233398 43.1667 0.233398C50.7967 0.233398 56.21 5.67007 56.8867 12.6467H50.6333C49.98 9.1234 46.9 6.44007 43.1667 6.44007C39.4333 6.44007 35.5833 9.84673 35.5833 14.0234C35.5833 18.2001 38.99 21.6067 43.1667 21.6067C47.3433 21.6067 49.14 19.6001 50.2367 16.7767H39.7133V14.7001H56.9333Z" fill="white"/>
</mask>
<g mask="url(#mask0_549_135)">
<mask id="mask1_549_135" style="mask-type:luminance" maskUnits="userSpaceOnUse" x="-1" y="-3" width="59" height="33">
<path d="M15.8433 -2.1001H41.09C49.8867 -2.1001 57.0267 5.0399 57.0267 13.8366C57.0267 22.6332 49.8867 29.7732 41.09 29.7732H15.8433C7.04668 29.7499 -0.0933228 22.6332 -0.0933228 13.8366C-0.0933228 5.0399 7.04668 -2.1001 15.8433 -2.1001Z" fill="white"/>
</mask>
<g mask="url(#mask1_549_135)">
<path d="M15.8433 -2.1001H41.09C49.8867 -2.1001 57.0267 5.0399 57.0267 13.8366C57.0267 22.6332 49.8867 29.7732 41.09 29.7732H15.8433C7.04668 29.7499 -0.0933228 22.6332 -0.0933228 13.8366C-0.0933228 5.0399 7.04668 -2.1001 15.8433 -2.1001Z" fill="white"/>
</g>
</g>
<mask id="mask2_549_135" style="mask-type:luminance" maskUnits="userSpaceOnUse" x="-1" y="0" width="29" height="28">
<path d="M4.55 24.1965C9.96334 29.0965 18.34 28.9332 23.5433 23.7298C28.9333 18.3398 28.9333 9.61316 23.5433 4.22316C18.1533 -1.16684 9.42667 -1.16684 4.03667 4.22316C-1.02667 9.2865 -1.33 17.2898 3.10333 22.7032L7.53667 18.2698C5.50667 15.3065 5.78667 11.2465 8.42333 8.60983C11.3867 5.6465 16.1933 5.6465 19.1567 8.60983C22.12 11.5732 22.12 16.3798 19.1567 19.3432C16.8933 21.6065 13.5333 22.1432 10.7567 20.9298L18.2 13.4865L16.73 12.0165L4.55 24.1965Z" fill="white"/>
</mask>
<g mask="url(#mask2_549_135)">
<mask id="mask3_549_135" style="mask-type:luminance" maskUnits="userSpaceOnUse" x="-1" y="-3" width="59" height="33">
<path d="M15.8433 -2.1001H41.09C49.8867 -2.1001 57.0267 5.0399 57.0267 13.8366C57.0267 22.6332 49.8867 29.7732 41.09 29.7732H15.8433C7.04666 29.7499 -0.093338 22.6332 -0.093338 13.8366C-0.093338 5.0399 7.04666 -2.1001 15.8433 -2.1001Z" fill="white"/>
</mask>
<g mask="url(#mask3_549_135)">
<path d="M15.8433 -2.1001H41.09C49.8867 -2.1001 57.0267 5.0399 57.0267 13.8366C57.0267 22.6332 49.8867 29.7732 41.09 29.7732H15.8433C7.04666 29.7499 -0.093338 22.6332 -0.093338 13.8366C-0.093338 5.0399 7.04666 -2.1001 15.8433 -2.1001Z" fill="white"/>
</g>
</g>
</g>
<defs>
<clipPath id="clip0_549_135">
<rect width="56.9333" height="28" fill="white"/>
</clipPath>
</defs>
</svg>
