<svg width="230" height="56" viewBox="0 0 230 56" fill="none" xmlns="http://www.w3.org/2000/svg">
<path d="M116.362 32.253L122.26 31.1975C122.747 34.7032 124.749 36.454 128.303 36.454C130.937 36.3734 132.372 35.373 132.538 33.4103C132.538 31.9224 131.612 30.8414 129.76 30.1462C127.821 29.5146 126.052 29.0228 124.45 28.6328C119.541 27.6155 117.166 25.1596 117.327 21.2653C117.793 16.8764 121.045 14.5294 127.083 14.2242C133.355 14.1436 137.063 16.5684 138.182 21.4603L132.284 22.6218C131.883 20.0586 130.234 18.7755 127.338 18.7727C124.999 18.8533 123.752 19.6714 123.586 21.2229C123.419 22.7744 124.999 23.796 128.286 24.4913C130.47 24.9094 132.583 25.623 134.562 26.6108C137.384 28.0182 138.819 30.2013 138.902 33.1644C138.669 38.1454 135.154 40.7397 128.391 40.8838C121.628 41.0279 117.547 38.103 116.353 32.2657L116.362 32.253Z" fill="#E9E9E9"/>
<path d="M161.091 27.5993L155.266 28.5435C154.967 27.7736 154.449 27.1064 153.774 26.6232C153.099 26.1401 152.296 25.8619 151.464 25.8225C148.43 25.9856 146.848 27.8053 146.696 31.2774C146.696 34.8352 148.278 36.612 151.464 36.612C153.601 36.4489 154.871 35.3545 155.27 33.316L161.451 34.0155C160.006 38.7393 156.588 41.0283 151.195 40.8823C144.347 40.7193 140.85 37.4818 140.706 31.1701C140.936 24.8483 144.473 21.5823 151.317 21.3333C156.157 21.4964 159.415 23.5865 161.091 27.6036C161.091 27.6022 161.091 27.6007 161.091 27.5993Z" fill="#E9E9E9"/>
<path d="M183.983 31.2873C183.761 37.4549 180.444 40.6611 174.07 40.8889C167.788 40.4978 164.458 37.2872 164.157 31.2873C164.458 24.892 167.796 21.5611 174.208 21.3333C180.419 21.5611 183.698 24.8705 184 31.2873H183.983ZM178.212 31.2873C178.132 27.7287 176.725 25.9063 173.948 25.8247C171.254 25.8247 169.907 27.6456 169.907 31.2873C169.988 34.7687 171.335 36.5494 173.948 36.6297C176.805 36.6254 178.212 34.846 178.212 31.2873Z" fill="#E9E9E9"/>
<path d="M193.159 38.4218V48H187.608V21.8123H193.15V24.6596C194.545 22.5176 196.623 21.3943 199.384 21.3333C203.936 21.5641 206.343 24.7293 206.549 30.8289C206.549 37.731 203.88 41.1777 198.541 41.169C196.164 41.0645 194.347 40.1502 193.117 38.4044C193.171 38.3957 193.159 38.3957 193.159 38.4218ZM193.159 30.8202V32.2656C193.239 35.2218 194.474 36.7543 196.864 36.837C199.494 36.837 200.809 34.8648 200.809 30.9464C200.728 27.6506 199.494 25.9744 197.104 25.8917C194.474 25.8917 193.159 27.5461 193.159 30.8202Z" fill="#E9E9E9"/>
<path d="M229.664 31.431V32.8477H215.09C215.322 35.3593 216.917 36.7417 219.83 36.9907C222.036 36.9907 223.381 36.2479 223.859 34.7453L230 35.4451C228.489 39.0743 225.132 40.8889 219.929 40.8889C213.126 40.6628 209.568 37.5416 209.255 31.5254C209.565 24.9697 212.896 21.5823 219.205 21.3333C226.104 21.4578 229.578 24.8151 229.664 31.431ZM214.965 29.2844H224.066C223.833 26.8544 222.342 25.5149 219.558 25.2659C216.727 25.4334 215.197 26.7728 214.948 29.2844C214.969 29.2972 214.969 29.3015 214.969 29.3015L214.965 29.2844Z" fill="#E9E9E9"/>
<path d="M80.7201 14.2222C74.0402 14.529 70.5845 19.0589 70.3529 27.7904C70.436 36.3615 73.8918 40.7265 80.7201 40.8856C87.7919 41.0263 91.2655 36.6243 91.0918 27.6754C91.0057 18.7776 87.5485 14.2933 80.7201 14.2222ZM80.8448 18.5475C82.2832 18.4708 83.3208 19.3316 83.9621 21.1043L76.7122 28.0589H76.6899C76.6543 21.6356 78.0407 18.4651 80.8493 18.5475H80.8448ZM80.8448 36.7905C79.353 36.7905 78.2664 35.9083 77.5806 34.1654L84.7281 27.2961C84.7281 27.4623 84.7281 27.62 84.7281 27.7904C84.826 33.7904 83.5331 36.7905 80.8493 36.7905H80.8448Z" fill="#E9E9E9"/>
<path d="M107.37 31.4904L114.138 22.2222H107.86L103.394 29.3503H103.372L98.9052 22.2222H92.6229L99.2498 31.3689L92 40.8889H98.6269L103.328 33.7565L107.922 40.8889H114.549L107.37 31.5035V31.4904Z" fill="#E9E9E9"/>
<path fill-rule="evenodd" clip-rule="evenodd" d="M0 25.7542V30.2415H18.3092C19.5574 30.2399 20.7878 30.5327 21.8973 31.0955L13.3414 39.5535C12.9037 39.9716 12.6471 40.5401 12.6252 41.14C12.6034 41.7399 12.818 42.3249 13.2243 42.7728C13.4344 42.9915 13.6871 43.1664 13.9672 43.2873C14.2473 43.4081 14.5493 43.4725 14.8551 43.4765C15.1609 43.4804 15.4645 43.424 15.7478 43.3105C16.031 43.1969 16.2883 43.0286 16.5043 42.8155L25.1816 34.2763C25.8135 35.4124 26.1433 36.6872 26.1405 37.9823V56H30.7004V37.9823C30.694 36.7412 30.9917 35.5168 31.5681 34.4129L40.2715 43.0973C40.4846 43.3132 40.7396 43.4848 41.0213 43.602C41.303 43.7191 41.6057 43.7795 41.9115 43.7795C42.2174 43.7795 42.5201 43.7191 42.8018 43.602C43.0835 43.4848 43.3384 43.3132 43.5515 43.0973C43.9616 42.6526 44.1807 42.0689 44.1629 41.4687C44.1451 40.8685 43.8918 40.2984 43.4561 39.878L34.7788 31.2193C35.9264 30.6098 37.2103 30.2914 38.5144 30.2928H56.8235V25.7542H38.5144C37.1979 25.7556 35.9025 25.4296 34.7484 24.8063L43.4257 16.2672C43.8635 15.849 44.1201 15.2806 44.1419 14.6807C44.1637 14.0808 43.9491 13.4957 43.5429 13.0479C43.3324 12.8297 43.0796 12.6553 42.7995 12.5347C42.5194 12.4142 42.2177 12.3501 41.912 12.3461C41.6063 12.3421 41.3029 12.3984 41.0197 12.5116C40.7365 12.6248 40.4791 12.7926 40.2628 13.0052L31.5638 21.5444C30.9913 20.4513 30.6937 19.2389 30.6961 18.0091V0H26.1795V18.0177C26.1822 19.2669 25.8754 20.4979 25.2858 21.6041L16.8167 13.1802C16.3947 12.7465 15.8186 12.49 15.2089 12.4646C14.5992 12.4391 14.0032 12.6466 13.5453 13.0436C13.3222 13.2493 13.1432 13.4969 13.0188 13.7718C12.8945 14.0466 12.8273 14.3432 12.8212 14.644C12.8151 14.9448 12.8703 15.2438 12.9835 15.5233C13.0967 15.8028 13.2656 16.0572 13.4802 16.2714L22.0361 24.8106C20.8947 25.4152 19.6184 25.7306 18.3222 25.7286H0.00867588L0 25.7542ZM25.52 27.9915C26.6523 27.196 27.642 26.2206 28.4486 25.1052C29.2553 26.2206 30.245 27.196 31.3772 27.9915C30.245 28.7869 29.2553 29.7623 28.4486 30.8777C27.642 29.7623 26.6523 28.7869 25.52 27.9915C25.52 27.9915 25.5157 27.9957 25.52 27.9915Z" fill="#E9E9E9"/>
</svg>
