<svg width="275" height="56" viewBox="0 0 275 56" fill="none" xmlns="http://www.w3.org/2000/svg">
<path fill-rule="evenodd" clip-rule="evenodd" d="M36.9883 44.8434C33.5757 44.8419 30.2402 43.8298 27.4035 41.9353C26.8408 41.5594 26.3026 41.152 25.7912 40.716C25.139 40.3205 24.5173 39.8916 23.9298 39.432C23.2587 39.0548 22.6205 38.6494 22.0185 38.2179C21.3036 37.8478 20.6266 37.4514 19.9911 37.0317C19.2701 36.6864 18.5885 36.3193 17.9504 35.9328C17.1586 35.5862 16.4155 35.2183 15.7264 34.8311C14.8336 34.4709 14.0064 34.0883 13.2518 33.6855C12.4672 33.3906 11.743 33.0834 11.0815 32.7654C10.1297 32.4463 9.27094 32.1128 8.50925 31.7669C7.73436 31.5273 7.02254 31.2781 6.37946 31.0202C2.60276 30.0271 0.385376 28.8506 0.385376 27.6052C0.385376 26.3904 2.48917 25.2413 6.08775 24.2641C6.8544 23.9442 7.72685 23.637 8.69445 23.3449C9.39887 23.0336 10.1829 22.7325 11.0438 22.4434C11.7233 22.1163 12.4702 21.8002 13.2825 21.4968C14.0321 21.0987 14.853 20.7203 15.7385 20.3643C16.4278 19.9777 17.1709 19.6105 17.9629 19.2646C18.6064 18.8756 19.2936 18.5066 20.0209 18.1595C20.6481 17.7468 21.3159 17.357 22.0202 16.9923C22.6313 16.5547 23.2801 16.1436 23.9625 15.7617C24.5387 15.3132 25.1474 14.894 25.7856 14.507C28.0263 12.5945 30.7266 11.2821 33.632 10.7054C36.9792 10.041 40.4485 10.3827 43.6011 11.6874C45.3055 12.3927 46.876 13.3623 48.2588 14.5522C48.8643 14.9231 49.4432 15.323 49.9926 15.7495C50.6828 16.1345 51.3388 16.5493 51.9563 16.9912C52.677 17.364 53.3594 17.7632 53.9994 18.1862C54.7209 18.5319 55.4027 18.8992 56.0412 19.2861C56.8455 19.638 57.5996 20.0119 58.2978 20.4056C59.1748 20.761 59.9882 21.1383 60.7313 21.5349C61.5063 21.8274 62.2222 22.1318 62.8762 22.4467C63.7407 22.7356 64.5284 23.0367 65.2368 23.3481C66.1524 23.6236 66.9839 23.9127 67.7224 24.2131C71.4456 25.2012 73.6287 26.3693 73.6287 27.6052C73.6287 28.8362 71.4657 29.9999 67.7759 30.9857C67.0786 31.2707 66.2971 31.5452 65.4391 31.8076C64.6451 32.1658 63.7459 32.5107 62.7457 32.8397C62.1368 33.1269 61.4752 33.4052 60.763 33.6738C60.0046 34.0804 59.172 34.4666 58.2728 34.8298C57.5871 35.2152 56.8479 35.5813 56.0604 35.9264C55.4092 36.3215 54.7127 36.6963 53.975 37.0483C53.3495 37.4604 52.6834 37.8497 51.9811 38.214C51.3595 38.66 50.6988 39.0783 50.0032 39.4665C49.4324 39.9101 48.8296 40.3248 48.198 40.708C45.0844 43.3649 41.1128 44.8408 36.9883 44.8434ZM63.1587 31.4095C63.0037 31.437 62.8468 31.4646 62.6877 31.492C62.5921 31.5084 62.4961 31.5247 62.3997 31.5409C63.3992 30.3106 63.9437 28.9865 63.9437 27.6082C63.9437 26.2178 63.3882 24.8828 62.3695 23.643C62.4659 23.6592 62.5621 23.6756 62.6579 23.6921C62.8119 23.7186 62.964 23.7454 63.1141 23.7721C64.5219 24.9625 65.3043 26.2603 65.3043 27.6093C65.3043 28.9445 64.5383 30.2296 63.1587 31.4095ZM64.6861 31.121C64.5165 31.1548 64.3442 31.1889 64.1689 31.2225C65.2657 30.0936 65.8636 28.8769 65.8636 27.6093C65.8636 26.3281 65.2503 25.0989 64.1272 23.9593C64.2888 23.9903 64.4477 24.0215 64.6041 24.0528C66.2904 25.1588 67.2393 26.3667 67.2393 27.613C67.2393 28.8405 66.3213 30.0301 64.6861 31.121ZM66.1729 30.8035C66.1034 30.8192 66.0335 30.8349 65.9628 30.8509C67.1599 29.8248 67.7835 28.7336 67.7835 27.613C67.7835 26.4766 67.1355 25.3673 65.8996 24.3257C65.9505 24.3371 66.001 24.3483 66.0512 24.3598C68.0755 25.407 69.1778 26.5289 69.1778 27.6136C69.1778 28.6772 68.1198 29.7754 66.1729 30.8035ZM70.4178 29.566C72.2961 28.836 73.0696 28.1408 73.0696 27.5977C73.0696 27.047 72.2724 26.3381 70.3315 25.5942C71.2077 26.2387 71.679 26.9165 71.679 27.6132C71.679 28.287 71.2385 28.9422 70.4178 29.566ZM61.456 23.494C62.6853 24.7762 63.3658 26.1676 63.3658 27.6119C63.3658 29.0406 62.6999 30.4174 61.4959 31.6876C61.206 31.7333 60.9131 31.7781 60.617 31.8218C61.5069 30.5014 61.9905 29.0839 61.9905 27.6091C61.9905 26.1213 61.4968 24.6917 60.5894 23.361C60.8814 23.4043 61.1702 23.4487 61.456 23.494ZM60.7649 22.8345C60.7572 22.8277 60.7496 22.821 60.7419 22.8143C60.5249 22.7699 60.3059 22.7263 60.0848 22.6833C60.1006 22.7027 60.1163 22.7222 60.1319 22.7417C60.3448 22.7722 60.5559 22.8031 60.7649 22.8345ZM59.2932 22.6249C59.2605 22.5884 59.2272 22.5519 59.1938 22.5155C58.9233 22.4662 58.6502 22.4179 58.3744 22.3705C58.4072 22.4192 58.4393 22.468 58.471 22.5169C58.748 22.5522 59.0221 22.5883 59.2932 22.6249ZM57.7465 22.4265C57.7033 22.3653 57.6593 22.3044 57.6147 22.2436C57.297 22.1921 56.976 22.1417 56.6518 22.0926C56.6924 22.1654 56.7318 22.2385 56.7707 22.3118C57.0996 22.3492 57.4249 22.3874 57.7465 22.4265ZM57.0603 22.8953C57.4242 22.9376 57.7844 22.9812 58.141 23.026C59.0159 24.4554 59.493 25.9977 59.493 27.6052C59.493 29.2026 59.0217 30.7354 58.1574 32.1572C57.8015 32.2018 57.4419 32.2451 57.0789 32.2873C57.7553 30.8145 58.1211 29.2418 58.1211 27.6093C58.1211 25.9636 57.7486 24.3787 57.0603 22.8953ZM56.0929 22.2366C56.0457 22.1536 55.9974 22.0709 55.9482 21.9887C55.6076 21.9397 55.2636 21.892 54.9165 21.8458C54.9592 21.939 55.0007 22.0327 55.0412 22.1267C55.3954 22.1624 55.7459 22.199 56.0929 22.2366ZM55.2737 22.6998C55.654 22.7388 56.0308 22.7791 56.4042 22.8206C57.1516 24.3206 57.5582 25.9322 57.5582 27.6093C57.5582 29.2733 57.1581 30.8726 56.4221 32.3621C56.0483 32.4037 55.671 32.444 55.2903 32.4829C55.8701 30.9456 56.1829 29.3092 56.1829 27.6125C56.1829 25.9005 55.8641 24.2497 55.2737 22.6998ZM54.4116 22.0648C54.3652 21.9631 54.3173 21.862 54.2686 21.7615C53.9086 21.7158 53.5456 21.6716 53.1795 21.6288C53.2205 21.7395 53.2604 21.8505 53.299 21.962C53.6735 21.9952 54.0443 22.0294 54.4116 22.0648ZM53.4845 22.5278C53.879 22.5632 54.2703 22.6 54.6583 22.6381C55.289 24.1997 55.6311 25.8714 55.6311 27.6089C55.6311 29.3334 55.2942 30.9933 54.6724 32.545C54.2815 32.5831 53.8877 32.6202 53.4903 32.6559C53.9888 31.0353 54.2498 29.3355 54.2518 27.6091C54.2518 25.877 53.9903 24.165 53.4845 22.5278ZM52.8685 22.4737C47.9385 22.051 42.5427 21.8305 37.0107 21.8305H36.9175C31.3983 21.8305 26.0175 22.0545 21.1018 22.4775C20.2273 25.178 20.0552 28.0643 20.6126 30.8623C20.737 31.4875 20.8968 32.1027 21.0905 32.7055C26.0367 33.1314 31.455 33.3537 37.0107 33.3537H37.1039C42.608 33.3537 47.9778 33.1305 52.8851 32.7092C53.4123 31.0697 53.6851 29.3497 53.6851 27.6091C53.6832 25.8488 53.4028 24.1174 52.8685 22.4737ZM52.6733 21.9078C47.8952 21.504 42.5737 21.2758 37.0107 21.2758H36.9175C31.3698 21.2758 26.0632 21.5037 21.298 21.9072C21.3416 21.7876 21.3865 21.6685 21.4328 21.5498C26.2138 21.0207 31.4912 20.7404 36.9212 20.7404H36.9958C42.4456 20.7404 47.7435 21.0234 52.5404 21.556C52.5859 21.6728 52.6304 21.7901 52.6733 21.9078ZM20.6934 21.9596C20.7329 21.8459 20.7737 21.7326 20.8155 21.6198C20.4458 21.6628 20.0791 21.7072 19.7159 21.7532C19.6659 21.8561 19.6169 21.9595 19.5694 22.0635C19.9404 22.0278 20.3151 21.9931 20.6934 21.9596ZM18.9338 22.1262C18.9754 22.0297 19.0179 21.9337 19.0617 21.8381C18.7164 21.8839 18.3743 21.9312 18.0354 21.9798C17.9843 22.0648 17.9345 22.1501 17.8857 22.2359C18.2315 22.1983 18.5809 22.1618 18.9338 22.1262ZM17.5723 22.8245C17.9448 22.7831 18.3206 22.7429 18.6998 22.7039C18.1118 24.2514 17.7943 25.8994 17.7943 27.6089C17.7943 29.3052 18.107 30.9413 18.6864 32.4786C18.307 32.4394 17.931 32.3992 17.5583 32.3576C16.8223 30.8681 16.4222 29.269 16.4222 27.6054C16.4222 25.9311 16.8275 24.3221 17.5723 22.8245ZM17.2114 22.3109C17.2518 22.2346 17.293 22.1586 17.3348 22.0829C17.0128 22.1316 16.694 22.1815 16.3782 22.2326C16.3312 22.2966 16.2848 22.3609 16.2393 22.4254C16.5596 22.3863 16.8838 22.3482 17.2114 22.3109ZM15.8418 23.029C16.1977 22.9844 16.557 22.941 16.92 22.8987C16.2343 24.38 15.8631 25.9623 15.8631 27.6054C15.8631 29.2377 16.2296 30.8101 16.9069 32.2832C16.5424 32.2406 16.1813 32.1969 15.8241 32.1518C14.9617 30.7315 14.4913 29.2005 14.4913 27.6052C14.4913 25.999 14.968 24.4576 15.8418 23.029ZM15.5139 22.5159C15.548 22.4636 15.5825 22.4114 15.6174 22.3593C15.3416 22.4066 15.0685 22.4547 14.798 22.5039C14.7611 22.5441 14.7245 22.5843 14.6884 22.6247C14.9607 22.5878 15.2359 22.5515 15.5139 22.5159ZM14.169 23.2511C14.4926 23.2056 14.8196 23.1612 15.1498 23.1178C14.358 24.5267 13.9283 26.0362 13.9283 27.6052C13.9283 29.163 14.352 30.6621 15.1332 32.0626C14.8028 32.0189 14.4756 31.9741 14.1518 31.9282C13.1093 30.5559 12.564 29.0945 12.564 27.6015C12.564 26.0994 13.1146 24.6297 14.169 23.2511ZM13.8494 22.7418C13.8679 22.7183 13.8867 22.6949 13.9055 22.6716C13.6792 22.7155 13.4551 22.7601 13.233 22.8054C13.2206 22.8162 13.2083 22.827 13.1961 22.8378C13.4117 22.8054 13.6294 22.7734 13.8494 22.7418ZM12.5057 23.4985C12.798 23.4526 13.0935 23.4074 13.3921 23.3632C12.4911 24.6909 12.0011 26.1172 12.0011 27.6015C12.0011 29.0766 12.4849 30.4945 13.3751 31.8153C13.0739 31.7703 12.7759 31.7244 12.4812 31.6777C11.2766 30.4066 10.6105 29.0294 10.6105 27.6007C10.6105 26.162 11.2856 24.7762 12.5057 23.4985ZM10.8304 23.7792C10.9934 23.7499 11.1587 23.721 11.3264 23.6921C11.4211 23.676 11.5162 23.6598 11.6116 23.6439C10.6016 24.8809 10.0513 26.2129 10.0513 27.6007C10.0513 28.9783 10.594 30.3015 11.5907 31.5314C11.5135 31.5185 11.4366 31.5053 11.3599 31.492C11.1703 31.4594 10.9836 31.4267 10.7999 31.3937C9.42186 30.214 8.65713 28.9307 8.65713 27.5981C8.65713 26.2558 9.43319 24.9643 10.8304 23.7792ZM9.35633 24.0575C9.51041 24.0267 9.66689 23.9959 9.82588 23.9653C8.71746 25.0993 8.11288 26.3225 8.11288 27.5981C8.11288 28.8644 8.70937 30.0798 9.80371 31.2083C9.63989 31.1766 9.4787 31.1447 9.32012 31.1128C7.67838 30.0195 6.75624 28.8278 6.75624 27.5981C6.75624 26.3579 7.69189 25.1571 9.35633 24.0575ZM7.86527 24.3753C7.91017 24.3651 7.95534 24.3548 8.00074 24.3447C6.79284 25.3755 6.16353 26.4725 6.16353 27.5981C6.16353 28.7138 6.79079 29.8037 7.98601 30.8291C7.92182 30.8147 7.85813 30.8 7.79493 30.7856C5.85387 29.758 4.79911 28.6608 4.79911 27.5987C4.79911 26.5231 5.87937 25.4126 7.86527 24.3753ZM3.59425 25.6196C1.71965 26.3493 0.948258 27.0438 0.948258 27.5865C0.948258 28.1321 1.72971 28.8332 3.63125 29.5693C2.78067 28.9335 2.32378 28.2659 2.32378 27.5798C2.32378 26.9033 2.76747 26.2456 3.59425 25.6196ZM13.2002 32.3683C13.2098 32.3767 13.2194 32.3851 13.229 32.3935C13.4512 32.439 13.6755 32.4838 13.902 32.528C13.8848 32.5066 13.8677 32.4851 13.8507 32.4638C13.6317 32.4323 13.415 32.4004 13.2002 32.3683ZM14.6912 32.5812C14.7258 32.6195 14.7605 32.6581 14.7959 32.6964C15.0646 32.7453 15.3364 32.7934 15.6105 32.8406C15.5767 32.7902 15.5435 32.7397 15.5107 32.6891C15.2346 32.6536 14.9615 32.6176 14.6912 32.5812ZM16.2359 32.7796C16.2803 32.8425 16.3254 32.9052 16.3713 32.9677C16.6875 33.0192 17.007 33.0691 17.3296 33.118C17.2885 33.0437 17.2481 32.9692 17.2084 32.8942C16.8808 32.8569 16.5564 32.8186 16.2359 32.7796ZM17.8829 32.9692C17.9308 33.0538 17.98 33.1379 18.03 33.2214C18.3682 33.2701 18.7097 33.3175 19.0541 33.3634C19.0112 33.2691 18.9692 33.174 18.9282 33.0788C18.5762 33.0433 18.2278 33.0067 17.8829 32.9692ZM19.5625 33.1413C19.6094 33.2443 19.6574 33.3466 19.7068 33.4483C20.0712 33.4946 20.4389 33.5394 20.8097 33.5825C20.7683 33.4707 20.728 33.3582 20.6889 33.2458C20.3099 33.212 19.9342 33.1773 19.5625 33.1413ZM20.4956 32.6531C19.6628 29.9357 19.5131 27.046 20.0725 24.2424C20.1881 23.6626 20.333 23.0912 20.5064 22.53C20.1078 22.5658 19.7127 22.603 19.3207 22.6415C18.6911 24.2023 18.3497 25.8727 18.3497 27.6089C18.3497 29.3317 18.6857 30.9902 19.3059 32.5409C19.6991 32.5797 20.0957 32.6172 20.4956 32.6531ZM21.2933 33.2981C21.3364 33.4168 21.3811 33.5351 21.4268 33.6527C26.2261 34.1857 31.5279 34.4675 36.9846 34.4675H37.0517C42.4836 34.4675 47.7642 34.1868 52.5484 33.6568C52.5937 33.5403 52.6379 33.4233 52.6806 33.3057C47.9252 33.7074 42.633 33.9345 37.1039 33.9345H37.0107C31.4261 33.9345 26.0854 33.7047 21.2933 33.2981ZM53.2949 33.2525C53.2561 33.3641 53.2162 33.475 53.1752 33.5857C53.5434 33.5429 53.9084 33.4985 54.2703 33.4528C54.3191 33.3522 54.3667 33.251 54.4133 33.1493C54.044 33.1848 53.6713 33.2193 53.2949 33.2525ZM55.0466 33.087C55.0063 33.1812 54.9646 33.2749 54.9224 33.3681C55.2681 33.322 55.6109 33.2747 55.9504 33.226C55.9998 33.1435 56.0481 33.0607 56.0953 32.9774C55.7493 33.0148 55.3999 33.0515 55.0466 33.087ZM56.7756 32.902C56.7368 32.9754 56.6971 33.0489 56.6568 33.1219C56.9777 33.0732 57.2955 33.0235 57.6102 32.9726C57.6552 32.9112 57.6995 32.8498 57.743 32.7882C57.4242 32.827 57.1015 32.8649 56.7756 32.902ZM58.4745 32.6969C58.4423 32.7464 58.41 32.7955 58.377 32.8447C58.6533 32.7973 58.9268 32.749 59.1977 32.6997C59.2315 32.6626 59.2652 32.6258 59.2984 32.5885C59.0266 32.6253 58.7521 32.6615 58.4745 32.6969ZM59.8396 31.934C60.8806 30.5637 61.4239 29.1033 61.4239 27.6091C61.4239 26.1024 60.87 24.6295 59.8109 23.2482C59.4884 23.2028 59.1627 23.1584 58.8336 23.115C59.6282 24.5259 60.0596 26.0375 60.0596 27.6091C60.0596 29.1675 59.6355 30.6671 58.8536 32.0678C59.1858 32.0243 59.5145 31.9797 59.8396 31.934ZM60.1405 32.4713C60.1245 32.4914 60.1084 32.5114 60.0924 32.5314C60.3141 32.4883 60.5341 32.4444 60.752 32.4C60.7604 32.3925 60.7688 32.3851 60.7772 32.3778C60.5669 32.4093 60.3547 32.4405 60.1405 32.4713ZM15.5225 33.4229C15.5038 33.4056 15.485 33.3882 15.4662 33.3707C15.6638 33.4048 15.8631 33.4386 16.0642 33.4718C16.087 33.5017 16.1101 33.5314 16.1334 33.5612C15.9274 33.5157 15.7238 33.4696 15.5225 33.4229ZM16.994 33.7447C16.9528 33.6973 16.9118 33.6495 16.8715 33.6017C17.1409 33.6439 17.4131 33.685 17.6881 33.7255C17.7261 33.7861 17.7645 33.8464 17.8035 33.9065C17.53 33.8535 17.2602 33.7997 16.994 33.7447ZM18.571 34.0504C18.5192 33.9774 18.4683 33.9039 18.4185 33.8302C18.7222 33.8725 19.0291 33.914 19.3391 33.9543C19.3827 34.0396 19.4269 34.1243 19.472 34.2088C19.1678 34.1573 18.8674 34.1045 18.571 34.0504ZM20.1695 34.3238C20.1156 34.2297 20.0625 34.1349 20.0108 34.0396C20.3492 34.0817 20.6909 34.1224 21.036 34.1618L21.0513 34.1993C21.0899 34.2923 21.1294 34.3852 21.1697 34.4776C20.8319 34.4278 20.4985 34.3766 20.1695 34.3238ZM36.9921 35.0261C31.5294 35.0261 26.3147 34.7387 21.6649 34.232C21.7141 34.3456 21.7646 34.4584 21.8161 34.5707C26.2375 35.189 31.3601 35.5588 36.9885 35.5588H37.0407C42.6468 35.5588 47.7504 35.1918 52.1573 34.5774C52.2082 34.4671 52.2579 34.3561 52.3064 34.2445C47.6767 34.7437 42.4896 35.0261 37.0592 35.0261H36.9921ZM52.8131 34.4834C52.8579 34.3807 52.9017 34.2775 52.9446 34.1741C53.2863 34.1353 53.6249 34.0952 53.9601 34.0541C53.9094 34.1469 53.8577 34.2393 53.8048 34.3313C53.4785 34.3835 53.1478 34.4341 52.8131 34.4834ZM54.5024 34.2167C54.5462 34.1346 54.5893 34.0524 54.6316 33.9696C54.942 33.9296 55.2496 33.8886 55.5539 33.8466C55.5056 33.9173 55.4569 33.9879 55.407 34.0582C55.1096 34.1122 54.8078 34.165 54.5024 34.2167ZM56.1816 33.913C56.2185 33.8561 56.2547 33.7992 56.2907 33.7419C56.5623 33.7023 56.8313 33.6618 57.0977 33.6206C57.0601 33.665 57.0222 33.7092 56.984 33.7531C56.7202 33.8074 56.4525 33.8606 56.1816 33.913ZM57.8515 33.5683C57.8718 33.5424 57.8916 33.5168 57.9117 33.4909C58.1123 33.458 58.3114 33.4246 58.5087 33.3908C58.4949 33.4035 58.4809 33.4164 58.4671 33.4291C58.2644 33.4761 58.0592 33.5224 57.8515 33.5683ZM71.116 27.6132C71.116 28.4803 70.063 29.3834 68.1394 30.2367C69.1909 29.4032 69.7368 28.5247 69.7368 27.6248C69.7368 26.7045 69.1624 25.8038 68.0592 24.9505C70.0336 25.8169 71.116 26.7353 71.116 27.6132ZM58.4729 21.7948L58.4954 21.8155C58.2991 21.7817 58.1013 21.7483 57.9018 21.7153C57.886 21.6951 57.8705 21.6749 57.8548 21.6547C58.0633 21.7009 58.2693 21.7476 58.4729 21.7948ZM56.9965 21.4714C57.0295 21.5094 57.0623 21.5476 57.0946 21.5858C56.8254 21.5439 56.5535 21.5028 56.2787 21.4624C56.2463 21.4108 56.2133 21.3594 56.1801 21.3081C56.456 21.3615 56.7282 21.416 56.9965 21.4714ZM55.4094 21.1634C55.4551 21.2278 55.5 21.2925 55.5442 21.3575C55.2392 21.315 54.931 21.2736 54.6195 21.2332C54.5801 21.1563 54.5399 21.0797 54.4989 21.0034C54.8065 21.0555 55.11 21.1088 55.4094 21.1634ZM53.8063 20.8892C53.8557 20.9752 53.9043 21.0617 53.9519 21.1486C53.6193 21.1075 53.2835 21.0676 52.9444 21.0288C52.9041 20.9313 52.8629 20.8342 52.8206 20.7373C53.1534 20.7866 53.4819 20.8372 53.8063 20.8892ZM52.1509 20.641C52.1992 20.7456 52.2462 20.8506 52.2924 20.9562C47.6538 20.4524 42.4551 20.167 37.0107 20.167H36.9399C31.5042 20.167 26.313 20.4497 21.6809 20.9497C21.7268 20.8439 21.7741 20.7388 21.8224 20.6342C26.2295 20.0204 31.3331 19.6537 36.9399 19.6537H36.9885C42.6132 19.6537 47.7321 20.0232 52.1509 20.641ZM21.1755 20.7268C21.1332 20.8239 21.0918 20.9214 21.0513 21.0193C20.7088 21.0582 20.3695 21.0982 20.0334 21.1394C20.0811 21.0523 20.1298 20.9657 20.1794 20.8794C20.5071 20.8271 20.8393 20.7762 21.1755 20.7268ZM19.4801 20.9942C19.4392 21.0706 19.3988 21.1473 19.3594 21.2243C19.05 21.2642 18.744 21.3051 18.4407 21.347C18.4851 21.2819 18.5302 21.2171 18.5759 21.1525C18.8734 21.0986 19.1747 21.0458 19.4801 20.9942ZM17.8089 21.296C17.7753 21.3475 17.7423 21.3991 17.7097 21.4508C17.4377 21.4905 17.1685 21.531 16.9019 21.5722C16.9347 21.5337 16.9677 21.4952 17.0011 21.4568C17.2667 21.4022 17.5359 21.3486 17.8089 21.296ZM16.1405 21.6399C16.1246 21.6603 16.1086 21.6807 16.0928 21.7012C15.894 21.7338 15.6968 21.7669 15.5014 21.8004L15.5249 21.7788C15.7277 21.7319 15.9328 21.6856 16.1405 21.6399ZM4.23994 27.5987C4.23994 26.6855 4.80492 25.7924 5.89157 24.9455C3.93126 25.8064 2.85685 26.7189 2.85685 27.5946C2.85685 28.4691 3.93061 29.3838 5.89032 30.247C4.80517 29.401 4.23994 28.5094 4.23994 27.5987ZM56.36 20.7872L56.3565 20.7839C56.141 20.7284 55.9232 20.6739 55.7028 20.6202C55.715 20.6366 55.7271 20.6531 55.7392 20.6696C55.9476 20.7082 56.1544 20.7474 56.36 20.7872ZM54.9286 20.5244C54.9001 20.4887 54.8715 20.4531 54.8426 20.4176C54.5861 20.3593 54.3268 20.3022 54.0647 20.2462C54.0947 20.2953 54.1245 20.3445 54.154 20.3938C54.4142 20.4363 54.6724 20.4798 54.9286 20.5244ZM53.4364 20.2799C53.3959 20.2165 53.3547 20.1535 53.3133 20.0906C53.0251 20.0328 52.7341 19.9764 52.4399 19.9215C52.4774 19.9968 52.5143 20.0723 52.5508 20.148C52.8482 20.1907 53.1435 20.2347 53.4364 20.2799ZM51.8651 20.0523C47.2871 19.4315 42.2163 19.1027 36.9885 19.1027H36.9399C31.7324 19.1027 26.6769 19.4243 22.1119 20.0377C22.1548 19.9535 22.1984 19.8697 22.2428 19.7864C26.6516 19.0123 31.6948 18.5621 36.9512 18.5621H36.9885C42.2551 18.5621 47.3104 19.015 51.73 19.7928C51.7758 19.8789 51.8209 19.9654 51.8651 20.0523ZM21.4499 20.1292C21.4853 20.056 21.5211 19.983 21.5575 19.9102C21.2596 19.9656 20.9648 20.0225 20.6734 20.0808C20.6337 20.1407 20.5944 20.2007 20.5558 20.2611C20.8515 20.2158 21.1496 20.1719 21.4499 20.1292ZM19.8311 20.3752C19.8587 20.3292 19.8863 20.2833 19.9143 20.2375C19.6546 20.2928 19.3978 20.3493 19.1437 20.407C19.1176 20.4389 19.0917 20.471 19.066 20.5031C19.319 20.4595 19.5742 20.4169 19.8311 20.3752ZM18.258 20.6469C18.2675 20.634 18.277 20.6211 18.2865 20.6083C18.104 20.6527 17.923 20.6977 17.7438 20.7432C17.9142 20.7107 18.0857 20.6785 18.258 20.6469ZM17.7682 34.4615C17.936 34.5043 18.1053 34.5463 18.2759 34.5881C18.2714 34.5821 18.2671 34.5763 18.2628 34.5702C18.2582 34.5642 18.2539 34.5582 18.2494 34.5521C18.0883 34.5224 17.9278 34.4923 17.7682 34.4615ZM19.058 34.6971C19.0828 34.7282 19.1079 34.7592 19.1331 34.7902C19.3863 34.8477 19.6426 34.9044 19.9016 34.9597C19.8744 34.9151 19.8473 34.8703 19.8205 34.8255C19.5645 34.7837 19.3104 34.7409 19.058 34.6971ZM20.5433 34.9404C20.5811 34.9994 20.6192 35.058 20.6578 35.1166C20.9514 35.1756 21.248 35.2331 21.548 35.2891C21.5124 35.2176 21.4773 35.1461 21.4428 35.0741C21.1406 35.0308 20.8408 34.9862 20.5433 34.9404ZM22.1047 35.1666C22.1468 35.2493 22.1895 35.3316 22.2331 35.4134C26.6603 36.1944 31.7274 36.6491 37.007 36.6491H37.0443C42.2942 36.6491 47.3316 36.1995 51.7365 35.4268C51.7797 35.3456 51.8221 35.2641 51.864 35.1823C47.3003 35.7958 42.2478 36.1172 37.0407 36.1172H36.9885C31.7576 36.1172 26.684 35.7881 22.1047 35.1666ZM52.5346 35.0896C52.5003 35.1605 52.4656 35.2312 52.4304 35.3014C52.7268 35.2465 53.0199 35.1898 53.31 35.1319C53.3482 35.0741 53.3859 35.0164 53.4233 34.9584C53.1293 35.0035 52.8329 35.0472 52.5346 35.0896ZM54.1467 34.8445C54.1204 34.8882 54.0941 34.9319 54.0673 34.9755C54.3268 34.9203 54.5835 34.8639 54.8376 34.8064C54.8617 34.7766 54.8859 34.7467 54.9098 34.717C54.6573 34.7605 54.403 34.8029 54.1467 34.8445ZM55.7263 34.5715L55.7032 34.6032C55.8535 34.5666 56.0028 34.5295 56.1512 34.4923C56.0101 34.519 55.8686 34.5455 55.7263 34.5715ZM19.8496 35.6069C19.83 35.5862 19.8106 35.5653 19.7912 35.5446C19.9786 35.5845 20.1674 35.6237 20.3572 35.6625C20.3802 35.6961 20.4033 35.7295 20.4268 35.7631C20.2325 35.7118 20.0401 35.6597 19.8496 35.6069ZM21.2698 35.977C21.2294 35.9244 21.1895 35.8714 21.1501 35.8182C21.3979 35.8654 21.6475 35.9115 21.899 35.9563C21.9352 36.0218 21.9721 36.0871 22.0092 36.1521C21.7601 36.0951 21.5137 36.0367 21.2698 35.977ZM36.9885 37.2075C31.9166 37.2075 27.0065 36.8159 22.6054 36.0785C22.6522 36.1577 22.6999 36.237 22.748 36.3156C26.9607 37.2172 31.84 37.7399 36.9883 37.7399H37.018C42.1529 37.7399 47.0212 37.2196 51.2253 36.321C51.2734 36.2426 51.3211 36.1636 51.3679 36.0845C46.9785 36.8204 42.0925 37.2075 37.0258 37.2075H36.9885ZM51.9725 36.1558C52.0096 36.091 52.0463 36.0259 52.0827 35.9606C52.3312 35.9162 52.578 35.8708 52.8232 35.824C52.7835 35.8773 52.7434 35.9302 52.7031 35.983C52.4619 36.0421 52.2186 36.0996 51.9725 36.1558ZM53.5477 35.7689C53.5712 35.7351 53.5947 35.7015 53.618 35.6676C53.8096 35.6284 54.0003 35.5888 54.1894 35.5483C54.17 35.5694 54.1502 35.5903 54.1305 35.6112C53.9381 35.6646 53.7438 35.7172 53.5477 35.7689ZM54.1724 19.6507L54.1892 19.6688C53.9977 19.6279 53.805 19.5877 53.6109 19.5483C53.5874 19.5142 53.5639 19.4801 53.5402 19.4462C53.7386 19.4985 53.9353 19.5518 54.1301 19.6058C54.1379 19.6139 54.1454 19.6219 54.153 19.63C54.1594 19.6369 54.1659 19.6438 54.1724 19.6507ZM52.702 19.2333C52.7425 19.2863 52.7826 19.3396 52.8225 19.393C52.5803 19.3469 52.3362 19.3019 52.0905 19.258C52.0542 19.1926 52.0176 19.1274 51.9805 19.0625C52.2233 19.1182 52.4638 19.1751 52.702 19.2333ZM51.2145 18.8929C51.2633 18.9719 51.3112 19.0514 51.3584 19.1313C46.9578 18.3938 42.0481 18.0036 36.9736 18.0036H36.9363C31.8825 18.0036 27.0028 18.3873 22.6179 19.1185C22.6632 19.042 22.7091 18.9659 22.7555 18.8902C26.9668 17.9917 31.8437 17.4712 36.9883 17.4712C42.13 17.4712 47.005 17.9927 51.2145 18.8929ZM22.0165 19.0534C21.9809 19.1154 21.9458 19.1777 21.9111 19.2402C21.6624 19.2843 21.4152 19.3296 21.1699 19.376C21.2074 19.3259 21.2452 19.276 21.2834 19.2263C21.5252 19.1673 21.7696 19.1097 22.0165 19.0534ZM20.4372 19.4405C20.4158 19.4709 20.3947 19.5015 20.3736 19.532C20.1831 19.5706 19.9937 19.6099 19.8056 19.6498C19.822 19.6324 19.8384 19.6149 19.8548 19.5975C20.047 19.5443 20.2413 19.4919 20.4372 19.4405ZM52.1095 18.5057C52.0976 18.492 52.0855 18.4782 52.0737 18.4645C51.8901 18.4088 51.7048 18.354 51.518 18.3002C51.5364 18.3287 51.5545 18.3572 51.5726 18.3858C51.7527 18.4251 51.9317 18.465 52.1095 18.5057ZM50.7775 18.2186C50.7426 18.1677 50.7076 18.1169 50.6723 18.0664C46.6543 17.0005 41.9553 16.3792 36.9883 16.3792C32.0169 16.3792 27.3158 16.9995 23.2971 18.0642C23.2639 18.1117 23.2311 18.1594 23.1983 18.2073C27.2914 17.3818 31.9815 16.9127 36.9622 16.9127C41.9588 16.9127 46.6679 17.3862 50.7775 18.2186ZM50.7849 37.0014C46.6914 37.8282 42.0002 38.2982 37.018 38.2982H36.9883C31.9931 38.2982 27.2903 37.826 23.1878 36.9953C23.2212 37.0444 23.2551 37.0934 23.2889 37.142C27.3102 38.2106 32.0147 38.8334 36.9883 38.8334L37.0068 39.1126V38.8334C41.9711 38.8334 46.6676 38.2132 50.6833 37.1485C50.7173 37.0996 50.7512 37.0505 50.7849 37.0014ZM51.5381 36.8736C51.5279 36.8896 51.5178 36.9053 51.5077 36.921C51.6977 36.8665 51.8862 36.8109 52.073 36.7543C52.0836 36.7422 52.0941 36.7299 52.1047 36.7176C51.9246 36.7588 51.743 36.7991 51.5601 36.8389L51.5381 36.8736ZM21.866 36.7107C22.0493 36.7525 22.2342 36.7939 22.4203 36.8344C22.4287 36.8478 22.4373 36.8613 22.446 36.8747C22.4548 36.8887 22.4637 36.9025 22.4727 36.9165C22.279 36.8607 22.0868 36.804 21.8966 36.7463C21.8865 36.7344 21.8761 36.7226 21.866 36.7107ZM21.8845 18.4891C22.0653 18.448 22.2471 18.4076 22.4304 18.3679C22.4471 18.3417 22.4639 18.3155 22.4807 18.2894C22.2896 18.3441 22.1002 18.3999 21.9128 18.4567L21.8845 18.4891ZM36.9883 39.3881C32.2162 39.3881 27.7305 38.8426 23.8396 37.8866C23.8629 37.9163 23.8864 37.946 23.9099 37.9757C27.7983 39.2429 32.2988 39.9215 36.9997 39.9215C41.6887 39.9215 46.178 39.244 50.0644 37.9785C50.0873 37.9497 50.1102 37.9208 50.133 37.8917C46.2462 38.8446 41.7679 39.3881 37.0068 39.3881H36.9883ZM36.9695 15.8207C32.2104 15.8207 27.7357 16.3634 23.8525 17.3151C23.8743 17.2875 23.8959 17.2601 23.9177 17.2327C27.8017 15.9692 32.299 15.2937 36.9958 15.293C41.6764 15.2937 46.1653 15.9686 50.0463 17.2289C50.0713 17.2601 50.0959 17.2914 50.1207 17.3227C46.2248 16.3665 41.7372 15.8207 36.9695 15.8207ZM49.3772 38.7888L49.3733 38.7931C45.8206 40.1927 41.5653 41.0086 36.9958 41.0086C32.4179 41.0086 28.1546 40.1901 24.5973 38.7862L24.5902 38.7784C28.2493 39.8605 32.4877 40.4799 37.0034 40.4799C41.5019 40.4799 45.727 39.8646 49.3772 38.7888ZM49.3651 16.4275C45.7082 15.3482 41.4773 14.7308 36.9773 14.7308C32.4795 14.7308 28.2547 15.3468 24.6047 16.4239L24.609 16.419C28.1626 15.0187 32.4198 14.2025 36.9921 14.202C41.5528 14.2025 45.799 15.014 49.3466 16.407L49.3651 16.4275ZM36.9958 41.5706C33.1158 41.5706 29.4563 40.9877 26.244 39.9586C29.3739 41.316 33.0559 42.0997 36.9921 42.0997C40.9219 42.0997 44.598 41.319 47.7241 39.9661C44.5174 40.9905 40.8663 41.5706 36.9958 41.5706ZM36.9885 13.6435C33.1051 13.6435 29.4427 14.2277 26.2287 15.2585C29.361 13.8976 33.0477 13.1116 36.9902 13.1114C40.9303 13.1116 44.6155 13.8975 47.7472 15.2582C44.5327 14.2276 40.8706 13.6435 36.9885 13.6435ZM46.142 41.179C43.4369 42.459 40.3141 43.19 36.9923 43.19V43.7523C39.7496 43.7523 42.3729 43.2607 44.7451 42.3761C44.3006 42.6092 43.8444 42.8225 43.3778 43.0155C40.327 44.2777 36.9699 44.6079 33.731 43.9645C32.1586 43.6521 30.6481 43.117 29.243 42.3821C31.6133 43.2652 34.2342 43.7559 36.9887 43.7559V43.1939C33.6342 43.1939 30.4846 42.4496 27.7631 41.1482C30.5532 42.1176 33.6853 42.6618 36.9921 42.6618C40.2699 42.6618 43.3735 42.1292 46.142 41.179ZM46.1506 14.0433C43.3772 13.0884 40.2688 12.5529 36.9885 12.5529C33.7101 12.5529 30.6038 13.0875 27.8326 14.0409C30.5387 12.7595 33.6637 12.0276 36.9887 12.0276C40.3156 12.0276 43.4428 12.7604 46.1506 14.0433ZM36.9848 11.4654C34.2269 11.4654 31.6025 11.9575 29.2296 12.843C31.6152 11.5926 34.2767 10.9332 36.9883 10.9332C39.705 10.9362 42.3528 11.5997 44.7167 12.8345C42.3496 11.9544 39.7334 11.4654 36.9848 11.4654Z" fill="#E9E9E9"/>
<path fill-rule="evenodd" clip-rule="evenodd" d="M250.872 34.2873C250.587 34.2866 250.305 34.2106 250.052 34.0654L249.983 34.0277L236.847 22.1499V34.2259H235.402V22.8958C235.4 22.5578 235.478 22.2251 235.626 21.9301C235.777 21.6352 235.993 21.3881 236.256 21.2131C236.517 21.0381 236.817 20.941 237.123 20.9314C237.43 20.9219 237.732 21.0001 238.003 21.1586L238.066 21.1963L251.206 33.074V20.9839H252.658V32.3139C252.658 32.6511 252.58 32.9831 252.429 33.2767C252.28 33.5705 252.063 33.8163 251.802 33.9898C251.523 34.1811 251.202 34.284 250.872 34.2873ZM229.201 29.0791V34.2873H230.657V22.9082C230.655 22.3833 230.467 21.8803 230.133 21.5096C229.798 21.1389 229.348 20.9307 228.875 20.9307H215.181C214.708 20.9307 214.257 21.1389 213.923 21.5096C213.589 21.8803 213.401 22.3833 213.401 22.9082V34.2873H214.851V22.5413H229.201V27.4636H216.263V29.0791H229.201ZM98.0665 34.2873V28.416H84.0361C83.5641 28.416 83.1116 28.2074 82.7779 27.8358C82.4442 27.4644 82.2566 26.9605 82.2566 26.4353V20.9307H83.7067V26.8018H98.0665V20.9307H99.5123V34.2873H98.0665ZM110.255 34.2254C108.665 34.2254 107.139 33.5253 106.014 32.2786C104.89 31.0319 104.258 29.341 104.258 27.5782C104.258 25.8151 104.89 24.1244 106.014 22.8777C107.139 21.631 108.665 20.9307 110.255 20.9307L121.509 20.9876V22.5973L110.26 22.5403C109.053 22.5403 107.896 23.0716 107.043 24.0173C106.189 24.9629 105.71 26.2455 105.71 27.5829C105.71 28.9203 106.189 30.2027 107.043 31.1485C107.896 32.0942 109.053 32.6255 110.26 32.6255L121.513 32.6776V34.2873L110.255 34.2254ZM108.715 28.4423V26.8326L121.509 26.8849V28.4899L108.715 28.4423ZM133.755 34.1317C133.976 34.2345 134.213 34.2875 134.453 34.2873C134.694 34.2877 134.933 34.2349 135.155 34.132C135.378 34.0292 135.579 33.8782 135.747 33.6884L135.795 33.627L142.652 21.7938L141.426 20.9307L134.453 32.962L127.485 20.9307L126.259 21.789L133.116 33.627L133.168 33.6884C133.334 33.878 133.534 34.0288 133.755 34.1317ZM153.392 34.2302C151.802 34.2302 150.277 33.5296 149.153 32.2825C148.029 31.0356 147.397 29.344 147.397 27.5805C147.397 25.8168 148.029 24.1255 149.153 22.8783C150.277 21.6313 151.802 20.9307 153.392 20.9307L164.644 20.9829V22.5931L153.4 22.5409C152.792 22.5201 152.185 22.6352 151.618 22.8793C151.05 23.1233 150.532 23.4915 150.095 23.9615C149.658 24.4318 149.31 24.9947 149.073 25.6167C148.836 26.2388 148.713 26.9073 148.713 27.5829C148.713 28.2583 148.836 28.927 149.073 29.5489C149.31 30.1711 149.658 30.7338 150.095 31.2041C150.532 31.6743 151.05 32.0423 151.618 32.2864C152.185 32.5305 152.792 32.6455 153.4 32.6248L164.653 32.6819V34.2873L153.392 34.2302ZM151.851 28.4451V26.8347L164.64 26.8871V28.4972L151.851 28.4451ZM173.845 33.7078C174.178 34.0777 174.63 34.286 175.101 34.2873H186.158V32.7077H174.776V28.439H183.27C184.169 28.4354 185.031 28.0362 185.665 27.3293C186.299 26.6223 186.655 25.6654 186.654 24.6681V24.5971C186.654 23.6246 186.305 22.6921 185.685 22.0045C185.065 21.317 184.224 20.9307 183.347 20.9307H171.178C170.706 20.9319 170.254 21.1402 169.921 21.51C169.587 21.8797 169.399 22.3809 169.398 22.9038V34.2873H170.849V22.5244H183.347C183.839 22.5244 184.311 22.7412 184.66 23.1273C185.008 23.5132 185.203 24.0369 185.203 24.5828V24.6539C185.205 24.9368 185.155 25.2171 185.059 25.4788C184.962 25.7406 184.82 25.9786 184.641 26.1794C184.461 26.3804 184.248 26.54 184.012 26.6492C183.777 26.7587 183.524 26.8155 183.27 26.8168H175.101C174.63 26.8168 174.178 27.0243 173.845 27.3933C173.513 27.7626 173.325 28.2632 173.325 28.7852V32.3142C173.325 32.8366 173.512 33.3379 173.845 33.7078ZM193.186 34.2873C192.712 34.2873 192.258 34.0785 191.923 33.7067C191.587 33.3349 191.399 32.8308 191.399 32.3049V20.9307H192.856V32.672H208.656V34.2873H193.186ZM257.403 25.0021V34.2873L268.676 34.2825C270.263 34.2825 271.784 33.5792 272.905 32.3271C274.027 31.0752 274.659 29.3772 274.659 27.6066C274.659 25.836 274.027 24.138 272.905 22.886C271.784 21.634 270.263 20.9307 268.676 20.9307H257.403V22.5472H268.68C269.883 22.5472 271.037 23.0807 271.889 24.0305C272.739 24.9801 273.218 26.2684 273.218 27.6113C273.218 28.9545 272.739 30.2426 271.889 31.1922C271.037 32.142 269.883 32.6754 268.68 32.6754H258.851V25.0021H257.403Z" fill="#E9E9E9"/>
<path d="M250.052 34.0655L250.104 33.972V33.9712L250.052 34.0655ZM250.872 34.2874V34.3951H250.874L250.872 34.2874ZM249.983 34.0278L249.91 34.1075L249.921 34.1159L249.931 34.122L249.983 34.0278ZM236.847 22.1501L236.921 22.0702L236.739 21.9072V22.1501H236.847ZM236.847 34.226V34.3337H236.955V34.226H236.847ZM235.402 34.226H235.294V34.3337H235.402V34.226ZM235.402 22.896H235.51V22.8954L235.402 22.896ZM238.066 21.1965L238.139 21.1166L238.131 21.1092L238.122 21.1036L238.066 21.1965ZM251.206 33.0741L251.135 33.154L251.314 33.3169V33.0741H251.206ZM251.206 20.984V20.8763H251.098V20.984H251.206ZM252.658 20.984H252.766V20.8763H252.658V20.984ZM252.658 32.3141H252.55V32.3145L252.658 32.3141ZM251.802 33.9899L251.741 33.9003V33.9012L251.802 33.9899ZM229.201 34.2874H229.093V34.3951H229.201V34.2874ZM229.201 29.0792H229.309V28.9715H229.201V29.0792ZM230.657 34.2874V34.3951H230.765V34.2874H230.657ZM213.401 34.2874H213.293V34.3951H213.401V34.2874ZM214.851 34.2874V34.3951H214.958V34.2874H214.851ZM214.851 22.5414V22.4337H214.743V22.5414H214.851ZM229.201 22.5414H229.309V22.4337H229.201V22.5414ZM229.201 27.4637V27.5714H229.309V27.4637H229.201ZM216.263 27.4637V27.356H216.155V27.4637H216.263ZM216.263 29.0792H216.155V29.1869H216.263V29.0792ZM98.0665 28.4161H98.1743V28.3084H98.0665V28.4161ZM98.0665 34.2874H97.9586V34.3951H98.0665V34.2874ZM82.2565 20.9308V20.8231H82.1487V20.9308H82.2565ZM83.7067 20.9308H83.8145V20.8231H83.7067V20.9308ZM83.7067 26.8019H83.5988V26.9096H83.7067V26.8019ZM98.0665 26.8019V26.9096H98.1743V26.8019H98.0665ZM98.0665 20.9308V20.8231H97.9586V20.9308H98.0665ZM99.5123 20.9308H99.6201V20.8231H99.5123V20.9308ZM99.5123 34.2874V34.3951H99.6201V34.2874H99.5123ZM110.255 34.2256L110.256 34.1179H110.255V34.2256ZM110.255 20.9308L110.256 20.8231H110.255V20.9308ZM121.509 20.9878H121.617V20.8806L121.51 20.8801L121.509 20.9878ZM121.509 22.5974L121.509 22.7051L121.617 22.7057V22.5974H121.509ZM110.26 22.5405L110.26 22.4327H110.26V22.5405ZM110.26 32.6256L110.26 32.5179H110.26V32.6256ZM121.513 32.6777H121.621V32.5707L121.514 32.57L121.513 32.6777ZM121.513 34.2874L121.513 34.3951L121.621 34.3958V34.2874H121.513ZM108.715 26.8327L108.716 26.725L108.608 26.7246V26.8327H108.715ZM108.715 28.4424H108.608V28.5497L108.715 28.5501L108.715 28.4424ZM121.509 26.8851H121.617V26.7778L121.51 26.7773L121.509 26.8851ZM121.509 28.49L121.509 28.5977L121.617 28.5979V28.49H121.509ZM135.747 33.6885L135.828 33.7598L135.831 33.757L135.833 33.754L135.747 33.6885ZM135.795 33.6271L135.88 33.6926L135.884 33.6872L135.888 33.681L135.795 33.6271ZM142.652 21.7939L142.745 21.8479L142.794 21.7626L142.714 21.7059L142.652 21.7939ZM141.426 20.9308L141.488 20.8428L141.392 20.7749L141.333 20.8768L141.426 20.9308ZM134.453 32.9621L134.36 33.0162L134.453 33.1771L134.546 33.0162L134.453 32.9621ZM127.484 20.9308L127.578 20.8769L127.519 20.7751L127.423 20.8426L127.484 20.9308ZM126.259 21.7892L126.197 21.701L126.116 21.7577L126.165 21.8431L126.259 21.7892ZM133.116 33.6271L133.022 33.681L133.027 33.6892L133.033 33.6963L133.116 33.6271ZM133.167 33.6885L133.085 33.7577L133.086 33.7596L133.167 33.6885ZM153.392 34.2303L153.392 34.1226H153.392V34.2303ZM153.392 20.9308L153.392 20.8231H153.392V20.9308ZM164.644 20.9831H164.752V20.8758L164.645 20.8753L164.644 20.9831ZM164.644 22.5933L164.644 22.701L164.752 22.7015V22.5933H164.644ZM153.4 22.541L153.397 22.6487L153.398 22.6487L153.4 22.6487L153.4 22.541ZM153.4 32.6249L153.401 32.5172H153.399H153.397L153.4 32.6249ZM164.653 32.682H164.761V32.5748L164.653 32.5743L164.653 32.682ZM164.653 34.2874L164.652 34.3951L164.761 34.3958V34.2874H164.653ZM151.851 26.8349L151.852 26.7271L151.743 26.7267V26.8349H151.851ZM151.851 28.4452H151.743V28.5523L151.851 28.5529L151.851 28.4452ZM164.64 26.8872H164.748V26.7799L164.64 26.7795L164.64 26.8872ZM164.64 28.4973L164.64 28.605L164.748 28.6055V28.4973H164.64ZM186.157 34.2874V34.3951H186.265V34.2874H186.157ZM186.157 32.7079H186.265V32.6002H186.157V32.7079ZM174.776 32.7079H174.668V32.8156H174.776V32.7079ZM174.776 28.4392V28.3314H174.668V28.4392H174.776ZM183.269 28.4392V28.5469H183.27L183.269 28.4392ZM169.398 22.9039L169.29 22.9037V22.9039H169.398ZM169.398 34.2874H169.29V34.3951H169.398V34.2874ZM170.849 34.2874V34.3951H170.956V34.2874H170.849ZM170.849 22.5245V22.4168H170.741V22.5245H170.849ZM185.203 24.6541H185.096V24.6545L185.203 24.6541ZM183.269 26.817V26.9247H183.27L183.269 26.817ZM191.399 20.9308V20.8231H191.291V20.9308H191.399ZM192.855 20.9308H192.963V20.8231H192.855V20.9308ZM192.855 32.6721H192.748V32.7798H192.855V32.6721ZM208.656 32.6721H208.764V32.5644H208.656V32.6721ZM208.656 34.2874V34.3951H208.764V34.2874H208.656ZM257.403 34.2874H257.295V34.3951H257.403V34.2874ZM257.403 25.0022V24.8945H257.295V25.0022H257.403ZM257.403 20.9308V20.8231H257.295V20.9308H257.403ZM257.403 22.5473H257.295V22.6551H257.403V22.5473ZM258.85 32.6756H258.743V32.7833H258.85V32.6756ZM258.85 25.0022H258.958V24.8945H258.85V25.0022ZM249.998 34.159C250.268 34.3133 250.568 34.3945 250.872 34.3951L250.874 34.1797C250.607 34.1791 250.343 34.1082 250.104 33.972L249.998 34.159ZM249.931 34.122L249.998 34.1599L250.104 33.9712L250.035 33.9335L249.931 34.122ZM236.776 22.2299L249.91 34.1075L250.054 33.9479L236.921 22.0702L236.776 22.2299ZM236.955 34.226V22.1501H236.739V34.226H236.955ZM235.402 34.3337H236.847V34.1183H235.402V34.3337ZM235.294 22.896V34.226H235.51V22.896H235.294ZM235.532 21.8816C235.374 22.1921 235.292 22.5418 235.294 22.8965L235.51 22.8954C235.508 22.5741 235.581 22.2583 235.723 21.979L235.532 21.8816ZM236.196 21.1237C235.918 21.3095 235.689 21.571 235.532 21.8816L235.723 21.979C235.866 21.6997 236.069 21.467 236.314 21.3028L236.196 21.1237ZM237.119 20.8239C236.791 20.8341 236.474 20.9378 236.196 21.1237L236.314 21.3028C236.56 21.1386 236.841 21.0482 237.126 21.0393L237.119 20.8239ZM238.057 21.0659C237.77 20.8975 237.447 20.8137 237.119 20.8239L237.126 21.0393C237.412 21.0303 237.695 21.1032 237.947 21.2516L238.057 21.0659ZM238.122 21.1036L238.057 21.0659L237.947 21.2516L238.012 21.2893L238.122 21.1036ZM251.28 32.9942L238.139 21.1166L237.995 21.2763L251.135 33.154L251.28 32.9942ZM251.098 20.984V33.0741H251.314V20.984H251.098ZM252.658 20.8763H251.206V21.0918H252.658V20.8763ZM252.766 32.3141V20.984H252.55V32.3141H252.766ZM252.526 33.326C252.684 33.0164 252.766 32.6676 252.766 32.3137L252.55 32.3145C252.55 32.6351 252.477 32.9498 252.334 33.2279L252.526 33.326ZM251.862 34.0797C252.14 33.8955 252.369 33.6353 252.526 33.326L252.334 33.2279C252.192 33.5061 251.987 33.7374 251.741 33.9003L251.862 34.0797ZM250.874 34.3951C251.223 34.3917 251.566 34.2818 251.862 34.0789L251.741 33.9012C251.478 34.0808 251.178 34.1767 250.872 34.1797L250.874 34.3951ZM229.309 34.2874V29.0792H229.093V34.2874H229.309ZM230.657 34.1797H229.201V34.3951H230.657V34.1797ZM230.549 22.9083V34.2874H230.765V22.9083H230.549ZM230.053 21.5817C230.368 21.9316 230.547 22.4086 230.549 22.9086L230.765 22.9083C230.762 22.3584 230.566 21.8293 230.212 21.4377L230.053 21.5817ZM228.875 21.0385C229.315 21.0385 229.738 21.2322 230.053 21.5817L230.212 21.4377C229.861 21.0458 229.38 20.8231 228.875 20.8231V21.0385ZM215.181 21.0385H228.875V20.8231H215.181V21.0385ZM214.003 21.5817C214.318 21.2322 214.743 21.0385 215.181 21.0385V20.8231C214.676 20.8231 214.197 21.0458 213.843 21.4377L214.003 21.5817ZM213.509 22.9086C213.509 22.4086 213.688 21.9316 214.003 21.5817L213.843 21.4377C213.489 21.8293 213.293 22.3582 213.293 22.9081L213.509 22.9086ZM213.509 34.2874V22.9083L213.293 22.9081V34.2874H213.509ZM214.851 34.1797H213.401V34.3951H214.851V34.1797ZM214.743 22.5414V34.2874H214.958V22.5414H214.743ZM229.201 22.4337H214.851V22.6491H229.201V22.4337ZM229.309 27.4637V22.5414H229.093V27.4637H229.309ZM216.263 27.5714H229.201V27.356H216.263V27.5714ZM216.371 29.0792V27.4637H216.155V29.0792H216.371ZM229.201 28.9715H216.263V29.1869H229.201V28.9715ZM97.9586 28.4161V34.2874H98.1743V28.4161H97.9586ZM84.036 28.5238H98.0665V28.3084H84.036V28.5238ZM82.6976 27.9079C83.0503 28.3006 83.5315 28.5238 84.036 28.5238V28.3084C83.5967 28.3084 83.1728 28.1143 82.8581 27.764L82.6976 27.9079ZM82.1487 26.4355C82.1487 26.9857 82.3452 27.5156 82.6976 27.9079L82.8581 27.764C82.5432 27.4135 82.3644 26.9357 82.3644 26.4355H82.1487ZM82.1487 20.9308V26.4355H82.3644V20.9308H82.1487ZM83.7067 20.8231H82.2565V21.0385H83.7067V20.8231ZM83.8145 26.8019V20.9308H83.5988V26.8019H83.8145ZM98.0665 26.6942H83.7067V26.9096H98.0665V26.6942ZM97.9586 20.9308V26.8019H98.1743V20.9308H97.9586ZM99.5123 20.8231H98.0665V21.0385H99.5123V20.8231ZM99.6201 34.2874V20.9308H99.4044V34.2874H99.6201ZM98.0665 34.3951H99.5123V34.1797H98.0665V34.3951ZM105.934 32.3507C107.078 33.6187 108.632 34.3333 110.255 34.3333V34.1179C108.697 34.1179 107.2 33.4319 106.094 32.2066L105.934 32.3507ZM104.15 27.5783C104.15 29.3664 104.791 31.0833 105.934 32.3507L106.094 32.2066C104.989 30.9808 104.365 29.3162 104.365 27.5783H104.15ZM105.934 22.8057C104.791 24.0733 104.15 25.79 104.15 27.5783H104.365C104.365 25.8404 104.989 24.1756 106.094 22.9499L105.934 22.8057ZM110.255 20.8231C108.632 20.8231 107.078 21.5378 105.934 22.8057L106.094 22.9499C107.2 21.7245 108.697 21.0385 110.255 21.0385V20.8231ZM121.51 20.8801L110.256 20.8231L110.255 21.0385L121.509 21.0955L121.51 20.8801ZM121.617 22.5974V20.9878H121.401V22.5974H121.617ZM110.259 22.6482L121.509 22.7051L121.51 22.4897L110.26 22.4327L110.259 22.6482ZM107.123 24.0894C107.957 23.165 109.085 22.6482 110.26 22.6482V22.4327C109.02 22.4327 107.835 22.9784 106.962 23.9453L107.123 24.0894ZM105.818 27.583C105.818 26.2709 106.288 25.0143 107.123 24.0894L106.962 23.9453C106.09 24.9117 105.602 26.2205 105.602 27.583H105.818ZM107.123 31.0764C106.288 30.1518 105.818 28.8952 105.818 27.583H105.602C105.602 28.9454 106.09 30.2542 106.962 31.2208L107.123 31.0764ZM110.26 32.5179C109.085 32.5179 107.957 32.0011 107.123 31.0764L106.962 31.2208C107.835 32.1876 109.02 32.7333 110.26 32.7333V32.5179ZM121.514 32.57L110.26 32.5179L110.259 32.7333L121.513 32.7854L121.514 32.57ZM121.621 34.2874V32.6777H121.405V34.2874H121.621ZM110.255 34.3333L121.513 34.3951L121.514 34.1797L110.256 34.1179L110.255 34.3333ZM108.608 26.8327V28.4424H108.823V26.8327H108.608ZM121.51 26.7773L108.716 26.725L108.715 26.9404L121.509 26.9928L121.51 26.7773ZM121.617 28.49V26.8851H121.401V28.49H121.617ZM108.715 28.5501L121.509 28.5977L121.509 28.3823L108.716 28.3347L108.715 28.5501ZM134.453 34.1797C134.229 34.1799 134.007 34.1306 133.801 34.0343L133.709 34.2295C133.944 34.3389 134.197 34.3953 134.453 34.3951V34.1797ZM135.11 34.0345C134.902 34.1308 134.678 34.1801 134.453 34.1797V34.3951C134.71 34.3956 134.964 34.3393 135.201 34.2299L135.11 34.0345ZM135.667 33.617C135.508 33.7962 135.318 33.938 135.11 34.0345L135.201 34.2299C135.437 34.1205 135.65 33.9604 135.828 33.7598L135.667 33.617ZM135.709 33.5614L135.662 33.6228L135.833 33.754L135.88 33.6926L135.709 33.5614ZM142.558 21.7399L135.701 33.5733L135.888 33.681L142.745 21.8479L142.558 21.7399ZM141.364 21.0188L142.59 21.8819L142.714 21.7059L141.488 20.8428L141.364 21.0188ZM134.546 33.0162L141.519 20.9848L141.333 20.8768L134.36 32.9082L134.546 33.0162ZM127.391 20.9848L134.36 33.0162L134.546 32.9082L127.578 20.8769L127.391 20.9848ZM126.321 21.8774L127.546 21.019L127.423 20.8426L126.197 21.701L126.321 21.8774ZM133.209 33.5733L126.352 21.7352L126.165 21.8431L133.022 33.681L133.209 33.5733ZM133.25 33.6194L133.199 33.558L133.033 33.6963L133.085 33.7577L133.25 33.6194ZM133.801 34.0343C133.594 33.9378 133.406 33.7962 133.248 33.6174L133.086 33.7596C133.263 33.96 133.474 34.12 133.709 34.2295L133.801 34.0343ZM149.073 32.3548C150.216 33.623 151.769 34.338 153.392 34.338V34.1226C151.834 34.1226 150.338 33.4365 149.233 32.2107L149.073 32.3548ZM147.289 27.5807C147.289 29.3694 147.93 31.0868 149.073 32.3548L149.233 32.2107C148.128 30.9845 147.505 29.3192 147.505 27.5807H147.289ZM149.073 22.8064C147.93 24.0744 147.289 25.7918 147.289 27.5807H147.505C147.505 25.8422 148.128 24.1767 149.233 22.9506L149.073 22.8064ZM153.392 20.8231C151.769 20.8231 150.216 21.5381 149.073 22.8064L149.233 22.9506C150.338 21.7247 151.834 21.0385 153.392 21.0385V20.8231ZM164.645 20.8753L153.392 20.8231L153.391 21.0385L164.644 21.0908L164.645 20.8753ZM164.752 22.5933V20.9831H164.536V22.5933H164.752ZM153.4 22.6487L164.644 22.701L164.645 22.4855L153.401 22.4333L153.4 22.6487ZM151.66 22.9784C152.214 22.7405 152.804 22.6285 153.397 22.6487L153.404 22.4334C152.779 22.4121 152.157 22.5302 151.575 22.7805L151.66 22.9784ZM150.174 24.0351C150.601 23.5754 151.107 23.2163 151.66 22.9784L151.575 22.7805C150.993 23.0307 150.463 23.4078 150.016 23.8884L150.174 24.0351ZM149.174 25.6552C149.406 25.0457 149.747 24.4949 150.174 24.0351L150.016 23.8884C149.569 24.3693 149.214 24.944 148.972 25.5785L149.174 25.6552ZM148.821 27.583C148.821 26.9204 148.941 26.2648 149.174 25.6552L148.972 25.5785C148.73 26.2131 148.606 26.8945 148.606 27.583H148.821ZM149.174 29.5107C148.941 28.901 148.821 28.2455 148.821 27.583H148.606C148.606 28.2713 148.73 28.953 148.972 29.5874L149.174 29.5107ZM150.174 31.1309C149.747 30.6712 149.406 30.1204 149.174 29.5107L148.972 29.5874C149.214 30.2218 149.569 30.7968 150.016 31.2774L150.174 31.1309ZM151.66 32.1876C151.107 31.9498 150.601 31.5907 150.174 31.1309L150.016 31.2774C150.463 31.7583 150.993 32.1353 151.575 32.3854L151.66 32.1876ZM153.397 32.5172C152.804 32.5375 152.214 32.4255 151.66 32.1876L151.575 32.3854C152.157 32.6357 152.779 32.754 153.404 32.7327L153.397 32.5172ZM164.653 32.5743L153.401 32.5172L153.4 32.7327L164.652 32.7898L164.653 32.5743ZM164.761 34.2874V32.682H164.545V34.2874H164.761ZM153.391 34.338L164.652 34.3951L164.653 34.1797L153.392 34.1226L153.391 34.338ZM151.743 26.8349V28.4452H151.959V26.8349H151.743ZM164.64 26.7795L151.852 26.7271L151.851 26.9426L164.64 26.9949L164.64 26.7795ZM164.748 28.4973V26.8872H164.532V28.4973H164.748ZM151.851 28.5529L164.64 28.605L164.64 28.3896L151.852 28.3375L151.851 28.5529ZM175.101 34.1797C174.662 34.1786 174.239 33.9845 173.925 33.6357L173.765 33.7799C174.117 34.1709 174.597 34.3938 175.101 34.3951L175.101 34.1797ZM186.157 34.1797H175.101L175.101 34.3951H186.157V34.1797ZM186.05 32.7079V34.2874H186.265V32.7079H186.05ZM174.776 32.8156H186.157V32.6002H174.776V32.8156ZM174.668 28.4392V32.7079H174.884V28.4392H174.668ZM183.269 28.3314H174.776V28.5469H183.269V28.3314ZM185.585 27.2575C184.969 27.9432 184.136 28.3278 183.269 28.3314L183.27 28.5469C184.202 28.543 185.092 28.1294 185.745 27.4012L185.585 27.2575ZM186.546 24.6683C186.547 25.6403 186.2 26.5714 185.585 27.2575L185.745 27.4012C186.398 26.6735 186.763 25.6905 186.762 24.6683H186.546ZM186.546 24.5972V24.6683H186.762V24.5972H186.546ZM185.605 22.0768C186.206 22.7435 186.546 23.65 186.546 24.5972H186.762C186.762 23.5998 186.404 22.641 185.765 21.9326L185.605 22.0768ZM183.346 21.0385C184.191 21.0385 185.004 21.4104 185.605 22.0768L185.765 21.9326C185.126 21.2238 184.256 20.8231 183.346 20.8231V21.0385ZM171.178 21.0385H183.346V20.8231H171.178V21.0385ZM170.001 21.5822C170.315 21.2336 170.739 21.0397 171.178 21.0385L171.178 20.8231C170.674 20.8244 170.193 21.0471 169.841 21.438L170.001 21.5822ZM169.506 22.9042C169.507 22.4063 169.686 21.9312 170.001 21.5822L169.841 21.438C169.488 21.8286 169.291 22.3557 169.29 22.9037L169.506 22.9042ZM169.506 34.2874V22.9039H169.29V34.2874H169.506ZM170.849 34.1797H169.398V34.3951H170.849V34.1797ZM170.741 22.5245V34.2874H170.956V22.5245H170.741ZM183.346 22.4168H170.849V22.6322H183.346V22.4168ZM184.74 23.0553C184.372 22.6481 183.871 22.4168 183.346 22.4168V22.6322C183.807 22.6322 184.25 22.8347 184.579 23.1995L184.74 23.0553ZM185.311 24.583C185.311 24.0119 185.107 23.4623 184.74 23.0553L184.579 23.1995C184.909 23.5646 185.096 24.0623 185.096 24.583H185.311ZM185.311 24.6541V24.583H185.096V24.6541H185.311ZM185.16 25.5162C185.261 25.2422 185.312 24.9492 185.311 24.6536L185.096 24.6545C185.097 24.9247 185.05 25.1922 184.958 25.4417L185.16 25.5162ZM184.721 26.2513C184.91 26.0401 185.059 25.7902 185.16 25.5162L184.958 25.4417C184.866 25.6911 184.73 25.9176 184.56 26.1078L184.721 26.2513ZM184.058 26.7472C184.307 26.6313 184.532 26.4626 184.721 26.2513L184.56 26.1078C184.39 26.2982 184.188 26.4488 183.967 26.5518L184.058 26.7472ZM183.27 26.9247C183.541 26.9234 183.809 26.8629 184.058 26.7472L183.967 26.5518C183.745 26.6548 183.508 26.7082 183.269 26.7093L183.27 26.9247ZM175.101 26.9247H183.269V26.7093H175.101V26.9247ZM173.926 27.4656C174.239 27.1177 174.663 26.9247 175.101 26.9247V26.7093C174.598 26.7093 174.117 26.9312 173.765 27.3215L173.926 27.4656ZM173.433 28.7854C173.433 28.2886 173.611 27.814 173.926 27.4656L173.765 27.3215C173.413 27.7114 173.217 28.2382 173.217 28.7854H173.433ZM173.433 32.3143V28.7854H173.217V32.3143H173.433ZM173.925 33.6357C173.611 33.2867 173.433 32.8117 173.433 32.3143H173.217C173.217 32.8619 173.413 33.3891 173.765 33.7799L173.925 33.6357ZM191.842 33.7788C192.197 34.1719 192.68 34.3951 193.186 34.3951V34.1797C192.745 34.1797 192.319 33.9852 192.003 33.6347L191.842 33.7788ZM191.291 32.305C191.291 32.8559 191.488 33.3863 191.842 33.7788L192.003 33.6347C191.686 33.2839 191.507 32.8057 191.507 32.305H191.291ZM191.291 20.9308V32.305H191.507V20.9308H191.291ZM192.855 20.8231H191.399V21.0385H192.855V20.8231ZM192.963 32.6721V20.9308H192.748V32.6721H192.963ZM208.656 32.5644H192.855V32.7798H208.656V32.5644ZM208.764 34.2874V32.6721H208.548V34.2874H208.764ZM193.186 34.3951H208.656V34.1797H193.186V34.3951ZM257.511 34.2874V25.0022H257.295V34.2874H257.511ZM268.675 34.175L257.403 34.1797V34.3951L268.675 34.3904V34.175ZM272.825 32.2555C271.723 33.4862 270.228 34.175 268.675 34.175V34.3904C270.295 34.3904 271.846 33.6724 272.987 32.3992L272.825 32.2555ZM274.551 27.6067C274.551 29.3524 273.928 31.0243 272.825 32.2555L272.987 32.3992C274.126 31.1262 274.767 29.4023 274.767 27.6067H274.551ZM272.825 22.958C273.928 24.1892 274.551 25.8611 274.551 27.6067H274.767C274.767 25.8111 274.126 24.0873 272.987 22.8143L272.825 22.958ZM268.675 21.0385C270.228 21.0385 271.723 21.7273 272.825 22.958L272.987 22.8143C271.846 21.5411 270.295 20.8231 268.675 20.8231V21.0385ZM257.403 21.0385H268.675V20.8231H257.403V21.0385ZM257.511 22.5473V20.9308H257.295V22.5473H257.511ZM268.68 22.4396H257.403V22.6551H268.68V22.4396ZM271.969 23.9587C271.1 22.9878 269.916 22.4396 268.68 22.4396V22.6551C269.851 22.6551 270.977 23.174 271.807 24.1024L271.969 23.9587ZM273.326 27.6115C273.326 26.2435 272.838 24.9294 271.969 23.9587L271.807 24.1024C272.64 25.0313 273.11 26.2933 273.11 27.6115H273.326ZM271.969 31.2643C272.838 30.2936 273.326 28.9795 273.326 27.6115H273.11C273.11 28.9297 272.64 30.1917 271.807 31.1206L271.969 31.2643ZM268.68 32.7833C269.916 32.7833 271.1 32.2352 271.969 31.2643L271.807 31.1206C270.977 32.0489 269.851 32.5679 268.68 32.5679V32.7833ZM258.85 32.7833H268.68V32.5679H258.85V32.7833ZM258.743 25.0022V32.6756H258.958V25.0022H258.743ZM257.403 25.1099H258.85V24.8945H257.403V25.1099Z" fill="#E9E9E9"/>
</svg>
