<svg width="36" height="28" viewBox="0 0 36 28" fill="none" xmlns="http://www.w3.org/2000/svg">
<g clip-path="url(#clip0_549_202)">
<path d="M22.6397 0.213963C22.8845 0.336367 23.2007 0.570976 23.3435 0.754583C23.5475 1.00959 25.2816 4.52872 28.0255 10.2511C28.4437 11.1386 29.1883 12.6686 30.7286 15.8613C31.1366 16.6978 31.7588 17.983 32.1056 18.7174C32.4525 19.4416 33.0951 20.7779 33.5337 21.6755C35.5942 25.9189 35.6554 26.0617 35.6554 26.4697C35.6554 26.9899 35.4004 27.4999 34.9821 27.7549C34.6659 27.9488 34.4823 27.9488 29.5556 27.9284L24.4554 27.8978L23.8026 27.6019C23.4455 27.4285 22.7315 26.9797 22.2215 26.5921C21.7115 26.2045 20.7934 25.5109 20.1712 25.0416C19.5592 24.5826 18.4066 23.7054 17.6211 23.1036C16.8357 22.5018 15.3668 21.3899 14.357 20.6249C13.3472 19.8701 12.4597 19.207 12.3985 19.1458C12.2965 19.0744 11.9293 19.7579 10.9195 21.8387C10.1749 23.379 9.24663 25.2763 8.84882 26.0617C7.83898 28.0712 8.15519 27.9488 4.20765 27.9488C1.25975 27.9488 1.07614 27.9386 0.759928 27.7447C0.321312 27.4795 -0.0153 26.7451 0.0867036 26.2861C0.117305 26.1127 1.25975 23.6748 2.60619 20.8697C4.44226 17.0752 5.15628 15.6879 5.42149 15.4329C6.06412 14.8107 6.35993 14.7801 10.7563 14.8107C14.561 14.8413 14.6732 14.8515 15.0404 15.0657C15.2444 15.1881 16.5501 16.1061 17.9271 17.1058C19.3144 18.1054 21.4361 19.6355 22.6499 20.5127C23.874 21.4001 24.8736 22.1039 24.894 22.0835C24.945 22.0427 24.3942 20.8901 21.7523 15.4533C21.2321 14.3823 20.6404 13.148 20.4262 12.6992C20.212 12.2504 19.6102 10.9855 19.0798 9.89411C18.5596 8.80267 18.0801 7.79283 18.0189 7.65003C17.9169 7.41542 17.8455 7.50722 17.1111 8.97607C16.6827 9.84311 16.2237 10.6693 16.1013 10.7917C15.6525 11.2916 15.4179 11.3222 12.1639 11.3222C9.18543 11.3222 9.12423 11.3222 8.78761 11.0875C8.3184 10.7815 8.06339 10.2613 8.11439 9.7411C8.14499 9.51669 8.5122 8.61906 8.93042 7.75203C9.34863 6.885 10.2463 5.01833 10.9297 3.62088C11.6029 2.21323 12.2761 0.927989 12.4087 0.754583C12.5515 0.581177 12.8576 0.336367 13.1024 0.213963C13.5308 0.00995542 13.6532 -0.000244006 17.8659 -0.000244006C22.0685 -0.000244006 22.2113 0.00995542 22.6397 0.213963Z" fill="white"/>
</g>
<defs>
<clipPath id="clip0_549_202">
<rect width="35.7268" height="28" fill="white"/>
</clipPath>
</defs>
</svg>
