<svg width="28" height="28" viewBox="0 0 28 28" fill="none" xmlns="http://www.w3.org/2000/svg">
<g clip-path="url(#clip0_549_227)">
<path d="M22.5653 16.5586C22.8048 15.7703 22.9353 14.9348 22.9353 14.0695C22.9353 13.9734 22.9317 13.879 22.9281 13.7828C19.4914 11.7937 16.9 7.53205 15.8152 5.50959C15.229 5.39082 14.6214 5.32959 13.9995 5.32959C13.3775 5.32959 12.811 5.38908 12.2427 5.49913C11.7584 6.3941 10.9774 7.73133 9.95159 9.11749C8.76841 10.7169 7.07241 12.6292 5.07087 13.7898C5.06728 13.8825 5.06369 13.9751 5.06369 14.0695C5.06369 14.9366 5.19415 15.7738 5.43538 16.5638C6.92051 15.8805 8.2681 14.8684 9.45292 13.7269C8.60759 15.6829 7.66574 17.5812 6.68461 19.0862C7.21364 19.8238 7.85702 20.4776 8.588 21.023C9.6602 19.4883 10.7433 17.4694 11.8298 14.975C11.4456 17.541 10.888 19.7872 10.0838 21.9285C10.8809 22.3095 11.7458 22.577 12.6555 22.7115C13.231 21.2747 13.6849 19.8466 14.0424 17.9885C14.4015 19.8396 14.8573 21.2643 15.4328 22.6958C16.3389 22.5525 17.1985 22.2764 17.9902 21.8883C17.2128 19.8238 16.6659 17.6598 16.2799 15.169C17.3344 17.5672 18.387 19.5163 19.4271 21.009C20.158 20.4619 20.7996 19.8047 21.3269 19.0653C20.3528 17.5655 19.4181 15.6812 18.5782 13.7391C19.7541 14.8736 21.0891 15.8787 22.5636 16.5586H22.5653Z" fill="white"/>
<path fill-rule="evenodd" clip-rule="evenodd" d="M13.9546 2.37402C7.55893 2.37402 2.37425 7.5587 2.37425 13.9543C2.37425 20.35 7.55893 25.5346 13.9546 25.5346C20.3502 25.5346 25.5349 20.35 25.5349 13.9543C25.5349 7.5587 20.3502 2.37402 13.9546 2.37402ZM0.374252 13.9543C0.374252 6.45413 6.45436 0.374023 13.9546 0.374023C21.4548 0.374023 27.5349 6.45413 27.5349 13.9543C27.5349 21.4545 21.4548 27.5346 13.9546 27.5346C6.45436 27.5346 0.374252 21.4545 0.374252 13.9543Z" fill="white"/>
</g>
<defs>
<clipPath id="clip0_549_227">
<rect width="28" height="28" fill="white"/>
</clipPath>
</defs>
</svg>
