<svg width="272" height="28" viewBox="0 0 272 28" fill="none" xmlns="http://www.w3.org/2000/svg">
<g clip-path="url(#clip0_549_157)">
<path fill-rule="evenodd" clip-rule="evenodd" d="M32.4638 5.03188L29.6232 2.51594L26.7014 0H5.76232L2.84058 2.51594L0 5.03188V27.5942H2.43478C4.86957 27.5942 4.86957 27.513 4.86957 23.1304V18.6667H27.5942V23.1304C27.5942 27.513 27.5942 27.5942 30.029 27.5942H32.4638V5.03188ZM68.1739 5.68117V0H43.3391L40.3362 3.08405C36.6029 6.89856 36.4406 9.49566 39.8493 13.3913L42.3652 16.2319H64.116V21.913H38.9565V27.5942H63.7913L66.7942 24.5101C70.5275 20.6957 70.6899 18.0986 67.2812 14.2029L64.7652 11.3623H43.0145V5.68117H68.1739ZM92.5218 5.68117V0H72.2319V5.68117H92.5218ZM103.884 27.5942V0H99.0145V27.5942H103.884ZM138.783 5.68117V0H114.516L111.594 2.51594C107.78 5.92464 107.617 10.3072 111.107 13.8783L113.461 16.2319H134.725V21.913H109.484L109.728 24.5101L109.971 27.1884L134.887 27.6753L137.646 24.7536C141.38 20.7768 141.38 17.5304 137.728 13.9594L135.049 11.3623H113.623V5.68117H138.783ZM175.386 5.68117L175.142 3.00289L174.899 0.405791L158.91 0.162316L142.841 0V5.59999L156.232 6.08696L156.719 27.5942H161.507V5.68117H175.386ZM209.391 5.68117V0H194.377C182.771 0 179.2 0.243475 178.875 1.05507C178.713 1.62318 178.632 7.71014 178.713 14.6087L178.957 27.1884L194.215 27.4319L209.391 27.5942V21.913H184.232V16.2319H206.957V11.3623H184.232V5.68117H209.391ZM246.725 9.73913C246.725 6.49275 246.319 5.59999 243.641 3.00289L240.557 0H215.884V27.6753L218.562 27.4319C221.078 27.1884 221.159 27.0261 221.565 22.9681L221.971 18.7478L232.035 23.2116C242.586 27.9188 246.157 28.487 246.562 25.5652C246.725 24.2667 245.751 23.4551 241.693 21.5884C236.904 19.3159 236.742 19.1536 239.015 18.829C240.394 18.6667 242.667 17.3681 244.128 15.9884C246.319 13.8783 246.725 12.9043 246.725 9.73913ZM271.073 9.65797C271.073 5.68117 270.748 4.86957 268.394 2.5971L265.716 0H246.4L249.159 2.84057C250.193 3.9044 250.839 4.56981 251.619 4.98602C252.921 5.68117 254.594 5.68117 259.061 5.68117H266.203V13.7971H259.061C252.162 13.7971 251.838 13.8783 249.565 16.2319C248.267 17.5304 247.374 18.829 247.617 18.9913C247.78 19.1536 252.081 21.1826 257.194 23.4551C267.745 28.1623 271.073 28.6493 271.073 25.6464C271.073 24.0232 270.18 23.2116 266.041 21.2638L265.664 21.0815C261.007 18.8289 261.002 18.8269 263.849 18.7478C268.394 18.6667 271.073 15.258 271.073 9.65797ZM91.2232 24.6725C95.1189 20.7768 95.2 17.5304 91.4667 13.9594L88.7884 11.3623H69.4725L71.8261 13.7971C74.0986 16.1507 74.4232 16.2319 81.3217 16.2319H88.4638V21.913H81.7275C75.0725 21.913 74.9102 21.9942 72.2319 24.7536L69.4725 27.5942H88.3015L91.2232 24.6725ZM6.24927 7.14205C5.43768 7.95365 4.86956 9.82033 4.86956 11.2V13.7971H27.5942V11.1189C27.5942 6.49278 25.8899 5.68118 16.0696 5.68118C8.84637 5.68118 7.38551 5.92466 6.24927 7.14205ZM221.565 13.7971H241.043V5.68118H221.565V13.7971Z" fill="white"/>
</g>
<defs>
<clipPath id="clip0_549_157">
<rect width="271.478" height="28" fill="white"/>
</clipPath>
</defs>
</svg>
