<svg width="119" height="28" viewBox="0 0 119 28" fill="none" xmlns="http://www.w3.org/2000/svg">
<path d="M9.41562 4.88413C6.61209 7.56423 3.35013 10.6851 2.16877 11.8312L0 13.9118L6.13602 19.7834C9.50378 23.0101 12.8186 26.1839 13.4887 26.8186L14.7229 28L18.3375 24.4912L21.9521 20.9824L18.3375 17.4559L14.7229 13.9295L18.3023 10.4383C20.2594 8.534 21.864 6.91184 21.864 6.85894C21.864 6.70025 14.8463 -7.59959e-07 14.67 -7.59959e-07C14.5995 -7.59959e-07 12.2368 2.20403 9.41562 4.88413Z" fill="white"/>
<path d="M35.2469 10.3503C31.2267 14.1942 27.9471 17.4032 27.9471 17.4561C27.9471 17.5795 34.9647 24.3327 35.1411 24.3856C35.194 24.4032 36.869 22.834 38.8791 20.912L42.5113 17.4032L43.6045 18.4435C48.5063 23.169 49.7406 24.3327 49.864 24.3327C50.005 24.3327 57.0227 17.6853 57.0932 17.4914C57.1108 17.4032 55.5592 15.8516 53.6549 14.0178C51.733 12.1841 48.4534 9.04554 46.3552 7.03547L42.5466 3.36796L35.2469 10.3503Z" fill="white"/>
<path d="M93.2217 6.94708L89.5718 10.4912L96.7657 17.3501C100.733 21.141 104.065 24.2619 104.171 24.2972C104.348 24.3501 118.841 10.6322 118.841 10.3854C118.841 10.209 111.753 3.52643 111.577 3.52643C111.489 3.52643 110.36 4.53147 109.091 5.76572C107.804 6.99998 106.199 8.56925 105.494 9.23928L104.224 10.4559L100.557 6.92945L96.8892 3.38537L93.2217 6.94708Z" fill="white"/>
<path d="M62.9471 13.9297V23.8037H68.1486H73.3501V18.8667V13.9297H78.5516H83.7532V8.99263V4.0556H73.3501H62.9471V13.9297Z" fill="white"/>
</svg>
