<svg width="252" height="56" viewBox="0 0 252 56" fill="none" xmlns="http://www.w3.org/2000/svg">
<path d="M44.1189 10.8909L44.3873 12.5077C44.5987 14.0118 44.6967 15.5295 44.6806 17.0481C44.6791 20.4036 44.2727 23.7467 43.4701 27.0055C42.3867 31.4348 40.4968 35.6285 37.8944 39.3783C34.8888 43.685 30.543 47.9208 24.2084 51.3244L23.4334 51.7405L22.6585 51.3244C16.3255 47.9208 11.9798 43.685 8.97242 39.3783C6.37146 35.6277 4.48173 31.4343 3.39668 27.0055C2.59498 23.7466 2.18861 20.4035 2.18626 17.0481C2.17241 15.5292 2.27342 14.0115 2.48843 12.5077L2.75682 10.8909C2.79128 10.6299 2.72256 10.3657 2.56517 10.1543C2.40778 9.94277 2.17405 9.8005 1.91334 9.75751C1.65263 9.71453 1.38535 9.77419 1.16797 9.92389C0.950588 10.0736 0.800116 10.3016 0.748342 10.5598L0.479957 12.1766C0.250045 13.7901 0.142504 15.4185 0.158246 17.0481C0.160606 20.5689 0.587274 24.0766 1.42909 27.496C2.57154 32.1654 4.56248 36.5869 7.30343 40.5418C10.4761 45.091 15.0796 49.5642 21.7004 53.1147L22.9571 53.7894C23.1055 53.8695 23.2717 53.9115 23.4405 53.9115C23.6094 53.9115 23.7755 53.8695 23.924 53.7894L25.1806 53.1147C31.7961 49.5624 36.3996 45.0893 39.5776 40.5418C42.3212 36.5888 44.3146 32.1684 45.4591 27.4996C46.3004 24.0801 46.7265 20.5724 46.7281 17.0517C46.745 15.4221 46.638 13.7936 46.4082 12.1801L46.1398 10.5633C46.088 10.3052 45.9376 10.0771 45.7202 9.92743C45.5028 9.77773 45.2355 9.71808 44.9748 9.76106C44.7141 9.80404 44.4804 9.9463 44.323 10.1578C44.1656 10.3693 44.0969 10.6334 44.1313 10.8945L44.1189 10.8909Z" fill="#E9E9E9"/>
<path d="M8.30941 9.78929L23.4351 5.18512L38.8986 9.88846C39.1478 9.94239 39.4082 9.90108 39.6282 9.77271C39.8482 9.64434 40.0118 9.43829 40.0865 9.1954C40.1612 8.95251 40.1416 8.69052 40.0315 8.46137C39.9215 8.23222 39.729 8.05265 39.4923 7.95825L23.732 3.15929C23.5384 3.10087 23.3319 3.10087 23.1383 3.15929L7.71397 7.85023C7.46562 7.9368 7.26053 8.11578 7.14168 8.34966C7.02283 8.58353 6.99944 8.85416 7.07642 9.10483C7.1534 9.35551 7.32476 9.56678 7.5546 9.69437C7.78445 9.82197 8.05494 9.85598 8.30941 9.78929Z" fill="#E9E9E9"/>
<path d="M0.840669 11.1884L22.525 53.3554C22.61 53.5201 22.7386 53.6585 22.8968 53.7555C23.0551 53.8526 23.237 53.9047 23.4228 53.9062C23.6086 53.9076 23.7913 53.8584 23.9511 53.7638C24.1108 53.6692 24.2416 53.5329 24.3291 53.3696L37.5513 28.7285L37.5708 28.6895L46.0366 11.1583C46.1545 10.9159 46.1709 10.6368 46.0822 10.3825C45.9935 10.1281 45.8071 9.91921 45.5638 9.80179C45.3206 9.68438 45.0405 9.66804 44.7852 9.75638C44.5298 9.84472 44.3202 10.0305 44.2023 10.2728L35.7508 27.7917L23.4617 50.7063L2.65185 10.2604C2.52881 10.0211 2.3154 9.84036 2.05858 9.75783C1.80175 9.6753 1.52253 9.69781 1.28235 9.82039C1.04218 9.94297 0.860711 10.1556 0.777879 10.4115C0.695046 10.6673 0.717634 10.9455 0.840669 11.1848V11.1884Z" fill="#E9E9E9"/>
<path d="M11.2208 29.9679H35.3349C35.4721 29.9737 35.609 29.9517 35.7375 29.9033C35.866 29.8549 35.9833 29.7812 36.0824 29.6865C36.1815 29.5918 36.2604 29.4781 36.3142 29.3522C36.3681 29.2264 36.3959 29.091 36.3959 28.9541C36.3959 28.8173 36.3681 28.6819 36.3142 28.5561C36.2604 28.4302 36.1815 28.3165 36.0824 28.2218C35.9833 28.1271 35.866 28.0534 35.7375 28.005C35.609 27.9566 35.4721 27.9346 35.3349 27.9403H11.2208C11.0836 27.9346 10.9466 27.9566 10.8182 28.005C10.6897 28.0534 10.5724 28.1271 10.4733 28.2218C10.3742 28.3165 10.2953 28.4302 10.2414 28.5561C10.1876 28.6819 10.1598 28.8173 10.1598 28.9541C10.1598 29.091 10.1876 29.2264 10.2414 29.3522C10.2953 29.4781 10.3742 29.5918 10.4733 29.6865C10.5724 29.7812 10.6897 29.8549 10.8182 29.9033C10.9466 29.9517 11.0836 29.9737 11.2208 29.9679Z" fill="#E9E9E9"/>
<path d="M95 19.4762H76.6767C76.3604 19.4778 76.0575 19.6037 75.8337 19.8266C75.6098 20.0494 75.4831 20.3513 75.4809 20.6667V35.3333C75.4831 35.6489 75.6098 35.951 75.8336 36.1742C76.0574 36.3973 76.3602 36.5237 76.6767 36.5258H95V39H76.6767C76.1933 39.0022 75.7142 38.9088 75.2671 38.7253C74.8201 38.5418 74.4139 38.2718 74.072 37.9309C73.7302 37.59 73.4594 37.1849 73.2754 36.7391C73.0914 36.2932 72.9978 35.8154 73 35.3333V20.6667C72.9984 20.1847 73.0924 19.7072 73.2765 19.2616C73.4607 18.816 73.7315 18.4111 74.0732 18.0703C74.415 17.7295 74.821 17.4595 75.2678 17.2758C75.7146 17.0921 76.1934 16.9984 76.6767 17H95V19.4762Z" fill="#E9E9E9"/>
<path d="M129 17V19.4847H111.476V26.7463H125.561V29.2517H111.474V36.5257H128.998V39H109V17H129Z" fill="#E9E9E9"/>
<path d="M165 20.6719V27.1282C165.002 27.611 164.909 28.0895 164.726 28.5359C164.542 28.9824 164.272 29.3881 163.932 29.7295C163.591 30.0709 163.186 30.3413 162.741 30.525C162.295 30.7088 161.818 30.8022 161.336 30.8H157.978L164.878 39H161.611L154.741 30.8H146.672C146.49 30.8 146.094 30.7593 145.483 30.6777V39H143V17H161.32C161.801 16.9976 162.279 17.0909 162.725 17.2745C163.17 17.4582 163.575 17.7285 163.916 18.07C164.256 18.4114 164.526 18.8172 164.71 19.2638C164.893 19.7104 164.986 20.189 164.983 20.6719H165ZM146.68 28.2913H161.336C161.489 28.293 161.641 28.264 161.782 28.2062C161.924 28.1483 162.052 28.0627 162.16 27.9544C162.269 27.846 162.354 27.7171 162.412 27.5753C162.469 27.4334 162.498 27.2814 162.497 27.1282V20.6719C162.499 20.5164 162.471 20.3619 162.413 20.2174C162.356 20.0729 162.27 19.9413 162.162 19.8301C162.056 19.7165 161.928 19.6264 161.785 19.5657C161.643 19.505 161.489 19.475 161.334 19.4777H146.678C146.363 19.4798 146.062 19.6064 145.839 19.83C145.616 20.0535 145.49 20.356 145.489 20.6719V27.1282C145.485 27.2834 145.515 27.4375 145.575 27.5805C145.635 27.7234 145.725 27.8519 145.838 27.9575C145.95 28.0665 146.081 28.1521 146.226 28.2095C146.37 28.2668 146.525 28.2946 146.68 28.2913Z" fill="#E9E9E9"/>
<path d="M178 17H200V19.4835H190.265V39H187.78V19.4835H178V17Z" fill="#E9E9E9"/>
<path d="M214 39V17H216V39H214Z" fill="#E9E9E9"/>
<path d="M248.789 17H251.969L242.767 28L252 39H248.789L240.596 29.2526H233.503V39H231V17H233.507V26.7453H240.6L248.789 17Z" fill="#E9E9E9"/>
</svg>
