<svg width="245" height="56" viewBox="0 0 245 56" fill="none" xmlns="http://www.w3.org/2000/svg">
<g clip-path="url(#clip0_23_2245)">
<path fill-rule="evenodd" clip-rule="evenodd" d="M88.0873 28.2908V43.6988H90.8491H93.6109V28.2908V12.8828H90.8491H88.0873V28.2908ZM224.779 24.4583L224.87 36.0338L225.825 37.856C227.633 41.3024 230.521 43.1537 234.402 43.354C236.22 43.4476 237.001 43.3453 238.368 42.8342C241.758 41.5661 244.519 38.1784 244.956 34.7479L245.152 33.21L242.456 33.2943L239.759 33.3784L239.388 34.6375C238.82 36.5635 237.85 37.4455 235.778 37.9185C234.5 38.2107 232.662 37.7537 231.736 36.9138C230.24 35.557 229.971 34.3668 229.964 29.0903L229.957 24.2208H235.492H241.026L240.943 21.5316L240.859 18.8425L235.408 18.7634L229.957 18.6844V15.7836V12.8828H227.323H224.688L224.779 24.4583ZM205.275 18.4468C201.859 19.5283 199.716 21.3206 197.955 24.5679L196.961 26.4012L196.872 34.7593L196.783 43.1174H199.416H202.048V36.0466C202.048 28.078 202.222 27.1032 203.962 25.3118C207.012 22.1715 212.07 22.9265 214.04 26.8166L214.84 28.3952V35.7561V43.1174H217.602H220.363V35.964C220.363 26.4869 219.884 24.5554 216.771 21.4808C215.097 19.8283 213.478 18.9408 210.924 18.2756C208.684 17.6921 207.55 17.7265 205.275 18.4468ZM69.4814 18.5117C60.8983 20.3763 56.896 30.1488 61.6556 37.6205C65.8184 44.1555 75.4766 45.0754 80.9339 39.4561C81.8656 38.4967 83.4358 36.155 83.4358 35.725C83.4358 35.6334 82.095 35.5611 80.456 35.564C77.6351 35.5689 77.4081 35.6154 76.2007 36.4335C73.3078 38.3938 70.5704 38.356 67.8292 36.3175C66.7955 35.5491 65.4114 33.7188 65.4114 33.1208C65.4114 33.0225 69.748 32.9423 75.048 32.9423H84.6847L84.5155 30.3985C84.1033 24.199 80.3644 19.7856 74.4654 18.5352C72.1891 18.0526 71.6071 18.05 69.4814 18.5117ZM107.382 18.5349C103.569 19.3957 100.543 21.7811 98.7967 25.3031C97.1039 28.7167 97.3856 34.1281 99.4206 37.2934C102.295 41.7635 107.397 44.0006 112.353 42.9636C115.859 42.2298 118.462 40.4954 120.375 37.6167C121.701 35.6207 121.64 35.5587 118.351 35.5587C115.553 35.5587 115.432 35.5866 113.987 36.5591C111.463 38.2575 108.652 38.2801 106.185 36.6222C104.825 35.7079 103.495 34.0833 103.495 33.3353C103.495 33.0132 105.204 32.9423 112.983 32.9423H122.47L122.331 30.0584C122.21 27.544 122.071 26.9305 121.244 25.2691C118.685 20.1222 112.868 17.2965 107.382 18.5349ZM178.646 18.2913C175.541 19.0071 173.41 19.9882 171.86 21.4142C169.453 23.6289 167.745 27.4495 167.747 30.6165C167.749 33.9351 169.369 37.7467 171.722 39.9654C174.781 42.8511 180.133 43.9631 184.169 42.5522C187.33 41.4472 190.685 38.5104 191.415 36.2085C191.62 35.5645 191.595 35.5587 188.622 35.564C185.777 35.5689 185.557 35.614 184.342 36.437C180.729 38.8851 176.364 37.9769 174.13 34.3121C173.817 33.7987 173.56 33.2801 173.559 33.1603C173.559 33.0405 177.894 32.9423 183.193 32.9423H192.827L192.674 30.5439C192.319 25.0089 189.376 20.8522 184.528 19.0385C182.985 18.4611 179.712 18.0454 178.646 18.2913ZM133.817 18.9306C130.792 20.01 129.107 21.5758 127.565 24.7403L126.614 26.6919L126.54 34.9046L126.466 43.1174H129.213H131.959L132.045 35.1732L132.131 27.2294L132.906 26.0596C133.753 24.7804 135.768 23.6393 137.18 23.6393C138.359 23.6393 140.05 24.4025 140.92 25.3267C142.367 26.8663 142.451 27.4303 142.451 35.5494V43.1174H145.213H147.975V35.2535C147.975 26.8573 148.023 26.5381 149.478 25.1796C150.369 24.3467 152.084 23.6393 153.21 23.6393C155.198 23.6393 157.557 25.5575 158.137 27.6457C158.306 28.2545 158.438 31.8698 158.439 35.9221L158.441 43.1174H161.057H163.674V35.0459C163.674 27.7797 163.617 26.8204 163.109 25.4302C161.903 22.1296 158.969 19.5213 155.537 18.698C152.391 17.9433 148.196 18.9853 146.058 21.052L145.158 21.9218L144.224 21.0496C141.695 18.687 137.113 17.7541 133.817 18.9306ZM69.0453 24.2682C68.4057 24.5999 67.6365 25.0848 67.3359 25.3456C66.6914 25.9049 65.4114 27.8597 65.4114 28.285C65.4114 28.478 67.7473 28.5815 72.0978 28.5815C75.7754 28.5815 78.7837 28.4833 78.7832 28.3635C78.7811 27.9504 77.5433 26.109 76.8078 25.4252C74.8951 23.6469 71.2815 23.1082 69.0453 24.2682ZM107.129 24.2091C105.702 24.8577 103.894 26.7038 103.629 27.7821L103.432 28.5815H110.005C114.4 28.5815 116.578 28.4804 116.578 28.2763C116.578 27.1152 114.441 24.8214 112.69 24.1019C111.211 23.494 108.591 23.5446 107.129 24.2091ZM176.754 24.5842C175.281 25.4685 173.589 27.3971 173.568 28.2181C173.56 28.4987 175.084 28.5815 180.245 28.5815C183.922 28.5815 186.931 28.469 186.931 28.3315C186.931 27.9277 185.478 25.8651 184.796 25.3011C183.372 24.1225 182.026 23.6393 180.171 23.6393C178.61 23.6393 178.089 23.7832 176.754 24.5842Z" fill="#E9E9E9"/>
<g clip-path="url(#clip1_23_2245)">
<path d="M26.4329 42.0542L26.4951 49.8059L31.2894 47.2018V45.3244V44.6583L26.4329 42.0542Z" fill="#E9E9E9"/>
<path d="M24.7511 41.1422L22.0115 39.6887L13.7928 44.1702L24.7511 49.984L25.0624 50.1656L25.0002 41.2633L24.7511 41.1422Z" fill="#E9E9E9"/>
<path d="M11.4902 22.3694V13.7698L1.03003 19.3413L9.31101 23.5805L11.4902 22.3694Z" fill="#E9E9E9"/>
<path d="M32.6591 22.492L40.4419 26.6707V15.2854L32.6591 19.5246V21.7048V22.492Z" fill="#E9E9E9"/>
<path d="M39.4457 14.1315L34.5892 11.5273L32.6591 12.6174V17.8256V18.0073L39.5703 14.192L39.4457 14.1315Z" fill="#E9E9E9"/>
<path d="M31.9736 37.7503L22.8209 32.8448V38.0531V38.5981L23.07 38.7192L24.3152 39.3853L25.0001 39.7488L25.685 40.1122L26.2454 40.4149L26.37 40.4754L27.4907 41.081L31.2887 43.1401L31.9736 43.5035H32.0358L32.6585 43.1401L44.5507 36.9024V31.1492L31.9736 37.7503Z" fill="#E9E9E9"/>
<path d="M28.051 29.2724L26.8057 29.9386L26.6813 29.9992L26.37 30.1809V30.0597L26.2454 30.1204L25.5605 30.4837L24.7511 30.0597L24.6265 29.9992L24.3152 29.8781H24.1908L22.8832 29.2119H22.8209V29.8781V29.9992V30.5442V31.271L31.9736 36.2369L42.4961 30.6653L43.6168 30.0597L43.7413 29.9992L42.4961 29.333L41.8112 28.9091L41.064 28.5457L40.3792 28.1824L32.6585 24.0037V26.7289L32.0358 27.0923L31.351 27.4556L30.6038 27.819L28.051 29.2724Z" fill="#E9E9E9"/>
<path d="M15.4744 20.2508L21.7008 23.5817L21.763 23.7028L21.8252 23.7634L22.7592 24.2478V25.0352V26.9731V27.0941L22.8216 27.0336V27.6998H22.8837L23.6309 28.0631L24.7516 28.6081V27.4575V26.6702V25.9435V16.0722L12.9216 9.77393V11.4696V21.6437L13.4821 21.3409L15.4744 20.2508Z" fill="#E9E9E9"/>
<path d="M26.121 25.2137V25.9405V26.7278V28.7262L26.3078 28.6657L30.6039 26.3038L31.2889 25.9405V24.0026V23.2153V22.4886V20.3084V18.5521V12.5566L30.6662 12.1933L18.774 5.83447L13.6683 8.62027L26.121 15.2819V25.2137Z" fill="#E9E9E9"/>
<path d="M7.81564 24.3662L0.219604 20.4297V20.4903V26.1224L2.46107 27.273L7.75346 24.4267L7.81564 24.3662Z" fill="#E9E9E9"/>
<path d="M17.1549 26.3636L17.8399 25.9396L18.587 25.5763L20.5172 24.4862L15.4739 21.761L13.4815 22.8511L13.357 22.9116L12.7965 23.275L12.6098 23.3356L12.1117 23.6384L11.9249 23.6989L10.6173 24.4256L10.1815 24.6679L9.8702 24.789L9.4966 25.0313L9.18528 25.2129L8.81179 25.3946L3.89295 28.0592L3.14575 28.4833H3.0835V29.21V41.9882L8.06459 44.7133L8.0023 31.8141V31.39L8.25133 31.2084L9.30985 30.6634L9.99466 30.2394L17.1549 26.3636Z" fill="#E9E9E9"/>
<path d="M20.5791 38.9003L21.015 38.7185L21.264 38.5369H21.3263L21.4507 38.4764V38.0523V37.8102V32.0569V31.3302V30.5428V29.9979V29.8768V29.2106V28.4839V28.4233V27.7571V27.6966V26.9699V25.7586V25.5164L20.081 26.3037L19.3338 26.6671L18.6489 27.091L9.93205 31.8147L9.3717 32.178V32.6019L9.43399 44.9562L9.62074 44.8351L11.4886 43.8661L12.1735 43.4422L12.9207 43.0789L19.7697 39.3847L20.5791 38.9003Z" fill="#E9E9E9"/>
</g>
</g>
<defs>
<clipPath id="clip0_23_2245">
<rect width="245" height="56" fill="white"/>
</clipPath>
<clipPath id="clip1_23_2245">
<rect width="44.7704" height="44.7704" fill="white" transform="translate(0 5.61475)"/>
</clipPath>
</defs>
</svg>
