<svg width="126" height="28" viewBox="0 0 126 28" fill="none" xmlns="http://www.w3.org/2000/svg">
<g clip-path="url(#clip0_549_168)">
<path d="M11.7905 0.0107422H4.11392H3.05176e-05V4.12993V9.48447L4.11392 13.5938V9.48447V4.12993H11.7905H15.9044L11.7905 0.0107422Z" fill="white"/>
<path d="M11.7905 14.3457H4.11392H3.05176e-05V18.4649V23.8194L4.11392 27.9289V23.8194V18.4649H11.7905H15.9044L11.7905 14.3457Z" fill="white"/>
<path d="M44.7989 25.5221C39.2579 25.5221 35.8625 20.9703 35.8625 16.0449C35.8625 11.1196 39.2579 6.56787 44.7989 6.56787C50.3398 6.56787 53.7352 11.1196 53.7352 16.0449C53.7352 20.9703 50.3398 25.5221 44.7989 25.5221ZM44.7989 22.5727C47.8596 22.5727 49.582 19.9085 49.582 16.0548C49.582 12.201 47.8696 9.53684 44.7989 9.53684C41.7281 9.53684 40.0551 12.1617 40.0551 16.0548C40.0551 19.9478 41.7677 22.5727 44.7989 22.5727Z" fill="white"/>
<path d="M64.4623 25.5221C59.0983 25.5221 55.6735 21.0784 55.6735 16.0449C55.6735 11.0115 58.99 6.56787 64.3146 6.56787C68.5859 6.56787 71.7943 8.89782 72.4832 13.2038H68.4679C68.0347 10.8739 66.5389 9.52701 64.3833 9.52701C61.4308 9.52701 59.8561 12.26 59.8561 16.0449C59.8561 19.8299 61.5292 22.5629 64.5606 22.5629C66.6766 22.5629 68.2119 21.1374 68.6056 18.8075H72.6505C71.9616 23.1036 68.7139 25.5121 64.4426 25.5121L64.4623 25.5221Z" fill="white"/>
<path d="M78.6182 15.6513V25.1578H74.6422V0.0200195H78.6182V14.4519" fill="white"/>
<path d="M86.9541 8.50488L81.5314 13.9218L78.618 16.8317L81.5314 19.7417L86.9541 25.1586H92.7804L89.8673 22.2486L84.4445 16.8317L89.8673 11.405L92.7804 8.50488H86.9541Z" fill="white"/>
<path d="M94.6726 25.1575V21.0776H98.9048V25.1575H94.6726Z" fill="white"/>
<path d="M101.555 4.06054V0.0200195H105.787V4.06054H101.555ZM101.664 25.1578V6.94103H105.64V25.1578H101.664Z" fill="white"/>
<path d="M116.948 25.5221C111.407 25.5221 108.012 20.9703 108.012 16.0449C108.012 11.1196 111.407 6.56787 116.948 6.56787C122.489 6.56787 125.884 11.1196 125.884 16.0449C125.884 20.9703 122.489 25.5221 116.948 25.5221ZM116.948 22.5727C120.009 22.5727 121.731 19.9085 121.731 16.0548C121.731 12.201 120.019 9.53684 116.948 9.53684C113.877 9.53684 112.204 12.1617 112.204 16.0548C112.204 19.9478 113.917 22.5727 116.948 22.5727Z" fill="white"/>
<path d="M18.3403 0H22.3011V21.5779H33.4313V25.2185H18.3403V0Z" fill="white"/>
</g>
<defs>
<clipPath id="clip0_549_168">
<rect width="125.884" height="28" fill="white"/>
</clipPath>
</defs>
</svg>
