<svg width="28" height="28" viewBox="0 0 28 28" fill="none" xmlns="http://www.w3.org/2000/svg">
<g clip-path="url(#clip0_549_179)">
<mask id="mask0_549_179" style="mask-type:luminance" maskUnits="userSpaceOnUse" x="0" y="0" width="28" height="28">
<path d="M28 0H0V28H28V0Z" fill="white"/>
</mask>
<g mask="url(#mask0_549_179)">
<path d="M16.5434 6.53076H9.61852C9.16999 6.53076 8.73704 6.70965 8.42074 7.02595L6.87037 8.57632C6.55148 8.8952 6.37518 9.32557 6.37518 9.7741V18.5396C6.37518 18.9881 6.55408 19.4212 6.87037 19.7374L8.42074 21.2878C8.73963 21.6067 9.16999 21.783 9.61852 21.783H18.3841C18.8326 21.783 19.2656 21.6041 19.5819 21.2878L21.1322 19.7374C21.4512 19.4186 21.6274 18.9881 21.6274 18.5396V9.7741C21.6274 9.32557 21.4485 8.89261 21.1322 8.57632L19.5819 7.02595C19.263 6.70706 18.8326 6.53076 18.3841 6.53076H16.5434ZM19.0841 11.6174V18.6796C19.0841 18.9908 18.83 19.2449 18.5188 19.2449H9.47852C9.1674 19.2449 8.91333 18.9908 8.91333 18.6796V9.63928C8.91333 9.32817 9.1674 9.0741 9.47852 9.0741H18.5188C18.83 9.0741 19.0841 9.32817 19.0841 9.63928V11.6174Z" fill="white"/>
<path d="M4.2363 25.4568H4.51889C4.82999 25.4568 5.08408 25.2028 5.08408 24.8917V23.4787C5.08408 23.1676 4.82999 22.9136 4.51889 22.9136H3.10592C2.79481 22.9136 2.54074 23.1676 2.54074 23.4787V23.7614C2.54074 24.6973 3.30037 25.4568 4.2363 25.4568Z" fill="white"/>
<path d="M19.0841 24.8917C19.0841 25.2028 18.83 25.4568 18.5188 25.4568H9.47851C9.16741 25.4568 8.91333 25.2028 8.91333 24.8917V23.4787C8.91333 23.1676 8.65926 22.9136 8.34814 22.9136H6.93518C6.62407 22.9136 6.37 23.1676 6.37 23.4787V24.7543C6.37 25.2028 6.54889 25.6358 6.86518 25.9521L8.41555 27.5024C8.73444 27.8214 9.16482 27.9976 9.61333 27.9976H18.3788C18.8274 27.9976 19.2604 27.8187 19.5766 27.5024L21.127 25.9521C21.4459 25.6332 21.6222 25.2028 21.6222 24.7543V23.4787C21.6222 23.1676 21.3681 22.9136 21.057 22.9136H19.6441C19.3329 22.9136 19.0788 23.1676 19.0788 23.4787V24.8917H19.0841Z" fill="white"/>
<path d="M23.4812 25.4568H23.7637C24.6996 25.4568 25.4593 24.6973 25.4593 23.7614V23.4787C25.4593 23.1676 25.2052 22.9136 24.8941 22.9136H23.4812C23.17 22.9136 22.9159 23.1676 22.9159 23.4787V24.8917C22.9159 25.2028 23.17 25.4568 23.4812 25.4568Z" fill="white"/>
<path d="M23.7637 2.54346H23.4812C23.17 2.54346 22.9159 2.79753 22.9159 3.10865V4.5216C22.9159 4.83272 23.17 5.08679 23.4812 5.08679H24.8941C25.2052 5.08679 25.4593 4.83272 25.4593 4.5216V4.23902C25.4593 3.30309 24.6996 2.54346 23.7637 2.54346Z" fill="white"/>
<path d="M3.10851 5.08386H4.52147C4.83258 5.08386 5.08666 4.82979 5.08666 4.51867V3.10572C5.08666 2.7946 4.83258 2.54053 4.52147 2.54053H4.23888C3.30295 2.54053 2.54332 3.30016 2.54332 4.23609V4.51867C2.54332 4.82979 2.79739 5.08386 3.10851 5.08386Z" fill="white"/>
<path d="M16.5434 0H9.61852C9.16999 0 8.73704 0.178888 8.42074 0.495185L6.87037 2.04556C6.55148 2.36444 6.37518 2.79481 6.37518 3.24334V4.51888C6.37518 4.83 6.62926 5.08407 6.94037 5.08407H8.35333C8.66445 5.08407 8.91852 4.83 8.91852 4.51888V3.10593C8.91852 2.79481 9.17259 2.54074 9.4837 2.54074H18.5241C18.8352 2.54074 19.0893 2.79481 19.0893 3.10593V4.51888C19.0893 4.83 19.3434 5.08407 19.6544 5.08407H21.0674C21.3785 5.08407 21.6326 4.83 21.6326 4.51888V3.24334C21.6326 2.79481 21.4537 2.36185 21.1374 2.04556L19.5871 0.495185C19.2681 0.176296 18.8378 0 18.3893 0H16.5485H16.5434Z" fill="white"/>
<path d="M0.495185 8.41793C0.176296 8.73682 0 9.16719 0 9.61571V18.3813C0 18.8298 0.178888 19.2627 0.495185 19.5791L2.04556 21.1294C2.36444 21.4483 2.79481 21.6246 3.24334 21.6246H4.51888C4.83 21.6246 5.08407 21.3705 5.08407 21.0594V19.6464C5.08407 19.3354 4.83 19.0813 4.51888 19.0813H3.10593C2.79481 19.0813 2.54074 18.8272 2.54074 18.5161V9.47571C2.54074 9.1646 2.79481 8.91052 3.10593 8.91052H4.51888C4.83 8.91052 5.08407 8.65645 5.08407 8.34533V6.93238C5.08407 6.62126 4.83 6.36719 4.51888 6.36719H3.24334C2.79481 6.36719 2.36185 6.54608 2.04556 6.86238L0.495185 8.41275V8.41793Z" fill="white"/>
<path d="M24.7566 6.37256H23.4812C23.17 6.37256 22.9159 6.62663 22.9159 6.93774V8.35071C22.9159 8.66181 23.17 8.91589 23.4812 8.91589H24.8941C25.2052 8.91589 25.4593 9.16996 25.4593 9.48107V18.5214C25.4593 18.8326 25.2052 19.0866 24.8941 19.0866H23.4812C23.17 19.0866 22.9159 19.3407 22.9159 19.6519V21.0648C22.9159 21.3759 23.17 21.63 23.4812 21.63H24.7566C25.2052 21.63 25.6381 21.451 25.9544 21.1348L27.5048 19.5844C27.8237 19.2655 28 18.8351 28 18.3866V9.62107C28 9.17256 27.8212 8.73959 27.5048 8.4233L25.9544 6.87293C25.6356 6.55403 25.2052 6.37774 24.7566 6.37774V6.37256Z" fill="white"/>
</g>
</g>
<defs>
<clipPath id="clip0_549_179">
<rect width="28" height="28" fill="white"/>
</clipPath>
</defs>
</svg>
