<svg width="188" height="56" viewBox="0 0 188 56" fill="none" xmlns="http://www.w3.org/2000/svg">
<g clip-path="url(#clip0_23_2055)">
<mask id="mask0_23_2055" style="mask-type:luminance" maskUnits="userSpaceOnUse" x="0" y="7" width="189" height="43">
<path d="M188.339 7.46423H0V49.4286H188.339V7.46423Z" fill="white"/>
</mask>
<g mask="url(#mask0_23_2055)">
<path d="M82.9975 45.4312C79.6362 45.4312 76.7409 44.6872 74.312 43.1993C71.9161 41.6784 70.0692 39.6449 68.7715 37.0989C67.4736 34.553 66.8247 31.7259 66.8247 28.6179C66.8247 25.5098 67.4903 22.6828 68.8213 20.1368C70.1524 17.5908 72.0326 15.5739 74.4618 14.086C76.9242 12.5651 79.8028 11.8046 83.0971 11.8046C86.6575 11.8046 89.7361 12.6808 92.3312 14.4332C94.9603 16.1525 96.8902 18.3844 98.1218 21.1287H94.0289C93.0303 19.3764 91.6328 17.9876 89.8356 16.9627C88.0716 15.9376 85.926 15.4251 83.3965 15.4251C80.7343 15.4251 78.4385 16.0203 76.5086 17.2106C74.5782 18.3679 73.0974 19.9385 72.0658 21.9223C71.0675 23.9062 70.5684 26.138 70.5684 28.6179C70.5684 31.0646 71.0675 33.2965 72.0658 35.3134C73.0641 37.2973 74.5117 38.8844 76.4083 40.0747C78.3382 41.232 80.6347 41.8106 83.2969 41.8106C85.2932 41.8106 87.1734 41.3807 88.9374 40.521C90.7339 39.6614 92.1819 38.4215 93.28 36.8013C94.4112 35.1812 94.9768 33.2303 94.9768 30.9489H82.8972V27.5763H98.4212V45.0344H94.9768V39.2315C94.2785 40.2896 93.3795 41.298 92.2814 42.2569C91.1833 43.1828 89.8522 43.9432 88.2881 44.5384C86.7579 45.1336 84.9938 45.4312 82.9975 45.4312Z" fill="white"/>
<path d="M114.227 45.4314C111.798 45.4314 109.668 44.8693 107.838 43.7451C106.041 42.5879 104.643 41.0338 103.645 39.083C102.647 37.1322 102.147 34.983 102.147 32.6354C102.147 30.2548 102.647 28.1056 103.645 26.1879C104.643 24.237 106.041 22.6996 107.838 21.5754C109.668 20.4181 111.798 19.8395 114.227 19.8395C116.29 19.8395 118.054 20.2363 119.518 21.0298C121.015 21.8233 122.23 22.8979 123.162 24.2536V20.2363H126.905V45.0346H123.162V41.0669C122.23 42.3894 121.015 43.4475 119.518 44.241C118.054 45.0346 116.29 45.4314 114.227 45.4314ZM114.726 42.0588C116.59 42.0588 118.153 41.629 119.418 40.7693C120.716 39.9096 121.698 38.7689 122.363 37.3471C123.029 35.8923 123.362 34.3217 123.362 32.6354C123.362 30.9161 123.029 29.3455 122.363 27.9237C121.698 26.502 120.716 25.3612 119.418 24.5016C118.153 23.6419 116.59 23.2121 114.726 23.2121C112.896 23.2121 111.315 23.6419 109.984 24.5016C108.653 25.3612 107.638 26.502 106.939 27.9237C106.24 29.3455 105.891 30.9161 105.891 32.6354C105.891 34.3217 106.24 35.8923 106.939 37.3471C107.638 38.7689 108.653 39.9096 109.984 40.7693C111.315 41.629 112.896 42.0588 114.726 42.0588Z" fill="white"/>
<path d="M132.882 45.0345V10.3168H136.625V45.0345H132.882Z" fill="white"/>
<path d="M139.574 45.0343L149.208 32.2383L140.173 20.236H144.965L151.404 29.6097L157.794 20.236H162.585L153.551 32.2383L163.234 45.0343H158.442L151.404 34.9166L144.316 45.0343H139.574Z" fill="white"/>
<path d="M176.209 45.4314C173.679 45.4314 171.467 44.8693 169.57 43.7451C167.673 42.5879 166.193 41.0338 165.128 39.083C164.096 37.1322 163.58 34.983 163.58 32.6354C163.58 30.2548 164.08 28.1056 165.078 26.1879C166.076 24.237 167.507 22.6996 169.37 21.5754C171.234 20.4181 173.431 19.8395 175.959 19.8395C178.521 19.8395 180.718 20.4181 182.548 21.5754C184.411 22.6996 185.843 24.237 186.841 26.1879C187.839 28.1056 188.338 30.2548 188.338 32.6354V34.1233H167.424C167.623 35.5782 168.09 36.9173 168.821 38.1406C169.587 39.331 170.602 40.2899 171.866 41.0173C173.13 41.7116 174.595 42.0588 176.259 42.0588C178.023 42.0588 179.503 41.6786 180.702 40.9181C181.899 40.1246 182.831 39.1161 183.497 37.8927H187.589C186.724 40.108 185.344 41.9266 183.447 43.3483C181.583 44.737 179.171 45.4314 176.209 45.4314ZM167.473 30.6516H184.445C184.112 28.5355 183.214 26.7665 181.749 25.3447C180.285 23.9229 178.355 23.2121 175.959 23.2121C173.563 23.2121 171.633 23.9229 170.169 25.3447C168.738 26.7665 167.84 28.5355 167.473 30.6516Z" fill="white"/>
<path d="M57.7088 14.8162C57.3298 14.0627 56.6775 13.5006 55.8733 13.2338C55.0692 12.9671 54.2078 13.0278 53.4495 13.4044L53.4308 13.4132L-0.000244141 46.7505L56.2867 19.0483C57.045 18.6717 57.6107 18.0235 57.8792 17.2245C58.1477 16.4254 58.0865 15.5697 57.7076 14.8161L57.7088 14.8162Z" fill="white"/>
<path d="M41.8946 14.6668C43.049 14.1382 43.5606 12.7757 43.0339 11.6242C42.5051 10.4688 41.1305 9.95654 39.9666 10.4807L39.9336 10.4949L5.27002 35.0359L41.8946 14.6668Z" fill="white"/>
<path d="M43.9031 35.0412C44.8338 34.5736 45.2109 33.4422 44.7441 32.5139C44.2762 31.5832 43.1329 31.2035 42.1962 31.6696L42.1699 31.6829L19.8816 44.6312L43.903 35.0424L43.9031 35.0412Z" fill="white"/>
</g>
</g>
<defs>
<clipPath id="clip0_23_2055">
<rect width="188" height="56" fill="white"/>
</clipPath>
</defs>
</svg>
