<svg width="228" height="56" viewBox="0 0 228 56" fill="none" xmlns="http://www.w3.org/2000/svg">
<path fill-rule="evenodd" clip-rule="evenodd" d="M46.4655 5.20062C46.3004 5.36584 46.2647 5.75109 46.2647 7.37285V9.34433H44.4371C43.1861 9.34433 42.5611 9.39276 42.4562 9.49766C42.353 9.60078 42.3028 10.1814 42.3028 11.271C42.3028 12.6203 42.3381 12.9201 42.5137 13.0662C42.664 13.1912 43.2333 13.2536 44.4946 13.2832L46.2647 13.3247V15.1762C46.2647 16.2082 46.3232 17.1372 46.397 17.275C46.5186 17.5022 46.6815 17.5221 48.4163 17.5221C49.7136 17.5221 50.3512 17.4742 50.4566 17.3688C50.5624 17.263 50.61 16.6127 50.61 15.2699V13.3244L52.444 13.283C53.7599 13.2532 54.3375 13.192 54.4888 13.0662C54.6632 12.9211 54.6997 12.6269 54.6997 11.3648C54.6997 10.5254 54.6401 9.72741 54.5674 9.59145C54.4456 9.36401 54.2827 9.34433 52.5226 9.34433H50.61V7.37285C50.61 5.75109 50.5743 5.36584 50.4092 5.20062C50.1139 4.90546 46.7608 4.90546 46.4655 5.20062ZM17.4452 10.3834C10.8237 11.2144 4.79246 15.6875 1.9284 21.8916C-3.20543 33.0122 2.44984 46.3264 13.875 50.0178C16.5317 50.8761 16.9002 50.9117 23.7075 50.967C30.4964 51.0221 30.9621 50.9837 32.5641 50.2341C35.7985 48.7208 37.7157 45.7009 37.7157 42.1193C37.7157 38.5731 35.8024 35.5274 32.6537 34.0614C31.0392 33.3097 30.3636 33.2388 24.8152 33.2388C22.0797 33.2388 19.6644 33.2034 19.4477 33.1601C18.9636 33.0632 18.0862 32.3309 17.8046 31.7885C17.6829 31.554 17.5954 31.0812 17.595 30.656C17.5941 29.6997 18.0896 28.8546 18.903 28.4251C19.4624 28.1297 19.4983 28.1277 24.0379 28.1277C29.4917 28.1277 30.2211 28.0532 31.67 27.3476C33.5745 26.4202 34.9451 24.6001 35.1102 22.7791L35.1814 21.9943H27.6179C21.2009 21.9943 19.9051 22.0251 19.0702 22.1976C17.1284 22.5986 15.5063 23.4674 14.1862 24.8132C12.6279 26.4022 11.892 28.0371 11.7888 30.1397C11.7058 31.83 11.889 32.7544 12.5985 34.2265C13.5386 36.1769 15.2883 37.7335 17.4619 38.5532C19.1176 39.1776 19.8394 39.2443 24.937 39.2443C30.0791 39.2443 30.2072 39.26 30.9721 39.9858C32.4914 41.4277 32.0434 43.9983 30.1337 44.7959C29.4534 45.0801 19.2342 45.089 17.6217 44.8069C10.8236 43.6175 5.87904 37.6411 5.87904 30.6136C5.87904 24.0508 10.198 18.3588 16.4715 16.6536L17.7008 16.3195L25.5607 16.2489C33.3141 16.1792 33.4309 16.1743 34.1873 15.8906C36.4303 15.0494 37.7737 13.3121 38.138 10.7818L38.2162 10.2388L28.278 10.2549C22.812 10.2638 17.9372 10.3216 17.4452 10.3834Z" fill="#E9E9E9"/>
<path fill-rule="evenodd" clip-rule="evenodd" d="M74.0617 18.1711C70.3821 18.5428 67.0858 20.4857 64.7337 23.6691C61.4796 28.0735 61.4377 34.7331 64.6358 39.2349C66.4561 41.7973 69.2374 43.7789 72.0168 44.4937C73.3414 44.8344 75.7794 44.9528 77.1982 44.7454C80.9276 44.2002 84.2165 41.8119 85.9179 38.4133C86.7459 36.7594 87.1594 34.7298 87.1607 32.3121L87.1614 30.9385H81.9215H76.6816V32.7913V34.6441H79.8824H83.0834L82.9946 35.1232C82.7001 36.7122 82.0457 37.842 80.6827 39.1146C78.1456 41.4836 74.8446 41.9311 71.6334 40.3414C69.242 39.1576 67.4481 37.2107 66.6537 34.9373C66.0503 33.2107 65.9305 31.5395 66.2703 29.5911C67.0627 25.0478 71.0143 21.7305 75.6219 21.7407C77.0527 21.7439 78.2343 22.0313 79.6211 22.7135C80.676 23.2322 81.0053 23.4818 82.1328 24.6156L83.4302 25.9207L84.7499 24.5967L86.0696 23.2727L85.1139 22.3044C82.583 19.7402 80.1323 18.4994 76.9372 18.1646C75.5927 18.0238 75.5185 18.0239 74.0617 18.1711ZM105.16 18.2844C100.245 19.172 95.8509 23.1736 94.5631 27.9357C94.1337 29.5238 94.0762 32.6044 94.4429 34.3853C94.9367 36.7842 95.9261 38.7379 97.4963 40.4144C101.055 44.2139 105.969 45.6888 110.868 44.4275C115.359 43.271 119.185 39.5455 120.383 35.1613C121.219 32.1063 120.905 28.5349 119.555 25.7431C118.208 22.955 115.828 20.6019 113.029 19.2904C111.269 18.4661 110.284 18.2609 107.865 18.2159C106.706 18.1943 105.488 18.2251 105.16 18.2844ZM215.021 18.346C211.525 18.8892 208.746 20.8508 207.995 23.3055C207.266 25.6852 207.833 28.1542 209.464 29.7099C210.509 30.7063 211.383 31.0858 216.621 32.818C219.043 33.619 221.306 34.4274 221.65 34.6142C223.04 35.3705 223.775 36.4521 223.78 37.7478C223.786 39.3167 222.716 40.3833 220.524 40.9958C219.467 41.2909 216.866 41.3534 215.603 41.1138C213.049 40.6297 211.754 39.3725 211.177 36.8178L210.975 35.9219H208.927H206.88L206.966 36.7205C207.321 39.9989 208.887 42.4673 211.393 43.6987C215.099 45.5196 221.274 45.381 224.653 43.4009C225.694 42.7909 226.77 41.6748 227.24 40.7165C228.561 38.0265 228.073 34.9212 226.028 33.0109C224.726 31.7946 223.425 31.221 217.417 29.2149C213.619 27.9467 212.789 27.5194 212.212 26.5338C211.933 26.0577 211.865 25.7829 211.865 25.1276C211.865 23.6778 212.601 22.7039 214.094 22.1773C215.597 21.647 218.736 21.6874 220.257 22.2565C221.549 22.7399 222.73 24.1387 223.137 25.6677L223.281 26.2107H225.337H227.394L227.312 25.5922C226.924 22.6685 225.42 20.4269 223.107 19.324C220.943 18.2927 217.806 17.9132 215.021 18.346ZM127.675 31.5681V44.483H129.72H131.765V39.5096V34.5364L136.27 34.4856C140.403 34.4391 140.859 34.412 141.797 34.1571C145.58 33.1291 147.356 30.7122 147.356 26.5941C147.356 22.3444 145.472 19.927 141.414 18.9703C140.663 18.7932 139.486 18.7508 134.097 18.7062L127.675 18.6531V31.5681ZM154.386 31.5774V44.483H163.332H172.278V42.6941V40.9052H165.377H158.475V29.7885V18.6719H156.43H154.386V31.5774ZM178.826 27.8399C178.868 36.8385 178.874 37.0269 179.151 38.0302C179.306 38.5924 179.673 39.5412 179.965 40.1385C180.694 41.6288 182.139 43.0917 183.55 43.7674C186.17 45.0228 189.858 45.3211 193.088 44.5388C194.343 44.2351 196.123 43.3304 196.981 42.5611C198.666 41.0505 199.593 39.0226 199.89 36.1964C199.954 35.5886 200.008 31.397 200.009 26.8816L200.011 18.6719H197.907H195.802L195.766 27.776L195.73 36.8802L195.435 37.7107C194.851 39.3528 193.943 40.2912 192.373 40.8753C191.219 41.3044 188.531 41.4243 187.18 41.1072C185.469 40.7053 184.383 39.92 183.715 38.6026C182.951 37.096 182.966 37.2929 182.917 27.5844L182.871 18.6719H180.827H178.783L178.826 27.8399ZM105.739 21.8781C102.718 22.3829 99.8044 24.8152 98.6569 27.7899C98.1631 29.0699 97.9746 30.4213 98.0612 32.0593C98.1498 33.7339 98.3778 34.6355 99.0696 36.0481C99.5083 36.9438 99.814 37.3448 100.826 38.3507C102.198 39.7154 103.2 40.3597 104.734 40.8651C105.611 41.1537 105.984 41.2027 107.354 41.2087C109.227 41.217 110.109 41.0241 111.636 40.2733C113.517 39.3483 115.053 37.8205 115.973 35.9589C116.737 34.4142 116.877 33.703 116.868 31.3857C116.862 29.5441 116.828 29.2442 116.534 28.3616C116.059 26.9409 115.373 25.801 114.337 24.7095C112.871 23.1659 111.412 22.3304 109.5 21.9398C108.45 21.7251 106.815 21.6983 105.739 21.8781ZM131.765 26.5938V30.9573L135.886 30.9127C139.768 30.8708 140.048 30.852 140.696 30.5898C141.886 30.108 142.315 29.7457 142.737 28.8672C143.719 26.8204 143.226 24.1669 141.669 23.1293C140.578 22.4017 140.11 22.3345 135.758 22.2802L131.765 22.2303V26.5938Z" fill="#E9E9E9"/>
</svg>
