<svg width="209" height="28" viewBox="0 0 209 28" fill="none" xmlns="http://www.w3.org/2000/svg">
<g clip-path="url(#clip0_549_193)">
<path d="M0 5.79654L6.95342 10.4995H0V27.9984H6.95342V10.4995V0H0V5.79654Z" fill="white"/>
<path d="M46.9355 6.99946C47.9134 6.99946 48.6737 7.76515 48.6737 8.74946V12.796L55.6271 17.4989V6.99946C55.6271 3.1718 52.4766 0 48.6737 0H7.06192L17.4922 6.99946H47.044H46.9355Z" fill="white"/>
<path d="M26.0753 21.0004C25.0974 21.0004 24.3368 20.2348 24.3368 19.2504V15.2039L17.3834 10.501V21.0004C17.3834 24.8281 20.5342 27.9999 24.3368 27.9999H65.9486L55.5186 21.0004H25.9665H26.0753Z" fill="white"/>
<path d="M76.3786 21H69.4252V27.9995H76.3786V21Z" fill="white"/>
<path d="M125.053 6.99946V10.4995H132.006V8.74946C132.006 7.76515 132.767 6.99946 133.744 6.99946H163.296V0H132.006C128.203 0 125.053 3.1718 125.053 6.99946Z" fill="white"/>
<path d="M125.053 19.2504C125.053 24.0627 128.964 27.9999 133.744 27.9999H163.296V21.0004H133.744C132.767 21.0004 132.006 20.2348 132.006 19.2504C132.006 18.2661 132.767 17.5004 133.744 17.5004H163.296V10.501H133.744C128.964 10.501 125.053 14.4382 125.053 19.2504Z" fill="white"/>
<path d="M114.623 0H86.8089C83.0063 0 79.8555 3.1718 79.8555 6.99946V27.9984H86.8089V8.74946C86.8089 7.76515 87.5695 6.99946 88.5473 6.99946H112.884C113.862 6.99946 114.623 7.76515 114.623 8.74946V27.9984H121.576V6.99946C121.576 3.1718 118.425 0 114.623 0Z" fill="white"/>
<path d="M191.001 0V6.99946C191.001 3.1718 187.85 0 184.048 0H166.664V6.99946H182.309C183.287 6.99946 184.048 7.76515 184.048 8.74946V27.9984H191.001V6.99946H208.385V0H191.001Z" fill="white"/>
</g>
<defs>
<clipPath id="clip0_549_193">
<rect width="208.385" height="28" fill="white"/>
</clipPath>
</defs>
</svg>
