<svg width="198" height="56" viewBox="0 0 198 56" fill="none" xmlns="http://www.w3.org/2000/svg">
<path fill-rule="evenodd" clip-rule="evenodd" d="M58.5 27.9074V39.1429H60.2127H61.9253V35.2916V31.4407L63.9345 29.6284C65.04 28.6314 66.1082 28.0012 66.3088 28.2279C66.5094 28.4546 68.3763 30.9073 70.4579 33.6785C72.539 36.4498 74.5326 38.8283 74.8878 38.9641C75.2431 39.1004 76.2208 39.1414 77.0615 39.055L78.5892 38.8986L73.6826 32.6551C70.9839 29.221 68.776 26.2124 68.776 25.9691C68.776 25.7253 70.978 23.6087 73.6694 21.2644C76.3607 18.9206 78.5627 16.9285 78.5627 16.8376C78.5627 16.7463 77.5801 16.672 76.3793 16.672C74.2874 16.672 73.9424 16.8996 68.183 22.0811L62.17 27.4903L62.0315 22.0811L61.893 16.672H60.1965H58.5V27.9074ZM85.4134 27.8967V39.1429H94.7108H104.008V37.9343V36.7258L96.5458 36.591L89.0834 36.4561L88.9406 32.6703L88.7977 28.8844H95.6689H102.54V27.6632V26.442H95.6895H88.8388V23.0352V19.6284L96.3011 19.4936L103.764 19.3587V18.1375V16.9163L94.5885 16.7834L85.4134 16.6505V27.8967ZM111.838 27.9074V39.1429H113.795H115.752L115.794 35.1128L115.835 31.0827L117.788 29.4047C118.988 28.3744 119.869 27.9255 120.072 28.2426C120.253 28.5259 122.163 31.091 124.316 33.9419L128.23 39.1258L130.37 39.1346C132.009 39.1409 132.398 39.0002 132.034 38.5323C131.773 38.1967 129.434 35.2334 126.836 31.9478L122.113 25.974L124.193 24.0698C125.337 23.0225 127.652 20.9845 129.337 19.541L132.401 16.9163L130.187 16.7673C127.991 16.6192 127.923 16.6627 121.985 22.0049L115.997 27.3916L115.858 22.0318L115.72 16.672H113.779H111.838V27.9074ZM138.751 27.9074V39.1429H140.464H142.176V35.3385V31.534L144.36 29.7115L146.544 27.8894L148.424 30.2644C149.459 31.5712 151.381 34.1031 152.696 35.8914C155.026 39.0584 155.144 39.1429 157.271 39.1429C159.306 39.1429 159.404 39.0847 158.716 38.288C158.31 37.8176 155.939 34.8231 153.448 31.6332L148.917 25.8333L150.178 24.7942C150.872 24.2227 153.19 22.2164 155.329 20.3357L159.218 16.9163L157.045 16.7668C154.903 16.6197 154.784 16.6959 148.975 21.896C145.731 24.7991 142.875 27.248 142.627 27.3374C142.37 27.4307 142.176 25.1797 142.176 22.086V16.672H140.464H138.751V27.9074ZM172.842 17.0384C172.435 17.7154 163.218 38.7047 163.218 38.9548C163.218 39.0906 164.038 39.1336 165.041 39.0501C166.782 38.9055 166.922 38.7579 168.187 35.7234L169.511 32.5482H174.526H179.54L180.831 35.7234C182.075 38.7853 182.188 38.904 183.99 39.054C185.618 39.1898 185.816 39.0955 185.538 38.3212C185.362 37.8327 183.305 32.7621 180.966 27.0526L176.716 16.672H174.889C173.884 16.672 172.963 16.8371 172.842 17.0384ZM192.578 27.9074V39.1429H194.291H196.003V27.9074V16.672H194.291H192.578V27.9074ZM173.799 22.0811C173.416 23.002 172.545 25.1294 171.864 26.8083L170.626 29.8614H174.559C178.098 29.8614 178.461 29.7759 178.177 29.0066C176.39 24.1612 175.207 21.2351 174.884 20.8599C174.668 20.6078 174.186 21.1501 173.799 22.0811Z" fill="#E9E9E9"/>
<path fill-rule="evenodd" clip-rule="evenodd" d="M11.0882 8.80295C5.51543 12.3367 0.740992 15.425 0.477933 15.6655C0.11508 15.9972 0.00152127 18.9283 0.00572715 27.8245C0.00916833 34.2718 0.138021 39.7434 0.292492 39.9839C0.446962 40.2247 5.37778 43.4447 11.25 47.1396L21.9264 53.8578L23.1029 53.1555C27.8265 50.3352 43.4517 40.3297 43.6781 39.9804C43.8325 39.7419 43.9587 34.308 43.9587 27.905C43.9587 21.5021 43.8325 16.0793 43.6781 15.8544C43.1581 15.0979 22.542 2.33087 21.8778 2.35416C21.5161 2.36714 16.661 5.26881 11.0882 8.80295ZM14.139 9.14419C11.2955 10.9603 7.53234 13.3574 5.77658 14.4716L2.58432 16.4965L6.16696 18.6805C8.13761 19.8817 9.94499 20.9868 10.1836 21.1356C10.457 21.3066 11.3956 20.1035 12.7232 17.8805C17.5672 9.77094 19.8403 5.76883 19.5826 5.80433C19.4319 5.82494 16.9822 7.32807 14.139 9.14419ZM24.5142 6.56582C24.8399 7.0708 26.9528 10.6076 29.2095 14.425L33.3129 21.3654L37.1123 19.0744C39.2019 17.8141 40.9118 16.6419 40.9118 16.4694C40.9118 16.2003 25.4028 6.23336 24.3138 5.80242C24.0985 5.7173 24.1888 6.06083 24.5142 6.56582ZM16.6323 14.0353C14.3191 18.1221 12.379 21.67 12.3209 21.9192C12.2632 22.1685 14.1558 23.5285 16.5268 24.9415L20.8382 27.5111L20.9445 22.1502C21.003 19.2019 21.003 14.4979 20.9445 11.697L20.8382 6.60475L16.6323 14.0353ZM22.5588 16.8133C22.5588 22.4693 22.688 27.176 22.8456 27.2729C23.3044 27.5546 31.7383 22.4174 31.6366 21.9181C31.4734 21.12 23.143 6.54559 22.8456 6.53757C22.688 6.53337 22.5588 11.1573 22.5588 16.8133ZM3.11196 18.5637C3.22399 18.7679 7.2582 25.6339 12.077 33.8214L20.8382 48.7076L20.9445 43.689L21.0512 38.6701L15.9147 30.9021C10.9311 23.3651 10.7001 23.0857 8.16132 21.5166C6.72176 20.6268 4.95108 19.5149 4.22614 19.0458C3.50158 18.5763 2.99993 18.3595 3.11196 18.5637ZM36.4145 21.1524L32.8735 23.5155L27.7233 31.3403L22.573 39.1651L22.5657 44.1135C22.56 48.3415 22.6357 48.9805 23.0876 48.503C23.756 47.7972 40.5294 19.3439 40.5294 18.9168C40.5294 18.5038 39.746 18.9294 36.4145 21.1524ZM33.1443 34.5283C28.3465 42.8947 24.4752 49.7863 24.5413 49.8428C24.6728 49.9554 41.2257 39.577 41.7502 39.0533C41.9273 38.8766 42.0263 34.3634 41.9701 29.0242L41.8676 19.3168L33.1443 34.5283ZM2.00046 29.4017L2.10293 39.0911L10.7059 44.5249C15.4375 47.5136 19.3616 49.9111 19.4258 49.8527C19.5898 49.7034 3.07526 20.9681 2.42831 20.2779C1.97561 19.7951 1.91329 21.1276 2.00046 29.4017ZM17.0093 30.0475C18.8618 32.753 20.5243 35.1298 20.7036 35.3291C20.8864 35.5325 21.029 34.3584 21.0286 32.6572L21.0283 29.6227L17.7025 27.5233C15.8734 26.3687 14.2113 25.3576 14.0086 25.2763C13.8064 25.195 15.1568 27.342 17.0093 30.0475ZM26.1912 27.4703L22.75 29.6628L22.6383 32.6007C22.5768 34.2168 22.6728 35.539 22.8509 35.539C23.0291 35.539 24.7654 33.2202 26.7089 30.3861C28.652 27.552 30.1049 25.2431 29.9375 25.2553C29.7696 25.2675 28.0838 26.2641 26.1912 27.4703Z" fill="#E9E9E9"/>
</svg>
