<svg width="265" height="56" viewBox="0 0 265 56" fill="none" xmlns="http://www.w3.org/2000/svg">
<g clip-path="url(#clip0_23_2136)">
<path d="M3.95772 6.19012H27.8732L11.9295 40.0704H-0.0281982L3.95772 6.19012Z" fill="#E9E9E9"/>
<path d="M43.8169 50.0352H19.9014L35.845 16.1549H47.8028L43.8169 50.0352Z" fill="#8C8C8C"/>
<path d="M220.194 16.1549H228.744L236.137 31.068V16.1549H241.12V40.0704H236.137V35.088H232.569L225.176 20.1751V40.0704H220.194V16.1549Z" fill="#E9E9E9"/>
<path d="M187.31 16.1549H167.38V20.1408H174.854V40.0704H179.836V20.1408H187.31V16.1549Z" fill="#E9E9E9"/>
<path d="M265.035 16.1549H252.081V20.1408H247.099V40.0704H265.035V36.0845H252.081V30.1056H263.042V26.1197H252.081V20.1408H265.035V16.1549Z" fill="#E9E9E9"/>
<path d="M115.563 16.1549H102.609V20.1408H97.6267V40.0704H115.563V36.0845H102.609V30.1056H113.57V26.1197H102.609V20.1408H115.563V16.1549Z" fill="#E9E9E9"/>
<path d="M76.7007 27.1164L86.086 16.1549H92.6451L82.4845 28.022L93.6413 40.0704H86.8508L76.7007 29.1091V40.0704H71.7183V16.1549H76.7007V27.1164Z" fill="#E9E9E9"/>
<path d="M119.548 16.1549L128.019 29.6071V40.0704H133.002V29.6074L141.473 16.1549H135.585L130.511 24.2132L125.436 16.1549H119.548Z" fill="#E9E9E9"/>
<path opacity="0.9" d="M162.896 16.9023C162.896 16.9023 159.408 15.6567 154.426 15.6567C147.451 15.6567 144.959 18.397 144.959 22.632C144.959 26.3688 146.952 28.86 152.433 30.1056C156.917 31.1248 158.412 31.3512 158.412 33.3442C158.412 35.3371 156.668 35.8354 153.43 35.8354C149.693 35.8354 144.959 33.8424 144.959 33.8424V38.8248C146.371 39.406 149.942 40.5686 154.426 40.5686C159.658 40.5686 163.893 39.0739 163.893 33.5933C163.893 28.3618 160.886 26.9463 154.924 25.6215C150.44 24.625 149.942 23.3794 149.942 22.632C149.942 20.9287 151.187 19.8917 154.426 19.8917C156.419 19.8917 159.252 20.5 162.896 21.3864V16.9023Z" fill="#E9E9E9"/>
<path fill-rule="evenodd" clip-rule="evenodd" d="M202.755 40.5686C210.408 40.5686 214.713 35.088 214.713 28.1127C214.713 21.1373 210.408 15.6567 202.755 15.6567C195.102 15.6567 190.797 21.1373 190.797 28.1127C190.797 35.088 195.102 40.5686 202.755 40.5686ZM202.755 36.0845C207.219 36.0845 209.73 32.5769 209.73 28.1127C209.73 23.6484 207.219 20.1408 202.755 20.1408C198.291 20.1408 195.78 23.6484 195.78 28.1127C195.78 32.5769 198.291 36.0845 202.755 36.0845Z" fill="#E9E9E9"/>
</g>
<defs>
<clipPath id="clip0_23_2136">
<rect width="265" height="56" fill="white"/>
</clipPath>
</defs>
</svg>
