<svg width="184" height="56" viewBox="0 0 184 56" fill="none" xmlns="http://www.w3.org/2000/svg">
<path d="M144.368 27.7893C144.368 26.7129 144.368 25.6365 144.368 24.7139C144.368 23.7913 144.216 22.8687 144.065 22.0999C143.914 21.331 143.611 20.5622 143.308 19.7934C143.006 19.0245 142.401 18.4095 141.795 17.7944C140.888 16.8718 139.98 16.2567 138.769 15.6416C137.559 15.1803 136.348 14.8728 134.987 14.8728C133.625 14.8728 132.414 15.0266 131.204 15.6416C130.145 16.1029 129.086 16.8718 128.178 17.6406C127.573 18.2557 127.119 18.8708 126.665 19.6396C126.362 20.4084 126.06 21.1773 125.908 21.9461C125.757 22.8687 125.606 23.7913 125.606 24.5602C125.606 25.4828 125.606 26.5591 125.606 27.6355C125.606 28.7119 125.606 29.7883 125.606 30.7109C125.606 31.6335 125.757 32.5561 125.908 33.3249C126.06 34.0937 126.362 34.8626 126.665 35.6314C126.967 36.4003 127.573 37.0153 128.178 37.6304C129.086 38.553 129.994 39.1681 131.204 39.6294C132.414 40.0907 133.776 40.3982 134.987 40.3982C136.348 40.3982 137.559 40.2445 138.769 39.6294C139.828 39.1681 140.888 38.3992 141.795 37.6304C142.401 37.0153 142.855 36.4003 143.308 35.6314C143.611 34.8626 143.914 34.0937 144.065 33.3249C144.216 32.4023 144.368 31.4797 144.368 30.7109C144.368 29.942 144.519 28.8657 144.368 27.7893ZM139.526 27.7893C139.526 29.0194 139.526 30.0958 139.526 30.8646C139.526 31.4797 139.375 32.2485 139.375 32.8636C139.375 33.3249 139.223 33.7862 138.921 34.0937C138.769 34.4013 138.618 34.7088 138.315 35.0164C138.013 35.4777 137.559 35.7852 136.954 35.939C136.348 36.2465 135.743 36.2465 135.138 36.2465C134.533 36.2465 133.928 36.0927 133.322 35.939C132.868 35.7852 132.263 35.3239 131.961 35.0164C131.658 34.7088 131.507 34.4013 131.355 34.0937C131.204 33.6324 131.053 33.3249 131.053 32.8636C130.901 32.2485 130.901 31.4797 130.901 30.8646C130.901 30.0958 130.901 29.0194 130.901 27.7893C130.901 26.5591 130.901 25.4828 130.901 24.7139C130.901 24.0989 131.053 23.33 131.053 22.715C131.053 22.2536 131.204 21.7923 131.355 21.4848C131.507 21.1773 131.658 20.8697 131.961 20.5622C132.263 20.1009 132.868 19.7934 133.322 19.6396C133.928 19.3321 134.533 19.3321 135.138 19.3321C135.743 19.3321 136.348 19.4858 136.954 19.6396C137.408 19.7934 137.861 20.2547 138.315 20.5622C138.618 20.8697 138.769 21.1773 138.921 21.4848C139.072 21.9461 139.223 22.2536 139.375 22.715C139.526 23.33 139.526 24.0989 139.526 24.7139C139.526 25.6365 139.526 26.5591 139.526 27.7893Z" fill="#E9E9E9"/>
<path d="M183.404 15.4879C183.404 15.1804 183.253 15.0266 182.95 15.0266H179.016C178.714 15.0266 178.562 15.1804 178.562 15.4879V30.7109L168.728 15.1804C168.728 15.0266 168.576 15.0266 168.425 15.0266H164.642C164.34 15.0266 164.188 15.1804 164.188 15.4879V40.0907C164.188 40.3983 164.34 40.552 164.642 40.552H168.728C169.03 40.552 169.182 40.3983 169.182 40.0907V24.8677L179.016 40.3983C179.016 40.552 179.168 40.552 179.319 40.552H183.102C183.404 40.552 183.556 40.3983 183.556 40.0907L183.404 15.4879Z" fill="#E9E9E9"/>
<path d="M156.321 15.4879C156.321 15.1804 156.169 15.0266 155.867 15.0266H151.782C151.479 15.0266 151.328 15.1804 151.328 15.4879V40.0907C151.328 40.3983 151.479 40.552 151.782 40.552H155.867C156.169 40.552 156.321 40.3983 156.321 40.0907V15.4879Z" fill="#E9E9E9"/>
<path d="M108.054 27.7892C108.054 26.5591 108.054 25.4827 108.054 24.7139C108.054 24.0988 108.205 23.33 108.205 22.7149C108.508 20.5622 110.172 19.1782 112.291 19.1782C113.652 19.1782 114.863 19.6396 115.771 20.8697C116.073 21.4848 116.376 22.0998 116.527 22.7149C116.527 22.7149 116.527 22.8687 116.679 22.8687H121.52C121.52 22.8687 121.672 22.8687 121.672 22.7149C121.218 19.7933 119.553 17.0255 116.83 15.6416C115.468 15.0265 113.955 14.719 112.442 14.719C109.718 14.719 107.449 15.6416 105.633 17.4868C104.574 18.5632 103.818 19.7933 103.515 21.331C103.212 22.7149 103.061 24.8676 103.061 27.6355C103.061 30.4033 103.212 32.556 103.515 33.9399C103.818 35.3238 104.574 36.7078 105.482 37.7841C107.298 39.6293 109.567 40.5519 112.291 40.5519C113.804 40.5519 115.317 40.2444 116.679 39.6293C119.402 38.2454 121.066 35.6314 121.52 32.556C121.52 32.556 121.52 32.4023 121.369 32.4023H116.679C116.679 32.4023 116.527 32.4023 116.527 32.556C116.376 33.1711 116.073 33.7862 115.771 34.4012C115.014 35.6314 113.652 36.0927 112.291 36.0927C110.172 36.0927 108.508 34.8625 108.205 32.556C108.054 31.941 108.054 31.1721 108.054 30.5571C108.054 30.0957 108.054 29.0194 108.054 27.7892Z" fill="#E9E9E9"/>
<path d="M57.8209 15.4879C57.8209 15.1804 57.6696 15.0266 57.367 15.0266H53.433C53.1304 15.0266 52.9791 15.1804 52.9791 15.4879V40.0907C52.9791 40.3983 53.1304 40.552 53.433 40.552H57.5183C57.8209 40.552 57.9722 40.3983 57.9722 40.0907V32.8636L61.1496 28.8657L67.807 40.3983C67.807 40.552 67.9584 40.552 68.1097 40.552H72.9514C73.1027 40.552 73.254 40.3983 73.1027 40.2445L64.327 25.1753L72.3462 15.4879C72.4975 15.3341 72.4975 15.0266 72.1949 15.0266H66.8992C66.8992 15.0266 66.7479 15.0266 66.7479 15.1804L57.9722 25.9441V15.4879H57.8209Z" fill="#E9E9E9"/>
<path d="M87.3253 36.4003C85.0557 36.4003 82.9374 34.2476 82.9374 31.7873V15.4879C82.9374 15.1804 82.7861 15.0266 82.4835 15.0266H78.3983C78.0956 15.0266 77.9443 15.1804 77.9443 15.4879V31.6335C77.9443 37.3229 82.0296 40.8596 87.174 40.8596C92.3183 40.8596 96.4036 37.3229 96.4036 31.6335V15.4879C96.4036 15.1804 96.2523 15.0266 95.9497 15.0266H91.8644C91.5618 15.0266 91.4105 15.1804 91.4105 15.4879V31.6335C91.5618 34.2476 89.5949 36.4003 87.3253 36.4003Z" fill="#E9E9E9"/>
<path fill-rule="evenodd" clip-rule="evenodd" d="M12.4293 27.7893L24.9876 40.552L32.8555 32.5561C34.2172 31.326 36.4868 31.326 37.8485 32.7099C39.2103 34.0938 39.2103 36.2465 37.9998 37.7842L27.4085 48.2404C26.0467 49.6243 23.7771 49.6243 22.4154 48.2404L7.28487 32.8636V42.0897C7.28487 44.0887 5.62051 45.7801 3.65354 45.7801C1.68657 45.7801 0.0222168 44.0887 0.0222168 42.0897V13.6427C0.0222168 11.6437 1.68657 9.95227 3.65354 9.95227C5.62051 9.95227 7.28487 11.6437 7.28487 13.6427V22.715L22.4154 7.33822C23.7771 5.95432 26.0467 5.95432 27.4085 7.33822L37.8485 17.9482C39.059 19.3321 39.059 21.6386 37.6972 23.0225C36.3355 24.4064 34.2172 24.4064 32.7042 23.1763L24.8363 15.1804L12.4293 27.7893ZM24.9876 24.2527C23.4745 24.2527 22.2641 25.1753 21.6589 26.5592C21.0537 27.9431 21.3563 29.4808 22.4154 30.5571C23.4745 31.6335 24.9876 31.941 26.3493 31.326C27.7111 30.7109 28.6189 29.4808 28.6189 27.9431C28.6189 27.0205 28.3163 26.0979 27.5598 25.329C26.8033 24.5602 25.8954 24.2527 24.9876 24.2527Z" fill="#E9E9E9"/>
</svg>
