<svg width="175" height="56" viewBox="0 0 175 56" fill="none" xmlns="http://www.w3.org/2000/svg">
<path d="M96.1523 12.3241V42.3379H88.7494V27.2869L82.135 37.571V37.6152H78.0174V37.571L71.3591 27.1986L71.4029 42.3379H64V12.3241H69.4755L80.0762 28.3462L90.633 12.3241H96.1523ZM123.705 20.931V42.3379H116.609V41.1462C115.032 42.1614 113.105 42.7793 110.783 42.7793C105.045 42.7793 100.226 37.9683 100.226 31.6124C100.226 25.2124 105.045 20.4455 110.783 20.4455C113.105 20.4455 115.032 21.0634 116.609 22.0786V20.931H123.705ZM112.185 36.909C113.762 36.909 115.295 36.4676 116.609 34.9228V28.3021C115.295 26.7572 113.762 26.2717 112.185 26.2717C109.294 26.2717 107.191 28.6552 107.191 31.6124C107.191 34.5697 109.294 36.909 112.185 36.909ZM127.078 34.9669L133.386 35.011C133.693 36.8648 135.226 37.7034 137.46 37.7034C139.343 37.7034 140.482 37.1297 140.482 36.2028C140.482 35.4965 139.825 34.9228 138.423 34.7021L134.131 33.9517C130.451 33.3338 127.91 31.2593 127.91 27.5076C127.91 23.0055 131.721 20.3572 137.372 20.3572C141.884 20.3572 147.009 22.1228 147.316 27.7724H141.008C140.876 26.1393 139.387 25.389 137.416 25.389C135.576 25.389 134.744 26.0952 134.744 26.9338C134.744 27.64 135.27 28.3021 136.934 28.611L140.92 29.2731C144.906 30.0234 147.535 31.9655 147.535 35.7614C147.535 40.7048 143.11 43 137.591 43C132.028 43 127.516 40.6607 127.078 34.9669ZM161.421 34.9228L158.442 38.1448V42.3379H151.346V11H158.442V28.9641L165.845 20.931H174.299L166.239 29.6703L175 42.3379H166.502L161.421 34.9228Z" fill="#E9E9E9"/>
<path d="M28.1112 54.1111C42.532 54.1111 54.2224 42.4208 54.2224 28C54.2224 13.5792 42.532 1.88879 28.1112 1.88879C13.6904 1.88879 2 13.5792 2 28C2 42.4208 13.6904 54.1111 28.1112 54.1111Z" stroke="#E9E9E9" stroke-width="2"/>
<path fill-rule="evenodd" clip-rule="evenodd" d="M43.1779 22.1407V30.5111H18.0667V30.5111L16.9863 30.5112C18.1298 35.59 22.6679 39.3837 28.0921 39.3837C32.5765 39.3837 36.4552 36.7907 38.3109 33.0223L43.1779 33.0223V40.0533C43.1779 41.7175 41.8287 43.0666 40.1645 43.0666H16.0578C14.3936 43.0666 13.0444 41.7175 13.0444 40.0533V22.1407H43.1779ZM35.4207 33.0223C33.8227 35.3587 31.1364 36.8919 28.0921 36.8919C25.0478 36.8919 22.3615 35.3587 20.7635 33.0223H35.4207ZM21.6659 24.1496C19.3045 24.1496 17.3509 25.8958 17.026 28.1674L19.5946 28.1674C19.877 27.2931 20.6976 26.6607 21.6659 26.6607C22.6343 26.6607 23.4549 27.2931 23.7373 28.1674L26.3059 28.1674C25.981 25.8958 24.0274 24.1496 21.6659 24.1496ZM34.5563 24.1496C32.1949 24.1496 30.2413 25.8958 29.9164 28.1674L32.485 28.1674C32.7674 27.2931 33.588 26.6607 34.5563 26.6607C35.5247 26.6607 36.3453 27.2931 36.6277 28.1674L39.1963 28.1674C38.8714 25.8958 36.9178 24.1496 34.5563 24.1496ZM40.1645 12.9332C41.8287 12.9332 43.1779 14.2823 43.1779 15.9466V19.6295H13.0444V15.9466C13.0444 14.2823 14.3936 12.9332 16.0578 12.9332H40.1645Z" fill="#E9E9E9"/>
</svg>
