<svg width="198" height="56" viewBox="0 0 198 56" fill="none" xmlns="http://www.w3.org/2000/svg">
<path fill-rule="evenodd" clip-rule="evenodd" d="M33.69 13.2685C33.1919 13.3794 32.5289 13.6817 32.151 13.9704C31.6866 14.3251 31.0432 15.5449 31.0467 16.0639C31.0507 16.647 31.5491 17.9052 32.3436 19.3375C34.1981 22.681 46.5956 42.5505 47.3007 43.3094C47.6352 43.6694 48.7338 44.068 49.4473 44.0881C50.809 44.1267 52.7987 42.5707 52.7987 41.4672C52.7987 41.3389 52.8516 41.2012 52.9163 41.1611C52.981 41.1211 53.0339 40.9028 53.0339 40.6761C53.0339 40.4494 52.9867 40.2931 52.9292 40.3287C52.8716 40.3644 52.7902 40.2108 52.7485 39.9875C52.6374 39.3942 48.786 33.0468 42.2767 22.7289C38.2184 16.296 36.7505 14.1092 36.2758 13.7887C35.5943 13.3287 34.4524 13.0989 33.69 13.2685ZM17.1404 13.5354C16.2937 13.8064 15.3943 14.379 14.9018 14.9605C14.0742 15.9376 10.8509 21.2415 5.38522 30.62C1.75245 36.8534 0.621101 38.8573 0.306778 39.6149C0.00809526 40.3348 0.055132 41.5756 0.407555 42.272C0.923665 43.2922 2.01327 43.9289 3.24269 43.9289C3.93119 43.9289 5.19695 43.516 5.49234 43.195C5.82948 42.8287 7.21424 40.6728 8.87875 37.9222C10.7548 34.8224 11.7281 33.3289 11.8722 33.3289C12.0437 33.3289 12.6308 34.17 14.0096 36.3911C16.109 39.7731 17.382 41.7499 18.0557 42.6739C18.6446 43.4815 18.7689 43.5878 19.3124 43.7495C21.0817 44.2758 22.6747 43.7095 23.4587 42.2758C23.7551 41.7338 23.8107 41.5013 23.8115 40.8013C23.8122 40.0473 23.7643 39.8783 23.2943 38.9758C23.0094 38.4287 22.1967 37.0006 21.4884 35.8022C17.1574 28.4754 16.2276 26.772 16.2276 26.164C16.2276 25.6599 17.8491 22.4328 18.5931 21.4563L18.7998 21.1848L19.4934 22.2219C20.2344 23.3298 23.534 28.5954 27.0441 34.2711C29.8637 38.8304 30.8803 40.4131 32.016 42.0118C33.1943 43.6705 33.6122 43.9289 35.1165 43.9289C35.6493 43.9289 36.2344 43.873 36.4164 43.8046C36.5984 43.7363 37.0484 43.3835 37.4163 43.0206C37.9454 42.4985 38.1142 42.2396 38.224 41.7808C38.6309 40.0824 38.5029 39.8392 30.1258 26.38C25.7231 19.3064 23.273 15.5705 22.5408 14.8141C21.2679 13.4995 18.9597 12.9529 17.1404 13.5354Z" fill="#E9E9E9"/>
<path fill-rule="evenodd" clip-rule="evenodd" d="M167.645 14.7905C164.737 15.4984 162.495 17.7183 162.08 20.3002C161.81 21.9825 161.888 22.3654 159.7 22.3654C158.432 22.3654 158.628 23.5624 158.613 26.0415C158.607 27.0414 158.907 27.2668 160.247 27.2668H161.888V35.1636V43.0604H164.624H167.36V35.1636V27.2668H171.463H175.567V24.8161V22.3654H171.463C168.342 22.3654 167.36 22.1857 167.36 21.6149C167.36 20.2708 168.707 19.7034 172.298 19.5351H175.567C175.567 19.5351 175.567 16.5837 175.567 15.0486C174.662 14.4986 169.554 14.3254 167.645 14.7905ZM68.3259 28.8756V43.0604H71.0485H73.7717L73.9211 33.666C74.0212 27.3916 74.239 24.6331 74.5765 25.3607C74.8539 25.9598 76.7498 30.126 78.7885 34.619L82.496 42.7881H87.2025L89.1684 38.3273C92.4136 31.2485 92.7512 30.5149 94.1398 27.5381L95.4097 24.8161L95.5597 33.9383L95.7096 43.0604H98.4322H101.155V28.9007V14.7409H94.1705L89.7966 24.3853C87.3902 29.6898 85.2011 34.1033 84.9313 34.1926C84.6616 34.2819 82.4642 30.0035 80.0486 24.6843L75.4388 14.7409L68.3259 14.6913V28.8756ZM111.024 15.3803C105.661 16.9117 102.992 21.8159 105.205 26.0742C106.503 28.5734 109.782 29.955 116.496 30.8335C119.839 31.2703 123.048 31.8808 123.628 32.1895C125.189 33.0212 125.026 35.7311 123.35 36.8242C121.462 38.0561 114.84 38.3817 109.826 37.4897L105.639 36.7446L104.996 38.8806C104.636 40.0765 104.561 41.2224 104.825 41.4854C105.617 42.2735 110.914 43.0604 115.428 43.0604C121.825 43.0604 125.015 42.2098 127.593 39.8162C129.524 38.0234 129.906 36.0339 129.995 34.8429C130.167 32.5386 129.675 31.0395 129.078 30.0934C127.567 27.6971 125.064 26.7424 117.843 25.8089C113.326 25.2246 111.553 24.7638 110.738 23.9627C107.398 20.6809 115.854 18.6299 125.035 20.4952C126.705 20.8345 126.767 20.7784 127.141 18.5733C127.353 17.3234 127.399 16.1738 127.242 16.018C126.012 14.7943 114.641 14.3471 111.024 15.3803ZM138.634 23.1692C134.565 25.0563 132.889 27.8398 132.889 32.7129C132.889 37.5719 134.738 40.4305 139.035 42.2174C141.346 43.1786 145.943 43.3191 148.76 42.5147C150.036 42.1504 150.732 42.1504 150.854 42.5147C150.954 42.8148 152.129 43.0604 153.465 43.0604H155.894L155.745 32.8491L155.596 22.464H150.903V22.9775C150.567 23.5189 150.172 23.527 149.044 23.0151C147.103 22.135 140.659 22.2303 138.634 23.1692ZM182.569 23.0794C173.769 27.1318 174.69 39.9082 183.969 42.494C186.498 43.1988 193.883 43.0534 195.881 42.2599C196.663 41.9489 196.687 41.6292 196.081 39.624C195.552 37.872 195.155 37.384 194.371 37.5218C193.809 37.6204 190.887 38.2124 189.246 38.2124C186.236 38.2124 184.778 37.6999 183.832 36.8492C183.198 36.2785 182.569 35.1446 182.569 34.8913C182.569 34.791 194.537 34.8778 197.504 34.89C197.78 34.8911 198 34.6675 198 34.3913V32.1509C198 26.0077 195.264 23.508 190.887 22.5179C186.51 21.5278 183.433 22.6818 182.569 23.0794ZM140.457 28.1001C138.481 29.1681 137.525 32.097 138.344 34.5695C139.205 37.1634 141.931 38.4035 145.785 37.9526C150.476 37.4036 150.398 37.4929 150.398 32.708V28.4628L148.675 27.8648C146.29 27.037 142.207 27.1541 140.457 28.1001ZM187.604 27.2668C184.595 27.2135 183.149 28.8996 182.785 29.4796C182.148 30.4953 182.317 30.5345 187.326 30.5345C191.495 30.5345 192.528 30.5345 192.528 30.5345C192.528 28.5004 190.613 27.3202 187.604 27.2668Z" fill="#E9E9E9"/>
</svg>
