<svg width="215" height="56" viewBox="0 0 215 56" fill="none" xmlns="http://www.w3.org/2000/svg">
<path d="M138.497 21.5806C139.196 21.5806 139.867 21.8593 140.362 22.3554C140.857 22.8515 141.135 23.5243 141.135 24.2258H151.687C151.687 20.7181 150.297 17.3541 147.824 14.8737C145.35 12.3934 141.995 11 138.497 11C134.999 11 131.644 12.3934 129.17 14.8737C126.696 17.3541 125.307 20.7181 125.307 24.2258V26.871C125.307 30.3787 126.696 33.7427 129.17 36.223C131.644 38.7033 134.999 40.0968 138.497 40.0968C141.995 40.0968 145.35 38.7033 147.824 36.223C150.297 33.7427 151.687 30.3787 151.687 26.871H141.135C141.135 27.5725 140.857 28.2453 140.362 28.7414C139.867 29.2374 139.196 29.5161 138.497 29.5161C137.797 29.5161 137.126 29.2374 136.631 28.7414C136.137 28.2453 135.859 27.5725 135.859 26.871V24.2258C135.859 23.5243 136.137 22.8515 136.631 22.3554C137.126 21.8593 137.797 21.5806 138.497 21.5806Z" fill="#E9E9E9"/>
<path d="M32.9755 11H31.6565V40.0968H42.2086V37.4516H55.3988V26.871H42.2086V21.5806H58.0369V11H42.2086H32.9755Z" fill="#E9E9E9"/>
<path d="M21.1043 11H0V40.0968H10.5521V24.2258C10.5521 23.5243 10.8301 22.8515 11.3248 22.3554C11.8195 21.8593 12.4905 21.5806 13.1902 21.5806C13.8898 21.5806 14.5608 21.8593 15.0556 22.3554C15.5503 22.8515 15.8282 23.5243 15.8282 24.2258V40.0968H26.3804V16.2903C26.3804 14.8872 25.8245 13.5416 24.835 12.5495C23.8456 11.5574 22.5036 11 21.1043 11Z" fill="#E9E9E9"/>
<path d="M201.81 11C198.312 11 194.957 12.3934 192.483 14.8737C190.009 17.3541 188.62 20.7181 188.62 24.2258V40.0968H199.172V24.2258C199.172 23.5243 199.45 22.8515 199.944 22.3554C200.439 21.8593 201.11 21.5806 201.81 21.5806C202.509 21.5806 203.18 21.8593 203.675 22.3554C204.17 22.8515 204.448 23.5243 204.448 24.2258V40.0968H215V24.2258C215 20.7181 213.61 17.3541 211.137 14.8737C208.663 12.3934 205.308 11 201.81 11Z" fill="#E9E9E9"/>
<path d="M170.153 11C166.655 11 163.3 12.3934 160.826 14.8737C158.353 17.3541 156.963 20.7181 156.963 24.2258V40.0968H167.515V37.4516H172.791V40.0968H183.344V24.2258C183.344 20.7181 181.954 17.3541 179.48 14.8737C177.007 12.3934 173.652 11 170.153 11ZM172.791 26.871H167.515V24.2258C167.515 23.5243 167.793 22.8515 168.288 22.3554C168.783 21.8593 169.454 21.5806 170.153 21.5806C170.853 21.5806 171.524 21.8593 172.019 22.3554C172.513 22.8515 172.791 23.5243 172.791 24.2258V26.871Z" fill="#E9E9E9"/>
<path d="M63.3129 21.5806H70.5675V40.0968H81.1196V21.5806H88.3742V11H63.3129V21.5806Z" fill="#E9E9E9"/>
<path d="M106.841 21.5807C107.54 21.5807 108.211 21.8593 108.706 22.3554C109.201 22.8515 109.479 23.5243 109.479 24.2258H120.031C120.031 21.61 119.257 19.0529 117.808 16.8779C116.358 14.703 114.298 13.0078 111.888 12.0068C109.478 11.0057 106.826 10.7438 104.267 11.2541C101.709 11.7645 99.3584 13.0241 97.5137 14.8738C95.669 16.7234 94.4128 19.08 93.9038 21.6456C93.3949 24.2111 93.6561 26.8704 94.6544 29.2871C95.6528 31.7038 97.3434 33.7694 99.5125 35.2227C101.682 36.6759 104.232 37.4516 106.841 37.4516C107.54 37.4516 108.211 37.7303 108.706 38.2264C109.201 38.7224 109.479 39.3952 109.479 40.0968C109.477 40.563 109.349 41.0199 109.109 41.4194H119.965C120.004 40.9829 120.031 40.5465 120.031 40.0968C120.031 36.5891 118.641 33.225 116.167 30.7447C113.694 28.2644 110.339 26.871 106.841 26.871C106.141 26.871 105.47 26.5923 104.975 26.0962C104.48 25.6002 104.203 24.9274 104.203 24.2258C104.203 23.5243 104.48 22.8515 104.975 22.3554C105.47 21.8593 106.141 21.5807 106.841 21.5807Z" fill="#E9E9E9"/>
<path d="M104.203 40.0967H93.6504C93.6504 40.5464 93.6504 40.9828 93.7163 41.4193H104.572C104.332 41.0198 104.204 40.5629 104.203 40.0967Z" fill="#E9E9E9"/>
<path d="M94.257 44.0645H119.424C119.562 43.6303 119.677 43.1887 119.767 42.7419H93.9141C94.0043 43.1887 94.1188 43.6303 94.257 44.0645Z" fill="#E9E9E9"/>
<path d="M95.431 46.7098H118.25C118.496 46.2824 118.716 45.8408 118.91 45.3872H94.7583C94.9561 45.8411 95.1807 46.2828 95.431 46.7098Z" fill="#E9E9E9"/>
<path d="M97.4293 49.3548H116.252C116.654 48.9388 117.028 48.497 117.373 48.0322H96.2883C96.6394 48.4976 97.0205 48.9394 97.4293 49.3548Z" fill="#E9E9E9"/>
<path d="M101.122 52.0001H112.558C113.333 51.6346 114.069 51.1915 114.754 50.6775H98.9263C99.612 51.1915 100.348 51.6346 101.122 52.0001Z" fill="#E9E9E9"/>
</svg>
