<svg width="150" height="56" viewBox="0 0 150 56" fill="none" xmlns="http://www.w3.org/2000/svg">
<g clip-path="url(#clip0_23_2183)">
<path fill-rule="evenodd" clip-rule="evenodd" d="M143.832 22.48V13.1098H150.014V42.8028H139.391C133.346 42.8028 129.179 38.7272 129.179 32.6414C129.179 26.5556 133.474 22.48 139.688 22.48H143.832ZM141.013 37.8716H143.832V27.3238H141.036C137.499 27.3238 135.439 29.2374 135.439 32.6092C135.439 35.981 137.481 37.8716 141.013 37.8716ZM112.151 24.6696C113.325 21.9326 115.637 20.3318 119.004 20.3318C123.888 20.3318 126.602 23.4 126.579 28.575V42.789H120.617V29.8308C120.617 26.9512 119.269 25.3044 116.592 25.3044C113.914 25.3044 112.219 27.2824 112.219 30.139V42.789H106.279V20.7412H112.032V24.6696H112.151ZM70.8376 13.2111H58.844V42.789H65.0121V33.52H70.527C76.7408 33.52 81.0356 29.4444 81.0356 23.3586C81.0356 17.2729 76.8824 13.2111 70.8376 13.2111ZM69.1792 28.6762H65.0121V18.1285H69.2019C72.7338 18.1285 74.7761 20.0191 74.7761 23.3908C74.7761 26.7626 72.7155 28.6762 69.1792 28.6762ZM82.0225 31.8686C82.0225 24.711 86.3128 20.3686 92.8693 20.3686C99.4258 20.3686 103.716 24.688 103.716 31.8686C103.716 39.109 99.4853 43.3686 92.8693 43.3686C86.2534 43.3686 82.0225 39.109 82.0225 31.8686ZM88.0673 31.8686C88.0673 36.28 89.927 38.7686 92.8693 38.7686V38.7778C95.7888 38.7778 97.6485 36.2386 97.6485 31.8686C97.6485 27.4986 95.7707 24.9686 92.8693 24.9686C89.968 24.9686 88.0673 27.4572 88.0673 31.8686Z" fill="#E9E9E9"/>
<mask id="mask0_23_2183" style="mask-type:luminance" maskUnits="userSpaceOnUse" x="0" y="5" width="47" height="46">
<path d="M46.1538 5H0V51H46.1538V5Z" fill="white"/>
</mask>
<g mask="url(#mask0_23_2183)">
<path d="M21.8182 5.00089L15.636 15.6733L22.5428 19.6476L28.7252 8.97528L21.8182 5.00089Z" fill="#E9E9E9"/>
<path d="M23.6099 36.3505L17.4276 47.0228L24.3344 50.9972L30.5167 40.3249L23.6099 36.3505Z" fill="#E9E9E9"/>
<path d="M38.5036 10.8504L26.5603 14.0399L28.6244 21.7179L40.5677 18.5283L38.5036 10.8504Z" fill="#E9E9E9"/>
<path d="M17.5282 34.2816L5.58484 37.4712L7.64902 45.1491L19.5924 41.9595L17.5282 34.2816Z" fill="#E9E9E9"/>
<path d="M35.4407 20.5761L31.453 27.46L42.1612 33.6217L46.1489 26.7378L35.4407 20.5761Z" fill="#E9E9E9"/>
<path d="M3.98281 22.3693L-0.00488281 29.2532L10.7032 35.4149L14.6909 28.5311L3.98281 22.3693Z" fill="#E9E9E9"/>
<path d="M37.0834 31.4768L29.3796 33.5341L32.5799 45.4376L40.2835 43.3803L37.0834 31.4768Z" fill="#E9E9E9"/>
<path d="M13.5686 10.5711L5.86499 12.6284L9.06518 24.5319L16.7688 22.4746L13.5686 10.5711Z" fill="#E9E9E9"/>
</g>
</g>
<defs>
<clipPath id="clip0_23_2183">
<rect width="150" height="56" fill="white"/>
</clipPath>
</defs>
</svg>
