<svg width="193" height="56" viewBox="0 0 193 56" fill="none" xmlns="http://www.w3.org/2000/svg">
<path fill-rule="evenodd" clip-rule="evenodd" d="M44.6928 5.27881C43.8574 5.73772 41.7643 7.19183 40.0415 8.51042C38.3187 9.82874 36.6923 11.0641 36.4271 11.2556C36.0173 11.5517 35.5365 11.3966 33.2075 10.2185C29.8003 8.49472 27.9449 7.99753 24.2557 7.81986C16.9381 7.46756 10.1224 10.9763 6.11088 17.161C5.42541 18.2179 4.57562 19.7918 4.22239 20.6587C1.76082 26.7005 2.48938 34.3677 6.02085 39.5867L6.85601 40.8207L4.41019 43.9416C1.85417 47.2029 0.401196 49.4977 0.0813825 50.7791C-0.0834953 51.4388 -0.0265979 51.5366 0.521338 51.5366C0.867112 51.5366 1.84395 51.1474 2.69154 50.6717C4.10142 49.8806 8.84973 46.4625 9.90832 45.4767C10.1525 45.2494 10.7153 44.7638 11.1591 44.3974C18.6474 38.2149 32.1572 24.7819 39.5778 16.141C43.8944 11.1143 47.1784 6.32664 47.1784 5.06038C47.1784 4.20538 46.5457 4.26074 44.6928 5.27881ZM100.481 28.1493V41.6727L106.764 41.5721C113.658 41.4617 114.072 41.3724 115.488 39.6938C116.49 38.5063 116.637 37.485 116.636 31.704C116.636 25.9636 116.441 25.0323 114.971 23.7449C113.651 22.5891 112.474 22.342 108.283 22.3403L104.623 22.3387V18.4823V14.626H102.552H100.481V28.1493ZM121.746 28.1232V41.6203H123.818H125.889V28.1232V14.626H123.818H121.746V28.1232ZM131.412 16.8296V19.0332H133.622H135.831V16.8296V14.626H133.622H131.412V16.8296ZM168.558 14.9703C168.492 15.1598 166.875 20.0869 164.966 25.9196C163.056 31.7523 161.133 37.6136 160.692 38.9449L159.891 41.3653L162.401 41.2862L164.912 41.2072L165.777 38.4526L166.642 35.6981L172.304 35.6237L177.966 35.5496L178.814 38.3783L179.661 41.2072L182.151 41.2859L184.641 41.3647L180.328 27.9959L176.015 14.6274L172.347 14.6266C169.661 14.6263 168.647 14.7183 168.558 14.9703ZM188.305 27.9854V41.3449H190.653H193V27.9854V14.626H190.653H188.305V27.9854ZM56.0161 28.9495V41.6203H58.2255H60.4349V37.3508V33.0813L64.7847 33.0747C70.8888 33.0656 72.0388 32.7114 73.3418 30.4386C73.9118 29.4442 73.9585 29.0178 73.9571 24.8177C73.9552 19.7536 73.6525 18.5286 72.1358 17.4535C70.7151 16.4462 69.3751 16.2818 62.5753 16.2804L56.0161 16.2787V28.9495ZM39.3665 18.7685C38.6506 19.661 38.0646 20.4788 38.0646 20.586C38.0646 20.6928 38.3656 21.5338 38.7332 22.4549C40.0199 25.6763 40.1787 30.0373 39.1306 33.3568C37.5302 38.424 33.0487 42.7009 27.7079 44.2575C24.5421 45.18 19.3981 44.7431 16.6053 43.3141L15.5901 42.7946L13.8193 44.1826L12.0484 45.5703L12.6977 46.0694C13.7588 46.8851 17.0624 48.1538 19.342 48.6212C29.6799 50.7403 39.8357 44.7784 43.2324 34.5963C43.8831 32.6461 43.9695 31.9489 43.985 28.5363C43.9999 25.2284 43.9104 24.3875 43.355 22.6238C42.7077 20.5675 41.3124 17.5425 40.8918 17.283C40.7692 17.2075 40.0826 17.8758 39.3665 18.7685ZM21.1123 18.2377C19.3771 18.644 16.8398 20.1419 15.7006 21.4327C13.1636 24.3073 12.2854 28.6914 13.6121 31.8583L13.9842 32.7466L20.846 25.881C28.2995 18.4237 28.0924 18.7605 25.554 18.2157C23.9992 17.8821 22.6012 17.8893 21.1123 18.2377ZM171.923 18.9644C171.775 19.2167 168.144 30.7824 168.144 30.9989C168.144 31.0837 170.054 31.1531 172.388 31.1531H176.631L174.717 25.1747C173.663 21.8864 172.741 19.0974 172.666 18.9771C172.495 18.7002 172.081 18.6933 171.923 18.9644ZM60.4349 24.68V28.9495H64.7C70.0106 28.9495 69.825 29.1041 69.825 24.68C69.825 20.256 70.0106 20.4105 64.7 20.4105H60.4349V24.68ZM35.0051 23.9647L33.5632 25.5987L33.5353 28.3132C33.5101 30.7898 33.429 31.187 32.6101 32.8458C31.546 35.0012 29.8124 36.6939 27.6182 37.7199C26.2699 38.3502 25.6667 38.4565 23.2996 38.4805L20.5483 38.508L18.8269 39.9954L17.1055 41.4826L17.9879 41.8558C19.7482 42.6007 22.6754 43.0469 24.5272 42.8524C30.6838 42.2062 35.3503 38.5468 37.2722 32.8582C38.0767 30.4777 38.1278 26.8261 37.3921 24.3283C37.1121 23.3771 36.7848 22.5387 36.6649 22.4648C36.5453 22.391 35.7983 23.0659 35.0051 23.9647ZM78.7217 29.9825C78.8311 37.9772 78.9239 38.6319 80.1311 39.9249C81.4979 41.3892 81.9417 41.4749 88.6741 41.5735L94.9571 41.6655V32.0021V22.3387H92.8902H90.823L90.7498 30.1202L90.6764 37.9017H87.3352C84.9089 37.9017 83.8691 37.7982 83.5377 37.5238C83.1342 37.1894 83.0815 36.2898 83.0815 29.7423V22.3387H80.8494H78.6171L78.7217 29.9825ZM131.689 31.9916V41.6446L133.691 41.5636L135.693 41.4826L135.766 31.9106L135.839 22.3387H133.764H131.689V31.9916ZM144.703 22.6147C143.356 22.932 142.409 23.7154 141.7 25.0987C141.116 26.2391 141.079 26.6476 141.079 31.909C141.079 41.0755 141.616 41.6203 150.657 41.6203H155.44V39.8481V38.0758L150.786 37.9888C147.353 37.9246 146.013 37.8026 145.677 37.5238C145.283 37.1968 145.221 36.4446 145.221 31.9795C145.221 27.5144 145.283 26.7622 145.677 26.4352C146.013 26.1564 147.353 26.0344 150.786 25.9702L155.44 25.8832V24.1109V22.3387L150.538 22.3668C147.841 22.3825 145.216 22.494 144.703 22.6147ZM104.756 26.2482C104.676 26.4545 104.645 29.1608 104.687 32.2624L104.761 37.9017H108.103C110.53 37.9017 111.569 37.7982 111.901 37.5238C112.294 37.1968 112.356 36.4446 112.356 31.9795C112.356 27.5147 112.294 26.7622 111.901 26.4352C111.239 25.8868 104.958 25.7223 104.756 26.2482Z" fill="#E9E9E9"/>
</svg>
