<svg width="198" height="56" viewBox="0 0 198 56" fill="none" xmlns="http://www.w3.org/2000/svg">
<path fill-rule="evenodd" clip-rule="evenodd" d="M75.8237 28.1485L75.933 27.7786C76.8192 24.7773 79.9461 22.5409 83.0508 22.5409C86.1546 22.5409 89.2805 24.7773 90.1677 27.7786L90.277 28.1485H75.8237ZM83.5822 17.4004H82.5205C75.4528 17.4004 69.7034 23.1514 69.7034 30.2186V31.2782C69.7034 38.3453 75.4528 44.0953 82.5205 44.0953H83.5822C88.3912 44.0953 91.9742 42.4944 94.5356 39.2004C94.5948 39.1232 94.6199 39.025 94.6028 38.9298C94.5868 38.8395 94.5346 38.7624 94.4574 38.7142L90.0474 36.0447C89.9 35.9515 89.7055 35.9856 89.6123 36.1189C87.8168 38.6862 84.7311 38.9548 83.0508 38.9548C79.7776 38.9548 76.5385 36.4948 75.8297 33.3291L75.7515 32.9783H90.5968L90.5928 32.9813H95.9943C96.1607 32.9813 96.3051 32.858 96.3221 32.7006C96.3732 32.2305 96.3983 31.7513 96.3983 31.2782V30.2186C96.3983 23.1514 90.6499 17.4004 83.5822 17.4004Z" fill="#E9E9E9"/>
<path fill-rule="evenodd" clip-rule="evenodd" d="M110.625 44.0953H111.692C117.692 44.0953 120.875 40.3862 121.219 39.9631C122.856 37.9441 123.303 35.7547 122.475 33.7979C121.761 32.1047 120.21 30.999 119.751 30.7012C117.727 29.386 113.359 28.4076 113.174 28.3665C113.173 28.3655 112.029 28.1088 111.325 27.9444C110.919 27.8492 110.532 27.766 110.168 27.6868C108.621 27.35 107.619 27.1074 106.99 26.5209C106.568 26.1269 106.369 25.6438 106.414 25.1225C106.478 24.3646 107.141 23.7561 107.586 23.4624C108.659 22.7546 109.807 22.494 111.946 22.5832C114.079 22.6714 116.176 23.5406 117.703 25.3621C117.821 25.5014 118.031 25.5215 118.182 25.4122L122.238 22.4609C122.32 22.3997 122.373 22.3105 122.384 22.2073C122.395 22.102 122.361 22.0018 122.289 21.9226C119.814 19.1748 115.958 17.4004 112.467 17.4004H111.401C105.296 17.4004 102.01 21.3642 101.874 21.5326C100.238 23.5506 99.791 25.74 100.617 27.6978C101.333 29.393 102.884 30.4967 103.343 30.7945C105.352 32.1007 109.735 33.0891 109.92 33.1302L110.035 33.1553C110.342 33.2245 111.198 33.418 111.767 33.5493C112.154 33.6395 112.521 33.7197 112.867 33.7969C114.437 34.1417 115.454 34.3924 116.098 34.9708C116.469 35.3026 116.65 35.7166 116.625 36.1667C116.585 36.8715 115.942 37.502 115.489 37.8078C114.276 38.6278 113.203 38.9757 111.147 38.9125C109.035 38.8474 106.815 37.884 105.352 36.0745C105.286 35.9923 105.186 35.9482 105.084 35.9482C105.017 35.9482 104.95 35.9663 104.89 36.0033L100.568 38.6669C100.48 38.7211 100.423 38.8073 100.405 38.9095C100.387 39.0158 100.417 39.1251 100.486 39.2103C102.966 42.2698 106.756 44.0953 110.625 44.0953Z" fill="#E9E9E9"/>
<path fill-rule="evenodd" clip-rule="evenodd" d="M142.984 37.4462H139.659C137.451 37.4462 135.656 35.667 135.656 33.4788V24.774C135.656 24.2126 136.116 23.7565 136.683 23.7565H142.984C143.232 23.7565 143.432 23.558 143.432 23.3135V18.8197C143.432 18.5761 143.232 18.3777 142.984 18.3777H135.656V11.9102C135.656 11.6666 135.456 11.4681 135.209 11.4681L130.055 12.1828C129.808 12.1828 129.608 12.3813 129.608 12.6249V18.3777H126.719C126.472 18.3777 126.271 18.5761 126.271 18.8197V23.3325C126.271 23.5771 126.472 23.7756 126.719 23.7756H128.581C129.148 23.7756 129.608 24.2317 129.608 24.793V34.2646C129.608 38.9839 133.483 42.8241 138.248 42.8241H142.984C143.232 42.8241 143.432 42.6256 143.432 42.3831V37.8883C143.432 37.6447 143.232 37.4462 142.984 37.4462Z" fill="#E9E9E9"/>
<path fill-rule="evenodd" clip-rule="evenodd" d="M16.8919 38.638H16.7798C10.6974 38.638 5.74734 33.6421 5.74734 27.5012C5.74734 21.3613 10.6974 16.3663 16.7798 16.3663H16.8919C22.9763 16.3663 27.9254 21.3613 27.9254 27.5012C27.9254 33.6421 22.9763 38.638 16.8919 38.638ZM33.6707 27.5012C33.6707 18.4265 26.3557 11.0444 17.3651 11.0444H16.3066C7.31498 11.0444 0 18.4265 0 27.5012C0 36.5769 7.31498 43.9599 16.3066 43.9599H17.3651C18.2474 43.9599 19.1578 43.883 20.0682 43.7311L20.1102 43.723C20.6994 43.6228 21.2867 43.4881 21.8549 43.3221C22.4591 43.231 23.0614 43.1855 23.6556 43.1855C26.7959 43.1855 29.7421 44.4479 31.954 46.7742C32.041 46.8653 32.1741 46.8755 32.2621 46.7955L36.1527 43.3302C36.1977 43.2897 36.2257 43.231 36.2288 43.1693C36.2297 43.1359 36.2247 43.07 36.1727 43.0154C34.395 41.1061 32.2381 39.6858 29.7611 38.7919L29.3629 38.6491L29.6421 38.3282C32.2401 35.3266 33.6707 31.4827 33.6707 27.5012Z" fill="#E9E9E9"/>
<path fill-rule="evenodd" clip-rule="evenodd" d="M41.5249 17.8241C39.5388 17.8241 37.9237 19.4402 37.9237 21.4263C37.9237 23.4114 39.5388 25.0275 41.5249 25.0275C43.511 25.0275 45.1271 23.4114 45.1271 21.4263C45.1271 19.4402 43.511 17.8241 41.5249 17.8241Z" fill="#E9E9E9"/>
<path fill-rule="evenodd" clip-rule="evenodd" d="M61.8655 17.8241C59.8787 17.8241 58.2628 19.4402 58.2628 21.4263C58.2628 23.4114 59.8787 25.0275 61.8655 25.0275C63.8504 25.0275 65.4662 23.4114 65.4662 21.4263C65.4662 19.4402 63.8504 17.8241 61.8655 17.8241Z" fill="#E9E9E9"/>
<path fill-rule="evenodd" clip-rule="evenodd" d="M65.1764 43.2177C65.3361 43.2177 65.4661 43.084 65.4661 42.9186V28.2968C65.4661 28.2172 65.4363 28.1406 65.3808 28.0835C65.3262 28.0284 65.2528 27.9977 65.1764 27.9977H65.1744L60.0452 28.0426C59.8864 28.0437 59.7584 28.1784 59.7584 28.3417L59.7494 31.2391C59.7395 31.5381 59.7157 31.8188 59.672 32.1178C59.6492 32.2791 59.6343 32.377 59.6145 32.475C59.547 32.8118 59.4646 33.1211 59.3634 33.416L59.3327 33.4966C58.5716 35.6123 56.9085 37.2901 54.7591 38.128C53.1129 38.8077 51.3764 38.9251 49.7411 38.4679C46.1489 37.6249 43.6324 34.5774 43.6324 31.0605L43.6265 30.3634C43.6245 29.9848 43.6205 29.5674 43.6205 29.3837V28.2917C43.6205 28.1284 43.4905 27.9937 43.3308 27.9937H38.2135C38.0537 27.9937 37.9237 28.1284 37.9237 28.2917V32.3842L37.9316 32.5271C38.1251 39.0139 43.1452 44.0954 49.36 44.0954C51.8785 44.0954 54.265 43.2575 56.2645 41.6715C56.8678 41.1938 57.6229 41.0704 58.3314 41.3326C59.0499 41.597 59.5798 42.2083 59.7504 42.9676C59.7782 43.0921 59.8735 43.2177 60.0223 43.2177H65.1764Z" fill="#E9E9E9"/>
<path fill-rule="evenodd" clip-rule="evenodd" d="M159.326 4.542L188.233 8.43626C192.186 8.96889 194.959 12.6039 194.426 16.5574L190.532 45.4643C190 49.4169 186.363 52.1896 182.412 51.657L153.504 47.7637C149.552 47.2311 146.778 43.5951 147.312 39.6426L151.205 10.7346C151.738 6.78208 155.373 4.01038 159.326 4.542ZM176.519 44.336L164.035 21.9288L161.267 42.2163C161.25 42.3452 161.183 42.4589 161.079 42.5384C160.976 42.6159 160.848 42.6471 160.721 42.632L155.718 41.9536C155.589 41.9365 155.476 41.8701 155.397 41.7674C155.317 41.6638 155.284 41.536 155.301 41.4081L159.415 11.2532C159.434 11.1243 159.5 11.0096 159.604 10.9311C159.708 10.8536 159.832 10.8204 159.964 10.8365L165.052 11.5269C165.39 11.5712 165.69 11.7775 165.855 12.0744L178.339 34.4816L181.106 14.1941C181.124 14.0653 181.191 13.9505 181.294 13.872C181.398 13.7935 181.522 13.7623 181.655 13.7784L186.656 14.4568C186.785 14.4739 186.898 14.5393 186.977 14.643C187.056 14.7456 187.089 14.8735 187.072 15.0023L182.959 45.1572C182.941 45.2861 182.874 45.3998 182.771 45.4793C182.666 45.5578 182.537 45.591 182.409 45.5739L177.324 44.8845C176.986 44.8382 176.685 44.6329 176.519 44.336Z" fill="#E9E9E9"/>
</svg>
