<svg width="198" height="56" viewBox="0 0 198 56" fill="none" xmlns="http://www.w3.org/2000/svg">
<g clip-path="url(#clip0_23_2214)">
<path d="M0 12.2807C0 5.49827 5.49827 0 12.2807 0H43.7193C50.5017 0 56 5.49827 56 12.2807V43.7193C56 50.5017 50.5017 56 43.7193 56H12.2807C5.49827 56 0 50.5017 0 43.7193V12.2807Z" fill="#E9E9E9"/>
<path fill-rule="evenodd" clip-rule="evenodd" d="M42.1857 23.4432C42.1857 26.1295 40.6162 27.4656 38.8524 27.9299C40.9635 28.5626 42.4912 30.2927 42.4912 33.0352V38.0703H34.4356V33.2884C34.4356 31.8255 33.5744 31.2348 32.1022 31.2348H22.5468V38.0703H14.4912V17.9299H33.6302C38.4356 17.9299 42.1857 18.9707 42.1857 23.4432ZM22.5503 23.5569H33.4406V23.5578C33.4568 23.5572 33.4732 23.5569 33.4895 23.5569C34.2383 23.5569 34.8455 24.1716 34.8455 24.9299C34.8455 25.6881 34.2383 26.3029 33.4895 26.3029C33.4732 26.3029 33.4568 26.3027 33.4406 26.3022V26.3029H22.5503V23.5569Z" fill="black"/>
<path fill-rule="evenodd" clip-rule="evenodd" d="M167.272 32.2575C167.272 38.1333 163.866 42.1778 158.088 42.1778C155.715 42.1778 153.534 41.1858 152.577 39.6595V41.8725H147.755V14.8585H152.577V24.779C153.687 23.329 155.753 22.337 158.164 22.337C163.866 22.337 167.272 26.3814 167.272 32.2575ZM152.271 32.2575C152.271 35.7295 154.299 38.0188 157.399 38.0188C160.46 38.0188 162.489 35.7295 162.489 32.2575C162.489 28.7852 160.46 26.4958 157.399 26.4958C154.299 26.4958 152.271 28.7852 152.271 32.2575Z" fill="#E9E9E9"/>
<path fill-rule="evenodd" clip-rule="evenodd" d="M99.0117 41.8727L93.1221 29.9302C95.7627 28.6328 97.3315 26.0765 97.3315 23.0621C97.3315 18.2546 93.9258 15.1639 88.6832 15.1639H75.8948L75.9331 41.8727H81.1374V30.9222H87.8029L92.9657 41.8727H99.0117ZM81.1374 19.6281H87.8795C90.5582 19.6281 92.0888 20.9254 92.0888 23.0621C92.0888 25.1989 90.5582 26.4579 87.8795 26.4579H81.1374V19.6281Z" fill="#E9E9E9"/>
<path fill-rule="evenodd" clip-rule="evenodd" d="M114.603 22.6423H119.424V41.8726H114.603V39.6596C113.646 41.1858 111.503 42.1779 109.092 42.1779C103.314 42.1779 99.908 38.1333 99.908 32.2575C99.908 26.3814 103.314 22.337 109.016 22.337C111.427 22.337 113.493 23.3291 114.603 24.7791V22.6423ZM104.692 32.2575C104.692 35.7295 106.72 38.0189 109.781 38.0189C112.881 38.0189 114.909 35.7295 114.909 32.2575C114.909 28.7853 112.881 26.4959 109.781 26.4959C106.72 26.4959 104.692 28.7853 104.692 32.2575Z" fill="#E9E9E9"/>
<path d="M136.226 22.6423L135.92 27.2973C135.231 26.992 134.312 26.8393 133.471 26.8393C130.754 26.8393 128.304 29.0906 128.304 34.8139V41.8726H123.483V22.6423H128.304V26.1525C129.261 23.9777 131.787 22.337 134.121 22.337C134.81 22.337 135.652 22.4515 136.226 22.6423Z" fill="#E9E9E9"/>
<path d="M143.714 41.8724H138.892V22.6421H143.714V41.8724Z" fill="#E9E9E9"/>
<path d="M170.788 41.8725H175.61V14.8585H170.788V41.8725Z" fill="#E9E9E9"/>
<path fill-rule="evenodd" clip-rule="evenodd" d="M198.32 31.6088C198.32 27.1446 195.144 22.337 188.639 22.337C182.248 22.337 179.11 27.259 179.11 32.2575C179.11 37.2558 182.516 42.1779 188.907 42.1779C193.422 42.1779 196.79 40.041 197.861 36.4162L193.346 35.1953C192.848 37.0649 191.241 38.1333 188.983 38.1333C186.228 38.1333 184.353 36.4162 183.932 33.5165H198.244C198.282 33.1351 198.32 32.2956 198.32 31.6088ZM184.047 30.0062C184.582 27.4118 186.266 26 188.639 26C191.432 26 192.925 27.7168 193.154 30.0062H184.047Z" fill="#E9E9E9"/>
<path d="M140.614 14C139.419 14 138.45 14.9489 138.45 16.1193V17.5298C138.45 18.7003 139.419 19.6491 140.614 19.6491H142.012C143.207 19.6491 144.175 18.7003 144.175 17.5298V16.1193C144.175 14.9489 143.207 14 142.012 14H140.614Z" fill="#E9E9E9"/>
</g>
<defs>
<clipPath id="clip0_23_2214">
<rect width="198" height="56" fill="white"/>
</clipPath>
</defs>
</svg>
