<svg width="324" height="56" viewBox="0 0 324 56" fill="none" xmlns="http://www.w3.org/2000/svg">
<path d="M77.3892 39.6423L81.2248 35.0847C83.4359 36.8897 86.1885 38.1532 89.0539 38.1532C91.9194 38.1532 93.2054 37.0702 93.2054 35.5811C93.2054 33.5053 91.4456 32.9638 88.6478 31.7906L84.8573 30.1661C81.5632 28.9477 78.5624 26.4207 78.5624 22.1339C78.5624 17.2604 82.9846 13.3796 89.3698 13.3796C92.9347 13.3796 96.5221 14.7334 99.1845 17.2604L95.8001 21.457C93.7695 19.9679 91.9194 19.1105 89.0314 19.1105C86.8203 19.1105 85.3311 20.0581 85.3311 21.7729C85.3311 23.4876 87.3166 24.2096 90.1595 25.2475L93.7244 26.7817C97.6051 28.2257 100.042 30.6174 100.042 34.7688C100.042 39.6423 95.9355 43.8841 88.6027 43.8841C84.6317 43.8841 80.5705 42.4401 77.3892 39.6423Z" fill="#E9E9E9"/>
<path d="M102.93 32.1514C102.93 24.7961 108.571 20.4189 114.595 20.4189C121.521 20.4189 125.177 25.0668 125.177 31.1587C125.177 32.377 124.951 33.5954 124.861 34.1369H109.586C110.218 37.3859 112.609 38.8299 116.264 38.8299C118.295 38.8299 120.055 38.2884 122.04 37.2505L124.251 41.2666C121.679 42.8911 118.34 43.8839 115.339 43.8839C108.367 43.8839 102.93 39.597 102.93 32.1514ZM109.676 29.6695H119.265C118.949 26.9169 117.415 25.4729 114.843 25.4729C112.248 25.4729 110.353 26.8718 109.676 29.6695Z" fill="#E9E9E9"/>
<path d="M128.583 32.1514C128.583 24.7058 134.63 20.4189 141.557 20.4189C145.077 20.4189 148.055 21.6824 149.973 23.4423L146.882 27.5487C145.167 26.3303 143.588 25.7888 141.918 25.7888C138.082 25.7888 135.42 28.2707 135.42 32.1514C135.42 36.0322 137.992 38.514 141.715 38.514C144.061 38.514 146.002 37.5213 147.626 36.3932L150.289 40.5898C147.581 42.846 144.152 43.8839 141.061 43.8839C133.998 43.8613 128.583 39.5745 128.583 32.1514Z" fill="#E9E9E9"/>
<path d="M152.184 32.1514C152.184 24.7058 157.689 20.4189 163.623 20.4189C169.557 20.4189 175.062 24.7058 175.062 32.1514C175.062 39.597 169.557 43.8839 163.623 43.8839C157.689 43.8839 152.184 39.597 152.184 32.1514ZM168.225 32.1514C168.225 28.2707 166.691 25.7888 163.623 25.7888C160.554 25.7888 159.02 28.2707 159.02 32.1514C159.02 36.0322 160.554 38.514 163.623 38.514C166.691 38.514 168.225 36.0322 168.225 32.1514Z" fill="#E9E9E9"/>
<path d="M179.123 20.9604H184.538L185.035 23.9387H185.215C187.156 22.0434 189.592 20.4189 192.954 20.4189C198.008 20.4189 200.264 23.8936 200.264 29.5342V43.3424H193.608V30.3915C193.608 27.4133 192.751 26.0596 190.314 26.0596C188.509 26.0596 187.336 26.8718 185.757 28.4061V43.3424H179.123V20.9604Z" fill="#E9E9E9"/>
<path d="M204.1 32.1515C204.1 24.8413 208.793 20.4191 213.689 20.4191C216.171 20.4191 217.84 21.2764 219.33 22.8107H219.51L219.194 19.3361V11.71H225.828V43.3425H220.413L219.916 41.0411H219.781C218.111 42.6656 215.81 43.884 213.554 43.884C207.845 43.884 204.1 39.4618 204.1 32.1515ZM219.194 36.3933V27.3232C217.976 26.2402 216.757 25.8341 215.449 25.8341C213.012 25.8341 210.936 27.8196 210.936 32.0613C210.936 36.303 212.516 38.469 215.268 38.469C216.757 38.4465 218.021 37.8824 219.194 36.3933Z" fill="#E9E9E9"/>
<path d="M231.558 11.71H238.192V37.747H251.3V43.3425H231.558V11.71Z" fill="#E9E9E9"/>
<path d="M269.847 20.9604H264.251H252V26.0144V26.1498H257.595V43.3424H264.251V26.0144H269.847V20.9604Z" fill="#E9E9E9"/>
<path d="M260.619 17.4408C263.191 17.4408 265.041 15.8614 265.041 13.4247C265.041 10.9879 263.191 9.27319 260.619 9.27319C258.047 9.27319 256.197 10.9879 256.197 13.4247C256.197 15.8614 258.047 17.4408 260.619 17.4408Z" fill="#E9E9E9"/>
<path d="M273.795 20.9604H280.474L283.994 31.5197C284.716 33.7759 285.347 36.0773 286.024 38.4238H286.205C286.882 36.0773 287.468 33.7759 288.19 31.5197L291.71 20.9604H298.073L289.837 43.3424H282.256L273.795 20.9604Z" fill="#E9E9E9"/>
<path d="M299.201 32.1514C299.201 24.7961 304.841 20.4189 310.865 20.4189C317.792 20.4189 321.447 25.0668 321.447 31.1587C321.447 32.377 321.222 33.5954 321.131 34.1369H305.857C306.488 37.3859 308.88 38.8299 312.535 38.8299C314.566 38.8299 316.326 38.2884 318.311 37.2505L320.522 41.2666C317.95 42.8911 314.611 43.8839 311.61 43.8839C304.638 43.8839 299.223 39.597 299.201 32.1514ZM305.947 29.6695H315.536C315.22 26.9169 313.686 25.4729 311.114 25.4729C308.519 25.4729 306.624 26.8718 305.947 29.6695Z" fill="#E9E9E9"/>
<path fill-rule="evenodd" clip-rule="evenodd" d="M49.8404 14.643C58.2562 15.9516 53.3151 19.2232 51.9839 20.1257C51.8711 20.1934 51.7808 20.2611 51.7357 20.3062C51.5778 20.419 51.4649 20.4867 51.3296 20.5318C51.2619 20.5318 50.8558 20.5318 50.7429 20.1708C48.1483 12.838 41.4247 7.33278 33.1668 6.65591C21.9307 5.75341 12.116 14.1015 11.2135 25.3151C10.9879 28.1805 11.3715 30.9557 12.2514 33.5052C12.4093 33.979 11.9807 34.1144 11.9355 34.137C9.36342 34.5882 4.0838 34.859 9.6116 28.0225C9.6116 28.0225 -9.83723 40.5898 14.1241 37.4988C20.3965 36.5286 36.664 33.3473 51.8034 24.6156C73.2603 11.8453 51.3973 14.282 49.8404 14.643Z" fill="#E9E9E9"/>
<path fill-rule="evenodd" clip-rule="evenodd" d="M32.3545 37.5665C22.6527 43.4328 23.8936 45.4859 26.917 46.7494C27.3231 46.9299 29.3763 47.3135 31.0459 47.2684C31.091 47.2684 31.1136 47.2684 31.1587 47.2684C41.8308 47.4489 50.9685 39.3264 51.8259 28.5415C51.8259 28.4739 51.8259 28.4062 51.8485 28.3159C49.5471 29.1282 41.1313 32.2643 32.3545 37.5665Z" fill="#E9E9E9"/>
</svg>
