<svg width="147" height="56" viewBox="0 0 147 56" fill="none" xmlns="http://www.w3.org/2000/svg">
<path d="M50.5336 39.3856C51.5055 42.5886 53.6229 44.5354 57.7981 44.5354C61.2312 44.5354 63.6896 42.9921 63.6896 40.3007C63.6896 37.6095 60.8305 36.7538 56.5959 35.725L54.4785 35.1536C49.5019 33.9515 45.7819 31.7205 45.7819 26.5137C45.7819 21.3071 50.5878 17.7034 57.2808 17.7034C63.974 17.7034 68.2655 20.5626 68.9505 26.4569H63.4595C62.6013 23.7684 60.5977 22.2819 57.1103 22.2819C53.4497 22.2819 51.6762 23.7684 51.6762 25.9993C51.6762 28.4579 53.4497 29.1455 57.1103 30.234L60.3133 31.1492C66.3214 32.8657 69.4677 34.6961 69.4677 39.7295C69.4677 45.5074 64.4911 49.2248 57.6247 49.2248C50.3008 49.2248 46.012 46.0786 44.8098 39.3856H50.5308H50.5336Z" fill="#E9E9E9"/>
<path d="M102.938 33.6076C102.938 42.7619 97.2733 49.2818 87.6615 49.2818C78.0496 49.2818 72.5586 42.7593 72.5586 33.6076C72.5586 24.456 78.3935 17.7034 87.7751 17.7034C97.1569 17.7034 102.935 24.2828 102.935 33.6076H102.938ZM78.6804 33.5508C78.6804 40.2439 81.8836 44.4786 87.6046 44.4786C93.3257 44.4786 96.5857 40.2439 96.5857 33.5508C96.5857 26.8576 93.2688 22.5093 87.6046 22.5093C81.9404 22.5093 78.6804 27.1419 78.6804 33.5508Z" fill="#E9E9E9"/>
<path d="M108.201 7.63672H113.979V48.54H108.201V7.63672Z" fill="#E9E9E9"/>
<path d="M129.026 48.5397L117.814 18.5046H124.394L129.086 32.1778L132.403 42.3042H132.516C133.889 38.1264 134.861 35.955 136.234 31.5498L140.639 18.5073H146.875L135.319 48.5424H129.026V48.5397Z" fill="#E9E9E9"/>
<path d="M14.6631 8.44512L0.815234 22.293C-0.271745 23.38 -0.271745 25.1423 0.815234 26.2293C1.90221 27.3163 3.66455 27.3163 4.75153 26.2293L18.5995 12.3814C19.6865 11.2944 19.6865 9.53209 18.5995 8.44512C17.5125 7.35814 15.75 7.35814 14.6631 8.44512Z" fill="#E9E9E9"/>
<path d="M26.196 19.9781L12.3481 33.826C11.2611 34.9129 11.2611 36.6753 12.3481 37.7622C13.435 38.8492 15.1974 38.8492 16.2844 37.7622L30.1323 23.9143C31.2193 22.8274 31.2193 21.0651 30.1323 19.9781C29.0453 18.8911 27.283 18.8911 26.196 19.9781Z" fill="#E9E9E9"/>
<path d="M16.2718 18.3631L2.42388 32.2109C1.3369 33.2979 1.3369 35.0603 2.42388 36.1473C3.51085 37.2343 5.2732 37.2343 6.36017 36.1473L20.208 22.2994C21.295 21.2124 21.295 19.4501 20.208 18.3631C19.1211 17.2761 17.3587 17.2761 16.2718 18.3631Z" fill="#E9E9E9"/>
<path d="M27.8046 29.8958L13.9567 43.7435C12.8697 44.8305 12.8697 46.593 13.9567 47.68C15.0437 48.767 16.806 48.767 17.8929 47.68L31.7409 33.8321C32.8278 32.7451 32.8278 30.9828 31.7409 29.8958C30.6539 28.8088 28.8916 28.8088 27.8046 29.8958Z" fill="#E9E9E9"/>
</svg>
