<svg width="175" height="56" viewBox="0 0 175 56" fill="none" xmlns="http://www.w3.org/2000/svg">
<g clip-path="url(#clip0_23_2032)">
<mask id="mask0_23_2032" style="mask-type:luminance" maskUnits="userSpaceOnUse" x="-13" y="-5" width="65" height="65">
<path d="M51.0205 -4.07129H-13V59.9337H51.0205V-4.07129Z" fill="white"/>
</mask>
<g mask="url(#mask0_23_2032)">
<path d="M36.6889 19.8682C36.8038 10.3724 36.8613 5.6245 33.8342 2.96693C30.8071 0.309413 26.1053 0.980006 16.7016 2.32118L4.37043 4.07993C1.99156 4.4192 0.273107 6.52951 0.423183 8.92719C0.59827 11.7234 3.20914 13.717 5.95353 13.1499L13.856 11.5169C16.6784 10.9337 18.0896 10.6421 18.7015 11.0089C19.282 11.357 19.6227 11.9972 19.5871 12.673C19.5495 13.3853 18.5192 14.3925 16.4585 16.4068L9.25071 23.4527C7.57009 25.0955 6.72975 25.917 6.317 26.6402C4.75366 29.3793 5.59993 32.8621 8.24601 34.5789C8.94462 35.0322 10.0682 35.3767 12.3155 36.0655C13.0185 36.2811 13.37 36.3888 13.5862 36.5299C14.4059 37.0645 14.6592 38.1496 14.1609 38.9917C14.0295 39.2139 13.762 39.4661 13.227 39.9705L5.43415 47.3177C3.35501 49.278 3.35206 52.5825 5.42768 54.5467C7.55674 56.5609 10.9579 56.3072 12.764 53.9988L21.2619 43.1373C23.8562 39.8215 25.1534 38.1636 25.0756 36.4803C25.0454 35.827 24.8747 35.188 24.5749 34.6068C23.8025 33.109 21.8511 32.3188 17.9483 30.7385C16.5647 30.1783 15.8729 29.8981 15.6297 29.3763C15.5357 29.1748 15.489 28.9545 15.4931 28.7322C15.5035 28.1567 16.0221 27.6199 17.0592 26.5464L23.5474 19.8307C25.2007 18.1196 26.0273 17.264 26.6669 17.1793C27.3838 17.0843 28.0902 17.4154 28.4757 18.0271C28.8197 18.5728 28.6905 19.7554 28.4322 22.1204L27.5527 30.1724C27.2483 32.9587 29.5305 35.3461 32.3285 35.1682C34.6855 35.0184 36.5289 33.0782 36.5575 30.7171L36.6889 19.8682Z" fill="#E9E9E9"/>
</g>
<path d="M59.4879 13C54.9999 13 51.1947 16.31 51.1947 20.4726C51.1947 25.3374 54.4147 27.3937 59.3411 30.6034C62.5605 32.7097 64.0729 35.0669 64.0729 38.076C64.0729 42.0881 61.6339 44.7964 58.6098 44.7964C55.2922 44.7964 53.5851 41.7371 52.5609 37.3739C52.2195 35.9194 52.4142 35.6687 51.6828 35.6687C51.2438 35.6687 51 35.6687 51 39.2797C51 44.3952 51 44.5958 53.3413 45.3982C54.5608 45.7994 55.9756 46 57.5364 46C63.1463 46 67 42.2888 67 36.6216C67 31.3055 63.7315 29.2994 58.9512 26.3405C55.8779 24.4347 54.1218 22.2781 54.1218 19.0684C54.1218 16.4104 56.2193 14.2036 58.7068 14.2036C60.8044 14.2036 62.073 15.6079 63.0972 17.9651C64.219 20.5228 63.8776 21.9772 64.561 21.9772C64.951 21.9772 65.0486 21.927 65.0971 21.5258C65.1462 21.225 65.1462 19.5198 65.1462 16.1596C65.1462 14.5046 64.951 14.4043 63.9267 13.9529C62.951 13.5015 61.0487 13 59.4879 13Z" fill="#E9E9E9"/>
<path d="M73.7597 15C73.2792 15 73.1346 16.1366 71.6924 18.6167C70.01 21.51 69 22.2333 69 22.8017C69 23.3183 69.1924 23.37 70.2503 23.37C70.7792 23.37 71.3081 23.525 71.3081 24.2483V41.505C71.3081 44.3983 72.2692 46 75.01 46C78.327 46 79 41.8667 79 41.2467C79 40.9366 78.8081 40.8333 78.5673 40.8333C78.1346 40.8333 77.8465 41.7633 77.4138 42.5383C76.9811 43.2616 76.4044 43.83 75.5868 43.83C74.3371 43.83 74.1924 42.8483 74.1924 41.815V24.6617C74.1924 23.7833 74.4327 23.7833 75.01 23.7833H76.8849C78.1346 23.7833 78.2792 23.37 78.2792 22.8017C78.2792 22.13 77.9427 22.0266 76.8371 22.0266H75.1062C74.4327 22.0266 74.1924 21.6133 74.1924 21.045V16.1366C74.1924 15.2583 74.0962 15 73.7597 15Z" fill="#E9E9E9"/>
<path d="M89.9551 22C84.1728 22 80 26.6891 80 29.563C80 30.3698 80.2513 30.6723 81.0557 30.6723C82.1114 30.6723 83.469 30.3193 84.2734 27.395C85.0279 24.7227 86.5361 23.2101 88.6981 23.2101C90.307 23.2101 90.8601 24.1681 90.8601 26.4874V29.311C90.8601 30.9748 90.8101 30.9748 86.1842 34.3026C81.6589 37.5798 80.2007 38.9916 80.2007 41.563C80.2007 44.2857 81.6589 46 83.8715 46C86.2848 46 87.8437 44.9916 89.6532 43.1765C90.1563 42.6723 90.5082 42.3193 90.7595 42.3193C91.0614 42.3193 91.1114 42.6723 91.2627 43.2773C91.7152 45.042 92.469 45.7983 94.0279 45.7983C96.6424 45.7983 98 43.0756 98 41.7647C98 41.1596 97.8494 41.0084 97.5975 41.0084C97.2456 41.0084 97.0949 41.563 96.8937 42.1176C96.6924 42.7227 96.2399 43.2773 95.2848 43.2773C94.3297 43.2773 93.8772 42.5714 93.8772 41.3613V25.3782C93.8772 23.0588 93.1728 22 89.9551 22ZM83.5196 40.9579C83.5196 38.8404 84.6253 37.1765 86.6367 35.4118C88.6481 33.6471 89.9551 32.7899 90.4582 32.7899C90.7595 32.7899 90.8601 32.9916 90.8601 33.2941V39.2437C90.8601 40.4538 90.3576 41.1596 89.6532 41.8655C88.5475 42.9748 87.3405 43.8823 86.0335 43.8823C84.6253 43.8823 83.5196 42.9244 83.5196 40.9579Z" fill="#E9E9E9"/>
<path d="M103.398 9C102.987 9 102.113 9.77954 98.8737 10.9228C98.0511 11.2345 98 11.3385 98 11.5983C98 11.9621 98 12.0141 99.3365 12.2739C100.417 12.4818 100.571 12.8975 100.571 13.4691V43.4017C100.571 44.493 99.9539 44.5969 99.1824 44.7528C98.6685 44.8568 98.1029 44.9088 98.1029 45.3764C98.1029 45.7922 98.3087 46 98.7197 46C99.0795 46 100.982 45.7922 102.37 45.7922C103.398 45.7922 105.764 46 106.226 46C106.483 46 106.74 45.7922 106.74 45.5324C106.74 44.9607 106.072 44.8568 105.249 44.7528C104.17 44.6489 103.656 44.1812 103.656 42.5183V36.2304C103.656 35.0351 105.558 33.4242 105.764 33.4242C106.123 33.4242 109.26 39.1405 110.596 41.5309C111.368 42.934 111.779 43.8175 111.779 44.1292C111.779 44.5969 111.265 44.7009 110.751 44.8048C110.133 44.9088 109.671 45.0126 109.671 45.4803C109.671 45.8441 109.877 46 110.339 46C110.853 46 112.293 45.7922 113.784 45.7922C115.481 45.7922 116.715 46 117.177 46C117.743 46 118 45.8961 118 45.4284C118 45.0646 117.897 44.9607 116.715 44.7528C116.046 44.6489 115.583 44.0253 114.195 41.7388C112.036 38.1531 110.493 34.9832 108.54 31.8652C108.437 31.7093 107.974 30.9817 107.974 30.7219C107.974 30.4101 108.283 30.0464 108.848 29.4227L110.442 27.6559C110.853 27.1882 111.933 26.1489 113.013 25.1615C114.041 24.2261 115.07 23.4986 115.892 23.2908C116.509 23.1348 116.818 22.927 116.818 22.6152C116.818 22.1995 116.612 22.0955 115.943 22.0955C115.07 22.0955 113.681 22.3034 112.344 22.3034C111.111 22.3034 109.722 22.0955 108.797 22.0955C107.974 22.0955 107.82 22.2514 107.82 22.6671C107.82 22.927 107.974 23.1868 108.385 23.2908C109.363 23.4986 110.596 23.4467 110.596 24.5899C110.596 25.1095 110.596 25.4733 107.409 29.2669L104.992 32.125C104.786 32.3849 104.324 32.9045 103.964 32.9045C103.707 32.9045 103.656 32.5408 103.656 31.6573V9.62359C103.656 9.25982 103.604 9 103.398 9Z" fill="#E9E9E9"/>
<path d="M124.557 22C120.077 22 116 26.2353 116 34.5042C116 41.3109 119.171 46 124.758 46C128.584 46 131 42.6723 131 39.9496C131 39.4454 130.899 39.2941 130.648 39.2941C130.396 39.2941 130.245 39.7479 129.993 40.5042C129.238 42.7731 127.728 43.8823 125.261 43.8823C121.688 43.8823 119.322 39.8992 119.322 34.1009C119.322 33.3446 119.725 33.0924 120.379 33.0924H129.842C130.899 33.0924 130.899 32.6891 130.899 30.0672C130.899 24.874 128.181 22 124.557 22ZM119.423 30.5714C119.423 26.4874 121.537 23.2101 124.205 23.2101C126.57 23.2101 128.08 25.3277 128.08 28.7059C128.08 29.9664 127.93 30.5714 127.426 30.9748C126.621 31.6302 122.544 31.6807 121.688 31.6807C119.423 31.6807 119.423 31.4286 119.423 30.5714Z" fill="#E9E9E9"/>
<path d="M133.811 13C133.355 13 133 13.2082 133 13.5726C133 14.1451 133.456 14.1451 133.912 14.2492C135.534 14.5615 135.839 14.5615 135.839 16.9558V41.3675C135.839 44.1783 135.586 44.1783 133.963 44.5426C133.456 44.6467 133 44.7508 133 45.3234C133 45.8439 133.304 46 133.963 46C134.775 46 135.839 45.7918 137.613 45.7918C139.032 45.7918 139.995 46 140.756 46C141.77 46 142.074 45.8439 142.074 45.3754C142.074 44.907 141.617 44.7508 140.959 44.6988C139.184 44.5947 139.184 42.6688 139.184 41.1593V30.489C139.184 29.8123 140.452 28.1988 140.908 28.1988C141.009 28.1988 141.263 28.2508 141.922 29.6562C142.682 31.2698 144.456 34.7571 147.751 41.4717C148.208 42.3565 148.41 42.929 148.41 43.3975C148.41 44.1262 147.903 44.3864 147.245 44.4906C146.433 44.6467 145.47 44.5947 145.47 45.2713C145.47 45.7918 145.775 46 146.737 46C147.447 46 148.867 45.7918 150.539 45.7918C152.009 45.7918 153.023 46 153.936 46C154.797 46 155 45.6877 155 45.3234C155 44.959 154.747 44.8549 154.341 44.7508C153.936 44.6467 153.428 44.4905 153.175 44.3344C152.82 44.1262 152.263 43.5016 150.945 40.795L143.645 26.0647C143.442 25.7003 143.29 25.3359 143.29 25.1798C143.29 24.6073 144.609 22.7855 147.245 19.5063C150.083 15.9669 151.908 14.3013 153.175 14.1972C154.341 14.0931 154.341 13.8848 154.341 13.5726C154.341 13.1561 154.037 13 153.277 13C152.668 13 151.3 13.2082 149.931 13.2082C148.867 13.2082 146.687 13 146.383 13C145.622 13 145.369 13.2602 145.369 13.5726C145.369 14.1451 145.977 14.1451 146.636 14.3013C147.346 14.4574 148.056 14.6656 148.056 15.4464C148.056 16.6956 143.037 23.0458 141.567 24.8155C140.249 26.429 139.489 27.5742 139.337 27.5742C139.235 27.5742 139.184 27.3139 139.184 26.429V16.071C139.184 14.5094 140.35 14.4574 141.009 14.3013C141.719 14.1451 142.074 14.2492 142.074 13.6246C142.074 13.2082 141.871 13 141.212 13C140.3 13 138.981 13.2082 137.714 13.2082C136.143 13.2082 134.42 13 133.811 13Z" fill="#E9E9E9"/>
<path d="M158.449 13C157.489 13 156.578 13.7808 156.578 15.6025C156.578 17.2682 157.337 18.205 158.399 18.205C159.46 18.205 160.32 17.4764 160.32 15.6025C160.32 13.7808 159.46 13 158.449 13ZM159.562 21.6404C159.259 21.6404 158.196 22.8375 155.972 23.6704C154.758 24.1388 154.354 24.347 154.354 24.6593C154.354 25.2319 155.011 25.1798 155.668 25.388C156.326 25.5963 156.932 25.8565 156.932 27.0016V42.6167C156.932 44.1262 156.528 44.4905 155.163 44.6988C154.455 44.8029 154 44.959 154 45.4275C154 45.7918 154.202 46 154.657 46C154.809 46 155.82 45.7918 158.399 45.7918C160.775 45.7918 161.736 46 162.242 46C162.849 46 163 45.8439 163 45.4795C163 44.907 162.242 44.907 161.483 44.6988C160.624 44.4385 159.966 44.2303 159.966 42.5126V22.1609C159.966 21.9007 159.865 21.6404 159.562 21.6404Z" fill="#E9E9E9"/>
<path d="M169.236 15C168.706 15 168.548 16.1366 166.962 18.6167C165.11 21.51 164 22.2333 164 22.8017C164 23.3183 164.212 23.37 165.375 23.37C165.957 23.37 166.538 23.525 166.538 24.2483V41.505C166.538 44.3983 167.596 46 170.61 46C174.26 46 175 41.8667 175 41.2467C175 40.9366 174.788 40.8333 174.524 40.8333C174.048 40.8333 173.731 41.7633 173.255 42.5383C172.779 43.2616 172.144 43.83 171.245 43.83C169.87 43.83 169.712 42.8483 169.712 41.815V24.6617C169.712 23.7833 169.976 23.7833 170.61 23.7833H172.673C174.048 23.7833 174.207 23.37 174.207 22.8017C174.207 22.13 173.836 22.0266 172.62 22.0266H170.716C169.976 22.0266 169.712 21.6133 169.712 21.045V16.1366C169.712 15.2583 169.606 15 169.236 15Z" fill="#E9E9E9"/>
</g>
<defs>
<clipPath id="clip0_23_2032">
<rect width="175" height="56" fill="white"/>
</clipPath>
</defs>
</svg>
