<svg width="199" height="56" viewBox="0 0 199 56" fill="none" xmlns="http://www.w3.org/2000/svg">
<g clip-path="url(#clip0_23_2075)">
<path d="M22.3256 11.8605H1.3133C0.587907 11.8605 0 12.4852 0 13.2558V16.0465C0 16.8171 0.587907 17.4419 1.3133 17.4419H22.3256C23.051 17.4419 23.6389 16.8171 23.6389 16.0465V13.2558C23.6389 12.4852 23.051 11.8605 22.3256 11.8605Z" fill="#E9E9E9"/>
<path fill-rule="evenodd" clip-rule="evenodd" d="M10.8344 0C10.1092 0 9.52112 0.624744 9.52112 1.39535V41.8605H9.52986C9.78921 49.6134 15.7862 55.814 23.1464 55.814C23.422 55.814 23.6956 55.8052 23.9673 55.7881V51.2778C19.0396 51.1877 15.0404 47.0504 14.787 41.8605H14.7743V1.39535C14.7743 0.624744 14.1864 0 13.461 0H10.8344ZM27.8175 31.0465C26.994 31.0465 26.1968 30.925 25.4402 30.6977H27.8175V26.4997C30.2028 26.3273 32.0856 24.29 32.0856 21.8022C32.0856 19.3146 30.2028 17.2772 27.8175 17.1047V11.8605C32.7133 11.8605 36.682 16.1553 36.682 21.4534C36.682 26.7514 32.7133 31.0465 27.8175 31.0465ZM26.8326 11.8605C26.1072 11.8605 25.5193 12.4852 25.5193 13.2558V15.6977C25.5193 16.4683 26.1072 17.093 26.8326 17.093H27.8175V11.8605H26.8326Z" fill="#E9E9E9"/>
<path d="M18.9529 27.9069C18.9529 27.1363 19.5408 26.5116 20.266 26.5116H28.8024V32.093H20.266C19.5408 32.093 18.9529 31.4682 18.9529 30.6976V27.9069Z" fill="#E9E9E9"/>
<path fill-rule="evenodd" clip-rule="evenodd" d="M28.8024 55.8139C36.2368 55.8139 42.2634 49.4887 42.2634 41.6859C42.2634 33.8833 36.2368 27.5581 28.8024 27.5581V32.0945C33.7131 32.1875 37.6669 36.4461 37.6669 41.6859C37.6669 46.9259 33.7131 51.1845 28.8024 51.2775V55.8139Z" fill="#E9E9E9"/>
<path d="M27.4891 52.6744C27.4891 51.9038 28.0771 51.2791 28.8025 51.2791V55.8139C28.0771 55.8139 27.4891 55.1892 27.4891 54.4186V52.6744ZM23.6389 51.2791H24.2955C25.0209 51.2791 25.6088 51.9038 25.6088 52.6744V54.4186C25.6088 55.1892 25.0209 55.8139 24.2955 55.8139H23.6389V51.2791Z" fill="#E9E9E9"/>
<path d="M82.359 22.3063C82.359 22.1582 82.3002 22.0163 82.1956 21.9116C82.0909 21.8069 81.9489 21.7481 81.8009 21.7481H59.1628C59.0147 21.7481 58.8728 21.8069 58.7681 21.9116C58.6634 22.0163 58.6046 22.1582 58.6046 22.3063V24.5656C58.6046 24.7136 58.6634 24.8556 58.7681 24.9603C58.8728 25.065 59.0147 25.1238 59.1628 25.1238H67.8563V45.5695C67.8563 45.7176 67.9151 45.8595 68.0198 45.9642C68.1245 46.0689 68.2664 46.1277 68.4145 46.1277H72.5804C72.7285 46.1277 72.8704 46.0689 72.9751 45.9642C73.0798 45.8595 73.1386 45.7176 73.1386 45.5695V25.1238H81.8009C81.9489 25.1238 82.0909 25.065 82.1956 24.9603C82.3002 24.8556 82.359 24.7136 82.359 24.5656V22.3063ZM85.3979 45.5695C85.3979 45.7176 85.4567 45.8595 85.5614 45.9642C85.6661 46.0689 85.808 46.1277 85.9561 46.1277H99.3068C107.965 46.1277 110.121 44.1585 110.121 40.7204V37.8761C110.121 35.657 109.215 34.1879 105.87 33.5316C108.871 32.8752 109.684 31.5312 109.684 29.4058V27.0304C109.684 23.561 107.621 21.7794 98.9629 21.7794H85.9561C85.808 21.7794 85.6661 21.8382 85.5614 21.9429C85.4567 22.0475 85.3979 22.1895 85.3979 22.3375V45.5695ZM90.6802 32.0938V24.9987H98.9004C103.683 24.9987 104.433 26.0927 104.433 27.4679V29.4683C104.433 30.9998 103.683 32.0938 98.9004 32.0938H90.6802ZM90.6802 42.9083V35.0319H99.3068C104.058 35.0319 104.839 36.4696 104.839 37.8136V40.2828C104.839 41.8144 104.058 42.9083 99.3068 42.9083H90.6802ZM126.957 21.3105C116.861 21.3105 114.298 24.3424 114.298 28.2806V39.6265C114.298 43.5647 116.861 46.5965 126.957 46.5965C137.021 46.5965 139.584 43.5647 139.584 39.6265V28.2806C139.584 24.3424 137.021 21.3105 126.957 21.3105ZM134.302 28.6244V39.2826C134.302 41.1892 133.177 43.1896 126.957 43.1896C120.706 43.1896 119.58 41.1892 119.58 39.2826V28.6244C119.58 26.7178 120.706 24.7174 126.957 24.7174C133.177 24.7174 134.302 26.7178 134.302 28.6244ZM156.387 21.3105C146.291 21.3105 143.729 24.3424 143.729 28.2806V39.6265C143.729 43.5647 146.291 46.5965 156.387 46.5965C166.451 46.5965 169.014 43.5647 169.014 39.6265V28.2806C169.014 24.3424 166.451 21.3105 156.387 21.3105ZM163.732 28.6244V39.2826C163.732 41.1892 162.607 43.1896 156.387 43.1896C150.136 43.1896 149.011 41.1892 149.011 39.2826V28.6244C149.011 26.7178 150.136 24.7174 156.387 24.7174C162.607 24.7174 163.732 26.7178 163.732 28.6244ZM198.32 21.7481H191.831C191.702 21.7481 191.576 21.793 191.477 21.8748L178.91 32.1876V22.3063C178.91 22.1582 178.851 22.0163 178.746 21.9116C178.642 21.8069 178.5 21.7481 178.352 21.7481H174.186C174.038 21.7481 173.896 21.8069 173.791 21.9116C173.686 22.0163 173.627 22.1582 173.627 22.3063V45.5695C173.627 45.7176 173.686 45.8595 173.791 45.9642C173.896 46.0689 174.038 46.1277 174.186 46.1277H178.352C178.5 46.1277 178.642 46.0689 178.746 45.9642C178.851 45.8595 178.91 45.7176 178.91 45.5695V33.9692L191.47 45.9731C191.572 46.0722 191.712 46.1277 191.855 46.1277H198.32L184.411 33.0002L198.32 21.7481Z" fill="#E9E9E9"/>
</g>
<defs>
<clipPath id="clip0_23_2075">
<rect width="198.326" height="56" fill="white"/>
</clipPath>
</defs>
</svg>
