<svg width="44" height="28" viewBox="0 0 44 28" fill="none" xmlns="http://www.w3.org/2000/svg">
<path d="M21.695 0.54248H35.5487V2.11073H21.695V0.54248Z" fill="white"/>
<path d="M7.31837 0.54248H35.5487L35.5485 1.3266H7.31837V0.54248Z" fill="white"/>
<path d="M4.05199 3.15674H38.8168V3.94087H4.05199V3.15674Z" fill="white"/>
<path d="M2.09135 5.77051H40.777V6.55464H2.09135V5.77051Z" fill="white"/>
<path d="M0.261414 10.999H42.6065V11.7831H0.261414V10.999Z" fill="white"/>
<path d="M0.914963 8.38477H41.9532V9.1689H0.914963V8.38477Z" fill="white"/>
<path d="M18.4273 3.15674H38.8168L38.8158 4.5943H18.4273V3.15674Z" fill="white"/>
<path d="M16.468 5.77051H40.777L40.7773 7.07739H16.468V5.77051Z" fill="white"/>
<path d="M15.2917 8.38477H41.9531L41.9534 9.56096H15.2917V8.38477Z" fill="white"/>
<path d="M14.6381 10.999H42.6065L42.6068 12.0445H14.6381V10.999Z" fill="white"/>
<path d="M0 13.6128H42.8679V14.3969H0V13.6128Z" fill="white"/>
<path d="M7.31837 26.6777H35.5485V27.4618H7.31837V26.6777Z" fill="white"/>
<path d="M4.05199 24.0688H38.8168V24.853H4.05199V24.0688Z" fill="white"/>
<path d="M2.09135 21.4551H40.777V22.2392H2.09135V21.4551Z" fill="white"/>
<path d="M0.914963 18.8408H41.9532V19.6249H0.914963V18.8408Z" fill="white"/>
<path d="M0.261414 16.2271H42.6065V17.0113H0.261414V16.2271Z" fill="white"/>
<path d="M0.261414 15.9629H28.2301V17.0084H0.261414V15.9629Z" fill="white"/>
<path d="M0.914963 18.4473H27.5768V19.6235H0.914963V18.4473Z" fill="white"/>
<path d="M2.09135 20.9321H26.4006V22.239L2.09135 22.2391V20.9321Z" fill="white"/>
<path d="M4.05199 23.4116H24.4404V24.8492H4.05199V23.4116Z" fill="white"/>
<path d="M7.31837 25.896H21.172V27.4643H7.31837V25.896Z" fill="white"/>
</svg>
