<svg width="275" height="56" viewBox="0 0 275 56" fill="none" xmlns="http://www.w3.org/2000/svg">
<path d="M223.503 20.6607C223.481 20.6389 223.448 20.6062 223.426 20.5844C221.621 18.6771 219.101 17.5 216.305 17.5C210.824 17.5 206.377 22.0557 206.377 27.6796C206.377 33.3035 210.824 37.859 216.305 37.859C219.167 37.859 221.753 36.6165 223.57 34.622C223.57 34.622 223.591 34.6115 223.58 34.6115C223.085 33.979 220.686 31.6905 220.686 31.6905H220.598C219.53 32.8895 218.011 33.652 216.305 33.652C213.091 33.652 210.483 30.982 210.483 27.6796C210.483 24.3881 213.091 21.707 216.305 21.707C218.011 21.707 219.541 22.4808 220.598 23.6797" fill="#E9E9E9"/>
<path d="M195.327 17.5C189.725 17.5 185.179 22.0993 185.179 27.7668C185.179 33.434 189.725 38.0335 195.327 38.0335C200.93 38.0335 205.475 33.434 205.475 27.7668C205.486 22.0884 200.94 17.5 195.327 17.5ZM195.327 33.783C192.036 33.783 189.373 31.091 189.373 27.7668C189.373 24.4426 192.036 21.7506 195.327 21.7506C198.618 21.7506 201.281 24.4426 201.281 27.7668C201.281 31.091 198.618 33.783 195.327 33.783Z" fill="#E9E9E9"/>
<path d="M274 17.5V22.0775H269.014V37.8485H264.238V22.0775H259.219V17.5H274Z" fill="#E9E9E9"/>
<path d="M230.03 17.5V27.0583L236.337 17.5H240.849L234.917 26.4262L242.06 37.8485H236.865L231.747 30.677L230.019 33.1835V37.8485H225.385V17.5H230.03Z" fill="#E9E9E9"/>
<path d="M257.348 21.38H247.761V25.5543H255.301V29.3905H247.761V33.8375H257.348V37.859H242.962V17.5H257.348V21.38Z" fill="#E9E9E9"/>
<path d="M177.155 17.5H172.543H167.822V37.3035V37.859H172.543V37.3035V33.042H177.155C180.787 33.042 183.737 29.565 183.737 25.2709C183.737 20.9768 180.787 17.5 177.155 17.5ZM175.251 28.824H172.543V21.4999H175.251C177.386 21.4999 179.676 22.3173 179.676 25.1619C179.676 27.8648 177.397 28.824 175.251 28.824Z" fill="#E9E9E9"/>
<path d="M95.3891 17.5C89.7869 17.5 85.241 22.0993 85.241 27.7668C85.241 33.434 89.7869 38.0335 95.3891 38.0335C100.991 38.0335 105.537 33.434 105.537 27.7668C105.537 22.0884 100.991 17.5 95.3891 17.5ZM95.3891 33.783C92.0979 33.783 89.4344 31.091 89.4344 27.7668C89.4344 24.4426 92.0979 21.7506 95.3891 21.7506C98.6797 21.7506 101.343 24.4426 101.343 27.7668C101.343 31.091 98.6797 33.783 95.3891 33.783Z" fill="#E9E9E9"/>
<path d="M84.8006 17.5872V22.1647H79.8149V37.9355H75.0272V22.1647H70.0082V17.5872H84.8006Z" fill="#E9E9E9"/>
<path d="M140.647 21.4674H131.06V25.6417H138.6V29.478H131.06V33.925H140.647V37.9465H126.261V17.5874H140.647V21.4674Z" fill="#E9E9E9"/>
<path d="M158.588 17.5874V37.9355H154.559L146.679 24.1922C146.689 24.5409 146.701 24.7698 146.712 24.8788C146.756 25.2276 146.767 25.5218 146.767 25.7616V37.9465H143.091V17.5874H148.175L155.021 29.587C154.966 28.9875 154.933 28.541 154.933 28.2355V17.5874H158.588Z" fill="#E9E9E9"/>
<path d="M111.7 17.5874L111.723 25.8814L119.427 17.5656L123.764 17.5547L116.565 26.4809L124.523 37.914L119.537 37.9245L113.549 29.6525L111.744 31.3745L111.755 37.9465L107.309 37.9575L107.254 17.5983L111.7 17.5874Z" fill="#E9E9E9"/>
<mask id="mask0_23_2159" style="mask-type:luminance" maskUnits="userSpaceOnUse" x="0" y="10" width="57" height="36">
<path d="M56.3462 10H0V46H56.3462V10Z" fill="white"/>
</mask>
<g mask="url(#mask0_23_2159)">
<path d="M18.4714 22.381H18.4816C18.4714 22.3208 18.4714 22.2506 18.4714 22.1904V22.381Z" fill="#E9E9E9"/>
<path d="M38.6449 24.2876H27.4794V44.244C27.4794 45.1875 28.2494 45.95 29.2017 45.95H36.9226C37.8749 45.95 38.6449 45.1875 38.6449 44.244V24.2876Z" fill="#E9E9E9"/>
<path d="M22.0888 10H21.7136H1.72252C0.770069 10 0 10.7625 0 11.7057V18.6287C0 19.5719 0.770069 20.3344 1.72252 20.3344H6.41373H8.27793V22.3812V44.2945C8.27793 45.2375 9.04846 46 10.0008 46H17.3364C18.2892 46 19.0592 45.2375 19.0592 44.2945V22.3812V22.1907V20.3344H20.9234H21.6833H22.058C24.9356 20.3344 27.2765 18.0167 27.2765 15.1672C27.3067 12.3177 24.9664 10 22.0888 10Z" fill="#E9E9E9"/>
<path d="M38.6545 24.2876V38.214C39.0398 38.3045 39.4352 38.3745 39.8401 38.435C40.4077 38.515 40.9954 38.565 41.5831 38.575C41.6134 38.575 41.6437 38.575 41.6841 38.575V27.4983C39.9921 27.3879 38.6545 25.9933 38.6545 24.2876Z" fill="#E9E9E9"/>
<path d="M41.9078 10C33.9435 10 27.4794 16.4014 27.4794 24.2876C27.4794 31.07 32.2515 36.749 38.655 38.214V24.2876C38.655 22.5117 40.1142 21.0669 41.9078 21.0669C43.7013 21.0669 45.16 22.5117 45.16 24.2876C45.16 25.7826 44.137 27.0368 42.7384 27.398C42.4753 27.4682 42.1915 27.5084 41.9078 27.5084V38.575C42.1915 38.575 42.4652 38.565 42.7384 38.555C50.3174 38.1235 56.3361 31.903 56.3361 24.2876C56.3462 16.4014 49.8821 10 41.9078 10Z" fill="#E9E9E9"/>
<path d="M41.9087 38.575V27.5081C41.8271 27.5081 41.7556 27.5081 41.6746 27.498V38.575C41.7556 38.575 41.8372 38.575 41.9087 38.575Z" fill="#E9E9E9"/>
</g>
</svg>
