<svg width="102" height="28" viewBox="0 0 102 28" fill="none" xmlns="http://www.w3.org/2000/svg">
<g clip-path="url(#clip0_549_230)">
<mask id="mask0_549_230" style="mask-type:luminance" maskUnits="userSpaceOnUse" x="0" y="0" width="102" height="28">
<path d="M101.282 0H0V28H101.282V0Z" fill="white"/>
</mask>
<g mask="url(#mask0_549_230)">
<path d="M25.2335 0.92085L20.6255 27.3448C20.5935 27.5279 20.4968 27.6941 20.3524 27.8139C20.2079 27.9337 20.025 27.9994 19.836 27.9996H5.4083C5.21929 27.9994 5.0364 27.9337 4.89194 27.8139C4.74747 27.6941 4.65072 27.5279 4.61877 27.3448L0.0115268 0.92085C-0.00819268 0.807778 -0.00255778 0.691828 0.0280234 0.58112C0.0586044 0.470412 0.1134 0.367599 0.188586 0.279871C0.263771 0.192142 0.357526 0.121609 0.463313 0.0732011C0.569099 0.0247937 0.684368 -0.000299339 0.801053 -0.000370008H5.14379C5.33245 -0.000352025 5.51505 0.0650901 5.65946 0.184443C5.80388 0.303796 5.90084 0.469393 5.93329 0.652116L9.25331 19.3288C9.57389 21.0624 10.9261 22.2177 12.6438 22.2177C14.3166 22.2177 15.672 21.0624 16.0343 19.3288L19.3094 0.652116C19.3415 0.468971 19.4384 0.302897 19.5831 0.183212C19.7277 0.0635269 19.9107 -0.00205095 20.0997 -0.00194764H24.4409C24.558 -0.00237714 24.6737 0.0224009 24.7801 0.0707003C24.8863 0.118999 24.9806 0.189634 25.0562 0.2776C25.1318 0.365567 25.1868 0.468758 25.2175 0.579889C25.2481 0.691021 25.2536 0.807405 25.2335 0.92085Z" fill="white"/>
<path d="M47.749 27.9999H35.2699C30.4975 27.9999 26.6052 24.1969 26.6261 19.5056C26.6485 14.4669 30.0783 11.1106 35.2145 11.1106H40.6049C40.9668 11.1118 41.3252 11.0424 41.6596 10.9065C41.994 10.7705 42.2976 10.5708 42.553 10.3188C42.8084 10.0668 43.0104 9.76748 43.1473 9.43823C43.2843 9.10897 43.3535 8.75623 43.351 8.40054C43.3318 6.82441 42.2521 5.77793 40.6394 5.77793H31.0433C30.8308 5.77793 30.6269 5.69488 30.4766 5.54709C30.3262 5.3993 30.2418 5.19888 30.2418 4.98988V0.788046C30.2418 0.579042 30.3262 0.378582 30.4766 0.230795C30.6269 0.0830083 30.8308 0 31.0433 0H47.749C47.9616 0 48.1655 0.0830083 48.3158 0.230795C48.4661 0.378582 48.5506 0.579042 48.5506 0.788046V27.2119C48.5506 27.3154 48.5298 27.4179 48.4896 27.5135C48.4493 27.6091 48.3902 27.696 48.3158 27.7692C48.2414 27.8424 48.153 27.9004 48.0558 27.94C47.9585 27.9796 47.8543 27.9999 47.749 27.9999ZM43.3486 19.5553C43.3486 17.9556 42.2633 16.8885 40.6362 16.8885H35.2114C33.5842 16.8885 32.4989 17.9556 32.4989 19.5553C32.4989 21.1551 33.5842 22.2221 35.2114 22.2221H40.6362C42.2665 22.2221 43.3486 21.1551 43.3486 19.5553Z" fill="white"/>
<path d="M75.7927 10.8884V27.2119C75.7927 27.4209 75.7084 27.6214 75.5578 27.7692C75.4079 27.917 75.2038 27.9999 74.9912 27.9999H70.7172C70.5046 27.9999 70.3011 27.917 70.1505 27.7692C70 27.6214 69.9157 27.4209 69.9157 27.2119V10.9254C69.9157 8.08845 67.5842 5.77084 64.7011 5.77793C61.5904 5.78502 59.5182 7.82687 59.5182 10.8884V27.2119C59.5182 27.4209 59.4338 27.6214 59.2835 27.7692C59.1332 27.917 58.9293 27.9999 58.7167 27.9999H54.4437C54.2311 27.9999 54.0272 27.917 53.8769 27.7692C53.7266 27.6214 53.6422 27.4209 53.6422 27.2119V0.788046C53.6422 0.579042 53.7266 0.378582 53.8769 0.230795C54.0272 0.0830083 54.2311 0 54.4437 0H64.7173C71.3627 0 75.7927 4.35552 75.7927 10.8884Z" fill="white"/>
<path d="M100.473 27.9999H87.9911C83.219 27.9999 79.3267 24.1969 79.3472 19.5056C79.3701 14.4669 82.7999 11.1106 87.9357 11.1106H93.3261C93.688 11.1118 94.0469 11.0424 94.3811 10.9065C94.7153 10.7706 95.0194 10.5709 95.2747 10.3188C95.53 10.0668 95.7323 9.76754 95.869 9.43829C96.0063 9.10903 96.0755 8.75629 96.0731 8.40054C96.0533 6.82441 94.9736 5.77793 93.361 5.77793H83.767C83.5544 5.77793 83.3509 5.69488 83.2003 5.54709C83.0498 5.3993 82.9655 5.19888 82.9655 4.98988V0.788046C82.9655 0.579042 83.0498 0.378582 83.2003 0.230795C83.3509 0.0830083 83.5544 0 83.767 0H100.473C100.686 0 100.889 0.0830083 101.04 0.230795C101.19 0.378582 101.275 0.579042 101.275 0.788046V27.2119C101.275 27.3154 101.253 27.4179 101.213 27.5135C101.173 27.6091 101.114 27.696 101.04 27.7692C100.965 27.8424 100.877 27.9004 100.78 27.94C100.683 27.9796 100.578 27.9999 100.473 27.9999ZM96.0755 19.5553C96.0755 17.9556 94.9905 16.8885 93.3634 16.8885H87.9381C86.3111 16.8885 85.226 17.9556 85.226 19.5553C85.226 21.1551 86.3111 22.2221 87.9381 22.2221H93.3616C94.9905 22.2221 96.0755 21.1551 96.0755 19.5553Z" fill="white"/>
</g>
</g>
<defs>
<clipPath id="clip0_549_230">
<rect width="101.282" height="28" fill="white"/>
</clipPath>
</defs>
</svg>
